;TYPE=PLATED
;Layer: PTH_Through_Via
;EasyEDA Pro v3.2.149.88089769, 2026-10-02 10:17:40
;Gerber Generator version 0.3
M48
METRIC,LZ,0000.00000
;Hole size 1 = 0.30500 METRIC
T01C0.30500
%
G05
G90
T01
X36.29079Y-48.29121
X38.354Y-41.275
X39.37Y-39.497
X40.98577Y-40.54823
X56.388Y-39.497
X56.388Y-40.513
X29.972Y-43.688
X30.988Y-44.45
X31.242Y-45.72
X33.01581Y-46.10519
X56.896Y-57.023
X56.515Y-52.451
X57.658Y-48.133
X32.131Y-42.672
X26.797Y-36.957
X76.327Y-45.212
X77.33308Y-45.212
X78.33952Y-45.212
X79.34596Y-45.212
X80.35239Y-45.212
X81.35883Y-45.212
X76.327Y-46.101
X77.33308Y-46.101
X78.33952Y-46.101
X79.34596Y-46.101
X80.35239Y-46.101
X81.35883Y-46.101
X76.34502Y-47.05144
X77.35109Y-47.05144
X78.35753Y-47.05144
X79.36397Y-47.05144
X80.37041Y-47.05144
X81.37685Y-47.05144
X76.327Y-47.879
X77.33308Y-47.879
X78.33952Y-47.879
X79.34596Y-47.879
X80.35239Y-47.879
X81.35883Y-47.879
X76.327Y-48.895
X77.33308Y-48.895
X78.33952Y-48.895
X79.34596Y-48.895
X80.35239Y-48.895
X81.35883Y-48.895
X76.327Y-49.784
X77.33308Y-49.784
X78.33952Y-49.784
X79.34596Y-49.784
X80.35239Y-49.784
X81.35883Y-49.784
M30