;TYPE=PLATED
;Layer: PTH_Through
;EasyEDA Pro v3.2.149.88089769, 2026-10-02 10:17:40
;Gerber Generator version 0.3
M48
METRIC,LZ,0000.00000
;Hole size 1 = 0.30500 METRIC
T01C0.30500
;Hole size 2 = 0.70002 METRIC
T02C0.70002
;Hole size 3 = 0.76200 METRIC
T03C0.76200
;Hole size 4 = 1.00000 METRIC
T04C1.00000
;Hole size 5 = 1.10002 METRIC
T05C1.10002
;Hole size 6 = 1.40000 METRIC
T06C1.40000
;Hole size 7 = 1.52400 METRIC
T07C1.52400
;Hole size 8 = 2.50002 METRIC
T08C2.50002
%
G05
G90
T01
X36.29079Y-48.29121
X38.354Y-41.275
X39.37Y-39.497
X40.98577Y-40.54823
X56.388Y-39.497
X56.388Y-40.513
X29.972Y-43.688
X30.988Y-44.45
X31.242Y-45.72
X33.01581Y-46.10519
X56.896Y-57.023
X56.515Y-52.451
X57.658Y-48.133
X32.131Y-42.672
X26.797Y-36.957
X76.327Y-45.212
X77.33308Y-45.212
X78.33952Y-45.212
X79.34596Y-45.212
X80.35239Y-45.212
X81.35883Y-45.212
X76.327Y-46.101
X77.33308Y-46.101
X78.33952Y-46.101
X79.34596Y-46.101
X80.35239Y-46.101
X81.35883Y-46.101
X76.34502Y-47.05144
X77.35109Y-47.05144
X78.35753Y-47.05144
X79.36397Y-47.05144
X80.37041Y-47.05144
X81.37685Y-47.05144
X76.327Y-47.879
X77.33308Y-47.879
X78.33952Y-47.879
X79.34596Y-47.879
X80.35239Y-47.879
X81.35883Y-47.879
X76.327Y-48.895
X77.33308Y-48.895
X78.33952Y-48.895
X79.34596Y-48.895
X80.35239Y-48.895
X81.35883Y-48.895
X76.327Y-49.784
X77.33308Y-49.784
X78.33952Y-49.784
X79.34596Y-49.784
X80.35239Y-49.784
X81.35883Y-49.784
T02
X19.558Y-40.513
X20.828Y-40.513
X22.098Y-40.513
X62.47201Y-33.59803
X67.32199Y-33.598
X68.52199Y-31.11793G85X68.52199Y-30.71796
X61.27201Y-31.11793G85X61.27201Y-30.71796
T03
X10.795Y-38.1
X13.335Y-35.56
X15.875Y-38.1
T04
X66.28399Y-43.18
X58.68401Y-43.18
X74.70394Y-55.372
X78.20406Y-55.372
X74.57694Y-39.624
X78.07706Y-39.624
X46.33194Y-31.90228
X43.79194Y-31.90228
X41.25194Y-31.90228
X38.71194Y-31.90228
X36.17194Y-31.90228
X33.63194Y-31.90228
X31.09194Y-31.90228
X28.55194Y-31.90228
X26.01194Y-31.90228
X23.47194Y-31.90228
X20.93194Y-31.90228
X18.39194Y-31.90228
X15.85194Y-31.90228
X13.31194Y-31.90228
X10.77194Y-31.90228
X8.23194Y-31.90228
X19.812Y-43.942
X19.812Y-46.482
X12.192Y-43.942
X12.192Y-46.482
T05
X58.801Y-30.861
X56.261Y-30.861
X53.721Y-30.861
T06
X68.03199Y-61.722
X63.03201Y-61.722
X41.70299Y-61.722
X36.703Y-61.722
X31.70301Y-61.722
X53.046Y-61.722
X48.04601Y-61.722
X4.064Y-47.16399
X4.064Y-42.164
X4.064Y-37.16401
T07
X24.11793Y-51.53152
X9.91799Y-57.531
X11.91801Y-63.53099
X11.91801Y-51.53101
X24.11801Y-63.53048
T08
X2.79444Y-31.90228G85X2.66945Y-31.90228
X2.79444Y-62.90227G85X2.66945Y-62.90227
X77.79445Y-31.90228G85X77.66945Y-31.90228
X77.79445Y-62.90227G85X77.66945Y-62.90227
M30