G04 Layer: TopSolderMaskLayer*
G04 EasyEDA Pro v3.2.149.88089769, 2026-09-30 13:01:49*
G04 Gerber Generator version 0.3*
G04 Scale: 100 percent, Rotated: No, Reflected: No*
G04 Dimensions in millimeters*
G04 Leading zeros omitted, absolute positions, 4 integers and 5 decimals*
G04 Generated by one-click*
G04 Object Configs: Pad,Via,Track,Text,Image,Dimension,BoardOutline,BoardCutout,CopperFilled,SolidRegion,FPCStiffener,Line,PlaneZone,ComponentProperty,ComponentSilkscreen,TearDrop*
G04 Layer Configs: 1,15,16,2,3,4,5,6,7,8,9,10,11,13,14,56*
G04 Copper Areas: 0*
%FSLAX45Y45*%
%MOMM*%
%AMRoundRect*1,1,$1,$2,$3*1,1,$1,$4,$5*1,1,$1,0-$2,0-$3*1,1,$1,0-$4,0-$5*20,1,$1,$2,$3,$4,$5,0*20,1,$1,$4,$5,0-$2,0-$3,0*20,1,$1,0-$2,0-$3,0-$4,0-$5,0*20,1,$1,0-$4,0-$5,$2,$3,0*4,1,4,$2,$3,$4,$5,0-$2,0-$3,0-$4,0-$5,$2,$3,0*%
%ADD10RoundRect,0.1016X-3.09999X2.89999X3.09999X2.89999*%
%ADD11C,1.9016*%
%ADD12C,1.7016*%
%ADD13RoundRect,0.1016X-0.4X0.45X0.4X0.45*%
%ADD14RoundRect,0.1016X-0.74251X0.86399X0.74251X0.86399*%
%ADD15RoundRect,0.1081X-1.035X1.03X1.035X1.03*%
%ADD16RoundRect,0.1016X-1.035X1.03X1.035X1.03*%
%ADD17RoundRect,0.1016X-1.03X-1.035X-1.03X1.035*%
%ADD18RoundRect,0.1016X-1.0X0.79651X1.0X0.79651*%
%ADD19RoundRect,0.1016X-0.85X0.85X0.85X0.85*%
%ADD20C,1.8016*%
%ADD21C,1.6256*%
%ADD22O,1.0016X1.7016*%
%ADD23RoundRect,0.1016X-0.45X0.8X0.45X0.8*%
%ADD24RoundRect,0.1016X-0.68851X-0.56627X-0.68851X0.56627*%
%ADD25RoundRect,0.1016X-0.432X-0.40324X-0.432X0.40324*%
%ADD26RoundRect,0.1016X-0.40324X0.432X0.40324X0.432*%
%ADD27C,2.8956*%
%ADD28RoundRect,0.10003X-1.5X1.0X1.5X1.0*%
%ADD29O,0.54961X1.78559*%
%ADD30O,1.78559X0.54961*%
%ADD31RoundRect,0.1016X-0.8X0.8X0.8X0.8*%
%ADD32C,3.30159*%
%ADD33O,2.1016X1.6256*%
%ADD34C,2.3*%
%ADD35C,2.3016*%
%ADD36RoundRect,0.10201X-0.2X1.0X0.2X1.0*%
%ADD37C,1.402*%
%ADD38C,1.4016*%
%ADD39O,1.4016X1.9016*%
G75*


G04 Pad Start*
G54D10*
G01X7888502Y-4764683D03*
G54D11*
G01X6628397Y-4318000D03*
G01X5868403Y-4318000D03*
G54D12*
G01X7470404Y-5537203D03*
G01X7820416Y-5537203D03*
G01X7457704Y-3962403D03*
G01X7807716Y-3962403D03*
G54D13*
G01X4210202Y-4394200D03*
G01X4070198Y-4394200D03*
G54D14*
G01X3853942Y-4610100D03*
G01X4172458Y-4610100D03*
G54D13*
G01X2800198Y-5283200D03*
G01X2940202Y-5283200D03*
G01X4768698Y-5321300D03*
G01X4908702Y-5321300D03*
G54D16*
G01X7046100Y-3327400D03*
G01X7431900Y-3327400D03*
G54D17*
G01X4165600Y-5755500D03*
G01X4165600Y-5369700D03*
G01X3200400Y-5717400D03*
G01X3200400Y-5331600D03*
G01X5156200Y-5742800D03*
G01X5156200Y-5357000D03*
G54D16*
G01X5971400Y-3479800D03*
G01X5585600Y-3479800D03*
G54D18*
G01X1974393Y-3530600D03*
G01X2394407Y-3530600D03*
G54D19*
G01X5880100Y-3086100D03*
G54D20*
G01X5626100Y-3086100D03*
G01X5372100Y-3086100D03*
G54D21*
G01X1079500Y-3810000D03*
G01X1333500Y-3556000D03*
G01X1587500Y-3810000D03*
G54D22*
G01X1955800Y-4051300D03*
G01X2082800Y-4051300D03*
G54D23*
G01X2209800Y-4051300D03*
G54D24*
G01X4381500Y-3605200D03*
G01X4381500Y-3405200D03*
G54D25*
G01X6451600Y-3620364D03*
G01X6451600Y-3771036D03*
G01X6629400Y-3620364D03*
G01X6629400Y-3771036D03*
G54D26*
G01X2248764Y-4394200D03*
G01X2399436Y-4394200D03*
G01X3772764Y-5511800D03*
G01X3923436Y-5511800D03*
G54D25*
G01X3771900Y-5841136D03*
G01X3771900Y-5690464D03*
G54D26*
G01X2794864Y-5461000D03*
G01X2945536Y-5461000D03*
G54D25*
G01X2794000Y-5777636D03*
G01X2794000Y-5626964D03*
G54D26*
G01X4763364Y-5499100D03*
G01X4914036Y-5499100D03*
G54D25*
G01X4762500Y-5815736D03*
G01X4762500Y-5665064D03*
G54D27*
G01X2411806Y-5153152D03*
G01X991794Y-5753100D03*
G01X1191793Y-6353099D03*
G01X1191793Y-5153101D03*
G01X2411806Y-6353048D03*
G54D28*
G01X11456099Y-5012499D03*
G01X9956102Y-5012499D03*
G01X11456099Y-4512500D03*
G01X9956102Y-4512500D03*
G01X9855899Y-3805999D03*
G01X8355902Y-3805999D03*
G01X9855899Y-3306000D03*
G01X8355902Y-3306000D03*
G01X9855899Y-6193599D03*
G01X8355902Y-6193599D03*
G01X9855899Y-5693600D03*
G01X8355902Y-5693600D03*
G54D29*
G01X2831490Y-4856505D03*
G01X2911500Y-4856505D03*
G01X2991510Y-4856505D03*
G01X3071495Y-4856505D03*
G01X3151505Y-4856505D03*
G01X3231490Y-4856505D03*
G01X3311500Y-4856505D03*
G01X3391510Y-4856505D03*
G54D30*
G01X3535705Y-4712310D03*
G01X3535705Y-4632300D03*
G01X3535705Y-4552290D03*
G01X3535705Y-4472305D03*
G01X3535705Y-4392295D03*
G01X3535705Y-4312310D03*
G01X3535705Y-4232300D03*
G01X3535705Y-4152290D03*
G54D29*
G01X3391510Y-4008095D03*
G01X3311500Y-4008095D03*
G01X3231490Y-4008095D03*
G01X3151505Y-4008095D03*
G01X3071495Y-4008095D03*
G01X2991510Y-4008095D03*
G01X2911500Y-4008095D03*
G01X2831490Y-4008095D03*
G54D30*
G01X2687295Y-4152290D03*
G01X2687295Y-4232300D03*
G01X2687295Y-4312310D03*
G01X2687295Y-4392295D03*
G01X2687295Y-4472305D03*
G01X2687295Y-4552290D03*
G01X2687295Y-4632300D03*
G01X2687295Y-4712310D03*
G54D12*
G01X4633201Y-3190218D03*
G01X4379201Y-3190218D03*
G01X4125201Y-3190218D03*
G01X3871201Y-3190218D03*
G01X3617201Y-3190218D03*
G01X3363201Y-3190218D03*
G01X3109201Y-3190218D03*
G01X2855201Y-3190218D03*
G01X2601201Y-3190218D03*
G01X2347201Y-3190218D03*
G01X2093201Y-3190218D03*
G01X1839201Y-3190218D03*
G01X1585201Y-3190218D03*
G01X1331201Y-3190218D03*
G01X1077201Y-3190218D03*
G54D31*
G01X823201Y-3190218D03*
G54D32*
G01X273190Y-3190218D03*
G01X273190Y-6290237D03*
G01X7773200Y-3190218D03*
G01X7773200Y-6290237D03*
G54D33*
G01X1981200Y-4394200D03*
G01X1981200Y-4648200D03*
G01X1219200Y-4394200D03*
G01X1219200Y-4648200D03*
G54D34*
G01X6803200Y-6172200D03*
G01X6303201Y-6172200D03*
G54D35*
G01X4170299Y-6172200D03*
G01X3670300Y-6172200D03*
G01X3170301Y-6172200D03*
G54D34*
G01X5304600Y-6172200D03*
G01X4804601Y-6172200D03*
G54D35*
G01X406400Y-4716399D03*
G01X406400Y-4216400D03*
G01X406400Y-3716401D03*
G54D36*
G01X6359703Y-3359023D03*
G01X6424701Y-3359023D03*
G01X6489700Y-3359023D03*
G01X6554699Y-3359023D03*
G01X6619697Y-3359023D03*
G54D37*
G01X6247206Y-3359810D03*
G54D38*
G01X6732194Y-3359810D03*
G54D39*
G01X6852183Y-3091790D03*
G01X6127217Y-3091790D03*
G54D13*
G01X3778098Y-5321300D03*
G01X3918102Y-5321300D03*
G54D16*
G01X7058800Y-3644900D03*
G01X7444600Y-3644900D03*
G04 Pad End*

M02*

