G04 Layer: InnerLayer1*
G04 EasyEDA Pro v3.2.149.88089769, 2026-09-30 13:01:49*
G04 Gerber Generator version 0.3*
G04 Scale: 100 percent, Rotated: No, Reflected: No*
G04 Dimensions in millimeters*
G04 Leading zeros omitted, absolute positions, 4 integers and 5 decimals*
G04 Generated by one-click*
G04 Object Configs: Pad,Via,Track,Text,Image,Dimension,BoardOutline,BoardCutout,CopperFilled,SolidRegion,FPCStiffener,Line,PlaneZone,ComponentProperty,ComponentSilkscreen,TearDrop*
G04 Layer Configs: 1,15,16,2,3,4,5,6,7,8,9,10,11,13,14,56*
G04 Copper Areas: 0*
%FSLAX45Y45*%
%MOMM*%
%ADD10C,1.8*%
%ADD11C,1.6*%
%ADD12R,1.7X1.7*%
%ADD13C,1.7*%
%ADD14C,1.524*%
%ADD15O,0.9X1.6*%
%ADD16R,0.9X1.6*%
%ADD17C,2.794*%
%ADD18R,1.6004X1.6*%
%ADD19R,1.6X1.6*%
%ADD20C,3.19999*%
%ADD21O,2.0X1.524*%
%ADD22C,2.2*%
%ADD23C,1.3*%
%ADD24O,1.3X1.8*%
%ADD25C,0.61*%
G75*


G04 Pad Start*
G54D10*
G01X6628397Y-4318000D03*
G01X5868403Y-4318000D03*
G54D11*
G01X7470404Y-5537203D03*
G01X7820416Y-5537203D03*
G01X7457704Y-3962403D03*
G01X7807716Y-3962403D03*
G54D12*
G01X5880100Y-3086100D03*
G54D13*
G01X5626100Y-3086100D03*
G01X5372100Y-3086100D03*
G54D14*
G01X1079500Y-3810000D03*
G01X1333500Y-3556000D03*
G01X1587500Y-3810000D03*
G54D15*
G01X1955800Y-4051300D03*
G01X2082800Y-4051300D03*
G54D16*
G01X2209800Y-4051300D03*
G54D17*
G01X2411806Y-5153152D03*
G01X991794Y-5753100D03*
G01X1191793Y-6353099D03*
G01X1191793Y-5153101D03*
G01X2411806Y-6353048D03*
G54D11*
G01X4633201Y-3190218D03*
G01X4379201Y-3190218D03*
G01X4125201Y-3190218D03*
G01X3871201Y-3190218D03*
G01X3617201Y-3190218D03*
G01X3363201Y-3190218D03*
G01X3109201Y-3190218D03*
G01X2855201Y-3190218D03*
G01X2601201Y-3190218D03*
G01X2347201Y-3190218D03*
G01X2093201Y-3190218D03*
G01X1839201Y-3190218D03*
G01X1585201Y-3190218D03*
G01X1331201Y-3190218D03*
G01X1077201Y-3190218D03*
G54D19*
G01X823201Y-3190218D03*
G54D20*
G01X273190Y-3190218D03*
G01X273190Y-6290237D03*
G01X7773200Y-3190218D03*
G01X7773200Y-6290237D03*
G54D21*
G01X1981200Y-4394200D03*
G01X1981200Y-4648200D03*
G01X1219200Y-4394200D03*
G01X1219200Y-4648200D03*
G54D22*
G01X6803200Y-6172200D03*
G01X6303201Y-6172200D03*
G01X4170299Y-6172200D03*
G01X3670300Y-6172200D03*
G01X3170301Y-6172200D03*
G01X5304600Y-6172200D03*
G01X4804601Y-6172200D03*
G01X406400Y-4716399D03*
G01X406400Y-4216400D03*
G01X406400Y-3716401D03*
G54D23*
G01X6247206Y-3359810D03*
G01X6732194Y-3359810D03*
G54D24*
G01X6852183Y-3091790D03*
G01X6127217Y-3091790D03*
G04 Pad End*

G04 Via Start*
G54D25*
G01X3629079Y-4829121D03*
G01X3835400Y-4127500D03*
G01X3937000Y-3949700D03*
G01X4098577Y-4054823D03*
G01X5638800Y-3949700D03*
G01X5638800Y-4051300D03*
G01X2997200Y-4368800D03*
G01X3098800Y-4445000D03*
G01X3124200Y-4572000D03*
G01X3301581Y-4610519D03*
G01X5689600Y-5702300D03*
G01X5651500Y-5245100D03*
G01X5765800Y-4813300D03*
G01X3213100Y-4267200D03*
G01X2679700Y-3695700D03*
G01X7632700Y-4521200D03*
G01X7733308Y-4521200D03*
G01X7833952Y-4521200D03*
G01X7934596Y-4521200D03*
G01X8035239Y-4521200D03*
G01X8135883Y-4521200D03*
G01X7632700Y-4610100D03*
G01X7733308Y-4610100D03*
G01X7833952Y-4610100D03*
G01X7934596Y-4610100D03*
G01X8035239Y-4610100D03*
G01X8135883Y-4610100D03*
G01X7634502Y-4705144D03*
G01X7735109Y-4705144D03*
G01X7835753Y-4705144D03*
G01X7936397Y-4705144D03*
G01X8037041Y-4705144D03*
G01X8137685Y-4705144D03*
G01X7632700Y-4787900D03*
G01X7733308Y-4787900D03*
G01X7833952Y-4787900D03*
G01X7934596Y-4787900D03*
G01X8035239Y-4787900D03*
G01X8135883Y-4787900D03*
G01X7632700Y-4889500D03*
G01X7733308Y-4889500D03*
G01X7833952Y-4889500D03*
G01X7934596Y-4889500D03*
G01X8035239Y-4889500D03*
G01X8135883Y-4889500D03*
G01X7632700Y-4978400D03*
G01X7733308Y-4978400D03*
G01X7833952Y-4978400D03*
G01X7934596Y-4978400D03*
G01X8035239Y-4978400D03*
G01X8135883Y-4978400D03*
G04 Via End*

M02*

