G04 Layer: DrillDrawingLayer*
G04 EasyEDA Pro v3.2.149.88089769, 2026-10-02 10:17:39*
G04 Gerber Generator version 0.3*
G04 Scale: 100 percent, Rotated: No, Reflected: No*
G04 Dimensions in millimeters*
G04 Leading zeros omitted, absolute positions, 4 integers and 5 decimals*
G04 Generated by one-click*
G04 Object Configs: Pad,Via,Track,Text,Image,Dimension,BoardOutline,BoardCutout,CopperFilled,SolidRegion,FPCStiffener,Line,PlaneZone,ComponentProperty,ComponentSilkscreen,TearDrop*
G04 Layer Configs: 1,15,16,2,3,4,5,6,7,8,9,10,11,13,14,56*
G04 Copper Areas: 0*
%FSLAX45Y45*%
%MOMM*%
%AMIconRect*4,1,4,0.28,-0.28,-0.28,-0.28,-0.28,0.28,0.28,0.28,0.28,-0.28,0*4,0,4,0.233333,-0.233333,0.233333,0.233333,-0.233333,0.233333,-0.233333,-0.233333,0.233333,-0.233333,0*%
%AMIconTriangle*4,1,3,-0.339593,0.240473,0.339593,0.240473,0,-0.37884,-0.339593,0.240473,0*4,0,3,-0.265673,0.19404,0,-0.27342,0.266233,0.19404,-0.265673,0.19404,0*%
%AMIconStar6*4,1,12,0.12068,0.20888,0.298527,0.172713,0.241313,0,0.298527,-0.17206,0.12068,-0.208227,0,-0.344073,-0.120073,-0.208227,-0.298573,-0.17206,-0.240707,0,-0.298573,0.17206,-0.120073,0.20888,0,0.344073,0.12068,0.20888,0*4,0,12,-0.000467,0.273467,-0.090067,0.171733,-0.237533,0.136733,-0.193667,-0.007467,-0.237533,-0.1372,-0.090067,-0.171733,-0.000467,-0.273933,0.090067,-0.171733,0.237533,-0.1372,0.194133,0.007,0.237533,0.1372,0.090067,0.171267,-0.000467,0.273467,0*%
%AMIconStar4*4,1,8,-0.311733,0.311733,0,0.202533,0.311733,0.311733,0.202533,0,0.311733,-0.311733,0,-0.202533,-0.304407,-0.311733,-0.202533,0,-0.311733,0.311733,0*4,0,8,0.233333,-0.233333,0.1512,0,0.233333,0.233333,0,0.1512,-0.233333,0.233333,-0.1512,0,-0.233333,-0.233333,0,-0.1512,0.233333,-0.233333,0*%
%AMIconPlus*4,1,12,0.1736,-0.28,-0.1736,-0.28,-0.1736,-0.1736,-0.28,-0.1736,-0.28,0.1736,-0.1736,0.1736,-0.1736,0.28,0.1736,0.28,0.1736,0.1736,0.28,0.1736,0.28,-0.1736,0.1736,-0.1736,0.1736,-0.28,0*4,0,12,0.126933,-0.233333,0.126933,-0.126933,0.233333,-0.126933,0.233333,0.126933,0.126933,0.126933,0.126933,0.233333,-0.126933,0.233333,-0.126933,0.126933,-0.233333,0.126933,-0.233333,-0.126933,-0.126933,-0.126933,-0.126933,-0.233333,0.126933,-0.233333,0*%
%AMIconX*4,1,16,0.28,-0.28,0.076347,-0.28,0,-0.203653,-0.076347,-0.28,-0.28,-0.28,-0.28,-0.076347,-0.203653,0,-0.28,0.076347,-0.28,0.28,-0.076347,0.28,0,0.203653,0.076347,0.28,0.28,0.28,0.28,0.076347,0.203653,0,0.28,-0.076347,0.28,-0.28,0*4,0,16,0.23352,-0.23296,0.23352,-0.095853,0.137107,0.000093,0.23352,0.095853,0.23352,0.2331,0.095853,0.2331,0,0.137107,-0.095853,0.2331,-0.23352,0.2331,-0.23352,0.095853,-0.137107,0.000093,-0.23352,-0.095853,-0.23352,-0.23296,-0.095853,-0.23296,0,-0.137107,0.095853,-0.23296,0.23352,-0.23296,0*%
%AMIconDiamond*4,1,4,0,-0.364,-0.364,0,0,0.364,0.364,0,0,-0.364,0*4,0,4,0,-0.284807,0.284807,0,0,0.28504,-0.284807,0,0,-0.284807,0*%
%AMIconRect2*4,1,6,0.28,-0.28,-0.28,-0.28,-0.28,0.28,-0.23352,0.2331,-0.233333,-0.233333,0.23352,-0.233333,0.28,-0.28,0*4,1,6,0.28,-0.28,0.23352,-0.233333,0.23352,0.2331,-0.23352,0.2331,-0.28,0.28,0.28,0.28,0.28,-0.28,0*4,1,6,0.186853,-0.186667,-0.186667,-0.186667,-0.186667,0.186853,-0.14,0.140187,-0.14,-0.14,0.140187,-0.14,0.186853,-0.186667,0*4,1,6,0.186853,-0.186667,0.140187,-0.14,0.140187,0.140187,-0.14,0.140187,-0.186667,0.186853,0.186853,0.186853,0.186853,-0.186667,0*%
%ADD10IconRect*%
%ADD11C,0.616X0.522667*%
%ADD12IconTriangle*%
%ADD13IconStar6*%
%ADD14IconStar4*%
%ADD15IconPlus*%
%ADD16IconX*%
%ADD17IconDiamond*%
%ADD18IconRect2*%
%ADD19C,0.2032*%
%ADD20C,0.254*%
G75*


G04 Drill Drawing Start*
G54D10*
G01X6127201Y-3091795D03*
G01X6852199Y-3091795D03*
G54D11*
G01X5372100Y-3086100D03*
G01X5626100Y-3086100D03*
G01X5880100Y-3086100D03*
G54D12*
G01X1079500Y-3810000D03*
G01X1333500Y-3556000D03*
G01X1587500Y-3810000D03*
G54D13*
G01X273195Y-6290227D03*
G01X273195Y-3190228D03*
G01X7773195Y-6290227D03*
G01X7773195Y-3190228D03*
G54D14*
G01X1955800Y-4051300D03*
G01X2082800Y-4051300D03*
G01X2209800Y-4051300D03*
G01X6247201Y-3359803D03*
G01X6732199Y-3359800D03*
G54D15*
G01X991799Y-5753100D03*
G01X1191801Y-5153101D03*
G01X1191801Y-6353099D03*
G01X2411794Y-5153152D03*
G01X2411801Y-6353048D03*
G54D16*
G01X406400Y-3716401D03*
G01X406400Y-4716399D03*
G01X406400Y-4216400D03*
G01X3170301Y-6172200D03*
G01X3670300Y-6172200D03*
G01X4170299Y-6172200D03*
G01X4804601Y-6172200D03*
G01X5304600Y-6172200D03*
G01X6303201Y-6172200D03*
G01X6803200Y-6172200D03*
G54D17*
G01X823194Y-3190228D03*
G01X1077194Y-3190228D03*
G01X1219200Y-4648200D03*
G01X1219200Y-4394200D03*
G01X1331194Y-3190228D03*
G01X1585194Y-3190228D03*
G01X1839194Y-3190228D03*
G01X1981200Y-4648200D03*
G01X1981200Y-4394200D03*
G01X2093194Y-3190228D03*
G01X2347194Y-3190228D03*
G01X2601194Y-3190228D03*
G01X2855194Y-3190228D03*
G01X3109194Y-3190228D03*
G01X3363194Y-3190228D03*
G01X3617194Y-3190228D03*
G01X3871194Y-3190228D03*
G01X4125194Y-3190228D03*
G01X4379194Y-3190228D03*
G01X4633194Y-3190228D03*
G01X5868401Y-4318000D03*
G01X6628399Y-4318000D03*
G01X7457694Y-3962400D03*
G01X7470394Y-5537200D03*
G01X7807706Y-3962400D03*
G01X7820406Y-5537200D03*
G54D18*
G01X2679700Y-3695700D03*
G01X2997200Y-4368800D03*
G01X3098800Y-4445000D03*
G01X3124200Y-4572000D03*
G01X3213100Y-4267200D03*
G01X3301581Y-4610519D03*
G01X3629079Y-4829121D03*
G01X3835400Y-4127500D03*
G01X3937000Y-3949700D03*
G01X4098577Y-4054823D03*
G01X5638800Y-4051300D03*
G01X5638800Y-3949700D03*
G01X5651500Y-5245100D03*
G01X5689600Y-5702300D03*
G01X5765800Y-4813300D03*
G01X7632700Y-4978400D03*
G01X7632700Y-4889500D03*
G01X7632700Y-4787900D03*
G01X7632700Y-4610100D03*
G01X7632700Y-4521200D03*
G01X7634502Y-4705144D03*
G01X7733308Y-4978400D03*
G01X7733308Y-4889500D03*
G01X7733308Y-4787900D03*
G01X7733308Y-4610100D03*
G01X7733308Y-4521200D03*
G01X7735109Y-4705144D03*
G01X7833952Y-4978400D03*
G01X7833952Y-4889500D03*
G01X7833952Y-4787900D03*
G01X7833952Y-4610100D03*
G01X7833952Y-4521200D03*
G01X7835753Y-4705144D03*
G01X7934596Y-4978400D03*
G01X7934596Y-4889500D03*
G01X7934596Y-4787900D03*
G01X7934596Y-4610100D03*
G01X7934596Y-4521200D03*
G01X7936397Y-4705144D03*
G01X8035239Y-4978400D03*
G01X8035239Y-4889500D03*
G01X8035239Y-4787900D03*
G01X8035239Y-4610100D03*
G01X8035239Y-4521200D03*
G01X8037041Y-4705144D03*
G01X8135883Y-4978400D03*
G01X8135883Y-4889500D03*
G01X8135883Y-4787900D03*
G01X8135883Y-4610100D03*
G01X8135883Y-4521200D03*
G01X8137685Y-4705144D03*
G04 Drill Drawing End*

G04 Text Start*
G54D19*
G01X14047946Y-3158533D02*
G01X14047946Y-3278675D01*
G01X14047946Y-3158533D02*
G01X14093666Y-3278675D01*
G01X14139386Y-3158533D02*
G01X14093666Y-3278675D01*
G01X14139386Y-3158533D02*
G01X14139386Y-3278675D01*
G01X14255718Y-3198665D02*
G01X14255718Y-3278675D01*
G01X14255718Y-3215683D02*
G01X14244288Y-3204253D01*
G01X14232858Y-3198665D01*
G01X14215840Y-3198665D01*
G01X14204410Y-3204253D01*
G01X14192980Y-3215683D01*
G01X14187138Y-3232955D01*
G01X14187138Y-3244385D01*
G01X14192980Y-3261403D01*
G01X14204410Y-3272833D01*
G01X14215840Y-3278675D01*
G01X14232858Y-3278675D01*
G01X14244288Y-3272833D01*
G01X14255718Y-3261403D01*
G01X14303470Y-3198665D02*
G01X14303470Y-3278675D01*
G01X14303470Y-3232955D02*
G01X14309312Y-3215683D01*
G01X14320742Y-3204253D01*
G01X14332172Y-3198665D01*
G01X14349190Y-3198665D01*
G01X14396942Y-3158533D02*
G01X14396942Y-3278675D01*
G01X14454092Y-3198665D02*
G01X14396942Y-3255815D01*
G01X14419802Y-3232955D02*
G01X14459934Y-3278675D01*
G01X15585226Y-3187235D02*
G01X15579384Y-3175805D01*
G01X15567954Y-3164375D01*
G01X15556524Y-3158533D01*
G01X15533664Y-3158533D01*
G01X15522234Y-3164375D01*
G01X15510804Y-3175805D01*
G01X15505216Y-3187235D01*
G01X15499374Y-3204253D01*
G01X15499374Y-3232955D01*
G01X15505216Y-3249973D01*
G01X15510804Y-3261403D01*
G01X15522234Y-3272833D01*
G01X15533664Y-3278675D01*
G01X15556524Y-3278675D01*
G01X15567954Y-3272833D01*
G01X15579384Y-3261403D01*
G01X15585226Y-3249973D01*
G01X15661680Y-3198665D02*
G01X15650250Y-3204253D01*
G01X15638820Y-3215683D01*
G01X15632978Y-3232955D01*
G01X15632978Y-3244385D01*
G01X15638820Y-3261403D01*
G01X15650250Y-3272833D01*
G01X15661680Y-3278675D01*
G01X15678698Y-3278675D01*
G01X15690128Y-3272833D01*
G01X15701558Y-3261403D01*
G01X15707400Y-3244385D01*
G01X15707400Y-3232955D01*
G01X15701558Y-3215683D01*
G01X15690128Y-3204253D01*
G01X15678698Y-3198665D01*
G01X15661680Y-3198665D01*
G01X15755152Y-3198665D02*
G01X15755152Y-3255815D01*
G01X15760994Y-3272833D01*
G01X15772424Y-3278675D01*
G01X15789442Y-3278675D01*
G01X15800872Y-3272833D01*
G01X15818144Y-3255815D01*
G01X15818144Y-3198665D02*
G01X15818144Y-3278675D01*
G01X15865896Y-3198665D02*
G01X15865896Y-3278675D01*
G01X15865896Y-3221525D02*
G01X15883168Y-3204253D01*
G01X15894598Y-3198665D01*
G01X15911616Y-3198665D01*
G01X15923046Y-3204253D01*
G01X15928888Y-3221525D01*
G01X15928888Y-3278675D01*
G01X15993912Y-3158533D02*
G01X15993912Y-3255815D01*
G01X15999500Y-3272833D01*
G01X16010930Y-3278675D01*
G01X16022360Y-3278675D01*
G01X15976640Y-3198665D02*
G01X16016772Y-3198665D01*
G01X16993547Y-3175805D02*
G01X16982117Y-3164375D01*
G01X16965099Y-3158533D01*
G01X16942239Y-3158533D01*
G01X16924967Y-3164375D01*
G01X16913537Y-3175805D01*
G01X16913537Y-3187235D01*
G01X16919379Y-3198665D01*
G01X16924967Y-3204253D01*
G01X16936397Y-3210095D01*
G01X16970687Y-3221525D01*
G01X16982117Y-3227113D01*
G01X16987959Y-3232955D01*
G01X16993547Y-3244385D01*
G01X16993547Y-3261403D01*
G01X16982117Y-3272833D01*
G01X16965099Y-3278675D01*
G01X16942239Y-3278675D01*
G01X16924967Y-3272833D01*
G01X16913537Y-3261403D01*
G01X17041299Y-3158533D02*
G01X17047141Y-3164375D01*
G01X17052729Y-3158533D01*
G01X17047141Y-3152945D01*
G01X17041299Y-3158533D01*
G01X17047141Y-3198665D02*
G01X17047141Y-3278675D01*
G01X17163473Y-3198665D02*
G01X17100481Y-3278675D01*
G01X17100481Y-3198665D02*
G01X17163473Y-3198665D01*
G01X17100481Y-3278675D02*
G01X17163473Y-3278675D01*
G01X17211225Y-3232955D02*
G01X17279805Y-3232955D01*
G01X17279805Y-3221525D01*
G01X17274217Y-3210095D01*
G01X17268375Y-3204253D01*
G01X17256945Y-3198665D01*
G01X17239927Y-3198665D01*
G01X17228497Y-3204253D01*
G01X17217067Y-3215683D01*
G01X17211225Y-3232955D01*
G01X17211225Y-3244385D01*
G01X17217067Y-3261403D01*
G01X17228497Y-3272833D01*
G01X17239927Y-3278675D01*
G01X17256945Y-3278675D01*
G01X17268375Y-3272833D01*
G01X17279805Y-3261403D01*
G01X20878115Y-3158533D02*
G01X20878115Y-3278675D01*
G01X20878115Y-3158533D02*
G01X20929677Y-3158533D01*
G01X20946695Y-3164375D01*
G01X20952537Y-3169963D01*
G01X20958125Y-3181393D01*
G01X20958125Y-3198665D01*
G01X20952537Y-3210095D01*
G01X20946695Y-3215683D01*
G01X20929677Y-3221525D01*
G01X20878115Y-3221525D01*
G01X21005877Y-3158533D02*
G01X21005877Y-3278675D01*
G01X21122209Y-3198665D02*
G01X21122209Y-3278675D01*
G01X21122209Y-3215683D02*
G01X21110779Y-3204253D01*
G01X21099349Y-3198665D01*
G01X21082331Y-3198665D01*
G01X21070901Y-3204253D01*
G01X21059471Y-3215683D01*
G01X21053629Y-3232955D01*
G01X21053629Y-3244385D01*
G01X21059471Y-3261403D01*
G01X21070901Y-3272833D01*
G01X21082331Y-3278675D01*
G01X21099349Y-3278675D01*
G01X21110779Y-3272833D01*
G01X21122209Y-3261403D01*
G01X21187233Y-3158533D02*
G01X21187233Y-3255815D01*
G01X21192821Y-3272833D01*
G01X21204251Y-3278675D01*
G01X21215681Y-3278675D01*
G01X21169961Y-3198665D02*
G01X21210093Y-3198665D01*
G01X21263433Y-3232955D02*
G01X21332013Y-3232955D01*
G01X21332013Y-3221525D01*
G01X21326425Y-3210095D01*
G01X21320583Y-3204253D01*
G01X21309153Y-3198665D01*
G01X21292135Y-3198665D01*
G01X21280705Y-3204253D01*
G01X21269275Y-3215683D01*
G01X21263433Y-3232955D01*
G01X21263433Y-3244385D01*
G01X21269275Y-3261403D01*
G01X21280705Y-3272833D01*
G01X21292135Y-3278675D01*
G01X21309153Y-3278675D01*
G01X21320583Y-3272833D01*
G01X21332013Y-3261403D01*
G01X21448345Y-3158533D02*
G01X21448345Y-3278675D01*
G01X21448345Y-3215683D02*
G01X21436915Y-3204253D01*
G01X21425485Y-3198665D01*
G01X21408467Y-3198665D01*
G01X21397037Y-3204253D01*
G01X21385607Y-3215683D01*
G01X21379765Y-3232955D01*
G01X21379765Y-3244385D01*
G01X21385607Y-3261403D01*
G01X21397037Y-3272833D01*
G01X21408467Y-3278675D01*
G01X21425485Y-3278675D01*
G01X21436915Y-3272833D01*
G01X21448345Y-3261403D01*
G01X22419532Y-3175805D02*
G01X22408102Y-3164375D01*
G01X22391084Y-3158533D01*
G01X22368224Y-3158533D01*
G01X22350952Y-3164375D01*
G01X22339522Y-3175805D01*
G01X22339522Y-3187235D01*
G01X22345364Y-3198665D01*
G01X22350952Y-3204253D01*
G01X22362382Y-3210095D01*
G01X22396672Y-3221525D01*
G01X22408102Y-3227113D01*
G01X22413944Y-3232955D01*
G01X22419532Y-3244385D01*
G01X22419532Y-3261403D01*
G01X22408102Y-3272833D01*
G01X22391084Y-3278675D01*
G01X22368224Y-3278675D01*
G01X22350952Y-3272833D01*
G01X22339522Y-3261403D01*
G01X22467284Y-3158533D02*
G01X22467284Y-3278675D01*
G01X22467284Y-3221525D02*
G01X22484556Y-3204253D01*
G01X22495986Y-3198665D01*
G01X22513004Y-3198665D01*
G01X22524434Y-3204253D01*
G01X22530276Y-3221525D01*
G01X22530276Y-3278675D01*
G01X22646608Y-3198665D02*
G01X22646608Y-3278675D01*
G01X22646608Y-3215683D02*
G01X22635178Y-3204253D01*
G01X22623748Y-3198665D01*
G01X22606730Y-3198665D01*
G01X22595300Y-3204253D01*
G01X22583870Y-3215683D01*
G01X22578028Y-3232955D01*
G01X22578028Y-3244385D01*
G01X22583870Y-3261403D01*
G01X22595300Y-3272833D01*
G01X22606730Y-3278675D01*
G01X22623748Y-3278675D01*
G01X22635178Y-3272833D01*
G01X22646608Y-3261403D01*
G01X22694360Y-3198665D02*
G01X22694360Y-3318553D01*
G01X22694360Y-3215683D02*
G01X22705790Y-3204253D01*
G01X22717220Y-3198665D01*
G01X22734492Y-3198665D01*
G01X22745922Y-3204253D01*
G01X22757352Y-3215683D01*
G01X22762940Y-3232955D01*
G01X22762940Y-3244385D01*
G01X22757352Y-3261403D01*
G01X22745922Y-3272833D01*
G01X22734492Y-3278675D01*
G01X22717220Y-3278675D01*
G01X22705790Y-3272833D01*
G01X22694360Y-3261403D01*
G01X22810692Y-3232955D02*
G01X22879272Y-3232955D01*
G01X22879272Y-3221525D01*
G01X22873684Y-3210095D01*
G01X22867842Y-3204253D01*
G01X22856412Y-3198665D01*
G01X22839394Y-3198665D01*
G01X22827964Y-3204253D01*
G01X22816534Y-3215683D01*
G01X22810692Y-3232955D01*
G01X22810692Y-3244385D01*
G01X22816534Y-3261403D01*
G01X22827964Y-3272833D01*
G01X22839394Y-3278675D01*
G01X22856412Y-3278675D01*
G01X22867842Y-3272833D01*
G01X22879272Y-3261403D01*
G01X23770703Y-3158533D02*
G01X23816423Y-3278675D01*
G01X23862143Y-3158533D02*
G01X23816423Y-3278675D01*
G01X23909895Y-3158533D02*
G01X23915737Y-3164375D01*
G01X23921325Y-3158533D01*
G01X23915737Y-3152945D01*
G01X23909895Y-3158533D01*
G01X23915737Y-3198665D02*
G01X23915737Y-3278675D01*
G01X24037657Y-3198665D02*
G01X24037657Y-3278675D01*
G01X24037657Y-3215683D02*
G01X24026227Y-3204253D01*
G01X24014797Y-3198665D01*
G01X23997779Y-3198665D01*
G01X23986349Y-3204253D01*
G01X23974919Y-3215683D01*
G01X23969077Y-3232955D01*
G01X23969077Y-3244385D01*
G01X23974919Y-3261403D01*
G01X23986349Y-3272833D01*
G01X23997779Y-3278675D01*
G01X24014797Y-3278675D01*
G01X24026227Y-3272833D01*
G01X24037657Y-3261403D01*
G01X24188279Y-3135673D02*
G01X24085409Y-3318553D01*
G01X24236031Y-3158533D02*
G01X24236031Y-3278675D01*
G01X24236031Y-3158533D02*
G01X24287593Y-3158533D01*
G01X24304611Y-3164375D01*
G01X24310453Y-3169963D01*
G01X24316041Y-3181393D01*
G01X24316041Y-3198665D01*
G01X24310453Y-3210095D01*
G01X24304611Y-3215683D01*
G01X24287593Y-3221525D01*
G01X24236031Y-3221525D01*
G01X24432373Y-3198665D02*
G01X24432373Y-3278675D01*
G01X24432373Y-3215683D02*
G01X24420943Y-3204253D01*
G01X24409513Y-3198665D01*
G01X24392495Y-3198665D01*
G01X24381065Y-3204253D01*
G01X24369635Y-3215683D01*
G01X24363793Y-3232955D01*
G01X24363793Y-3244385D01*
G01X24369635Y-3261403D01*
G01X24381065Y-3272833D01*
G01X24392495Y-3278675D01*
G01X24409513Y-3278675D01*
G01X24420943Y-3272833D01*
G01X24432373Y-3261403D01*
G01X24548705Y-3158533D02*
G01X24548705Y-3278675D01*
G01X24548705Y-3215683D02*
G01X24537275Y-3204253D01*
G01X24525845Y-3198665D01*
G01X24508827Y-3198665D01*
G01X24497397Y-3204253D01*
G01X24485967Y-3215683D01*
G01X24480125Y-3232955D01*
G01X24480125Y-3244385D01*
G01X24485967Y-3261403D01*
G01X24497397Y-3272833D01*
G01X24508827Y-3278675D01*
G01X24525845Y-3278675D01*
G01X24537275Y-3272833D01*
G01X24548705Y-3261403D01*
G01X25439882Y-3158533D02*
G01X25439882Y-3278675D01*
G01X25439882Y-3158533D02*
G01X25491444Y-3158533D01*
G01X25508462Y-3164375D01*
G01X25514304Y-3169963D01*
G01X25519892Y-3181393D01*
G01X25519892Y-3198665D01*
G01X25514304Y-3210095D01*
G01X25508462Y-3215683D01*
G01X25491444Y-3221525D01*
G01X25439882Y-3221525D01*
G01X25636224Y-3198665D02*
G01X25636224Y-3278675D01*
G01X25636224Y-3215683D02*
G01X25624794Y-3204253D01*
G01X25613364Y-3198665D01*
G01X25596346Y-3198665D01*
G01X25584916Y-3204253D01*
G01X25573486Y-3215683D01*
G01X25567644Y-3232955D01*
G01X25567644Y-3244385D01*
G01X25573486Y-3261403D01*
G01X25584916Y-3272833D01*
G01X25596346Y-3278675D01*
G01X25613364Y-3278675D01*
G01X25624794Y-3272833D01*
G01X25636224Y-3261403D01*
G01X25752556Y-3158533D02*
G01X25752556Y-3278675D01*
G01X25752556Y-3215683D02*
G01X25741126Y-3204253D01*
G01X25729696Y-3198665D01*
G01X25712678Y-3198665D01*
G01X25701248Y-3204253D01*
G01X25689818Y-3215683D01*
G01X25683976Y-3232955D01*
G01X25683976Y-3244385D01*
G01X25689818Y-3261403D01*
G01X25701248Y-3272833D01*
G01X25712678Y-3278675D01*
G01X25729696Y-3278675D01*
G01X25741126Y-3272833D01*
G01X25752556Y-3261403D01*
G01X26008334Y-3175805D02*
G01X25996904Y-3164375D01*
G01X25979886Y-3158533D01*
G01X25957026Y-3158533D01*
G01X25939754Y-3164375D01*
G01X25928324Y-3175805D01*
G01X25928324Y-3187235D01*
G01X25934166Y-3198665D01*
G01X25939754Y-3204253D01*
G01X25951184Y-3210095D01*
G01X25985474Y-3221525D01*
G01X25996904Y-3227113D01*
G01X26002746Y-3232955D01*
G01X26008334Y-3244385D01*
G01X26008334Y-3261403D01*
G01X25996904Y-3272833D01*
G01X25979886Y-3278675D01*
G01X25957026Y-3278675D01*
G01X25939754Y-3272833D01*
G01X25928324Y-3261403D01*
G01X26056086Y-3158533D02*
G01X26056086Y-3278675D01*
G01X26056086Y-3221525D02*
G01X26073358Y-3204253D01*
G01X26084788Y-3198665D01*
G01X26101806Y-3198665D01*
G01X26113236Y-3204253D01*
G01X26119078Y-3221525D01*
G01X26119078Y-3278675D01*
G01X26235410Y-3198665D02*
G01X26235410Y-3278675D01*
G01X26235410Y-3215683D02*
G01X26223980Y-3204253D01*
G01X26212550Y-3198665D01*
G01X26195532Y-3198665D01*
G01X26184102Y-3204253D01*
G01X26172672Y-3215683D01*
G01X26166830Y-3232955D01*
G01X26166830Y-3244385D01*
G01X26172672Y-3261403D01*
G01X26184102Y-3272833D01*
G01X26195532Y-3278675D01*
G01X26212550Y-3278675D01*
G01X26223980Y-3272833D01*
G01X26235410Y-3261403D01*
G01X26283162Y-3198665D02*
G01X26283162Y-3318553D01*
G01X26283162Y-3215683D02*
G01X26294592Y-3204253D01*
G01X26306022Y-3198665D01*
G01X26323294Y-3198665D01*
G01X26334724Y-3204253D01*
G01X26346154Y-3215683D01*
G01X26351742Y-3232955D01*
G01X26351742Y-3244385D01*
G01X26346154Y-3261403D01*
G01X26334724Y-3272833D01*
G01X26323294Y-3278675D01*
G01X26306022Y-3278675D01*
G01X26294592Y-3272833D01*
G01X26283162Y-3261403D01*
G01X26399494Y-3232955D02*
G01X26468074Y-3232955D01*
G01X26468074Y-3221525D01*
G01X26462486Y-3210095D01*
G01X26456644Y-3204253D01*
G01X26445214Y-3198665D01*
G01X26428196Y-3198665D01*
G01X26416766Y-3204253D01*
G01X26405336Y-3215683D01*
G01X26399494Y-3232955D01*
G01X26399494Y-3244385D01*
G01X26405336Y-3261403D01*
G01X26416766Y-3272833D01*
G01X26428196Y-3278675D01*
G01X26445214Y-3278675D01*
G01X26456644Y-3272833D01*
G01X26468074Y-3261403D01*
G01X27359251Y-3158533D02*
G01X27359251Y-3278675D01*
G01X27359251Y-3278675D02*
G01X27427831Y-3278675D01*
G01X27544163Y-3198665D02*
G01X27544163Y-3278675D01*
G01X27544163Y-3215683D02*
G01X27532733Y-3204253D01*
G01X27521303Y-3198665D01*
G01X27504285Y-3198665D01*
G01X27492855Y-3204253D01*
G01X27481425Y-3215683D01*
G01X27475583Y-3232955D01*
G01X27475583Y-3244385D01*
G01X27481425Y-3261403D01*
G01X27492855Y-3272833D01*
G01X27504285Y-3278675D01*
G01X27521303Y-3278675D01*
G01X27532733Y-3272833D01*
G01X27544163Y-3261403D01*
G01X27597757Y-3198665D02*
G01X27632047Y-3278675D01*
G01X27666337Y-3198665D02*
G01X27632047Y-3278675D01*
G01X27620617Y-3301535D01*
G01X27609187Y-3312965D01*
G01X27597757Y-3318553D01*
G01X27591915Y-3318553D01*
G01X27714089Y-3232955D02*
G01X27782669Y-3232955D01*
G01X27782669Y-3221525D01*
G01X27777081Y-3210095D01*
G01X27771239Y-3204253D01*
G01X27759809Y-3198665D01*
G01X27742791Y-3198665D01*
G01X27731361Y-3204253D01*
G01X27719931Y-3215683D01*
G01X27714089Y-3232955D01*
G01X27714089Y-3244385D01*
G01X27719931Y-3261403D01*
G01X27731361Y-3272833D01*
G01X27742791Y-3278675D01*
G01X27759809Y-3278675D01*
G01X27771239Y-3272833D01*
G01X27782669Y-3261403D01*
G01X27830421Y-3198665D02*
G01X27830421Y-3278675D01*
G01X27830421Y-3232955D02*
G01X27836263Y-3215683D01*
G01X27847693Y-3204253D01*
G01X27859123Y-3198665D01*
G01X27876141Y-3198665D01*
G01X28051909Y-3158533D02*
G01X28051909Y-3278675D01*
G01X28051909Y-3158533D02*
G01X28103471Y-3158533D01*
G01X28120489Y-3164375D01*
G01X28126331Y-3169963D01*
G01X28131919Y-3181393D01*
G01X28131919Y-3198665D01*
G01X28126331Y-3210095D01*
G01X28120489Y-3215683D01*
G01X28103471Y-3221525D01*
G01X28051909Y-3221525D01*
G01X28248251Y-3198665D02*
G01X28248251Y-3278675D01*
G01X28248251Y-3215683D02*
G01X28236821Y-3204253D01*
G01X28225391Y-3198665D01*
G01X28208373Y-3198665D01*
G01X28196943Y-3204253D01*
G01X28185513Y-3215683D01*
G01X28179671Y-3232955D01*
G01X28179671Y-3244385D01*
G01X28185513Y-3261403D01*
G01X28196943Y-3272833D01*
G01X28208373Y-3278675D01*
G01X28225391Y-3278675D01*
G01X28236821Y-3272833D01*
G01X28248251Y-3261403D01*
G01X28296003Y-3158533D02*
G01X28301845Y-3164375D01*
G01X28307433Y-3158533D01*
G01X28301845Y-3152945D01*
G01X28296003Y-3158533D01*
G01X28301845Y-3198665D02*
G01X28301845Y-3278675D01*
G01X28355185Y-3198665D02*
G01X28355185Y-3278675D01*
G01X28355185Y-3232955D02*
G01X28361027Y-3215683D01*
G01X28372457Y-3204253D01*
G01X28383887Y-3198665D01*
G01X28400905Y-3198665D01*
G01X15505216Y-3767807D02*
G01X15505216Y-3761965D01*
G01X15510804Y-3750535D01*
G01X15516646Y-3744947D01*
G01X15528076Y-3739105D01*
G01X15550936Y-3739105D01*
G01X15562366Y-3744947D01*
G01X15567954Y-3750535D01*
G01X15573796Y-3761965D01*
G01X15573796Y-3773395D01*
G01X15567954Y-3784825D01*
G01X15556524Y-3802097D01*
G01X15499374Y-3859247D01*
G01X15579384Y-3859247D01*
G01X16919379Y-3767807D02*
G01X16919379Y-3761965D01*
G01X16924967Y-3750535D01*
G01X16930809Y-3744947D01*
G01X16942239Y-3739105D01*
G01X16965099Y-3739105D01*
G01X16976529Y-3744947D01*
G01X16982117Y-3750535D01*
G01X16987959Y-3761965D01*
G01X16987959Y-3773395D01*
G01X16982117Y-3784825D01*
G01X16970687Y-3802097D01*
G01X16913537Y-3859247D01*
G01X16993547Y-3859247D01*
G01X17121309Y-3739105D02*
G01X17064159Y-3859247D01*
G01X17041299Y-3739105D02*
G01X17121309Y-3739105D01*
G01X17174903Y-3830545D02*
G01X17169061Y-3836387D01*
G01X17174903Y-3841975D01*
G01X17180491Y-3836387D01*
G01X17174903Y-3830545D01*
G01X17296823Y-3756377D02*
G01X17291235Y-3744947D01*
G01X17273963Y-3739105D01*
G01X17262533Y-3739105D01*
G01X17245515Y-3744947D01*
G01X17234085Y-3761965D01*
G01X17228243Y-3790667D01*
G01X17228243Y-3819115D01*
G01X17234085Y-3841975D01*
G01X17245515Y-3853405D01*
G01X17262533Y-3859247D01*
G01X17268375Y-3859247D01*
G01X17285393Y-3853405D01*
G01X17296823Y-3841975D01*
G01X17302665Y-3824957D01*
G01X17302665Y-3819115D01*
G01X17296823Y-3802097D01*
G01X17285393Y-3790667D01*
G01X17268375Y-3784825D01*
G01X17262533Y-3784825D01*
G01X17245515Y-3790667D01*
G01X17234085Y-3802097D01*
G01X17228243Y-3819115D01*
G01X17350417Y-3779237D02*
G01X17413409Y-3859247D01*
G01X17413409Y-3779237D02*
G01X17350417Y-3859247D01*
G01X17518311Y-3739105D02*
G01X17461161Y-3819115D01*
G01X17547013Y-3819115D01*
G01X17518311Y-3739105D02*
G01X17518311Y-3859247D01*
G01X17606195Y-3739105D02*
G01X17669187Y-3739105D01*
G01X17634897Y-3784825D01*
G01X17651915Y-3784825D01*
G01X17663345Y-3790667D01*
G01X17669187Y-3796255D01*
G01X17674775Y-3813527D01*
G01X17674775Y-3824957D01*
G01X17669187Y-3841975D01*
G01X17657757Y-3853405D01*
G01X17640485Y-3859247D01*
G01X17623467Y-3859247D01*
G01X17606195Y-3853405D01*
G01X17600607Y-3847817D01*
G01X17594765Y-3836387D01*
G01X17728369Y-3830545D02*
G01X17722527Y-3836387D01*
G01X17728369Y-3841975D01*
G01X17733957Y-3836387D01*
G01X17728369Y-3830545D01*
G01X17793139Y-3739105D02*
G01X17856131Y-3739105D01*
G01X17821841Y-3784825D01*
G01X17838859Y-3784825D01*
G01X17850289Y-3790667D01*
G01X17856131Y-3796255D01*
G01X17861719Y-3813527D01*
G01X17861719Y-3824957D01*
G01X17856131Y-3841975D01*
G01X17844701Y-3853405D01*
G01X17827429Y-3859247D01*
G01X17810411Y-3859247D01*
G01X17793139Y-3853405D01*
G01X17787551Y-3847817D01*
G01X17781709Y-3836387D01*
G01X17909471Y-3779237D02*
G01X17909471Y-3859247D01*
G01X17909471Y-3802097D02*
G01X17926743Y-3784825D01*
G01X17938173Y-3779237D01*
G01X17955191Y-3779237D01*
G01X17966621Y-3784825D01*
G01X17972463Y-3802097D01*
G01X17972463Y-3859247D01*
G01X17972463Y-3802097D02*
G01X17989481Y-3784825D01*
G01X18000911Y-3779237D01*
G01X18018183Y-3779237D01*
G01X18029613Y-3784825D01*
G01X18035201Y-3802097D01*
G01X18035201Y-3859247D01*
G01X18082953Y-3739105D02*
G01X18088795Y-3744947D01*
G01X18094383Y-3739105D01*
G01X18088795Y-3733517D01*
G01X18082953Y-3739105D01*
G01X18088795Y-3779237D02*
G01X18088795Y-3859247D01*
G01X18142135Y-3739105D02*
G01X18142135Y-3859247D01*
G01X18230019Y-3716245D02*
G01X18218589Y-3727675D01*
G01X18207159Y-3744947D01*
G01X18195729Y-3767807D01*
G01X18189887Y-3796255D01*
G01X18189887Y-3819115D01*
G01X18195729Y-3847817D01*
G01X18207159Y-3870677D01*
G01X18218589Y-3887695D01*
G01X18230019Y-3899125D01*
G01X18312061Y-3739105D02*
G01X18295043Y-3744947D01*
G01X18283613Y-3761965D01*
G01X18277771Y-3790667D01*
G01X18277771Y-3807685D01*
G01X18283613Y-3836387D01*
G01X18295043Y-3853405D01*
G01X18312061Y-3859247D01*
G01X18323491Y-3859247D01*
G01X18340763Y-3853405D01*
G01X18352193Y-3836387D01*
G01X18357781Y-3807685D01*
G01X18357781Y-3790667D01*
G01X18352193Y-3761965D01*
G01X18340763Y-3744947D01*
G01X18323491Y-3739105D01*
G01X18312061Y-3739105D01*
G01X18411375Y-3830545D02*
G01X18405533Y-3836387D01*
G01X18411375Y-3841975D01*
G01X18416963Y-3836387D01*
G01X18411375Y-3830545D01*
G01X18544725Y-3739105D02*
G01X18487575Y-3859247D01*
G01X18464715Y-3739105D02*
G01X18544725Y-3739105D01*
G01X18626767Y-3739105D02*
G01X18609749Y-3744947D01*
G01X18598319Y-3761965D01*
G01X18592477Y-3790667D01*
G01X18592477Y-3807685D01*
G01X18598319Y-3836387D01*
G01X18609749Y-3853405D01*
G01X18626767Y-3859247D01*
G01X18638197Y-3859247D01*
G01X18655469Y-3853405D01*
G01X18666899Y-3836387D01*
G01X18672487Y-3807685D01*
G01X18672487Y-3790667D01*
G01X18666899Y-3761965D01*
G01X18655469Y-3744947D01*
G01X18638197Y-3739105D01*
G01X18626767Y-3739105D01*
G01X18754529Y-3739105D02*
G01X18737511Y-3744947D01*
G01X18726081Y-3761965D01*
G01X18720239Y-3790667D01*
G01X18720239Y-3807685D01*
G01X18726081Y-3836387D01*
G01X18737511Y-3853405D01*
G01X18754529Y-3859247D01*
G01X18765959Y-3859247D01*
G01X18783231Y-3853405D01*
G01X18794661Y-3836387D01*
G01X18800249Y-3807685D01*
G01X18800249Y-3790667D01*
G01X18794661Y-3761965D01*
G01X18783231Y-3744947D01*
G01X18765959Y-3739105D01*
G01X18754529Y-3739105D01*
G01X18848001Y-3779237D02*
G01X18910993Y-3859247D01*
G01X18910993Y-3779237D02*
G01X18848001Y-3859247D01*
G01X18958745Y-3761965D02*
G01X18970175Y-3756377D01*
G01X18987447Y-3739105D01*
G01X18987447Y-3859247D01*
G01X19041041Y-3830545D02*
G01X19035199Y-3836387D01*
G01X19041041Y-3841975D01*
G01X19046629Y-3836387D01*
G01X19041041Y-3830545D01*
G01X19094381Y-3761965D02*
G01X19105811Y-3756377D01*
G01X19123083Y-3739105D01*
G01X19123083Y-3859247D01*
G01X19205125Y-3739105D02*
G01X19188107Y-3744947D01*
G01X19176677Y-3761965D01*
G01X19170835Y-3790667D01*
G01X19170835Y-3807685D01*
G01X19176677Y-3836387D01*
G01X19188107Y-3853405D01*
G01X19205125Y-3859247D01*
G01X19216555Y-3859247D01*
G01X19233827Y-3853405D01*
G01X19245257Y-3836387D01*
G01X19250845Y-3807685D01*
G01X19250845Y-3790667D01*
G01X19245257Y-3761965D01*
G01X19233827Y-3744947D01*
G01X19216555Y-3739105D01*
G01X19205125Y-3739105D01*
G01X19332887Y-3739105D02*
G01X19315869Y-3744947D01*
G01X19304439Y-3761965D01*
G01X19298597Y-3790667D01*
G01X19298597Y-3807685D01*
G01X19304439Y-3836387D01*
G01X19315869Y-3853405D01*
G01X19332887Y-3859247D01*
G01X19344317Y-3859247D01*
G01X19361589Y-3853405D01*
G01X19373019Y-3836387D01*
G01X19378607Y-3807685D01*
G01X19378607Y-3790667D01*
G01X19373019Y-3761965D01*
G01X19361589Y-3744947D01*
G01X19344317Y-3739105D01*
G01X19332887Y-3739105D01*
G01X19426359Y-3779237D02*
G01X19426359Y-3859247D01*
G01X19426359Y-3802097D02*
G01X19443631Y-3784825D01*
G01X19455061Y-3779237D01*
G01X19472079Y-3779237D01*
G01X19483509Y-3784825D01*
G01X19489351Y-3802097D01*
G01X19489351Y-3859247D01*
G01X19489351Y-3802097D02*
G01X19506369Y-3784825D01*
G01X19517799Y-3779237D01*
G01X19535071Y-3779237D01*
G01X19546501Y-3784825D01*
G01X19552089Y-3802097D01*
G01X19552089Y-3859247D01*
G01X19599841Y-3779237D02*
G01X19599841Y-3859247D01*
G01X19599841Y-3802097D02*
G01X19617113Y-3784825D01*
G01X19628543Y-3779237D01*
G01X19645561Y-3779237D01*
G01X19656991Y-3784825D01*
G01X19662833Y-3802097D01*
G01X19662833Y-3859247D01*
G01X19662833Y-3802097D02*
G01X19679851Y-3784825D01*
G01X19691281Y-3779237D01*
G01X19708553Y-3779237D01*
G01X19719983Y-3784825D01*
G01X19725571Y-3802097D01*
G01X19725571Y-3859247D01*
G01X19773323Y-3716245D02*
G01X19784753Y-3727675D01*
G01X19796183Y-3744947D01*
G01X19807613Y-3767807D01*
G01X19813455Y-3796255D01*
G01X19813455Y-3819115D01*
G01X19807613Y-3847817D01*
G01X19796183Y-3870677D01*
G01X19784753Y-3887695D01*
G01X19773323Y-3899125D01*
G01X20878115Y-3739105D02*
G01X20878115Y-3859247D01*
G01X20878115Y-3739105D02*
G01X20929677Y-3739105D01*
G01X20946695Y-3744947D01*
G01X20952537Y-3750535D01*
G01X20958125Y-3761965D01*
G01X20958125Y-3779237D01*
G01X20952537Y-3790667D01*
G01X20946695Y-3796255D01*
G01X20929677Y-3802097D01*
G01X20878115Y-3802097D01*
G01X21046009Y-3739105D02*
G01X21046009Y-3859247D01*
G01X21005877Y-3739105D02*
G01X21085887Y-3739105D01*
G01X21133639Y-3739105D02*
G01X21133639Y-3859247D01*
G01X21213649Y-3739105D02*
G01X21213649Y-3859247D01*
G01X21133639Y-3796255D02*
G01X21213649Y-3796255D01*
G01X22419532Y-3756377D02*
G01X22408102Y-3744947D01*
G01X22391084Y-3739105D01*
G01X22368224Y-3739105D01*
G01X22350952Y-3744947D01*
G01X22339522Y-3756377D01*
G01X22339522Y-3767807D01*
G01X22345364Y-3779237D01*
G01X22350952Y-3784825D01*
G01X22362382Y-3790667D01*
G01X22396672Y-3802097D01*
G01X22408102Y-3807685D01*
G01X22413944Y-3813527D01*
G01X22419532Y-3824957D01*
G01X22419532Y-3841975D01*
G01X22408102Y-3853405D01*
G01X22391084Y-3859247D01*
G01X22368224Y-3859247D01*
G01X22350952Y-3853405D01*
G01X22339522Y-3841975D01*
G01X22467284Y-3739105D02*
G01X22467284Y-3859247D01*
G01X22543738Y-3779237D02*
G01X22532308Y-3784825D01*
G01X22520878Y-3796255D01*
G01X22515036Y-3813527D01*
G01X22515036Y-3824957D01*
G01X22520878Y-3841975D01*
G01X22532308Y-3853405D01*
G01X22543738Y-3859247D01*
G01X22560756Y-3859247D01*
G01X22572186Y-3853405D01*
G01X22583616Y-3841975D01*
G01X22589458Y-3824957D01*
G01X22589458Y-3813527D01*
G01X22583616Y-3796255D01*
G01X22572186Y-3784825D01*
G01X22560756Y-3779237D01*
G01X22543738Y-3779237D01*
G01X22654482Y-3739105D02*
G01X22654482Y-3836387D01*
G01X22660070Y-3853405D01*
G01X22671500Y-3859247D01*
G01X22682930Y-3859247D01*
G01X22637210Y-3779237D02*
G01X22677342Y-3779237D01*
G01X23770703Y-3739105D02*
G01X23770703Y-3859247D01*
G01X23770703Y-3739105D02*
G01X23822265Y-3739105D01*
G01X23839283Y-3744947D01*
G01X23845125Y-3750535D01*
G01X23850713Y-3761965D01*
G01X23850713Y-3779237D01*
G01X23845125Y-3790667D01*
G01X23839283Y-3796255D01*
G01X23822265Y-3802097D01*
G01X23770703Y-3802097D01*
G01X23967045Y-3779237D02*
G01X23967045Y-3859247D01*
G01X23967045Y-3796255D02*
G01X23955615Y-3784825D01*
G01X23944185Y-3779237D01*
G01X23927167Y-3779237D01*
G01X23915737Y-3784825D01*
G01X23904307Y-3796255D01*
G01X23898465Y-3813527D01*
G01X23898465Y-3824957D01*
G01X23904307Y-3841975D01*
G01X23915737Y-3853405D01*
G01X23927167Y-3859247D01*
G01X23944185Y-3859247D01*
G01X23955615Y-3853405D01*
G01X23967045Y-3841975D01*
G01X24083377Y-3739105D02*
G01X24083377Y-3859247D01*
G01X24083377Y-3796255D02*
G01X24071947Y-3784825D01*
G01X24060517Y-3779237D01*
G01X24043499Y-3779237D01*
G01X24032069Y-3784825D01*
G01X24020639Y-3796255D01*
G01X24014797Y-3813527D01*
G01X24014797Y-3824957D01*
G01X24020639Y-3841975D01*
G01X24032069Y-3853405D01*
G01X24043499Y-3859247D01*
G01X24060517Y-3859247D01*
G01X24071947Y-3853405D01*
G01X24083377Y-3841975D01*
G01X25474172Y-3739105D02*
G01X25462742Y-3744947D01*
G01X25451312Y-3756377D01*
G01X25445724Y-3767807D01*
G01X25439882Y-3784825D01*
G01X25439882Y-3813527D01*
G01X25445724Y-3830545D01*
G01X25451312Y-3841975D01*
G01X25462742Y-3853405D01*
G01X25474172Y-3859247D01*
G01X25497032Y-3859247D01*
G01X25508462Y-3853405D01*
G01X25519892Y-3841975D01*
G01X25525734Y-3830545D01*
G01X25531322Y-3813527D01*
G01X25531322Y-3784825D01*
G01X25525734Y-3767807D01*
G01X25519892Y-3756377D01*
G01X25508462Y-3744947D01*
G01X25497032Y-3739105D01*
G01X25474172Y-3739105D01*
G01X25579074Y-3779237D02*
G01X25613364Y-3859247D01*
G01X25647654Y-3779237D02*
G01X25613364Y-3859247D01*
G01X25763986Y-3779237D02*
G01X25763986Y-3859247D01*
G01X25763986Y-3796255D02*
G01X25752556Y-3784825D01*
G01X25741126Y-3779237D01*
G01X25724108Y-3779237D01*
G01X25712678Y-3784825D01*
G01X25701248Y-3796255D01*
G01X25695406Y-3813527D01*
G01X25695406Y-3824957D01*
G01X25701248Y-3841975D01*
G01X25712678Y-3853405D01*
G01X25724108Y-3859247D01*
G01X25741126Y-3859247D01*
G01X25752556Y-3853405D01*
G01X25763986Y-3841975D01*
G01X25811738Y-3739105D02*
G01X25811738Y-3859247D01*
G01X27399383Y-3739105D02*
G01X27399383Y-3859247D01*
G01X27359251Y-3739105D02*
G01X27439261Y-3739105D01*
G01X27515715Y-3779237D02*
G01X27504285Y-3784825D01*
G01X27492855Y-3796255D01*
G01X27487013Y-3813527D01*
G01X27487013Y-3824957D01*
G01X27492855Y-3841975D01*
G01X27504285Y-3853405D01*
G01X27515715Y-3859247D01*
G01X27532733Y-3859247D01*
G01X27544163Y-3853405D01*
G01X27555593Y-3841975D01*
G01X27561435Y-3824957D01*
G01X27561435Y-3813527D01*
G01X27555593Y-3796255D01*
G01X27544163Y-3784825D01*
G01X27532733Y-3779237D01*
G01X27515715Y-3779237D01*
G01X27609187Y-3779237D02*
G01X27609187Y-3899125D01*
G01X27609187Y-3796255D02*
G01X27620617Y-3784825D01*
G01X27632047Y-3779237D01*
G01X27649319Y-3779237D01*
G01X27660749Y-3784825D01*
G01X27672179Y-3796255D01*
G01X27677767Y-3813527D01*
G01X27677767Y-3824957D01*
G01X27672179Y-3841975D01*
G01X27660749Y-3853405D01*
G01X27649319Y-3859247D01*
G01X27632047Y-3859247D01*
G01X27620617Y-3853405D01*
G01X27609187Y-3841975D01*
G01X27853535Y-3739105D02*
G01X27853535Y-3859247D01*
G01X27853535Y-3859247D02*
G01X27922115Y-3859247D01*
G01X28038447Y-3779237D02*
G01X28038447Y-3859247D01*
G01X28038447Y-3796255D02*
G01X28027017Y-3784825D01*
G01X28015587Y-3779237D01*
G01X27998569Y-3779237D01*
G01X27987139Y-3784825D01*
G01X27975709Y-3796255D01*
G01X27969867Y-3813527D01*
G01X27969867Y-3824957D01*
G01X27975709Y-3841975D01*
G01X27987139Y-3853405D01*
G01X27998569Y-3859247D01*
G01X28015587Y-3859247D01*
G01X28027017Y-3853405D01*
G01X28038447Y-3841975D01*
G01X28092041Y-3779237D02*
G01X28126331Y-3859247D01*
G01X28160621Y-3779237D02*
G01X28126331Y-3859247D01*
G01X28114901Y-3882107D01*
G01X28103471Y-3893537D01*
G01X28092041Y-3899125D01*
G01X28086199Y-3899125D01*
G01X28208373Y-3813527D02*
G01X28276953Y-3813527D01*
G01X28276953Y-3802097D01*
G01X28271365Y-3790667D01*
G01X28265523Y-3784825D01*
G01X28254093Y-3779237D01*
G01X28237075Y-3779237D01*
G01X28225645Y-3784825D01*
G01X28214215Y-3796255D01*
G01X28208373Y-3813527D01*
G01X28208373Y-3824957D01*
G01X28214215Y-3841975D01*
G01X28225645Y-3853405D01*
G01X28237075Y-3859247D01*
G01X28254093Y-3859247D01*
G01X28265523Y-3853405D01*
G01X28276953Y-3841975D01*
G01X28324705Y-3779237D02*
G01X28324705Y-3859247D01*
G01X28324705Y-3813527D02*
G01X28330547Y-3796255D01*
G01X28341977Y-3784825D01*
G01X28353407Y-3779237D01*
G01X28370425Y-3779237D01*
G01X28418177Y-3807685D02*
G01X28521047Y-3807685D01*
G01X28568799Y-3739105D02*
G01X28568799Y-3859247D01*
G01X28568799Y-3739105D02*
G01X28620361Y-3739105D01*
G01X28637379Y-3744947D01*
G01X28643221Y-3750535D01*
G01X28648809Y-3761965D01*
G01X28648809Y-3773395D01*
G01X28643221Y-3784825D01*
G01X28637379Y-3790667D01*
G01X28620361Y-3796255D01*
G01X28568799Y-3796255D02*
G01X28620361Y-3796255D01*
G01X28637379Y-3802097D01*
G01X28643221Y-3807685D01*
G01X28648809Y-3819115D01*
G01X28648809Y-3836387D01*
G01X28643221Y-3847817D01*
G01X28637379Y-3853405D01*
G01X28620361Y-3859247D01*
G01X28568799Y-3859247D01*
G01X28725263Y-3779237D02*
G01X28713833Y-3784825D01*
G01X28702403Y-3796255D01*
G01X28696561Y-3813527D01*
G01X28696561Y-3824957D01*
G01X28702403Y-3841975D01*
G01X28713833Y-3853405D01*
G01X28725263Y-3859247D01*
G01X28742281Y-3859247D01*
G01X28753711Y-3853405D01*
G01X28765141Y-3841975D01*
G01X28770983Y-3824957D01*
G01X28770983Y-3813527D01*
G01X28765141Y-3796255D01*
G01X28753711Y-3784825D01*
G01X28742281Y-3779237D01*
G01X28725263Y-3779237D01*
G01X28836007Y-3739105D02*
G01X28836007Y-3836387D01*
G01X28841595Y-3853405D01*
G01X28853025Y-3859247D01*
G01X28864455Y-3859247D01*
G01X28818735Y-3779237D02*
G01X28858867Y-3779237D01*
G01X28929479Y-3739105D02*
G01X28929479Y-3836387D01*
G01X28935067Y-3853405D01*
G01X28946497Y-3859247D01*
G01X28957927Y-3859247D01*
G01X28912207Y-3779237D02*
G01X28952339Y-3779237D01*
G01X29034381Y-3779237D02*
G01X29022951Y-3784825D01*
G01X29011521Y-3796255D01*
G01X29005679Y-3813527D01*
G01X29005679Y-3824957D01*
G01X29011521Y-3841975D01*
G01X29022951Y-3853405D01*
G01X29034381Y-3859247D01*
G01X29051399Y-3859247D01*
G01X29062829Y-3853405D01*
G01X29074259Y-3841975D01*
G01X29080101Y-3824957D01*
G01X29080101Y-3813527D01*
G01X29074259Y-3796255D01*
G01X29062829Y-3784825D01*
G01X29051399Y-3779237D01*
G01X29034381Y-3779237D01*
G01X29127853Y-3779237D02*
G01X29127853Y-3859247D01*
G01X29127853Y-3802097D02*
G01X29145125Y-3784825D01*
G01X29156555Y-3779237D01*
G01X29173573Y-3779237D01*
G01X29185003Y-3784825D01*
G01X29190845Y-3802097D01*
G01X29190845Y-3859247D01*
G01X29190845Y-3802097D02*
G01X29207863Y-3784825D01*
G01X29219293Y-3779237D01*
G01X29236565Y-3779237D01*
G01X29247995Y-3784825D01*
G01X29253583Y-3802097D01*
G01X29253583Y-3859247D01*
G01X29429351Y-3739105D02*
G01X29429351Y-3859247D01*
G01X29429351Y-3859247D02*
G01X29497931Y-3859247D01*
G01X29614263Y-3779237D02*
G01X29614263Y-3859247D01*
G01X29614263Y-3796255D02*
G01X29602833Y-3784825D01*
G01X29591403Y-3779237D01*
G01X29574385Y-3779237D01*
G01X29562955Y-3784825D01*
G01X29551525Y-3796255D01*
G01X29545683Y-3813527D01*
G01X29545683Y-3824957D01*
G01X29551525Y-3841975D01*
G01X29562955Y-3853405D01*
G01X29574385Y-3859247D01*
G01X29591403Y-3859247D01*
G01X29602833Y-3853405D01*
G01X29614263Y-3841975D01*
G01X29667857Y-3779237D02*
G01X29702147Y-3859247D01*
G01X29736437Y-3779237D02*
G01X29702147Y-3859247D01*
G01X29690717Y-3882107D01*
G01X29679287Y-3893537D01*
G01X29667857Y-3899125D01*
G01X29662015Y-3899125D01*
G01X29784189Y-3813527D02*
G01X29852769Y-3813527D01*
G01X29852769Y-3802097D01*
G01X29847181Y-3790667D01*
G01X29841339Y-3784825D01*
G01X29829909Y-3779237D01*
G01X29812891Y-3779237D01*
G01X29801461Y-3784825D01*
G01X29790031Y-3796255D01*
G01X29784189Y-3813527D01*
G01X29784189Y-3824957D01*
G01X29790031Y-3841975D01*
G01X29801461Y-3853405D01*
G01X29812891Y-3859247D01*
G01X29829909Y-3859247D01*
G01X29841339Y-3853405D01*
G01X29852769Y-3841975D01*
G01X29900521Y-3779237D02*
G01X29900521Y-3859247D01*
G01X29900521Y-3813527D02*
G01X29906363Y-3796255D01*
G01X29917793Y-3784825D01*
G01X29929223Y-3779237D01*
G01X29946241Y-3779237D01*
G01X15510804Y-4319676D02*
G01X15573796Y-4319676D01*
G01X15539506Y-4365396D01*
G01X15556524Y-4365396D01*
G01X15567954Y-4371238D01*
G01X15573796Y-4376826D01*
G01X15579384Y-4394098D01*
G01X15579384Y-4405528D01*
G01X15573796Y-4422546D01*
G01X15562366Y-4433976D01*
G01X15545094Y-4439818D01*
G01X15528076Y-4439818D01*
G01X15510804Y-4433976D01*
G01X15505216Y-4428388D01*
G01X15499374Y-4416958D01*
G01X16970687Y-4319676D02*
G01X16913537Y-4399686D01*
G01X16999389Y-4399686D01*
G01X16970687Y-4319676D02*
G01X16970687Y-4439818D01*
G01X17058571Y-4319676D02*
G01X17121563Y-4319676D01*
G01X17087273Y-4365396D01*
G01X17104291Y-4365396D01*
G01X17115721Y-4371238D01*
G01X17121563Y-4376826D01*
G01X17127151Y-4394098D01*
G01X17127151Y-4405528D01*
G01X17121563Y-4422546D01*
G01X17110133Y-4433976D01*
G01X17092861Y-4439818D01*
G01X17075843Y-4439818D01*
G01X17058571Y-4433976D01*
G01X17052983Y-4428388D01*
G01X17047141Y-4416958D01*
G01X17180745Y-4411116D02*
G01X17174903Y-4416958D01*
G01X17180745Y-4422546D01*
G01X17186333Y-4416958D01*
G01X17180745Y-4411116D01*
G01X17245515Y-4319676D02*
G01X17308507Y-4319676D01*
G01X17274217Y-4365396D01*
G01X17291235Y-4365396D01*
G01X17302665Y-4371238D01*
G01X17308507Y-4376826D01*
G01X17314095Y-4394098D01*
G01X17314095Y-4405528D01*
G01X17308507Y-4422546D01*
G01X17297077Y-4433976D01*
G01X17279805Y-4439818D01*
G01X17262787Y-4439818D01*
G01X17245515Y-4433976D01*
G01X17239927Y-4428388D01*
G01X17234085Y-4416958D01*
G01X17361847Y-4359808D02*
G01X17424839Y-4439818D01*
G01X17424839Y-4359808D02*
G01X17361847Y-4439818D01*
G01X17529741Y-4319676D02*
G01X17472591Y-4399686D01*
G01X17558443Y-4399686D01*
G01X17529741Y-4319676D02*
G01X17529741Y-4439818D01*
G01X17617625Y-4319676D02*
G01X17680617Y-4319676D01*
G01X17646327Y-4365396D01*
G01X17663345Y-4365396D01*
G01X17674775Y-4371238D01*
G01X17680617Y-4376826D01*
G01X17686205Y-4394098D01*
G01X17686205Y-4405528D01*
G01X17680617Y-4422546D01*
G01X17669187Y-4433976D01*
G01X17651915Y-4439818D01*
G01X17634897Y-4439818D01*
G01X17617625Y-4433976D01*
G01X17612037Y-4428388D01*
G01X17606195Y-4416958D01*
G01X17739799Y-4411116D02*
G01X17733957Y-4416958D01*
G01X17739799Y-4422546D01*
G01X17745387Y-4416958D01*
G01X17739799Y-4411116D01*
G01X17804569Y-4319676D02*
G01X17867561Y-4319676D01*
G01X17833271Y-4365396D01*
G01X17850289Y-4365396D01*
G01X17861719Y-4371238D01*
G01X17867561Y-4376826D01*
G01X17873149Y-4394098D01*
G01X17873149Y-4405528D01*
G01X17867561Y-4422546D01*
G01X17856131Y-4433976D01*
G01X17838859Y-4439818D01*
G01X17821841Y-4439818D01*
G01X17804569Y-4433976D01*
G01X17798981Y-4428388D01*
G01X17793139Y-4416958D01*
G01X17920901Y-4359808D02*
G01X17920901Y-4439818D01*
G01X17920901Y-4382668D02*
G01X17938173Y-4365396D01*
G01X17949603Y-4359808D01*
G01X17966621Y-4359808D01*
G01X17978051Y-4365396D01*
G01X17983893Y-4382668D01*
G01X17983893Y-4439818D01*
G01X17983893Y-4382668D02*
G01X18000911Y-4365396D01*
G01X18012341Y-4359808D01*
G01X18029613Y-4359808D01*
G01X18041043Y-4365396D01*
G01X18046631Y-4382668D01*
G01X18046631Y-4439818D01*
G01X18094383Y-4319676D02*
G01X18100225Y-4325518D01*
G01X18105813Y-4319676D01*
G01X18100225Y-4314088D01*
G01X18094383Y-4319676D01*
G01X18100225Y-4359808D02*
G01X18100225Y-4439818D01*
G01X18153565Y-4319676D02*
G01X18153565Y-4439818D01*
G01X18241449Y-4296816D02*
G01X18230019Y-4308246D01*
G01X18218589Y-4325518D01*
G01X18207159Y-4348378D01*
G01X18201317Y-4376826D01*
G01X18201317Y-4399686D01*
G01X18207159Y-4428388D01*
G01X18218589Y-4451248D01*
G01X18230019Y-4468266D01*
G01X18241449Y-4479696D01*
G01X18289201Y-4342536D02*
G01X18300631Y-4336948D01*
G01X18317903Y-4319676D01*
G01X18317903Y-4439818D01*
G01X18371497Y-4411116D02*
G01X18365655Y-4416958D01*
G01X18371497Y-4422546D01*
G01X18377085Y-4416958D01*
G01X18371497Y-4411116D01*
G01X18424837Y-4342536D02*
G01X18436267Y-4336948D01*
G01X18453539Y-4319676D01*
G01X18453539Y-4439818D01*
G01X18535581Y-4319676D02*
G01X18518563Y-4325518D01*
G01X18507133Y-4342536D01*
G01X18501291Y-4371238D01*
G01X18501291Y-4388256D01*
G01X18507133Y-4416958D01*
G01X18518563Y-4433976D01*
G01X18535581Y-4439818D01*
G01X18547011Y-4439818D01*
G01X18564283Y-4433976D01*
G01X18575713Y-4416958D01*
G01X18581301Y-4388256D01*
G01X18581301Y-4371238D01*
G01X18575713Y-4342536D01*
G01X18564283Y-4325518D01*
G01X18547011Y-4319676D01*
G01X18535581Y-4319676D01*
G01X18663343Y-4319676D02*
G01X18646325Y-4325518D01*
G01X18634895Y-4342536D01*
G01X18629053Y-4371238D01*
G01X18629053Y-4388256D01*
G01X18634895Y-4416958D01*
G01X18646325Y-4433976D01*
G01X18663343Y-4439818D01*
G01X18674773Y-4439818D01*
G01X18692045Y-4433976D01*
G01X18703475Y-4416958D01*
G01X18709063Y-4388256D01*
G01X18709063Y-4371238D01*
G01X18703475Y-4342536D01*
G01X18692045Y-4325518D01*
G01X18674773Y-4319676D01*
G01X18663343Y-4319676D01*
G01X18756815Y-4359808D02*
G01X18819807Y-4439818D01*
G01X18819807Y-4359808D02*
G01X18756815Y-4439818D01*
G01X18867559Y-4342536D02*
G01X18878989Y-4336948D01*
G01X18896261Y-4319676D01*
G01X18896261Y-4439818D01*
G01X18949855Y-4411116D02*
G01X18944013Y-4416958D01*
G01X18949855Y-4422546D01*
G01X18955443Y-4416958D01*
G01X18949855Y-4411116D01*
G01X19003195Y-4342536D02*
G01X19014625Y-4336948D01*
G01X19031897Y-4319676D01*
G01X19031897Y-4439818D01*
G01X19113939Y-4319676D02*
G01X19096921Y-4325518D01*
G01X19085491Y-4342536D01*
G01X19079649Y-4371238D01*
G01X19079649Y-4388256D01*
G01X19085491Y-4416958D01*
G01X19096921Y-4433976D01*
G01X19113939Y-4439818D01*
G01X19125369Y-4439818D01*
G01X19142641Y-4433976D01*
G01X19154071Y-4416958D01*
G01X19159659Y-4388256D01*
G01X19159659Y-4371238D01*
G01X19154071Y-4342536D01*
G01X19142641Y-4325518D01*
G01X19125369Y-4319676D01*
G01X19113939Y-4319676D01*
G01X19241701Y-4319676D02*
G01X19224683Y-4325518D01*
G01X19213253Y-4342536D01*
G01X19207411Y-4371238D01*
G01X19207411Y-4388256D01*
G01X19213253Y-4416958D01*
G01X19224683Y-4433976D01*
G01X19241701Y-4439818D01*
G01X19253131Y-4439818D01*
G01X19270403Y-4433976D01*
G01X19281833Y-4416958D01*
G01X19287421Y-4388256D01*
G01X19287421Y-4371238D01*
G01X19281833Y-4342536D01*
G01X19270403Y-4325518D01*
G01X19253131Y-4319676D01*
G01X19241701Y-4319676D01*
G01X19335173Y-4359808D02*
G01X19335173Y-4439818D01*
G01X19335173Y-4382668D02*
G01X19352445Y-4365396D01*
G01X19363875Y-4359808D01*
G01X19380893Y-4359808D01*
G01X19392323Y-4365396D01*
G01X19398165Y-4382668D01*
G01X19398165Y-4439818D01*
G01X19398165Y-4382668D02*
G01X19415183Y-4365396D01*
G01X19426613Y-4359808D01*
G01X19443885Y-4359808D01*
G01X19455315Y-4365396D01*
G01X19460903Y-4382668D01*
G01X19460903Y-4439818D01*
G01X19508655Y-4359808D02*
G01X19508655Y-4439818D01*
G01X19508655Y-4382668D02*
G01X19525927Y-4365396D01*
G01X19537357Y-4359808D01*
G01X19554375Y-4359808D01*
G01X19565805Y-4365396D01*
G01X19571647Y-4382668D01*
G01X19571647Y-4439818D01*
G01X19571647Y-4382668D02*
G01X19588665Y-4365396D01*
G01X19600095Y-4359808D01*
G01X19617367Y-4359808D01*
G01X19628797Y-4365396D01*
G01X19634385Y-4382668D01*
G01X19634385Y-4439818D01*
G01X19682137Y-4296816D02*
G01X19693567Y-4308246D01*
G01X19704997Y-4325518D01*
G01X19716427Y-4348378D01*
G01X19722269Y-4376826D01*
G01X19722269Y-4399686D01*
G01X19716427Y-4428388D01*
G01X19704997Y-4451248D01*
G01X19693567Y-4468266D01*
G01X19682137Y-4479696D01*
G01X20878115Y-4319676D02*
G01X20878115Y-4439818D01*
G01X20878115Y-4319676D02*
G01X20929677Y-4319676D01*
G01X20946695Y-4325518D01*
G01X20952537Y-4331106D01*
G01X20958125Y-4342536D01*
G01X20958125Y-4359808D01*
G01X20952537Y-4371238D01*
G01X20946695Y-4376826D01*
G01X20929677Y-4382668D01*
G01X20878115Y-4382668D01*
G01X21046009Y-4319676D02*
G01X21046009Y-4439818D01*
G01X21005877Y-4319676D02*
G01X21085887Y-4319676D01*
G01X21133639Y-4319676D02*
G01X21133639Y-4439818D01*
G01X21213649Y-4319676D02*
G01X21213649Y-4439818D01*
G01X21133639Y-4376826D02*
G01X21213649Y-4376826D01*
G01X22339522Y-4319676D02*
G01X22339522Y-4439818D01*
G01X22339522Y-4319676D02*
G01X22391084Y-4319676D01*
G01X22408102Y-4325518D01*
G01X22413944Y-4331106D01*
G01X22419532Y-4342536D01*
G01X22419532Y-4353966D01*
G01X22413944Y-4365396D01*
G01X22408102Y-4371238D01*
G01X22391084Y-4376826D01*
G01X22339522Y-4376826D01*
G01X22379654Y-4376826D02*
G01X22419532Y-4439818D01*
G01X22495986Y-4359808D02*
G01X22484556Y-4365396D01*
G01X22473126Y-4376826D01*
G01X22467284Y-4394098D01*
G01X22467284Y-4405528D01*
G01X22473126Y-4422546D01*
G01X22484556Y-4433976D01*
G01X22495986Y-4439818D01*
G01X22513004Y-4439818D01*
G01X22524434Y-4433976D01*
G01X22535864Y-4422546D01*
G01X22541706Y-4405528D01*
G01X22541706Y-4394098D01*
G01X22535864Y-4376826D01*
G01X22524434Y-4365396D01*
G01X22513004Y-4359808D01*
G01X22495986Y-4359808D01*
G01X22589458Y-4359808D02*
G01X22589458Y-4416958D01*
G01X22595300Y-4433976D01*
G01X22606730Y-4439818D01*
G01X22623748Y-4439818D01*
G01X22635178Y-4433976D01*
G01X22652450Y-4416958D01*
G01X22652450Y-4359808D02*
G01X22652450Y-4439818D01*
G01X22700202Y-4359808D02*
G01X22700202Y-4439818D01*
G01X22700202Y-4382668D02*
G01X22717474Y-4365396D01*
G01X22728904Y-4359808D01*
G01X22745922Y-4359808D01*
G01X22757352Y-4365396D01*
G01X22763194Y-4382668D01*
G01X22763194Y-4439818D01*
G01X22879526Y-4319676D02*
G01X22879526Y-4439818D01*
G01X22879526Y-4376826D02*
G01X22868096Y-4365396D01*
G01X22856666Y-4359808D01*
G01X22839648Y-4359808D01*
G01X22828218Y-4365396D01*
G01X22816788Y-4376826D01*
G01X22810946Y-4394098D01*
G01X22810946Y-4405528D01*
G01X22816788Y-4422546D01*
G01X22828218Y-4433976D01*
G01X22839648Y-4439818D01*
G01X22856666Y-4439818D01*
G01X22868096Y-4433976D01*
G01X22879526Y-4422546D01*
G01X23770703Y-4319676D02*
G01X23770703Y-4439818D01*
G01X23770703Y-4319676D02*
G01X23822265Y-4319676D01*
G01X23839283Y-4325518D01*
G01X23845125Y-4331106D01*
G01X23850713Y-4342536D01*
G01X23850713Y-4359808D01*
G01X23845125Y-4371238D01*
G01X23839283Y-4376826D01*
G01X23822265Y-4382668D01*
G01X23770703Y-4382668D01*
G01X23967045Y-4359808D02*
G01X23967045Y-4439818D01*
G01X23967045Y-4376826D02*
G01X23955615Y-4365396D01*
G01X23944185Y-4359808D01*
G01X23927167Y-4359808D01*
G01X23915737Y-4365396D01*
G01X23904307Y-4376826D01*
G01X23898465Y-4394098D01*
G01X23898465Y-4405528D01*
G01X23904307Y-4422546D01*
G01X23915737Y-4433976D01*
G01X23927167Y-4439818D01*
G01X23944185Y-4439818D01*
G01X23955615Y-4433976D01*
G01X23967045Y-4422546D01*
G01X24083377Y-4319676D02*
G01X24083377Y-4439818D01*
G01X24083377Y-4376826D02*
G01X24071947Y-4365396D01*
G01X24060517Y-4359808D01*
G01X24043499Y-4359808D01*
G01X24032069Y-4365396D01*
G01X24020639Y-4376826D01*
G01X24014797Y-4394098D01*
G01X24014797Y-4405528D01*
G01X24020639Y-4422546D01*
G01X24032069Y-4433976D01*
G01X24043499Y-4439818D01*
G01X24060517Y-4439818D01*
G01X24071947Y-4433976D01*
G01X24083377Y-4422546D01*
G01X25480014Y-4296816D02*
G01X25468584Y-4308246D01*
G01X25457154Y-4325518D01*
G01X25445724Y-4348378D01*
G01X25439882Y-4376826D01*
G01X25439882Y-4399686D01*
G01X25445724Y-4428388D01*
G01X25457154Y-4451248D01*
G01X25468584Y-4468266D01*
G01X25480014Y-4479696D01*
G01X25527766Y-4319676D02*
G01X25527766Y-4439818D01*
G01X25527766Y-4319676D02*
G01X25573486Y-4439818D01*
G01X25619206Y-4319676D02*
G01X25573486Y-4439818D01*
G01X25619206Y-4319676D02*
G01X25619206Y-4439818D01*
G01X25666958Y-4319676D02*
G01X25672800Y-4325518D01*
G01X25678388Y-4319676D01*
G01X25672800Y-4314088D01*
G01X25666958Y-4319676D01*
G01X25672800Y-4359808D02*
G01X25672800Y-4439818D01*
G01X25726140Y-4359808D02*
G01X25789132Y-4439818D01*
G01X25789132Y-4359808D02*
G01X25726140Y-4439818D01*
G01X25836884Y-4394098D02*
G01X25905464Y-4394098D01*
G01X25905464Y-4382668D01*
G01X25899876Y-4371238D01*
G01X25894034Y-4365396D01*
G01X25882604Y-4359808D01*
G01X25865586Y-4359808D01*
G01X25854156Y-4365396D01*
G01X25842726Y-4376826D01*
G01X25836884Y-4394098D01*
G01X25836884Y-4405528D01*
G01X25842726Y-4422546D01*
G01X25854156Y-4433976D01*
G01X25865586Y-4439818D01*
G01X25882604Y-4439818D01*
G01X25894034Y-4433976D01*
G01X25905464Y-4422546D01*
G01X26021796Y-4319676D02*
G01X26021796Y-4439818D01*
G01X26021796Y-4376826D02*
G01X26010366Y-4365396D01*
G01X25998936Y-4359808D01*
G01X25981918Y-4359808D01*
G01X25970488Y-4365396D01*
G01X25959058Y-4376826D01*
G01X25953216Y-4394098D01*
G01X25953216Y-4405528D01*
G01X25959058Y-4422546D01*
G01X25970488Y-4433976D01*
G01X25981918Y-4439818D01*
G01X25998936Y-4439818D01*
G01X26010366Y-4433976D01*
G01X26021796Y-4422546D01*
G01X26069548Y-4296816D02*
G01X26080978Y-4308246D01*
G01X26092408Y-4325518D01*
G01X26103838Y-4348378D01*
G01X26109680Y-4376826D01*
G01X26109680Y-4399686D01*
G01X26103838Y-4428388D01*
G01X26092408Y-4451248D01*
G01X26080978Y-4468266D01*
G01X26069548Y-4479696D01*
G01X27399383Y-4319676D02*
G01X27399383Y-4439818D01*
G01X27359251Y-4319676D02*
G01X27439261Y-4319676D01*
G01X27515715Y-4359808D02*
G01X27504285Y-4365396D01*
G01X27492855Y-4376826D01*
G01X27487013Y-4394098D01*
G01X27487013Y-4405528D01*
G01X27492855Y-4422546D01*
G01X27504285Y-4433976D01*
G01X27515715Y-4439818D01*
G01X27532733Y-4439818D01*
G01X27544163Y-4433976D01*
G01X27555593Y-4422546D01*
G01X27561435Y-4405528D01*
G01X27561435Y-4394098D01*
G01X27555593Y-4376826D01*
G01X27544163Y-4365396D01*
G01X27532733Y-4359808D01*
G01X27515715Y-4359808D01*
G01X27609187Y-4359808D02*
G01X27609187Y-4479696D01*
G01X27609187Y-4376826D02*
G01X27620617Y-4365396D01*
G01X27632047Y-4359808D01*
G01X27649319Y-4359808D01*
G01X27660749Y-4365396D01*
G01X27672179Y-4376826D01*
G01X27677767Y-4394098D01*
G01X27677767Y-4405528D01*
G01X27672179Y-4422546D01*
G01X27660749Y-4433976D01*
G01X27649319Y-4439818D01*
G01X27632047Y-4439818D01*
G01X27620617Y-4433976D01*
G01X27609187Y-4422546D01*
G01X27853535Y-4319676D02*
G01X27853535Y-4439818D01*
G01X27853535Y-4439818D02*
G01X27922115Y-4439818D01*
G01X28038447Y-4359808D02*
G01X28038447Y-4439818D01*
G01X28038447Y-4376826D02*
G01X28027017Y-4365396D01*
G01X28015587Y-4359808D01*
G01X27998569Y-4359808D01*
G01X27987139Y-4365396D01*
G01X27975709Y-4376826D01*
G01X27969867Y-4394098D01*
G01X27969867Y-4405528D01*
G01X27975709Y-4422546D01*
G01X27987139Y-4433976D01*
G01X27998569Y-4439818D01*
G01X28015587Y-4439818D01*
G01X28027017Y-4433976D01*
G01X28038447Y-4422546D01*
G01X28092041Y-4359808D02*
G01X28126331Y-4439818D01*
G01X28160621Y-4359808D02*
G01X28126331Y-4439818D01*
G01X28114901Y-4462678D01*
G01X28103471Y-4474108D01*
G01X28092041Y-4479696D01*
G01X28086199Y-4479696D01*
G01X28208373Y-4394098D02*
G01X28276953Y-4394098D01*
G01X28276953Y-4382668D01*
G01X28271365Y-4371238D01*
G01X28265523Y-4365396D01*
G01X28254093Y-4359808D01*
G01X28237075Y-4359808D01*
G01X28225645Y-4365396D01*
G01X28214215Y-4376826D01*
G01X28208373Y-4394098D01*
G01X28208373Y-4405528D01*
G01X28214215Y-4422546D01*
G01X28225645Y-4433976D01*
G01X28237075Y-4439818D01*
G01X28254093Y-4439818D01*
G01X28265523Y-4433976D01*
G01X28276953Y-4422546D01*
G01X28324705Y-4359808D02*
G01X28324705Y-4439818D01*
G01X28324705Y-4394098D02*
G01X28330547Y-4376826D01*
G01X28341977Y-4365396D01*
G01X28353407Y-4359808D01*
G01X28370425Y-4359808D01*
G01X28418177Y-4388256D02*
G01X28521047Y-4388256D01*
G01X28568799Y-4319676D02*
G01X28568799Y-4439818D01*
G01X28568799Y-4319676D02*
G01X28620361Y-4319676D01*
G01X28637379Y-4325518D01*
G01X28643221Y-4331106D01*
G01X28648809Y-4342536D01*
G01X28648809Y-4353966D01*
G01X28643221Y-4365396D01*
G01X28637379Y-4371238D01*
G01X28620361Y-4376826D01*
G01X28568799Y-4376826D02*
G01X28620361Y-4376826D01*
G01X28637379Y-4382668D01*
G01X28643221Y-4388256D01*
G01X28648809Y-4399686D01*
G01X28648809Y-4416958D01*
G01X28643221Y-4428388D01*
G01X28637379Y-4433976D01*
G01X28620361Y-4439818D01*
G01X28568799Y-4439818D01*
G01X28725263Y-4359808D02*
G01X28713833Y-4365396D01*
G01X28702403Y-4376826D01*
G01X28696561Y-4394098D01*
G01X28696561Y-4405528D01*
G01X28702403Y-4422546D01*
G01X28713833Y-4433976D01*
G01X28725263Y-4439818D01*
G01X28742281Y-4439818D01*
G01X28753711Y-4433976D01*
G01X28765141Y-4422546D01*
G01X28770983Y-4405528D01*
G01X28770983Y-4394098D01*
G01X28765141Y-4376826D01*
G01X28753711Y-4365396D01*
G01X28742281Y-4359808D01*
G01X28725263Y-4359808D01*
G01X28836007Y-4319676D02*
G01X28836007Y-4416958D01*
G01X28841595Y-4433976D01*
G01X28853025Y-4439818D01*
G01X28864455Y-4439818D01*
G01X28818735Y-4359808D02*
G01X28858867Y-4359808D01*
G01X28929479Y-4319676D02*
G01X28929479Y-4416958D01*
G01X28935067Y-4433976D01*
G01X28946497Y-4439818D01*
G01X28957927Y-4439818D01*
G01X28912207Y-4359808D02*
G01X28952339Y-4359808D01*
G01X29034381Y-4359808D02*
G01X29022951Y-4365396D01*
G01X29011521Y-4376826D01*
G01X29005679Y-4394098D01*
G01X29005679Y-4405528D01*
G01X29011521Y-4422546D01*
G01X29022951Y-4433976D01*
G01X29034381Y-4439818D01*
G01X29051399Y-4439818D01*
G01X29062829Y-4433976D01*
G01X29074259Y-4422546D01*
G01X29080101Y-4405528D01*
G01X29080101Y-4394098D01*
G01X29074259Y-4376826D01*
G01X29062829Y-4365396D01*
G01X29051399Y-4359808D01*
G01X29034381Y-4359808D01*
G01X29127853Y-4359808D02*
G01X29127853Y-4439818D01*
G01X29127853Y-4382668D02*
G01X29145125Y-4365396D01*
G01X29156555Y-4359808D01*
G01X29173573Y-4359808D01*
G01X29185003Y-4365396D01*
G01X29190845Y-4382668D01*
G01X29190845Y-4439818D01*
G01X29190845Y-4382668D02*
G01X29207863Y-4365396D01*
G01X29219293Y-4359808D01*
G01X29236565Y-4359808D01*
G01X29247995Y-4365396D01*
G01X29253583Y-4382668D01*
G01X29253583Y-4439818D01*
G01X29429351Y-4319676D02*
G01X29429351Y-4439818D01*
G01X29429351Y-4439818D02*
G01X29497931Y-4439818D01*
G01X29614263Y-4359808D02*
G01X29614263Y-4439818D01*
G01X29614263Y-4376826D02*
G01X29602833Y-4365396D01*
G01X29591403Y-4359808D01*
G01X29574385Y-4359808D01*
G01X29562955Y-4365396D01*
G01X29551525Y-4376826D01*
G01X29545683Y-4394098D01*
G01X29545683Y-4405528D01*
G01X29551525Y-4422546D01*
G01X29562955Y-4433976D01*
G01X29574385Y-4439818D01*
G01X29591403Y-4439818D01*
G01X29602833Y-4433976D01*
G01X29614263Y-4422546D01*
G01X29667857Y-4359808D02*
G01X29702147Y-4439818D01*
G01X29736437Y-4359808D02*
G01X29702147Y-4439818D01*
G01X29690717Y-4462678D01*
G01X29679287Y-4474108D01*
G01X29667857Y-4479696D01*
G01X29662015Y-4479696D01*
G01X29784189Y-4394098D02*
G01X29852769Y-4394098D01*
G01X29852769Y-4382668D01*
G01X29847181Y-4371238D01*
G01X29841339Y-4365396D01*
G01X29829909Y-4359808D01*
G01X29812891Y-4359808D01*
G01X29801461Y-4365396D01*
G01X29790031Y-4376826D01*
G01X29784189Y-4394098D01*
G01X29784189Y-4405528D01*
G01X29790031Y-4422546D01*
G01X29801461Y-4433976D01*
G01X29812891Y-4439818D01*
G01X29829909Y-4439818D01*
G01X29841339Y-4433976D01*
G01X29852769Y-4422546D01*
G01X29900521Y-4359808D02*
G01X29900521Y-4439818D01*
G01X29900521Y-4394098D02*
G01X29906363Y-4376826D01*
G01X29917793Y-4365396D01*
G01X29929223Y-4359808D01*
G01X29946241Y-4359808D01*
G01X15510804Y-4900248D02*
G01X15573796Y-4900248D01*
G01X15539506Y-4945968D01*
G01X15556524Y-4945968D01*
G01X15567954Y-4951810D01*
G01X15573796Y-4957398D01*
G01X15579384Y-4974670D01*
G01X15579384Y-4986100D01*
G01X15573796Y-5003118D01*
G01X15562366Y-5014548D01*
G01X15545094Y-5020390D01*
G01X15528076Y-5020390D01*
G01X15510804Y-5014548D01*
G01X15505216Y-5008960D01*
G01X15499374Y-4997530D01*
G01X16924967Y-4900248D02*
G01X16987959Y-4900248D01*
G01X16953669Y-4945968D01*
G01X16970687Y-4945968D01*
G01X16982117Y-4951810D01*
G01X16987959Y-4957398D01*
G01X16993547Y-4974670D01*
G01X16993547Y-4986100D01*
G01X16987959Y-5003118D01*
G01X16976529Y-5014548D01*
G01X16959257Y-5020390D01*
G01X16942239Y-5020390D01*
G01X16924967Y-5014548D01*
G01X16919379Y-5008960D01*
G01X16913537Y-4997530D01*
G01X17075589Y-4900248D02*
G01X17058571Y-4906090D01*
G01X17047141Y-4923108D01*
G01X17041299Y-4951810D01*
G01X17041299Y-4968828D01*
G01X17047141Y-4997530D01*
G01X17058571Y-5014548D01*
G01X17075589Y-5020390D01*
G01X17087019Y-5020390D01*
G01X17104291Y-5014548D01*
G01X17115721Y-4997530D01*
G01X17121309Y-4968828D01*
G01X17121309Y-4951810D01*
G01X17115721Y-4923108D01*
G01X17104291Y-4906090D01*
G01X17087019Y-4900248D01*
G01X17075589Y-4900248D01*
G01X17174903Y-4991688D02*
G01X17169061Y-4997530D01*
G01X17174903Y-5003118D01*
G01X17180491Y-4997530D01*
G01X17174903Y-4991688D01*
G01X17262533Y-4900248D02*
G01X17245515Y-4906090D01*
G01X17234085Y-4923108D01*
G01X17228243Y-4951810D01*
G01X17228243Y-4968828D01*
G01X17234085Y-4997530D01*
G01X17245515Y-5014548D01*
G01X17262533Y-5020390D01*
G01X17273963Y-5020390D01*
G01X17291235Y-5014548D01*
G01X17302665Y-4997530D01*
G01X17308253Y-4968828D01*
G01X17308253Y-4951810D01*
G01X17302665Y-4923108D01*
G01X17291235Y-4906090D01*
G01X17273963Y-4900248D01*
G01X17262533Y-4900248D01*
G01X17356005Y-4940380D02*
G01X17418997Y-5020390D01*
G01X17418997Y-4940380D02*
G01X17356005Y-5020390D01*
G01X17478179Y-4900248D02*
G01X17541171Y-4900248D01*
G01X17506881Y-4945968D01*
G01X17523899Y-4945968D01*
G01X17535329Y-4951810D01*
G01X17541171Y-4957398D01*
G01X17546759Y-4974670D01*
G01X17546759Y-4986100D01*
G01X17541171Y-5003118D01*
G01X17529741Y-5014548D01*
G01X17512469Y-5020390D01*
G01X17495451Y-5020390D01*
G01X17478179Y-5014548D01*
G01X17472591Y-5008960D01*
G01X17466749Y-4997530D01*
G01X17628801Y-4900248D02*
G01X17611783Y-4906090D01*
G01X17600353Y-4923108D01*
G01X17594511Y-4951810D01*
G01X17594511Y-4968828D01*
G01X17600353Y-4997530D01*
G01X17611783Y-5014548D01*
G01X17628801Y-5020390D01*
G01X17640231Y-5020390D01*
G01X17657503Y-5014548D01*
G01X17668933Y-4997530D01*
G01X17674521Y-4968828D01*
G01X17674521Y-4951810D01*
G01X17668933Y-4923108D01*
G01X17657503Y-4906090D01*
G01X17640231Y-4900248D01*
G01X17628801Y-4900248D01*
G01X17728115Y-4991688D02*
G01X17722273Y-4997530D01*
G01X17728115Y-5003118D01*
G01X17733703Y-4997530D01*
G01X17728115Y-4991688D01*
G01X17815745Y-4900248D02*
G01X17798727Y-4906090D01*
G01X17787297Y-4923108D01*
G01X17781455Y-4951810D01*
G01X17781455Y-4968828D01*
G01X17787297Y-4997530D01*
G01X17798727Y-5014548D01*
G01X17815745Y-5020390D01*
G01X17827175Y-5020390D01*
G01X17844447Y-5014548D01*
G01X17855877Y-4997530D01*
G01X17861465Y-4968828D01*
G01X17861465Y-4951810D01*
G01X17855877Y-4923108D01*
G01X17844447Y-4906090D01*
G01X17827175Y-4900248D01*
G01X17815745Y-4900248D01*
G01X17909217Y-4940380D02*
G01X17909217Y-5020390D01*
G01X17909217Y-4963240D02*
G01X17926489Y-4945968D01*
G01X17937919Y-4940380D01*
G01X17954937Y-4940380D01*
G01X17966367Y-4945968D01*
G01X17972209Y-4963240D01*
G01X17972209Y-5020390D01*
G01X17972209Y-4963240D02*
G01X17989227Y-4945968D01*
G01X18000657Y-4940380D01*
G01X18017929Y-4940380D01*
G01X18029359Y-4945968D01*
G01X18034947Y-4963240D01*
G01X18034947Y-5020390D01*
G01X18082699Y-4900248D02*
G01X18088541Y-4906090D01*
G01X18094129Y-4900248D01*
G01X18088541Y-4894660D01*
G01X18082699Y-4900248D01*
G01X18088541Y-4940380D02*
G01X18088541Y-5020390D01*
G01X18141881Y-4900248D02*
G01X18141881Y-5020390D01*
G01X18229765Y-4877388D02*
G01X18218335Y-4888818D01*
G01X18206905Y-4906090D01*
G01X18195475Y-4928950D01*
G01X18189633Y-4957398D01*
G01X18189633Y-4980258D01*
G01X18195475Y-5008960D01*
G01X18206905Y-5031820D01*
G01X18218335Y-5048838D01*
G01X18229765Y-5060268D01*
G01X18311807Y-4900248D02*
G01X18294789Y-4906090D01*
G01X18283359Y-4923108D01*
G01X18277517Y-4951810D01*
G01X18277517Y-4968828D01*
G01X18283359Y-4997530D01*
G01X18294789Y-5014548D01*
G01X18311807Y-5020390D01*
G01X18323237Y-5020390D01*
G01X18340509Y-5014548D01*
G01X18351939Y-4997530D01*
G01X18357527Y-4968828D01*
G01X18357527Y-4951810D01*
G01X18351939Y-4923108D01*
G01X18340509Y-4906090D01*
G01X18323237Y-4900248D01*
G01X18311807Y-4900248D01*
G01X18411121Y-4991688D02*
G01X18405279Y-4997530D01*
G01X18411121Y-5003118D01*
G01X18416709Y-4997530D01*
G01X18411121Y-4991688D01*
G01X18544471Y-4900248D02*
G01X18487321Y-5020390D01*
G01X18464461Y-4900248D02*
G01X18544471Y-4900248D01*
G01X18660803Y-4917520D02*
G01X18655215Y-4906090D01*
G01X18637943Y-4900248D01*
G01X18626513Y-4900248D01*
G01X18609495Y-4906090D01*
G01X18598065Y-4923108D01*
G01X18592223Y-4951810D01*
G01X18592223Y-4980258D01*
G01X18598065Y-5003118D01*
G01X18609495Y-5014548D01*
G01X18626513Y-5020390D01*
G01X18632355Y-5020390D01*
G01X18649373Y-5014548D01*
G01X18660803Y-5003118D01*
G01X18666645Y-4986100D01*
G01X18666645Y-4980258D01*
G01X18660803Y-4963240D01*
G01X18649373Y-4951810D01*
G01X18632355Y-4945968D01*
G01X18626513Y-4945968D01*
G01X18609495Y-4951810D01*
G01X18598065Y-4963240D01*
G01X18592223Y-4980258D01*
G01X18720239Y-4928950D02*
G01X18720239Y-4923108D01*
G01X18725827Y-4911678D01*
G01X18731669Y-4906090D01*
G01X18743099Y-4900248D01*
G01X18765959Y-4900248D01*
G01X18777389Y-4906090D01*
G01X18782977Y-4911678D01*
G01X18788819Y-4923108D01*
G01X18788819Y-4934538D01*
G01X18782977Y-4945968D01*
G01X18771547Y-4963240D01*
G01X18714397Y-5020390D01*
G01X18794407Y-5020390D01*
G01X18842159Y-4940380D02*
G01X18905151Y-5020390D01*
G01X18905151Y-4940380D02*
G01X18842159Y-5020390D01*
G01X18987193Y-4900248D02*
G01X18970175Y-4906090D01*
G01X18958745Y-4923108D01*
G01X18952903Y-4951810D01*
G01X18952903Y-4968828D01*
G01X18958745Y-4997530D01*
G01X18970175Y-5014548D01*
G01X18987193Y-5020390D01*
G01X18998623Y-5020390D01*
G01X19015895Y-5014548D01*
G01X19027325Y-4997530D01*
G01X19032913Y-4968828D01*
G01X19032913Y-4951810D01*
G01X19027325Y-4923108D01*
G01X19015895Y-4906090D01*
G01X18998623Y-4900248D01*
G01X18987193Y-4900248D01*
G01X19086507Y-4991688D02*
G01X19080665Y-4997530D01*
G01X19086507Y-5003118D01*
G01X19092095Y-4997530D01*
G01X19086507Y-4991688D01*
G01X19219857Y-4900248D02*
G01X19162707Y-5020390D01*
G01X19139847Y-4900248D02*
G01X19219857Y-4900248D01*
G01X19336189Y-4917520D02*
G01X19330601Y-4906090D01*
G01X19313329Y-4900248D01*
G01X19301899Y-4900248D01*
G01X19284881Y-4906090D01*
G01X19273451Y-4923108D01*
G01X19267609Y-4951810D01*
G01X19267609Y-4980258D01*
G01X19273451Y-5003118D01*
G01X19284881Y-5014548D01*
G01X19301899Y-5020390D01*
G01X19307741Y-5020390D01*
G01X19324759Y-5014548D01*
G01X19336189Y-5003118D01*
G01X19342031Y-4986100D01*
G01X19342031Y-4980258D01*
G01X19336189Y-4963240D01*
G01X19324759Y-4951810D01*
G01X19307741Y-4945968D01*
G01X19301899Y-4945968D01*
G01X19284881Y-4951810D01*
G01X19273451Y-4963240D01*
G01X19267609Y-4980258D01*
G01X19395625Y-4928950D02*
G01X19395625Y-4923108D01*
G01X19401213Y-4911678D01*
G01X19407055Y-4906090D01*
G01X19418485Y-4900248D01*
G01X19441345Y-4900248D01*
G01X19452775Y-4906090D01*
G01X19458363Y-4911678D01*
G01X19464205Y-4923108D01*
G01X19464205Y-4934538D01*
G01X19458363Y-4945968D01*
G01X19446933Y-4963240D01*
G01X19389783Y-5020390D01*
G01X19469793Y-5020390D01*
G01X19517545Y-4940380D02*
G01X19517545Y-5020390D01*
G01X19517545Y-4963240D02*
G01X19534817Y-4945968D01*
G01X19546247Y-4940380D01*
G01X19563265Y-4940380D01*
G01X19574695Y-4945968D01*
G01X19580537Y-4963240D01*
G01X19580537Y-5020390D01*
G01X19580537Y-4963240D02*
G01X19597555Y-4945968D01*
G01X19608985Y-4940380D01*
G01X19626257Y-4940380D01*
G01X19637687Y-4945968D01*
G01X19643275Y-4963240D01*
G01X19643275Y-5020390D01*
G01X19691027Y-4940380D02*
G01X19691027Y-5020390D01*
G01X19691027Y-4963240D02*
G01X19708299Y-4945968D01*
G01X19719729Y-4940380D01*
G01X19736747Y-4940380D01*
G01X19748177Y-4945968D01*
G01X19754019Y-4963240D01*
G01X19754019Y-5020390D01*
G01X19754019Y-4963240D02*
G01X19771037Y-4945968D01*
G01X19782467Y-4940380D01*
G01X19799739Y-4940380D01*
G01X19811169Y-4945968D01*
G01X19816757Y-4963240D01*
G01X19816757Y-5020390D01*
G01X19864509Y-4877388D02*
G01X19875939Y-4888818D01*
G01X19887369Y-4906090D01*
G01X19898799Y-4928950D01*
G01X19904641Y-4957398D01*
G01X19904641Y-4980258D01*
G01X19898799Y-5008960D01*
G01X19887369Y-5031820D01*
G01X19875939Y-5048838D01*
G01X19864509Y-5060268D01*
G01X20878115Y-4900248D02*
G01X20878115Y-5020390D01*
G01X20878115Y-4900248D02*
G01X20929677Y-4900248D01*
G01X20946695Y-4906090D01*
G01X20952537Y-4911678D01*
G01X20958125Y-4923108D01*
G01X20958125Y-4940380D01*
G01X20952537Y-4951810D01*
G01X20946695Y-4957398D01*
G01X20929677Y-4963240D01*
G01X20878115Y-4963240D01*
G01X21046009Y-4900248D02*
G01X21046009Y-5020390D01*
G01X21005877Y-4900248D02*
G01X21085887Y-4900248D01*
G01X21133639Y-4900248D02*
G01X21133639Y-5020390D01*
G01X21213649Y-4900248D02*
G01X21213649Y-5020390D01*
G01X21133639Y-4957398D02*
G01X21213649Y-4957398D01*
G01X22339522Y-4900248D02*
G01X22339522Y-5020390D01*
G01X22339522Y-4900248D02*
G01X22391084Y-4900248D01*
G01X22408102Y-4906090D01*
G01X22413944Y-4911678D01*
G01X22419532Y-4923108D01*
G01X22419532Y-4934538D01*
G01X22413944Y-4945968D01*
G01X22408102Y-4951810D01*
G01X22391084Y-4957398D01*
G01X22339522Y-4957398D01*
G01X22379654Y-4957398D02*
G01X22419532Y-5020390D01*
G01X22495986Y-4940380D02*
G01X22484556Y-4945968D01*
G01X22473126Y-4957398D01*
G01X22467284Y-4974670D01*
G01X22467284Y-4986100D01*
G01X22473126Y-5003118D01*
G01X22484556Y-5014548D01*
G01X22495986Y-5020390D01*
G01X22513004Y-5020390D01*
G01X22524434Y-5014548D01*
G01X22535864Y-5003118D01*
G01X22541706Y-4986100D01*
G01X22541706Y-4974670D01*
G01X22535864Y-4957398D01*
G01X22524434Y-4945968D01*
G01X22513004Y-4940380D01*
G01X22495986Y-4940380D01*
G01X22589458Y-4940380D02*
G01X22589458Y-4997530D01*
G01X22595300Y-5014548D01*
G01X22606730Y-5020390D01*
G01X22623748Y-5020390D01*
G01X22635178Y-5014548D01*
G01X22652450Y-4997530D01*
G01X22652450Y-4940380D02*
G01X22652450Y-5020390D01*
G01X22700202Y-4940380D02*
G01X22700202Y-5020390D01*
G01X22700202Y-4963240D02*
G01X22717474Y-4945968D01*
G01X22728904Y-4940380D01*
G01X22745922Y-4940380D01*
G01X22757352Y-4945968D01*
G01X22763194Y-4963240D01*
G01X22763194Y-5020390D01*
G01X22879526Y-4900248D02*
G01X22879526Y-5020390D01*
G01X22879526Y-4957398D02*
G01X22868096Y-4945968D01*
G01X22856666Y-4940380D01*
G01X22839648Y-4940380D01*
G01X22828218Y-4945968D01*
G01X22816788Y-4957398D01*
G01X22810946Y-4974670D01*
G01X22810946Y-4986100D01*
G01X22816788Y-5003118D01*
G01X22828218Y-5014548D01*
G01X22839648Y-5020390D01*
G01X22856666Y-5020390D01*
G01X22868096Y-5014548D01*
G01X22879526Y-5003118D01*
G01X23770703Y-4900248D02*
G01X23770703Y-5020390D01*
G01X23770703Y-4900248D02*
G01X23822265Y-4900248D01*
G01X23839283Y-4906090D01*
G01X23845125Y-4911678D01*
G01X23850713Y-4923108D01*
G01X23850713Y-4940380D01*
G01X23845125Y-4951810D01*
G01X23839283Y-4957398D01*
G01X23822265Y-4963240D01*
G01X23770703Y-4963240D01*
G01X23967045Y-4940380D02*
G01X23967045Y-5020390D01*
G01X23967045Y-4957398D02*
G01X23955615Y-4945968D01*
G01X23944185Y-4940380D01*
G01X23927167Y-4940380D01*
G01X23915737Y-4945968D01*
G01X23904307Y-4957398D01*
G01X23898465Y-4974670D01*
G01X23898465Y-4986100D01*
G01X23904307Y-5003118D01*
G01X23915737Y-5014548D01*
G01X23927167Y-5020390D01*
G01X23944185Y-5020390D01*
G01X23955615Y-5014548D01*
G01X23967045Y-5003118D01*
G01X24083377Y-4900248D02*
G01X24083377Y-5020390D01*
G01X24083377Y-4957398D02*
G01X24071947Y-4945968D01*
G01X24060517Y-4940380D01*
G01X24043499Y-4940380D01*
G01X24032069Y-4945968D01*
G01X24020639Y-4957398D01*
G01X24014797Y-4974670D01*
G01X24014797Y-4986100D01*
G01X24020639Y-5003118D01*
G01X24032069Y-5014548D01*
G01X24043499Y-5020390D01*
G01X24060517Y-5020390D01*
G01X24071947Y-5014548D01*
G01X24083377Y-5003118D01*
G01X25439882Y-4900248D02*
G01X25439882Y-5020390D01*
G01X25439882Y-4900248D02*
G01X25491444Y-4900248D01*
G01X25508462Y-4906090D01*
G01X25514304Y-4911678D01*
G01X25519892Y-4923108D01*
G01X25519892Y-4934538D01*
G01X25514304Y-4945968D01*
G01X25508462Y-4951810D01*
G01X25491444Y-4957398D01*
G01X25439882Y-4957398D01*
G01X25480014Y-4957398D02*
G01X25519892Y-5020390D01*
G01X25596346Y-4940380D02*
G01X25584916Y-4945968D01*
G01X25573486Y-4957398D01*
G01X25567644Y-4974670D01*
G01X25567644Y-4986100D01*
G01X25573486Y-5003118D01*
G01X25584916Y-5014548D01*
G01X25596346Y-5020390D01*
G01X25613364Y-5020390D01*
G01X25624794Y-5014548D01*
G01X25636224Y-5003118D01*
G01X25642066Y-4986100D01*
G01X25642066Y-4974670D01*
G01X25636224Y-4957398D01*
G01X25624794Y-4945968D01*
G01X25613364Y-4940380D01*
G01X25596346Y-4940380D01*
G01X25689818Y-4940380D02*
G01X25689818Y-4997530D01*
G01X25695660Y-5014548D01*
G01X25707090Y-5020390D01*
G01X25724108Y-5020390D01*
G01X25735538Y-5014548D01*
G01X25752810Y-4997530D01*
G01X25752810Y-4940380D02*
G01X25752810Y-5020390D01*
G01X25800562Y-4940380D02*
G01X25800562Y-5020390D01*
G01X25800562Y-4963240D02*
G01X25817834Y-4945968D01*
G01X25829264Y-4940380D01*
G01X25846282Y-4940380D01*
G01X25857712Y-4945968D01*
G01X25863554Y-4963240D01*
G01X25863554Y-5020390D01*
G01X25979886Y-4900248D02*
G01X25979886Y-5020390D01*
G01X25979886Y-4957398D02*
G01X25968456Y-4945968D01*
G01X25957026Y-4940380D01*
G01X25940008Y-4940380D01*
G01X25928578Y-4945968D01*
G01X25917148Y-4957398D01*
G01X25911306Y-4974670D01*
G01X25911306Y-4986100D01*
G01X25917148Y-5003118D01*
G01X25928578Y-5014548D01*
G01X25940008Y-5020390D01*
G01X25957026Y-5020390D01*
G01X25968456Y-5014548D01*
G01X25979886Y-5003118D01*
G01X27399383Y-4900248D02*
G01X27399383Y-5020390D01*
G01X27359251Y-4900248D02*
G01X27439261Y-4900248D01*
G01X27515715Y-4940380D02*
G01X27504285Y-4945968D01*
G01X27492855Y-4957398D01*
G01X27487013Y-4974670D01*
G01X27487013Y-4986100D01*
G01X27492855Y-5003118D01*
G01X27504285Y-5014548D01*
G01X27515715Y-5020390D01*
G01X27532733Y-5020390D01*
G01X27544163Y-5014548D01*
G01X27555593Y-5003118D01*
G01X27561435Y-4986100D01*
G01X27561435Y-4974670D01*
G01X27555593Y-4957398D01*
G01X27544163Y-4945968D01*
G01X27532733Y-4940380D01*
G01X27515715Y-4940380D01*
G01X27609187Y-4940380D02*
G01X27609187Y-5060268D01*
G01X27609187Y-4957398D02*
G01X27620617Y-4945968D01*
G01X27632047Y-4940380D01*
G01X27649319Y-4940380D01*
G01X27660749Y-4945968D01*
G01X27672179Y-4957398D01*
G01X27677767Y-4974670D01*
G01X27677767Y-4986100D01*
G01X27672179Y-5003118D01*
G01X27660749Y-5014548D01*
G01X27649319Y-5020390D01*
G01X27632047Y-5020390D01*
G01X27620617Y-5014548D01*
G01X27609187Y-5003118D01*
G01X27853535Y-4900248D02*
G01X27853535Y-5020390D01*
G01X27853535Y-5020390D02*
G01X27922115Y-5020390D01*
G01X28038447Y-4940380D02*
G01X28038447Y-5020390D01*
G01X28038447Y-4957398D02*
G01X28027017Y-4945968D01*
G01X28015587Y-4940380D01*
G01X27998569Y-4940380D01*
G01X27987139Y-4945968D01*
G01X27975709Y-4957398D01*
G01X27969867Y-4974670D01*
G01X27969867Y-4986100D01*
G01X27975709Y-5003118D01*
G01X27987139Y-5014548D01*
G01X27998569Y-5020390D01*
G01X28015587Y-5020390D01*
G01X28027017Y-5014548D01*
G01X28038447Y-5003118D01*
G01X28092041Y-4940380D02*
G01X28126331Y-5020390D01*
G01X28160621Y-4940380D02*
G01X28126331Y-5020390D01*
G01X28114901Y-5043250D01*
G01X28103471Y-5054680D01*
G01X28092041Y-5060268D01*
G01X28086199Y-5060268D01*
G01X28208373Y-4974670D02*
G01X28276953Y-4974670D01*
G01X28276953Y-4963240D01*
G01X28271365Y-4951810D01*
G01X28265523Y-4945968D01*
G01X28254093Y-4940380D01*
G01X28237075Y-4940380D01*
G01X28225645Y-4945968D01*
G01X28214215Y-4957398D01*
G01X28208373Y-4974670D01*
G01X28208373Y-4986100D01*
G01X28214215Y-5003118D01*
G01X28225645Y-5014548D01*
G01X28237075Y-5020390D01*
G01X28254093Y-5020390D01*
G01X28265523Y-5014548D01*
G01X28276953Y-5003118D01*
G01X28324705Y-4940380D02*
G01X28324705Y-5020390D01*
G01X28324705Y-4974670D02*
G01X28330547Y-4957398D01*
G01X28341977Y-4945968D01*
G01X28353407Y-4940380D01*
G01X28370425Y-4940380D01*
G01X28418177Y-4968828D02*
G01X28521047Y-4968828D01*
G01X28568799Y-4900248D02*
G01X28568799Y-5020390D01*
G01X28568799Y-4900248D02*
G01X28620361Y-4900248D01*
G01X28637379Y-4906090D01*
G01X28643221Y-4911678D01*
G01X28648809Y-4923108D01*
G01X28648809Y-4934538D01*
G01X28643221Y-4945968D01*
G01X28637379Y-4951810D01*
G01X28620361Y-4957398D01*
G01X28568799Y-4957398D02*
G01X28620361Y-4957398D01*
G01X28637379Y-4963240D01*
G01X28643221Y-4968828D01*
G01X28648809Y-4980258D01*
G01X28648809Y-4997530D01*
G01X28643221Y-5008960D01*
G01X28637379Y-5014548D01*
G01X28620361Y-5020390D01*
G01X28568799Y-5020390D01*
G01X28725263Y-4940380D02*
G01X28713833Y-4945968D01*
G01X28702403Y-4957398D01*
G01X28696561Y-4974670D01*
G01X28696561Y-4986100D01*
G01X28702403Y-5003118D01*
G01X28713833Y-5014548D01*
G01X28725263Y-5020390D01*
G01X28742281Y-5020390D01*
G01X28753711Y-5014548D01*
G01X28765141Y-5003118D01*
G01X28770983Y-4986100D01*
G01X28770983Y-4974670D01*
G01X28765141Y-4957398D01*
G01X28753711Y-4945968D01*
G01X28742281Y-4940380D01*
G01X28725263Y-4940380D01*
G01X28836007Y-4900248D02*
G01X28836007Y-4997530D01*
G01X28841595Y-5014548D01*
G01X28853025Y-5020390D01*
G01X28864455Y-5020390D01*
G01X28818735Y-4940380D02*
G01X28858867Y-4940380D01*
G01X28929479Y-4900248D02*
G01X28929479Y-4997530D01*
G01X28935067Y-5014548D01*
G01X28946497Y-5020390D01*
G01X28957927Y-5020390D01*
G01X28912207Y-4940380D02*
G01X28952339Y-4940380D01*
G01X29034381Y-4940380D02*
G01X29022951Y-4945968D01*
G01X29011521Y-4957398D01*
G01X29005679Y-4974670D01*
G01X29005679Y-4986100D01*
G01X29011521Y-5003118D01*
G01X29022951Y-5014548D01*
G01X29034381Y-5020390D01*
G01X29051399Y-5020390D01*
G01X29062829Y-5014548D01*
G01X29074259Y-5003118D01*
G01X29080101Y-4986100D01*
G01X29080101Y-4974670D01*
G01X29074259Y-4957398D01*
G01X29062829Y-4945968D01*
G01X29051399Y-4940380D01*
G01X29034381Y-4940380D01*
G01X29127853Y-4940380D02*
G01X29127853Y-5020390D01*
G01X29127853Y-4963240D02*
G01X29145125Y-4945968D01*
G01X29156555Y-4940380D01*
G01X29173573Y-4940380D01*
G01X29185003Y-4945968D01*
G01X29190845Y-4963240D01*
G01X29190845Y-5020390D01*
G01X29190845Y-4963240D02*
G01X29207863Y-4945968D01*
G01X29219293Y-4940380D01*
G01X29236565Y-4940380D01*
G01X29247995Y-4945968D01*
G01X29253583Y-4963240D01*
G01X29253583Y-5020390D01*
G01X29429351Y-4900248D02*
G01X29429351Y-5020390D01*
G01X29429351Y-5020390D02*
G01X29497931Y-5020390D01*
G01X29614263Y-4940380D02*
G01X29614263Y-5020390D01*
G01X29614263Y-4957398D02*
G01X29602833Y-4945968D01*
G01X29591403Y-4940380D01*
G01X29574385Y-4940380D01*
G01X29562955Y-4945968D01*
G01X29551525Y-4957398D01*
G01X29545683Y-4974670D01*
G01X29545683Y-4986100D01*
G01X29551525Y-5003118D01*
G01X29562955Y-5014548D01*
G01X29574385Y-5020390D01*
G01X29591403Y-5020390D01*
G01X29602833Y-5014548D01*
G01X29614263Y-5003118D01*
G01X29667857Y-4940380D02*
G01X29702147Y-5020390D01*
G01X29736437Y-4940380D02*
G01X29702147Y-5020390D01*
G01X29690717Y-5043250D01*
G01X29679287Y-5054680D01*
G01X29667857Y-5060268D01*
G01X29662015Y-5060268D01*
G01X29784189Y-4974670D02*
G01X29852769Y-4974670D01*
G01X29852769Y-4963240D01*
G01X29847181Y-4951810D01*
G01X29841339Y-4945968D01*
G01X29829909Y-4940380D01*
G01X29812891Y-4940380D01*
G01X29801461Y-4945968D01*
G01X29790031Y-4957398D01*
G01X29784189Y-4974670D01*
G01X29784189Y-4986100D01*
G01X29790031Y-5003118D01*
G01X29801461Y-5014548D01*
G01X29812891Y-5020390D01*
G01X29829909Y-5020390D01*
G01X29841339Y-5014548D01*
G01X29852769Y-5003118D01*
G01X29900521Y-4940380D02*
G01X29900521Y-5020390D01*
G01X29900521Y-4974670D02*
G01X29906363Y-4957398D01*
G01X29917793Y-4945968D01*
G01X29929223Y-4940380D01*
G01X29946241Y-4940380D01*
G01X15556524Y-5480819D02*
G01X15499374Y-5560829D01*
G01X15585226Y-5560829D01*
G01X15556524Y-5480819D02*
G01X15556524Y-5600961D01*
G01X16987959Y-5520951D02*
G01X16982117Y-5537969D01*
G01X16970687Y-5549399D01*
G01X16953669Y-5555241D01*
G01X16947827Y-5555241D01*
G01X16930809Y-5549399D01*
G01X16919379Y-5537969D01*
G01X16913537Y-5520951D01*
G01X16913537Y-5515109D01*
G01X16919379Y-5498091D01*
G01X16930809Y-5486661D01*
G01X16947827Y-5480819D01*
G01X16953669Y-5480819D01*
G01X16970687Y-5486661D01*
G01X16982117Y-5498091D01*
G01X16987959Y-5520951D01*
G01X16987959Y-5549399D01*
G01X16982117Y-5578101D01*
G01X16970687Y-5595119D01*
G01X16953669Y-5600961D01*
G01X16942239Y-5600961D01*
G01X16924967Y-5595119D01*
G01X16919379Y-5583689D01*
G01X17064413Y-5480819D02*
G01X17047141Y-5486661D01*
G01X17041553Y-5498091D01*
G01X17041553Y-5509521D01*
G01X17047141Y-5520951D01*
G01X17058571Y-5526539D01*
G01X17081431Y-5532381D01*
G01X17098703Y-5537969D01*
G01X17110133Y-5549399D01*
G01X17115721Y-5560829D01*
G01X17115721Y-5578101D01*
G01X17110133Y-5589531D01*
G01X17104291Y-5595119D01*
G01X17087273Y-5600961D01*
G01X17064413Y-5600961D01*
G01X17047141Y-5595119D01*
G01X17041553Y-5589531D01*
G01X17035711Y-5578101D01*
G01X17035711Y-5560829D01*
G01X17041553Y-5549399D01*
G01X17052983Y-5537969D01*
G01X17070001Y-5532381D01*
G01X17092861Y-5526539D01*
G01X17104291Y-5520951D01*
G01X17110133Y-5509521D01*
G01X17110133Y-5498091D01*
G01X17104291Y-5486661D01*
G01X17087273Y-5480819D01*
G01X17064413Y-5480819D01*
G01X17169315Y-5572259D02*
G01X17163473Y-5578101D01*
G01X17169315Y-5583689D01*
G01X17174903Y-5578101D01*
G01X17169315Y-5572259D01*
G01X17279805Y-5480819D02*
G01X17222655Y-5560829D01*
G01X17308507Y-5560829D01*
G01X17279805Y-5480819D02*
G01X17279805Y-5600961D01*
G01X17356259Y-5520951D02*
G01X17419251Y-5600961D01*
G01X17419251Y-5520951D02*
G01X17356259Y-5600961D01*
G01X17467003Y-5503679D02*
G01X17478433Y-5498091D01*
G01X17495705Y-5480819D01*
G01X17495705Y-5600961D01*
G01X17577747Y-5480819D02*
G01X17560729Y-5486661D01*
G01X17549299Y-5503679D01*
G01X17543457Y-5532381D01*
G01X17543457Y-5549399D01*
G01X17549299Y-5578101D01*
G01X17560729Y-5595119D01*
G01X17577747Y-5600961D01*
G01X17589177Y-5600961D01*
G01X17606449Y-5595119D01*
G01X17617879Y-5578101D01*
G01X17623467Y-5549399D01*
G01X17623467Y-5532381D01*
G01X17617879Y-5503679D01*
G01X17606449Y-5486661D01*
G01X17589177Y-5480819D01*
G01X17577747Y-5480819D01*
G01X17682649Y-5480819D02*
G01X17745641Y-5480819D01*
G01X17711351Y-5526539D01*
G01X17728369Y-5526539D01*
G01X17739799Y-5532381D01*
G01X17745641Y-5537969D01*
G01X17751229Y-5555241D01*
G01X17751229Y-5566671D01*
G01X17745641Y-5583689D01*
G01X17734211Y-5595119D01*
G01X17716939Y-5600961D01*
G01X17699921Y-5600961D01*
G01X17682649Y-5595119D01*
G01X17677061Y-5589531D01*
G01X17671219Y-5578101D01*
G01X17804823Y-5572259D02*
G01X17798981Y-5578101D01*
G01X17804823Y-5583689D01*
G01X17810411Y-5578101D01*
G01X17804823Y-5572259D01*
G01X17869593Y-5480819D02*
G01X17932585Y-5480819D01*
G01X17898295Y-5526539D01*
G01X17915313Y-5526539D01*
G01X17926743Y-5532381D01*
G01X17932585Y-5537969D01*
G01X17938173Y-5555241D01*
G01X17938173Y-5566671D01*
G01X17932585Y-5583689D01*
G01X17921155Y-5595119D01*
G01X17903883Y-5600961D01*
G01X17886865Y-5600961D01*
G01X17869593Y-5595119D01*
G01X17864005Y-5589531D01*
G01X17858163Y-5578101D01*
G01X17985925Y-5520951D02*
G01X17985925Y-5600961D01*
G01X17985925Y-5543811D02*
G01X18003197Y-5526539D01*
G01X18014627Y-5520951D01*
G01X18031645Y-5520951D01*
G01X18043075Y-5526539D01*
G01X18048917Y-5543811D01*
G01X18048917Y-5600961D01*
G01X18048917Y-5543811D02*
G01X18065935Y-5526539D01*
G01X18077365Y-5520951D01*
G01X18094637Y-5520951D01*
G01X18106067Y-5526539D01*
G01X18111655Y-5543811D01*
G01X18111655Y-5600961D01*
G01X18159407Y-5480819D02*
G01X18165249Y-5486661D01*
G01X18170837Y-5480819D01*
G01X18165249Y-5475231D01*
G01X18159407Y-5480819D01*
G01X18165249Y-5520951D02*
G01X18165249Y-5600961D01*
G01X18218589Y-5480819D02*
G01X18218589Y-5600961D01*
G01X18306473Y-5457959D02*
G01X18295043Y-5469389D01*
G01X18283613Y-5486661D01*
G01X18272183Y-5509521D01*
G01X18266341Y-5537969D01*
G01X18266341Y-5560829D01*
G01X18272183Y-5589531D01*
G01X18283613Y-5612391D01*
G01X18295043Y-5629409D01*
G01X18306473Y-5640839D01*
G01X18360067Y-5509521D02*
G01X18360067Y-5503679D01*
G01X18365655Y-5492249D01*
G01X18371497Y-5486661D01*
G01X18382927Y-5480819D01*
G01X18405787Y-5480819D01*
G01X18417217Y-5486661D01*
G01X18422805Y-5492249D01*
G01X18428647Y-5503679D01*
G01X18428647Y-5515109D01*
G01X18422805Y-5526539D01*
G01X18411375Y-5543811D01*
G01X18354225Y-5600961D01*
G01X18434235Y-5600961D01*
G01X18487829Y-5572259D02*
G01X18481987Y-5578101D01*
G01X18487829Y-5583689D01*
G01X18493417Y-5578101D01*
G01X18487829Y-5572259D01*
G01X18609749Y-5480819D02*
G01X18552599Y-5480819D01*
G01X18547011Y-5532381D01*
G01X18552599Y-5526539D01*
G01X18569871Y-5520951D01*
G01X18586889Y-5520951D01*
G01X18604161Y-5526539D01*
G01X18615591Y-5537969D01*
G01X18621179Y-5555241D01*
G01X18621179Y-5566671D01*
G01X18615591Y-5583689D01*
G01X18604161Y-5595119D01*
G01X18586889Y-5600961D01*
G01X18569871Y-5600961D01*
G01X18552599Y-5595119D01*
G01X18547011Y-5589531D01*
G01X18541169Y-5578101D01*
G01X18703221Y-5480819D02*
G01X18686203Y-5486661D01*
G01X18674773Y-5503679D01*
G01X18668931Y-5532381D01*
G01X18668931Y-5549399D01*
G01X18674773Y-5578101D01*
G01X18686203Y-5595119D01*
G01X18703221Y-5600961D01*
G01X18714651Y-5600961D01*
G01X18731923Y-5595119D01*
G01X18743353Y-5578101D01*
G01X18748941Y-5549399D01*
G01X18748941Y-5532381D01*
G01X18743353Y-5503679D01*
G01X18731923Y-5486661D01*
G01X18714651Y-5480819D01*
G01X18703221Y-5480819D01*
G01X18830983Y-5480819D02*
G01X18813965Y-5486661D01*
G01X18802535Y-5503679D01*
G01X18796693Y-5532381D01*
G01X18796693Y-5549399D01*
G01X18802535Y-5578101D01*
G01X18813965Y-5595119D01*
G01X18830983Y-5600961D01*
G01X18842413Y-5600961D01*
G01X18859685Y-5595119D01*
G01X18871115Y-5578101D01*
G01X18876703Y-5549399D01*
G01X18876703Y-5532381D01*
G01X18871115Y-5503679D01*
G01X18859685Y-5486661D01*
G01X18842413Y-5480819D01*
G01X18830983Y-5480819D01*
G01X18924455Y-5520951D02*
G01X18987447Y-5600961D01*
G01X18987447Y-5520951D02*
G01X18924455Y-5600961D01*
G01X19041041Y-5509521D02*
G01X19041041Y-5503679D01*
G01X19046629Y-5492249D01*
G01X19052471Y-5486661D01*
G01X19063901Y-5480819D01*
G01X19086761Y-5480819D01*
G01X19098191Y-5486661D01*
G01X19103779Y-5492249D01*
G01X19109621Y-5503679D01*
G01X19109621Y-5515109D01*
G01X19103779Y-5526539D01*
G01X19092349Y-5543811D01*
G01X19035199Y-5600961D01*
G01X19115209Y-5600961D01*
G01X19168803Y-5572259D02*
G01X19162961Y-5578101D01*
G01X19168803Y-5583689D01*
G01X19174391Y-5578101D01*
G01X19168803Y-5572259D01*
G01X19290723Y-5498091D02*
G01X19285135Y-5486661D01*
G01X19267863Y-5480819D01*
G01X19256433Y-5480819D01*
G01X19239415Y-5486661D01*
G01X19227985Y-5503679D01*
G01X19222143Y-5532381D01*
G01X19222143Y-5560829D01*
G01X19227985Y-5583689D01*
G01X19239415Y-5595119D01*
G01X19256433Y-5600961D01*
G01X19262275Y-5600961D01*
G01X19279293Y-5595119D01*
G01X19290723Y-5583689D01*
G01X19296565Y-5566671D01*
G01X19296565Y-5560829D01*
G01X19290723Y-5543811D01*
G01X19279293Y-5532381D01*
G01X19262275Y-5526539D01*
G01X19256433Y-5526539D01*
G01X19239415Y-5532381D01*
G01X19227985Y-5543811D01*
G01X19222143Y-5560829D01*
G01X19350159Y-5509521D02*
G01X19350159Y-5503679D01*
G01X19355747Y-5492249D01*
G01X19361589Y-5486661D01*
G01X19373019Y-5480819D01*
G01X19395879Y-5480819D01*
G01X19407309Y-5486661D01*
G01X19412897Y-5492249D01*
G01X19418739Y-5503679D01*
G01X19418739Y-5515109D01*
G01X19412897Y-5526539D01*
G01X19401467Y-5543811D01*
G01X19344317Y-5600961D01*
G01X19424327Y-5600961D01*
G01X19540659Y-5480819D02*
G01X19483509Y-5480819D01*
G01X19477921Y-5532381D01*
G01X19483509Y-5526539D01*
G01X19500781Y-5520951D01*
G01X19517799Y-5520951D01*
G01X19535071Y-5526539D01*
G01X19546501Y-5537969D01*
G01X19552089Y-5555241D01*
G01X19552089Y-5566671D01*
G01X19546501Y-5583689D01*
G01X19535071Y-5595119D01*
G01X19517799Y-5600961D01*
G01X19500781Y-5600961D01*
G01X19483509Y-5595119D01*
G01X19477921Y-5589531D01*
G01X19472079Y-5578101D01*
G01X19599841Y-5520951D02*
G01X19599841Y-5600961D01*
G01X19599841Y-5543811D02*
G01X19617113Y-5526539D01*
G01X19628543Y-5520951D01*
G01X19645561Y-5520951D01*
G01X19656991Y-5526539D01*
G01X19662833Y-5543811D01*
G01X19662833Y-5600961D01*
G01X19662833Y-5543811D02*
G01X19679851Y-5526539D01*
G01X19691281Y-5520951D01*
G01X19708553Y-5520951D01*
G01X19719983Y-5526539D01*
G01X19725571Y-5543811D01*
G01X19725571Y-5600961D01*
G01X19773323Y-5520951D02*
G01X19773323Y-5600961D01*
G01X19773323Y-5543811D02*
G01X19790595Y-5526539D01*
G01X19802025Y-5520951D01*
G01X19819043Y-5520951D01*
G01X19830473Y-5526539D01*
G01X19836315Y-5543811D01*
G01X19836315Y-5600961D01*
G01X19836315Y-5543811D02*
G01X19853333Y-5526539D01*
G01X19864763Y-5520951D01*
G01X19882035Y-5520951D01*
G01X19893465Y-5526539D01*
G01X19899053Y-5543811D01*
G01X19899053Y-5600961D01*
G01X19946805Y-5457959D02*
G01X19958235Y-5469389D01*
G01X19969665Y-5486661D01*
G01X19981095Y-5509521D01*
G01X19986937Y-5537969D01*
G01X19986937Y-5560829D01*
G01X19981095Y-5589531D01*
G01X19969665Y-5612391D01*
G01X19958235Y-5629409D01*
G01X19946805Y-5640839D01*
G01X20878115Y-5480819D02*
G01X20878115Y-5600961D01*
G01X20878115Y-5480819D02*
G01X20929677Y-5480819D01*
G01X20946695Y-5486661D01*
G01X20952537Y-5492249D01*
G01X20958125Y-5503679D01*
G01X20958125Y-5520951D01*
G01X20952537Y-5532381D01*
G01X20946695Y-5537969D01*
G01X20929677Y-5543811D01*
G01X20878115Y-5543811D01*
G01X21046009Y-5480819D02*
G01X21046009Y-5600961D01*
G01X21005877Y-5480819D02*
G01X21085887Y-5480819D01*
G01X21133639Y-5480819D02*
G01X21133639Y-5600961D01*
G01X21213649Y-5480819D02*
G01X21213649Y-5600961D01*
G01X21133639Y-5537969D02*
G01X21213649Y-5537969D01*
G01X22419532Y-5498091D02*
G01X22408102Y-5486661D01*
G01X22391084Y-5480819D01*
G01X22368224Y-5480819D01*
G01X22350952Y-5486661D01*
G01X22339522Y-5498091D01*
G01X22339522Y-5509521D01*
G01X22345364Y-5520951D01*
G01X22350952Y-5526539D01*
G01X22362382Y-5532381D01*
G01X22396672Y-5543811D01*
G01X22408102Y-5549399D01*
G01X22413944Y-5555241D01*
G01X22419532Y-5566671D01*
G01X22419532Y-5583689D01*
G01X22408102Y-5595119D01*
G01X22391084Y-5600961D01*
G01X22368224Y-5600961D01*
G01X22350952Y-5595119D01*
G01X22339522Y-5583689D01*
G01X22467284Y-5480819D02*
G01X22467284Y-5600961D01*
G01X22543738Y-5520951D02*
G01X22532308Y-5526539D01*
G01X22520878Y-5537969D01*
G01X22515036Y-5555241D01*
G01X22515036Y-5566671D01*
G01X22520878Y-5583689D01*
G01X22532308Y-5595119D01*
G01X22543738Y-5600961D01*
G01X22560756Y-5600961D01*
G01X22572186Y-5595119D01*
G01X22583616Y-5583689D01*
G01X22589458Y-5566671D01*
G01X22589458Y-5555241D01*
G01X22583616Y-5537969D01*
G01X22572186Y-5526539D01*
G01X22560756Y-5520951D01*
G01X22543738Y-5520951D01*
G01X22654482Y-5480819D02*
G01X22654482Y-5578101D01*
G01X22660070Y-5595119D01*
G01X22671500Y-5600961D01*
G01X22682930Y-5600961D01*
G01X22637210Y-5520951D02*
G01X22677342Y-5520951D01*
G01X23770703Y-5480819D02*
G01X23770703Y-5600961D01*
G01X23770703Y-5480819D02*
G01X23822265Y-5480819D01*
G01X23839283Y-5486661D01*
G01X23845125Y-5492249D01*
G01X23850713Y-5503679D01*
G01X23850713Y-5520951D01*
G01X23845125Y-5532381D01*
G01X23839283Y-5537969D01*
G01X23822265Y-5543811D01*
G01X23770703Y-5543811D01*
G01X23967045Y-5520951D02*
G01X23967045Y-5600961D01*
G01X23967045Y-5537969D02*
G01X23955615Y-5526539D01*
G01X23944185Y-5520951D01*
G01X23927167Y-5520951D01*
G01X23915737Y-5526539D01*
G01X23904307Y-5537969D01*
G01X23898465Y-5555241D01*
G01X23898465Y-5566671D01*
G01X23904307Y-5583689D01*
G01X23915737Y-5595119D01*
G01X23927167Y-5600961D01*
G01X23944185Y-5600961D01*
G01X23955615Y-5595119D01*
G01X23967045Y-5583689D01*
G01X24083377Y-5480819D02*
G01X24083377Y-5600961D01*
G01X24083377Y-5537969D02*
G01X24071947Y-5526539D01*
G01X24060517Y-5520951D01*
G01X24043499Y-5520951D01*
G01X24032069Y-5526539D01*
G01X24020639Y-5537969D01*
G01X24014797Y-5555241D01*
G01X24014797Y-5566671D01*
G01X24020639Y-5583689D01*
G01X24032069Y-5595119D01*
G01X24043499Y-5600961D01*
G01X24060517Y-5600961D01*
G01X24071947Y-5595119D01*
G01X24083377Y-5583689D01*
G01X25439882Y-5480819D02*
G01X25439882Y-5600961D01*
G01X25439882Y-5480819D02*
G01X25491444Y-5480819D01*
G01X25508462Y-5486661D01*
G01X25514304Y-5492249D01*
G01X25519892Y-5503679D01*
G01X25519892Y-5515109D01*
G01X25514304Y-5526539D01*
G01X25508462Y-5532381D01*
G01X25491444Y-5537969D01*
G01X25439882Y-5537969D01*
G01X25480014Y-5537969D02*
G01X25519892Y-5600961D01*
G01X25596346Y-5520951D02*
G01X25584916Y-5526539D01*
G01X25573486Y-5537969D01*
G01X25567644Y-5555241D01*
G01X25567644Y-5566671D01*
G01X25573486Y-5583689D01*
G01X25584916Y-5595119D01*
G01X25596346Y-5600961D01*
G01X25613364Y-5600961D01*
G01X25624794Y-5595119D01*
G01X25636224Y-5583689D01*
G01X25642066Y-5566671D01*
G01X25642066Y-5555241D01*
G01X25636224Y-5537969D01*
G01X25624794Y-5526539D01*
G01X25613364Y-5520951D01*
G01X25596346Y-5520951D01*
G01X25689818Y-5520951D02*
G01X25689818Y-5578101D01*
G01X25695660Y-5595119D01*
G01X25707090Y-5600961D01*
G01X25724108Y-5600961D01*
G01X25735538Y-5595119D01*
G01X25752810Y-5578101D01*
G01X25752810Y-5520951D02*
G01X25752810Y-5600961D01*
G01X25800562Y-5520951D02*
G01X25800562Y-5600961D01*
G01X25800562Y-5543811D02*
G01X25817834Y-5526539D01*
G01X25829264Y-5520951D01*
G01X25846282Y-5520951D01*
G01X25857712Y-5526539D01*
G01X25863554Y-5543811D01*
G01X25863554Y-5600961D01*
G01X25979886Y-5480819D02*
G01X25979886Y-5600961D01*
G01X25979886Y-5537969D02*
G01X25968456Y-5526539D01*
G01X25957026Y-5520951D01*
G01X25940008Y-5520951D01*
G01X25928578Y-5526539D01*
G01X25917148Y-5537969D01*
G01X25911306Y-5555241D01*
G01X25911306Y-5566671D01*
G01X25917148Y-5583689D01*
G01X25928578Y-5595119D01*
G01X25940008Y-5600961D01*
G01X25957026Y-5600961D01*
G01X25968456Y-5595119D01*
G01X25979886Y-5583689D01*
G01X27399383Y-5480819D02*
G01X27399383Y-5600961D01*
G01X27359251Y-5480819D02*
G01X27439261Y-5480819D01*
G01X27515715Y-5520951D02*
G01X27504285Y-5526539D01*
G01X27492855Y-5537969D01*
G01X27487013Y-5555241D01*
G01X27487013Y-5566671D01*
G01X27492855Y-5583689D01*
G01X27504285Y-5595119D01*
G01X27515715Y-5600961D01*
G01X27532733Y-5600961D01*
G01X27544163Y-5595119D01*
G01X27555593Y-5583689D01*
G01X27561435Y-5566671D01*
G01X27561435Y-5555241D01*
G01X27555593Y-5537969D01*
G01X27544163Y-5526539D01*
G01X27532733Y-5520951D01*
G01X27515715Y-5520951D01*
G01X27609187Y-5520951D02*
G01X27609187Y-5640839D01*
G01X27609187Y-5537969D02*
G01X27620617Y-5526539D01*
G01X27632047Y-5520951D01*
G01X27649319Y-5520951D01*
G01X27660749Y-5526539D01*
G01X27672179Y-5537969D01*
G01X27677767Y-5555241D01*
G01X27677767Y-5566671D01*
G01X27672179Y-5583689D01*
G01X27660749Y-5595119D01*
G01X27649319Y-5600961D01*
G01X27632047Y-5600961D01*
G01X27620617Y-5595119D01*
G01X27609187Y-5583689D01*
G01X27853535Y-5480819D02*
G01X27853535Y-5600961D01*
G01X27853535Y-5600961D02*
G01X27922115Y-5600961D01*
G01X28038447Y-5520951D02*
G01X28038447Y-5600961D01*
G01X28038447Y-5537969D02*
G01X28027017Y-5526539D01*
G01X28015587Y-5520951D01*
G01X27998569Y-5520951D01*
G01X27987139Y-5526539D01*
G01X27975709Y-5537969D01*
G01X27969867Y-5555241D01*
G01X27969867Y-5566671D01*
G01X27975709Y-5583689D01*
G01X27987139Y-5595119D01*
G01X27998569Y-5600961D01*
G01X28015587Y-5600961D01*
G01X28027017Y-5595119D01*
G01X28038447Y-5583689D01*
G01X28092041Y-5520951D02*
G01X28126331Y-5600961D01*
G01X28160621Y-5520951D02*
G01X28126331Y-5600961D01*
G01X28114901Y-5623821D01*
G01X28103471Y-5635251D01*
G01X28092041Y-5640839D01*
G01X28086199Y-5640839D01*
G01X28208373Y-5555241D02*
G01X28276953Y-5555241D01*
G01X28276953Y-5543811D01*
G01X28271365Y-5532381D01*
G01X28265523Y-5526539D01*
G01X28254093Y-5520951D01*
G01X28237075Y-5520951D01*
G01X28225645Y-5526539D01*
G01X28214215Y-5537969D01*
G01X28208373Y-5555241D01*
G01X28208373Y-5566671D01*
G01X28214215Y-5583689D01*
G01X28225645Y-5595119D01*
G01X28237075Y-5600961D01*
G01X28254093Y-5600961D01*
G01X28265523Y-5595119D01*
G01X28276953Y-5583689D01*
G01X28324705Y-5520951D02*
G01X28324705Y-5600961D01*
G01X28324705Y-5555241D02*
G01X28330547Y-5537969D01*
G01X28341977Y-5526539D01*
G01X28353407Y-5520951D01*
G01X28370425Y-5520951D01*
G01X28418177Y-5549399D02*
G01X28521047Y-5549399D01*
G01X28568799Y-5480819D02*
G01X28568799Y-5600961D01*
G01X28568799Y-5480819D02*
G01X28620361Y-5480819D01*
G01X28637379Y-5486661D01*
G01X28643221Y-5492249D01*
G01X28648809Y-5503679D01*
G01X28648809Y-5515109D01*
G01X28643221Y-5526539D01*
G01X28637379Y-5532381D01*
G01X28620361Y-5537969D01*
G01X28568799Y-5537969D02*
G01X28620361Y-5537969D01*
G01X28637379Y-5543811D01*
G01X28643221Y-5549399D01*
G01X28648809Y-5560829D01*
G01X28648809Y-5578101D01*
G01X28643221Y-5589531D01*
G01X28637379Y-5595119D01*
G01X28620361Y-5600961D01*
G01X28568799Y-5600961D01*
G01X28725263Y-5520951D02*
G01X28713833Y-5526539D01*
G01X28702403Y-5537969D01*
G01X28696561Y-5555241D01*
G01X28696561Y-5566671D01*
G01X28702403Y-5583689D01*
G01X28713833Y-5595119D01*
G01X28725263Y-5600961D01*
G01X28742281Y-5600961D01*
G01X28753711Y-5595119D01*
G01X28765141Y-5583689D01*
G01X28770983Y-5566671D01*
G01X28770983Y-5555241D01*
G01X28765141Y-5537969D01*
G01X28753711Y-5526539D01*
G01X28742281Y-5520951D01*
G01X28725263Y-5520951D01*
G01X28836007Y-5480819D02*
G01X28836007Y-5578101D01*
G01X28841595Y-5595119D01*
G01X28853025Y-5600961D01*
G01X28864455Y-5600961D01*
G01X28818735Y-5520951D02*
G01X28858867Y-5520951D01*
G01X28929479Y-5480819D02*
G01X28929479Y-5578101D01*
G01X28935067Y-5595119D01*
G01X28946497Y-5600961D01*
G01X28957927Y-5600961D01*
G01X28912207Y-5520951D02*
G01X28952339Y-5520951D01*
G01X29034381Y-5520951D02*
G01X29022951Y-5526539D01*
G01X29011521Y-5537969D01*
G01X29005679Y-5555241D01*
G01X29005679Y-5566671D01*
G01X29011521Y-5583689D01*
G01X29022951Y-5595119D01*
G01X29034381Y-5600961D01*
G01X29051399Y-5600961D01*
G01X29062829Y-5595119D01*
G01X29074259Y-5583689D01*
G01X29080101Y-5566671D01*
G01X29080101Y-5555241D01*
G01X29074259Y-5537969D01*
G01X29062829Y-5526539D01*
G01X29051399Y-5520951D01*
G01X29034381Y-5520951D01*
G01X29127853Y-5520951D02*
G01X29127853Y-5600961D01*
G01X29127853Y-5543811D02*
G01X29145125Y-5526539D01*
G01X29156555Y-5520951D01*
G01X29173573Y-5520951D01*
G01X29185003Y-5526539D01*
G01X29190845Y-5543811D01*
G01X29190845Y-5600961D01*
G01X29190845Y-5543811D02*
G01X29207863Y-5526539D01*
G01X29219293Y-5520951D01*
G01X29236565Y-5520951D01*
G01X29247995Y-5526539D01*
G01X29253583Y-5543811D01*
G01X29253583Y-5600961D01*
G01X29429351Y-5480819D02*
G01X29429351Y-5600961D01*
G01X29429351Y-5600961D02*
G01X29497931Y-5600961D01*
G01X29614263Y-5520951D02*
G01X29614263Y-5600961D01*
G01X29614263Y-5537969D02*
G01X29602833Y-5526539D01*
G01X29591403Y-5520951D01*
G01X29574385Y-5520951D01*
G01X29562955Y-5526539D01*
G01X29551525Y-5537969D01*
G01X29545683Y-5555241D01*
G01X29545683Y-5566671D01*
G01X29551525Y-5583689D01*
G01X29562955Y-5595119D01*
G01X29574385Y-5600961D01*
G01X29591403Y-5600961D01*
G01X29602833Y-5595119D01*
G01X29614263Y-5583689D01*
G01X29667857Y-5520951D02*
G01X29702147Y-5600961D01*
G01X29736437Y-5520951D02*
G01X29702147Y-5600961D01*
G01X29690717Y-5623821D01*
G01X29679287Y-5635251D01*
G01X29667857Y-5640839D01*
G01X29662015Y-5640839D01*
G01X29784189Y-5555241D02*
G01X29852769Y-5555241D01*
G01X29852769Y-5543811D01*
G01X29847181Y-5532381D01*
G01X29841339Y-5526539D01*
G01X29829909Y-5520951D01*
G01X29812891Y-5520951D01*
G01X29801461Y-5526539D01*
G01X29790031Y-5537969D01*
G01X29784189Y-5555241D01*
G01X29784189Y-5566671D01*
G01X29790031Y-5583689D01*
G01X29801461Y-5595119D01*
G01X29812891Y-5600961D01*
G01X29829909Y-5600961D01*
G01X29841339Y-5595119D01*
G01X29852769Y-5583689D01*
G01X29900521Y-5520951D02*
G01X29900521Y-5600961D01*
G01X29900521Y-5555241D02*
G01X29906363Y-5537969D01*
G01X29917793Y-5526539D01*
G01X29929223Y-5520951D01*
G01X29946241Y-5520951D01*
G01X15567954Y-6061391D02*
G01X15510804Y-6061391D01*
G01X15505216Y-6112953D01*
G01X15510804Y-6107111D01*
G01X15528076Y-6101523D01*
G01X15545094Y-6101523D01*
G01X15562366Y-6107111D01*
G01X15573796Y-6118541D01*
G01X15579384Y-6135813D01*
G01X15579384Y-6147243D01*
G01X15573796Y-6164261D01*
G01X15562366Y-6175691D01*
G01X15545094Y-6181533D01*
G01X15528076Y-6181533D01*
G01X15510804Y-6175691D01*
G01X15505216Y-6170103D01*
G01X15499374Y-6158673D01*
G01X16919379Y-6090093D02*
G01X16919379Y-6084251D01*
G01X16924967Y-6072821D01*
G01X16930809Y-6067233D01*
G01X16942239Y-6061391D01*
G01X16965099Y-6061391D01*
G01X16976529Y-6067233D01*
G01X16982117Y-6072821D01*
G01X16987959Y-6084251D01*
G01X16987959Y-6095681D01*
G01X16982117Y-6107111D01*
G01X16970687Y-6124383D01*
G01X16913537Y-6181533D01*
G01X16993547Y-6181533D01*
G01X17121309Y-6061391D02*
G01X17064159Y-6181533D01*
G01X17041299Y-6061391D02*
G01X17121309Y-6061391D01*
G01X17174903Y-6152831D02*
G01X17169061Y-6158673D01*
G01X17174903Y-6164261D01*
G01X17180491Y-6158673D01*
G01X17174903Y-6152831D01*
G01X17296823Y-6078663D02*
G01X17291235Y-6067233D01*
G01X17273963Y-6061391D01*
G01X17262533Y-6061391D01*
G01X17245515Y-6067233D01*
G01X17234085Y-6084251D01*
G01X17228243Y-6112953D01*
G01X17228243Y-6141401D01*
G01X17234085Y-6164261D01*
G01X17245515Y-6175691D01*
G01X17262533Y-6181533D01*
G01X17268375Y-6181533D01*
G01X17285393Y-6175691D01*
G01X17296823Y-6164261D01*
G01X17302665Y-6147243D01*
G01X17302665Y-6141401D01*
G01X17296823Y-6124383D01*
G01X17285393Y-6112953D01*
G01X17268375Y-6107111D01*
G01X17262533Y-6107111D01*
G01X17245515Y-6112953D01*
G01X17234085Y-6124383D01*
G01X17228243Y-6141401D01*
G01X17350417Y-6101523D02*
G01X17413409Y-6181533D01*
G01X17413409Y-6101523D02*
G01X17350417Y-6181533D01*
G01X17467003Y-6090093D02*
G01X17467003Y-6084251D01*
G01X17472591Y-6072821D01*
G01X17478433Y-6067233D01*
G01X17489863Y-6061391D01*
G01X17512723Y-6061391D01*
G01X17524153Y-6067233D01*
G01X17529741Y-6072821D01*
G01X17535583Y-6084251D01*
G01X17535583Y-6095681D01*
G01X17529741Y-6107111D01*
G01X17518311Y-6124383D01*
G01X17461161Y-6181533D01*
G01X17541171Y-6181533D01*
G01X17668933Y-6061391D02*
G01X17611783Y-6181533D01*
G01X17588923Y-6061391D02*
G01X17668933Y-6061391D01*
G01X17722527Y-6152831D02*
G01X17716685Y-6158673D01*
G01X17722527Y-6164261D01*
G01X17728115Y-6158673D01*
G01X17722527Y-6152831D01*
G01X17844447Y-6078663D02*
G01X17838859Y-6067233D01*
G01X17821587Y-6061391D01*
G01X17810157Y-6061391D01*
G01X17793139Y-6067233D01*
G01X17781709Y-6084251D01*
G01X17775867Y-6112953D01*
G01X17775867Y-6141401D01*
G01X17781709Y-6164261D01*
G01X17793139Y-6175691D01*
G01X17810157Y-6181533D01*
G01X17815999Y-6181533D01*
G01X17833017Y-6175691D01*
G01X17844447Y-6164261D01*
G01X17850289Y-6147243D01*
G01X17850289Y-6141401D01*
G01X17844447Y-6124383D01*
G01X17833017Y-6112953D01*
G01X17815999Y-6107111D01*
G01X17810157Y-6107111D01*
G01X17793139Y-6112953D01*
G01X17781709Y-6124383D01*
G01X17775867Y-6141401D01*
G01X17898041Y-6101523D02*
G01X17898041Y-6181533D01*
G01X17898041Y-6124383D02*
G01X17915313Y-6107111D01*
G01X17926743Y-6101523D01*
G01X17943761Y-6101523D01*
G01X17955191Y-6107111D01*
G01X17961033Y-6124383D01*
G01X17961033Y-6181533D01*
G01X17961033Y-6124383D02*
G01X17978051Y-6107111D01*
G01X17989481Y-6101523D01*
G01X18006753Y-6101523D01*
G01X18018183Y-6107111D01*
G01X18023771Y-6124383D01*
G01X18023771Y-6181533D01*
G01X18071523Y-6061391D02*
G01X18077365Y-6067233D01*
G01X18082953Y-6061391D01*
G01X18077365Y-6055803D01*
G01X18071523Y-6061391D01*
G01X18077365Y-6101523D02*
G01X18077365Y-6181533D01*
G01X18130705Y-6061391D02*
G01X18130705Y-6181533D01*
G01X18218589Y-6038531D02*
G01X18207159Y-6049961D01*
G01X18195729Y-6067233D01*
G01X18184299Y-6090093D01*
G01X18178457Y-6118541D01*
G01X18178457Y-6141401D01*
G01X18184299Y-6170103D01*
G01X18195729Y-6192963D01*
G01X18207159Y-6209981D01*
G01X18218589Y-6221411D01*
G01X18300631Y-6061391D02*
G01X18283613Y-6067233D01*
G01X18272183Y-6084251D01*
G01X18266341Y-6112953D01*
G01X18266341Y-6129971D01*
G01X18272183Y-6158673D01*
G01X18283613Y-6175691D01*
G01X18300631Y-6181533D01*
G01X18312061Y-6181533D01*
G01X18329333Y-6175691D01*
G01X18340763Y-6158673D01*
G01X18346351Y-6129971D01*
G01X18346351Y-6112953D01*
G01X18340763Y-6084251D01*
G01X18329333Y-6067233D01*
G01X18312061Y-6061391D01*
G01X18300631Y-6061391D01*
G01X18399945Y-6152831D02*
G01X18394103Y-6158673D01*
G01X18399945Y-6164261D01*
G01X18405533Y-6158673D01*
G01X18399945Y-6152831D01*
G01X18533295Y-6061391D02*
G01X18476145Y-6181533D01*
G01X18453285Y-6061391D02*
G01X18533295Y-6061391D01*
G01X18615337Y-6061391D02*
G01X18598319Y-6067233D01*
G01X18586889Y-6084251D01*
G01X18581047Y-6112953D01*
G01X18581047Y-6129971D01*
G01X18586889Y-6158673D01*
G01X18598319Y-6175691D01*
G01X18615337Y-6181533D01*
G01X18626767Y-6181533D01*
G01X18644039Y-6175691D01*
G01X18655469Y-6158673D01*
G01X18661057Y-6129971D01*
G01X18661057Y-6112953D01*
G01X18655469Y-6084251D01*
G01X18644039Y-6067233D01*
G01X18626767Y-6061391D01*
G01X18615337Y-6061391D01*
G01X18743099Y-6061391D02*
G01X18726081Y-6067233D01*
G01X18714651Y-6084251D01*
G01X18708809Y-6112953D01*
G01X18708809Y-6129971D01*
G01X18714651Y-6158673D01*
G01X18726081Y-6175691D01*
G01X18743099Y-6181533D01*
G01X18754529Y-6181533D01*
G01X18771801Y-6175691D01*
G01X18783231Y-6158673D01*
G01X18788819Y-6129971D01*
G01X18788819Y-6112953D01*
G01X18783231Y-6084251D01*
G01X18771801Y-6067233D01*
G01X18754529Y-6061391D01*
G01X18743099Y-6061391D01*
G01X18836571Y-6101523D02*
G01X18899563Y-6181533D01*
G01X18899563Y-6101523D02*
G01X18836571Y-6181533D01*
G01X18981605Y-6061391D02*
G01X18964587Y-6067233D01*
G01X18953157Y-6084251D01*
G01X18947315Y-6112953D01*
G01X18947315Y-6129971D01*
G01X18953157Y-6158673D01*
G01X18964587Y-6175691D01*
G01X18981605Y-6181533D01*
G01X18993035Y-6181533D01*
G01X19010307Y-6175691D01*
G01X19021737Y-6158673D01*
G01X19027325Y-6129971D01*
G01X19027325Y-6112953D01*
G01X19021737Y-6084251D01*
G01X19010307Y-6067233D01*
G01X18993035Y-6061391D01*
G01X18981605Y-6061391D01*
G01X19080919Y-6152831D02*
G01X19075077Y-6158673D01*
G01X19080919Y-6164261D01*
G01X19086507Y-6158673D01*
G01X19080919Y-6152831D01*
G01X19214269Y-6061391D02*
G01X19157119Y-6181533D01*
G01X19134259Y-6061391D02*
G01X19214269Y-6061391D01*
G01X19296311Y-6061391D02*
G01X19279293Y-6067233D01*
G01X19267863Y-6084251D01*
G01X19262021Y-6112953D01*
G01X19262021Y-6129971D01*
G01X19267863Y-6158673D01*
G01X19279293Y-6175691D01*
G01X19296311Y-6181533D01*
G01X19307741Y-6181533D01*
G01X19325013Y-6175691D01*
G01X19336443Y-6158673D01*
G01X19342031Y-6129971D01*
G01X19342031Y-6112953D01*
G01X19336443Y-6084251D01*
G01X19325013Y-6067233D01*
G01X19307741Y-6061391D01*
G01X19296311Y-6061391D01*
G01X19424073Y-6061391D02*
G01X19407055Y-6067233D01*
G01X19395625Y-6084251D01*
G01X19389783Y-6112953D01*
G01X19389783Y-6129971D01*
G01X19395625Y-6158673D01*
G01X19407055Y-6175691D01*
G01X19424073Y-6181533D01*
G01X19435503Y-6181533D01*
G01X19452775Y-6175691D01*
G01X19464205Y-6158673D01*
G01X19469793Y-6129971D01*
G01X19469793Y-6112953D01*
G01X19464205Y-6084251D01*
G01X19452775Y-6067233D01*
G01X19435503Y-6061391D01*
G01X19424073Y-6061391D01*
G01X19517545Y-6101523D02*
G01X19517545Y-6181533D01*
G01X19517545Y-6124383D02*
G01X19534817Y-6107111D01*
G01X19546247Y-6101523D01*
G01X19563265Y-6101523D01*
G01X19574695Y-6107111D01*
G01X19580537Y-6124383D01*
G01X19580537Y-6181533D01*
G01X19580537Y-6124383D02*
G01X19597555Y-6107111D01*
G01X19608985Y-6101523D01*
G01X19626257Y-6101523D01*
G01X19637687Y-6107111D01*
G01X19643275Y-6124383D01*
G01X19643275Y-6181533D01*
G01X19691027Y-6101523D02*
G01X19691027Y-6181533D01*
G01X19691027Y-6124383D02*
G01X19708299Y-6107111D01*
G01X19719729Y-6101523D01*
G01X19736747Y-6101523D01*
G01X19748177Y-6107111D01*
G01X19754019Y-6124383D01*
G01X19754019Y-6181533D01*
G01X19754019Y-6124383D02*
G01X19771037Y-6107111D01*
G01X19782467Y-6101523D01*
G01X19799739Y-6101523D01*
G01X19811169Y-6107111D01*
G01X19816757Y-6124383D01*
G01X19816757Y-6181533D01*
G01X19864509Y-6038531D02*
G01X19875939Y-6049961D01*
G01X19887369Y-6067233D01*
G01X19898799Y-6090093D01*
G01X19904641Y-6118541D01*
G01X19904641Y-6141401D01*
G01X19898799Y-6170103D01*
G01X19887369Y-6192963D01*
G01X19875939Y-6209981D01*
G01X19864509Y-6221411D01*
G01X20878115Y-6061391D02*
G01X20878115Y-6181533D01*
G01X20878115Y-6061391D02*
G01X20929677Y-6061391D01*
G01X20946695Y-6067233D01*
G01X20952537Y-6072821D01*
G01X20958125Y-6084251D01*
G01X20958125Y-6101523D01*
G01X20952537Y-6112953D01*
G01X20946695Y-6118541D01*
G01X20929677Y-6124383D01*
G01X20878115Y-6124383D01*
G01X21046009Y-6061391D02*
G01X21046009Y-6181533D01*
G01X21005877Y-6061391D02*
G01X21085887Y-6061391D01*
G01X21133639Y-6061391D02*
G01X21133639Y-6181533D01*
G01X21213649Y-6061391D02*
G01X21213649Y-6181533D01*
G01X21133639Y-6118541D02*
G01X21213649Y-6118541D01*
G01X22339522Y-6061391D02*
G01X22339522Y-6181533D01*
G01X22339522Y-6061391D02*
G01X22391084Y-6061391D01*
G01X22408102Y-6067233D01*
G01X22413944Y-6072821D01*
G01X22419532Y-6084251D01*
G01X22419532Y-6095681D01*
G01X22413944Y-6107111D01*
G01X22408102Y-6112953D01*
G01X22391084Y-6118541D01*
G01X22339522Y-6118541D01*
G01X22379654Y-6118541D02*
G01X22419532Y-6181533D01*
G01X22495986Y-6101523D02*
G01X22484556Y-6107111D01*
G01X22473126Y-6118541D01*
G01X22467284Y-6135813D01*
G01X22467284Y-6147243D01*
G01X22473126Y-6164261D01*
G01X22484556Y-6175691D01*
G01X22495986Y-6181533D01*
G01X22513004Y-6181533D01*
G01X22524434Y-6175691D01*
G01X22535864Y-6164261D01*
G01X22541706Y-6147243D01*
G01X22541706Y-6135813D01*
G01X22535864Y-6118541D01*
G01X22524434Y-6107111D01*
G01X22513004Y-6101523D01*
G01X22495986Y-6101523D01*
G01X22589458Y-6101523D02*
G01X22589458Y-6158673D01*
G01X22595300Y-6175691D01*
G01X22606730Y-6181533D01*
G01X22623748Y-6181533D01*
G01X22635178Y-6175691D01*
G01X22652450Y-6158673D01*
G01X22652450Y-6101523D02*
G01X22652450Y-6181533D01*
G01X22700202Y-6101523D02*
G01X22700202Y-6181533D01*
G01X22700202Y-6124383D02*
G01X22717474Y-6107111D01*
G01X22728904Y-6101523D01*
G01X22745922Y-6101523D01*
G01X22757352Y-6107111D01*
G01X22763194Y-6124383D01*
G01X22763194Y-6181533D01*
G01X22879526Y-6061391D02*
G01X22879526Y-6181533D01*
G01X22879526Y-6118541D02*
G01X22868096Y-6107111D01*
G01X22856666Y-6101523D01*
G01X22839648Y-6101523D01*
G01X22828218Y-6107111D01*
G01X22816788Y-6118541D01*
G01X22810946Y-6135813D01*
G01X22810946Y-6147243D01*
G01X22816788Y-6164261D01*
G01X22828218Y-6175691D01*
G01X22839648Y-6181533D01*
G01X22856666Y-6181533D01*
G01X22868096Y-6175691D01*
G01X22879526Y-6164261D01*
G01X23770703Y-6061391D02*
G01X23770703Y-6181533D01*
G01X23770703Y-6061391D02*
G01X23822265Y-6061391D01*
G01X23839283Y-6067233D01*
G01X23845125Y-6072821D01*
G01X23850713Y-6084251D01*
G01X23850713Y-6101523D01*
G01X23845125Y-6112953D01*
G01X23839283Y-6118541D01*
G01X23822265Y-6124383D01*
G01X23770703Y-6124383D01*
G01X23967045Y-6101523D02*
G01X23967045Y-6181533D01*
G01X23967045Y-6118541D02*
G01X23955615Y-6107111D01*
G01X23944185Y-6101523D01*
G01X23927167Y-6101523D01*
G01X23915737Y-6107111D01*
G01X23904307Y-6118541D01*
G01X23898465Y-6135813D01*
G01X23898465Y-6147243D01*
G01X23904307Y-6164261D01*
G01X23915737Y-6175691D01*
G01X23927167Y-6181533D01*
G01X23944185Y-6181533D01*
G01X23955615Y-6175691D01*
G01X23967045Y-6164261D01*
G01X24083377Y-6061391D02*
G01X24083377Y-6181533D01*
G01X24083377Y-6118541D02*
G01X24071947Y-6107111D01*
G01X24060517Y-6101523D01*
G01X24043499Y-6101523D01*
G01X24032069Y-6107111D01*
G01X24020639Y-6118541D01*
G01X24014797Y-6135813D01*
G01X24014797Y-6147243D01*
G01X24020639Y-6164261D01*
G01X24032069Y-6175691D01*
G01X24043499Y-6181533D01*
G01X24060517Y-6181533D01*
G01X24071947Y-6175691D01*
G01X24083377Y-6164261D01*
G01X25480014Y-6038531D02*
G01X25468584Y-6049961D01*
G01X25457154Y-6067233D01*
G01X25445724Y-6090093D01*
G01X25439882Y-6118541D01*
G01X25439882Y-6141401D01*
G01X25445724Y-6170103D01*
G01X25457154Y-6192963D01*
G01X25468584Y-6209981D01*
G01X25480014Y-6221411D01*
G01X25527766Y-6061391D02*
G01X25527766Y-6181533D01*
G01X25527766Y-6061391D02*
G01X25573486Y-6181533D01*
G01X25619206Y-6061391D02*
G01X25573486Y-6181533D01*
G01X25619206Y-6061391D02*
G01X25619206Y-6181533D01*
G01X25666958Y-6061391D02*
G01X25672800Y-6067233D01*
G01X25678388Y-6061391D01*
G01X25672800Y-6055803D01*
G01X25666958Y-6061391D01*
G01X25672800Y-6101523D02*
G01X25672800Y-6181533D01*
G01X25726140Y-6101523D02*
G01X25789132Y-6181533D01*
G01X25789132Y-6101523D02*
G01X25726140Y-6181533D01*
G01X25836884Y-6135813D02*
G01X25905464Y-6135813D01*
G01X25905464Y-6124383D01*
G01X25899876Y-6112953D01*
G01X25894034Y-6107111D01*
G01X25882604Y-6101523D01*
G01X25865586Y-6101523D01*
G01X25854156Y-6107111D01*
G01X25842726Y-6118541D01*
G01X25836884Y-6135813D01*
G01X25836884Y-6147243D01*
G01X25842726Y-6164261D01*
G01X25854156Y-6175691D01*
G01X25865586Y-6181533D01*
G01X25882604Y-6181533D01*
G01X25894034Y-6175691D01*
G01X25905464Y-6164261D01*
G01X26021796Y-6061391D02*
G01X26021796Y-6181533D01*
G01X26021796Y-6118541D02*
G01X26010366Y-6107111D01*
G01X25998936Y-6101523D01*
G01X25981918Y-6101523D01*
G01X25970488Y-6107111D01*
G01X25959058Y-6118541D01*
G01X25953216Y-6135813D01*
G01X25953216Y-6147243D01*
G01X25959058Y-6164261D01*
G01X25970488Y-6175691D01*
G01X25981918Y-6181533D01*
G01X25998936Y-6181533D01*
G01X26010366Y-6175691D01*
G01X26021796Y-6164261D01*
G01X26069548Y-6038531D02*
G01X26080978Y-6049961D01*
G01X26092408Y-6067233D01*
G01X26103838Y-6090093D01*
G01X26109680Y-6118541D01*
G01X26109680Y-6141401D01*
G01X26103838Y-6170103D01*
G01X26092408Y-6192963D01*
G01X26080978Y-6209981D01*
G01X26069548Y-6221411D01*
G01X27399383Y-6061391D02*
G01X27399383Y-6181533D01*
G01X27359251Y-6061391D02*
G01X27439261Y-6061391D01*
G01X27515715Y-6101523D02*
G01X27504285Y-6107111D01*
G01X27492855Y-6118541D01*
G01X27487013Y-6135813D01*
G01X27487013Y-6147243D01*
G01X27492855Y-6164261D01*
G01X27504285Y-6175691D01*
G01X27515715Y-6181533D01*
G01X27532733Y-6181533D01*
G01X27544163Y-6175691D01*
G01X27555593Y-6164261D01*
G01X27561435Y-6147243D01*
G01X27561435Y-6135813D01*
G01X27555593Y-6118541D01*
G01X27544163Y-6107111D01*
G01X27532733Y-6101523D01*
G01X27515715Y-6101523D01*
G01X27609187Y-6101523D02*
G01X27609187Y-6221411D01*
G01X27609187Y-6118541D02*
G01X27620617Y-6107111D01*
G01X27632047Y-6101523D01*
G01X27649319Y-6101523D01*
G01X27660749Y-6107111D01*
G01X27672179Y-6118541D01*
G01X27677767Y-6135813D01*
G01X27677767Y-6147243D01*
G01X27672179Y-6164261D01*
G01X27660749Y-6175691D01*
G01X27649319Y-6181533D01*
G01X27632047Y-6181533D01*
G01X27620617Y-6175691D01*
G01X27609187Y-6164261D01*
G01X27853535Y-6061391D02*
G01X27853535Y-6181533D01*
G01X27853535Y-6181533D02*
G01X27922115Y-6181533D01*
G01X28038447Y-6101523D02*
G01X28038447Y-6181533D01*
G01X28038447Y-6118541D02*
G01X28027017Y-6107111D01*
G01X28015587Y-6101523D01*
G01X27998569Y-6101523D01*
G01X27987139Y-6107111D01*
G01X27975709Y-6118541D01*
G01X27969867Y-6135813D01*
G01X27969867Y-6147243D01*
G01X27975709Y-6164261D01*
G01X27987139Y-6175691D01*
G01X27998569Y-6181533D01*
G01X28015587Y-6181533D01*
G01X28027017Y-6175691D01*
G01X28038447Y-6164261D01*
G01X28092041Y-6101523D02*
G01X28126331Y-6181533D01*
G01X28160621Y-6101523D02*
G01X28126331Y-6181533D01*
G01X28114901Y-6204393D01*
G01X28103471Y-6215823D01*
G01X28092041Y-6221411D01*
G01X28086199Y-6221411D01*
G01X28208373Y-6135813D02*
G01X28276953Y-6135813D01*
G01X28276953Y-6124383D01*
G01X28271365Y-6112953D01*
G01X28265523Y-6107111D01*
G01X28254093Y-6101523D01*
G01X28237075Y-6101523D01*
G01X28225645Y-6107111D01*
G01X28214215Y-6118541D01*
G01X28208373Y-6135813D01*
G01X28208373Y-6147243D01*
G01X28214215Y-6164261D01*
G01X28225645Y-6175691D01*
G01X28237075Y-6181533D01*
G01X28254093Y-6181533D01*
G01X28265523Y-6175691D01*
G01X28276953Y-6164261D01*
G01X28324705Y-6101523D02*
G01X28324705Y-6181533D01*
G01X28324705Y-6135813D02*
G01X28330547Y-6118541D01*
G01X28341977Y-6107111D01*
G01X28353407Y-6101523D01*
G01X28370425Y-6101523D01*
G01X28418177Y-6129971D02*
G01X28521047Y-6129971D01*
G01X28568799Y-6061391D02*
G01X28568799Y-6181533D01*
G01X28568799Y-6061391D02*
G01X28620361Y-6061391D01*
G01X28637379Y-6067233D01*
G01X28643221Y-6072821D01*
G01X28648809Y-6084251D01*
G01X28648809Y-6095681D01*
G01X28643221Y-6107111D01*
G01X28637379Y-6112953D01*
G01X28620361Y-6118541D01*
G01X28568799Y-6118541D02*
G01X28620361Y-6118541D01*
G01X28637379Y-6124383D01*
G01X28643221Y-6129971D01*
G01X28648809Y-6141401D01*
G01X28648809Y-6158673D01*
G01X28643221Y-6170103D01*
G01X28637379Y-6175691D01*
G01X28620361Y-6181533D01*
G01X28568799Y-6181533D01*
G01X28725263Y-6101523D02*
G01X28713833Y-6107111D01*
G01X28702403Y-6118541D01*
G01X28696561Y-6135813D01*
G01X28696561Y-6147243D01*
G01X28702403Y-6164261D01*
G01X28713833Y-6175691D01*
G01X28725263Y-6181533D01*
G01X28742281Y-6181533D01*
G01X28753711Y-6175691D01*
G01X28765141Y-6164261D01*
G01X28770983Y-6147243D01*
G01X28770983Y-6135813D01*
G01X28765141Y-6118541D01*
G01X28753711Y-6107111D01*
G01X28742281Y-6101523D01*
G01X28725263Y-6101523D01*
G01X28836007Y-6061391D02*
G01X28836007Y-6158673D01*
G01X28841595Y-6175691D01*
G01X28853025Y-6181533D01*
G01X28864455Y-6181533D01*
G01X28818735Y-6101523D02*
G01X28858867Y-6101523D01*
G01X28929479Y-6061391D02*
G01X28929479Y-6158673D01*
G01X28935067Y-6175691D01*
G01X28946497Y-6181533D01*
G01X28957927Y-6181533D01*
G01X28912207Y-6101523D02*
G01X28952339Y-6101523D01*
G01X29034381Y-6101523D02*
G01X29022951Y-6107111D01*
G01X29011521Y-6118541D01*
G01X29005679Y-6135813D01*
G01X29005679Y-6147243D01*
G01X29011521Y-6164261D01*
G01X29022951Y-6175691D01*
G01X29034381Y-6181533D01*
G01X29051399Y-6181533D01*
G01X29062829Y-6175691D01*
G01X29074259Y-6164261D01*
G01X29080101Y-6147243D01*
G01X29080101Y-6135813D01*
G01X29074259Y-6118541D01*
G01X29062829Y-6107111D01*
G01X29051399Y-6101523D01*
G01X29034381Y-6101523D01*
G01X29127853Y-6101523D02*
G01X29127853Y-6181533D01*
G01X29127853Y-6124383D02*
G01X29145125Y-6107111D01*
G01X29156555Y-6101523D01*
G01X29173573Y-6101523D01*
G01X29185003Y-6107111D01*
G01X29190845Y-6124383D01*
G01X29190845Y-6181533D01*
G01X29190845Y-6124383D02*
G01X29207863Y-6107111D01*
G01X29219293Y-6101523D01*
G01X29236565Y-6101523D01*
G01X29247995Y-6107111D01*
G01X29253583Y-6124383D01*
G01X29253583Y-6181533D01*
G01X29429351Y-6061391D02*
G01X29429351Y-6181533D01*
G01X29429351Y-6181533D02*
G01X29497931Y-6181533D01*
G01X29614263Y-6101523D02*
G01X29614263Y-6181533D01*
G01X29614263Y-6118541D02*
G01X29602833Y-6107111D01*
G01X29591403Y-6101523D01*
G01X29574385Y-6101523D01*
G01X29562955Y-6107111D01*
G01X29551525Y-6118541D01*
G01X29545683Y-6135813D01*
G01X29545683Y-6147243D01*
G01X29551525Y-6164261D01*
G01X29562955Y-6175691D01*
G01X29574385Y-6181533D01*
G01X29591403Y-6181533D01*
G01X29602833Y-6175691D01*
G01X29614263Y-6164261D01*
G01X29667857Y-6101523D02*
G01X29702147Y-6181533D01*
G01X29736437Y-6101523D02*
G01X29702147Y-6181533D01*
G01X29690717Y-6204393D01*
G01X29679287Y-6215823D01*
G01X29667857Y-6221411D01*
G01X29662015Y-6221411D01*
G01X29784189Y-6135813D02*
G01X29852769Y-6135813D01*
G01X29852769Y-6124383D01*
G01X29847181Y-6112953D01*
G01X29841339Y-6107111D01*
G01X29829909Y-6101523D01*
G01X29812891Y-6101523D01*
G01X29801461Y-6107111D01*
G01X29790031Y-6118541D01*
G01X29784189Y-6135813D01*
G01X29784189Y-6147243D01*
G01X29790031Y-6164261D01*
G01X29801461Y-6175691D01*
G01X29812891Y-6181533D01*
G01X29829909Y-6181533D01*
G01X29841339Y-6175691D01*
G01X29852769Y-6164261D01*
G01X29900521Y-6101523D02*
G01X29900521Y-6181533D01*
G01X29900521Y-6135813D02*
G01X29906363Y-6118541D01*
G01X29917793Y-6107111D01*
G01X29929223Y-6101523D01*
G01X29946241Y-6101523D01*
G01X15567954Y-6641962D02*
G01X15510804Y-6641962D01*
G01X15505216Y-6693524D01*
G01X15510804Y-6687682D01*
G01X15528076Y-6682094D01*
G01X15545094Y-6682094D01*
G01X15562366Y-6687682D01*
G01X15573796Y-6699112D01*
G01X15579384Y-6716384D01*
G01X15579384Y-6727814D01*
G01X15573796Y-6744832D01*
G01X15562366Y-6756262D01*
G01X15545094Y-6762104D01*
G01X15528076Y-6762104D01*
G01X15510804Y-6756262D01*
G01X15505216Y-6750674D01*
G01X15499374Y-6739244D01*
G01X16982117Y-6659234D02*
G01X16976529Y-6647804D01*
G01X16959257Y-6641962D01*
G01X16947827Y-6641962D01*
G01X16930809Y-6647804D01*
G01X16919379Y-6664822D01*
G01X16913537Y-6693524D01*
G01X16913537Y-6721972D01*
G01X16919379Y-6744832D01*
G01X16930809Y-6756262D01*
G01X16947827Y-6762104D01*
G01X16953669Y-6762104D01*
G01X16970687Y-6756262D01*
G01X16982117Y-6744832D01*
G01X16987959Y-6727814D01*
G01X16987959Y-6721972D01*
G01X16982117Y-6704954D01*
G01X16970687Y-6693524D01*
G01X16953669Y-6687682D01*
G01X16947827Y-6687682D01*
G01X16930809Y-6693524D01*
G01X16919379Y-6704954D01*
G01X16913537Y-6721972D01*
G01X17070001Y-6641962D02*
G01X17052983Y-6647804D01*
G01X17041553Y-6664822D01*
G01X17035711Y-6693524D01*
G01X17035711Y-6710542D01*
G01X17041553Y-6739244D01*
G01X17052983Y-6756262D01*
G01X17070001Y-6762104D01*
G01X17081431Y-6762104D01*
G01X17098703Y-6756262D01*
G01X17110133Y-6739244D01*
G01X17115721Y-6710542D01*
G01X17115721Y-6693524D01*
G01X17110133Y-6664822D01*
G01X17098703Y-6647804D01*
G01X17081431Y-6641962D01*
G01X17070001Y-6641962D01*
G01X17169315Y-6733402D02*
G01X17163473Y-6739244D01*
G01X17169315Y-6744832D01*
G01X17174903Y-6739244D01*
G01X17169315Y-6733402D01*
G01X17256945Y-6641962D02*
G01X17239927Y-6647804D01*
G01X17228497Y-6664822D01*
G01X17222655Y-6693524D01*
G01X17222655Y-6710542D01*
G01X17228497Y-6739244D01*
G01X17239927Y-6756262D01*
G01X17256945Y-6762104D01*
G01X17268375Y-6762104D01*
G01X17285647Y-6756262D01*
G01X17297077Y-6739244D01*
G01X17302665Y-6710542D01*
G01X17302665Y-6693524D01*
G01X17297077Y-6664822D01*
G01X17285647Y-6647804D01*
G01X17268375Y-6641962D01*
G01X17256945Y-6641962D01*
G01X17350417Y-6682094D02*
G01X17413409Y-6762104D01*
G01X17413409Y-6682094D02*
G01X17350417Y-6762104D01*
G01X17529741Y-6659234D02*
G01X17524153Y-6647804D01*
G01X17506881Y-6641962D01*
G01X17495451Y-6641962D01*
G01X17478433Y-6647804D01*
G01X17467003Y-6664822D01*
G01X17461161Y-6693524D01*
G01X17461161Y-6721972D01*
G01X17467003Y-6744832D01*
G01X17478433Y-6756262D01*
G01X17495451Y-6762104D01*
G01X17501293Y-6762104D01*
G01X17518311Y-6756262D01*
G01X17529741Y-6744832D01*
G01X17535583Y-6727814D01*
G01X17535583Y-6721972D01*
G01X17529741Y-6704954D01*
G01X17518311Y-6693524D01*
G01X17501293Y-6687682D01*
G01X17495451Y-6687682D01*
G01X17478433Y-6693524D01*
G01X17467003Y-6704954D01*
G01X17461161Y-6721972D01*
G01X17617625Y-6641962D02*
G01X17600607Y-6647804D01*
G01X17589177Y-6664822D01*
G01X17583335Y-6693524D01*
G01X17583335Y-6710542D01*
G01X17589177Y-6739244D01*
G01X17600607Y-6756262D01*
G01X17617625Y-6762104D01*
G01X17629055Y-6762104D01*
G01X17646327Y-6756262D01*
G01X17657757Y-6739244D01*
G01X17663345Y-6710542D01*
G01X17663345Y-6693524D01*
G01X17657757Y-6664822D01*
G01X17646327Y-6647804D01*
G01X17629055Y-6641962D01*
G01X17617625Y-6641962D01*
G01X17716939Y-6733402D02*
G01X17711097Y-6739244D01*
G01X17716939Y-6744832D01*
G01X17722527Y-6739244D01*
G01X17716939Y-6733402D01*
G01X17804569Y-6641962D02*
G01X17787551Y-6647804D01*
G01X17776121Y-6664822D01*
G01X17770279Y-6693524D01*
G01X17770279Y-6710542D01*
G01X17776121Y-6739244D01*
G01X17787551Y-6756262D01*
G01X17804569Y-6762104D01*
G01X17815999Y-6762104D01*
G01X17833271Y-6756262D01*
G01X17844701Y-6739244D01*
G01X17850289Y-6710542D01*
G01X17850289Y-6693524D01*
G01X17844701Y-6664822D01*
G01X17833271Y-6647804D01*
G01X17815999Y-6641962D01*
G01X17804569Y-6641962D01*
G01X17898041Y-6682094D02*
G01X17898041Y-6762104D01*
G01X17898041Y-6704954D02*
G01X17915313Y-6687682D01*
G01X17926743Y-6682094D01*
G01X17943761Y-6682094D01*
G01X17955191Y-6687682D01*
G01X17961033Y-6704954D01*
G01X17961033Y-6762104D01*
G01X17961033Y-6704954D02*
G01X17978051Y-6687682D01*
G01X17989481Y-6682094D01*
G01X18006753Y-6682094D01*
G01X18018183Y-6687682D01*
G01X18023771Y-6704954D01*
G01X18023771Y-6762104D01*
G01X18071523Y-6641962D02*
G01X18077365Y-6647804D01*
G01X18082953Y-6641962D01*
G01X18077365Y-6636374D01*
G01X18071523Y-6641962D01*
G01X18077365Y-6682094D02*
G01X18077365Y-6762104D01*
G01X18130705Y-6641962D02*
G01X18130705Y-6762104D01*
G01X18218589Y-6619102D02*
G01X18207159Y-6630532D01*
G01X18195729Y-6647804D01*
G01X18184299Y-6670664D01*
G01X18178457Y-6699112D01*
G01X18178457Y-6721972D01*
G01X18184299Y-6750674D01*
G01X18195729Y-6773534D01*
G01X18207159Y-6790552D01*
G01X18218589Y-6801982D01*
G01X18266341Y-6664822D02*
G01X18277771Y-6659234D01*
G01X18295043Y-6641962D01*
G01X18295043Y-6762104D01*
G01X18348637Y-6733402D02*
G01X18342795Y-6739244D01*
G01X18348637Y-6744832D01*
G01X18354225Y-6739244D01*
G01X18348637Y-6733402D01*
G01X18470557Y-6641962D02*
G01X18413407Y-6641962D01*
G01X18407819Y-6693524D01*
G01X18413407Y-6687682D01*
G01X18430679Y-6682094D01*
G01X18447697Y-6682094D01*
G01X18464969Y-6687682D01*
G01X18476399Y-6699112D01*
G01X18481987Y-6716384D01*
G01X18481987Y-6727814D01*
G01X18476399Y-6744832D01*
G01X18464969Y-6756262D01*
G01X18447697Y-6762104D01*
G01X18430679Y-6762104D01*
G01X18413407Y-6756262D01*
G01X18407819Y-6750674D01*
G01X18401977Y-6739244D01*
G01X18535581Y-6670664D02*
G01X18535581Y-6664822D01*
G01X18541169Y-6653392D01*
G01X18547011Y-6647804D01*
G01X18558441Y-6641962D01*
G01X18581301Y-6641962D01*
G01X18592731Y-6647804D01*
G01X18598319Y-6653392D01*
G01X18604161Y-6664822D01*
G01X18604161Y-6676252D01*
G01X18598319Y-6687682D01*
G01X18586889Y-6704954D01*
G01X18529739Y-6762104D01*
G01X18609749Y-6762104D01*
G01X18714651Y-6641962D02*
G01X18657501Y-6721972D01*
G01X18743353Y-6721972D01*
G01X18714651Y-6641962D02*
G01X18714651Y-6762104D01*
G01X18791105Y-6682094D02*
G01X18854097Y-6762104D01*
G01X18854097Y-6682094D02*
G01X18791105Y-6762104D01*
G01X18901849Y-6664822D02*
G01X18913279Y-6659234D01*
G01X18930551Y-6641962D01*
G01X18930551Y-6762104D01*
G01X18984145Y-6733402D02*
G01X18978303Y-6739244D01*
G01X18984145Y-6744832D01*
G01X18989733Y-6739244D01*
G01X18984145Y-6733402D01*
G01X19106065Y-6641962D02*
G01X19048915Y-6641962D01*
G01X19043327Y-6693524D01*
G01X19048915Y-6687682D01*
G01X19066187Y-6682094D01*
G01X19083205Y-6682094D01*
G01X19100477Y-6687682D01*
G01X19111907Y-6699112D01*
G01X19117495Y-6716384D01*
G01X19117495Y-6727814D01*
G01X19111907Y-6744832D01*
G01X19100477Y-6756262D01*
G01X19083205Y-6762104D01*
G01X19066187Y-6762104D01*
G01X19048915Y-6756262D01*
G01X19043327Y-6750674D01*
G01X19037485Y-6739244D01*
G01X19171089Y-6670664D02*
G01X19171089Y-6664822D01*
G01X19176677Y-6653392D01*
G01X19182519Y-6647804D01*
G01X19193949Y-6641962D01*
G01X19216809Y-6641962D01*
G01X19228239Y-6647804D01*
G01X19233827Y-6653392D01*
G01X19239669Y-6664822D01*
G01X19239669Y-6676252D01*
G01X19233827Y-6687682D01*
G01X19222397Y-6704954D01*
G01X19165247Y-6762104D01*
G01X19245257Y-6762104D01*
G01X19350159Y-6641962D02*
G01X19293009Y-6721972D01*
G01X19378861Y-6721972D01*
G01X19350159Y-6641962D02*
G01X19350159Y-6762104D01*
G01X19426613Y-6682094D02*
G01X19426613Y-6762104D01*
G01X19426613Y-6704954D02*
G01X19443885Y-6687682D01*
G01X19455315Y-6682094D01*
G01X19472333Y-6682094D01*
G01X19483763Y-6687682D01*
G01X19489605Y-6704954D01*
G01X19489605Y-6762104D01*
G01X19489605Y-6704954D02*
G01X19506623Y-6687682D01*
G01X19518053Y-6682094D01*
G01X19535325Y-6682094D01*
G01X19546755Y-6687682D01*
G01X19552343Y-6704954D01*
G01X19552343Y-6762104D01*
G01X19600095Y-6682094D02*
G01X19600095Y-6762104D01*
G01X19600095Y-6704954D02*
G01X19617367Y-6687682D01*
G01X19628797Y-6682094D01*
G01X19645815Y-6682094D01*
G01X19657245Y-6687682D01*
G01X19663087Y-6704954D01*
G01X19663087Y-6762104D01*
G01X19663087Y-6704954D02*
G01X19680105Y-6687682D01*
G01X19691535Y-6682094D01*
G01X19708807Y-6682094D01*
G01X19720237Y-6687682D01*
G01X19725825Y-6704954D01*
G01X19725825Y-6762104D01*
G01X19773577Y-6619102D02*
G01X19785007Y-6630532D01*
G01X19796437Y-6647804D01*
G01X19807867Y-6670664D01*
G01X19813709Y-6699112D01*
G01X19813709Y-6721972D01*
G01X19807867Y-6750674D01*
G01X19796437Y-6773534D01*
G01X19785007Y-6790552D01*
G01X19773577Y-6801982D01*
G01X20878115Y-6641962D02*
G01X20878115Y-6762104D01*
G01X20878115Y-6641962D02*
G01X20929677Y-6641962D01*
G01X20946695Y-6647804D01*
G01X20952537Y-6653392D01*
G01X20958125Y-6664822D01*
G01X20958125Y-6682094D01*
G01X20952537Y-6693524D01*
G01X20946695Y-6699112D01*
G01X20929677Y-6704954D01*
G01X20878115Y-6704954D01*
G01X21046009Y-6641962D02*
G01X21046009Y-6762104D01*
G01X21005877Y-6641962D02*
G01X21085887Y-6641962D01*
G01X21133639Y-6641962D02*
G01X21133639Y-6762104D01*
G01X21213649Y-6641962D02*
G01X21213649Y-6762104D01*
G01X21133639Y-6699112D02*
G01X21213649Y-6699112D01*
G01X22339522Y-6641962D02*
G01X22339522Y-6762104D01*
G01X22339522Y-6641962D02*
G01X22391084Y-6641962D01*
G01X22408102Y-6647804D01*
G01X22413944Y-6653392D01*
G01X22419532Y-6664822D01*
G01X22419532Y-6676252D01*
G01X22413944Y-6687682D01*
G01X22408102Y-6693524D01*
G01X22391084Y-6699112D01*
G01X22339522Y-6699112D01*
G01X22379654Y-6699112D02*
G01X22419532Y-6762104D01*
G01X22495986Y-6682094D02*
G01X22484556Y-6687682D01*
G01X22473126Y-6699112D01*
G01X22467284Y-6716384D01*
G01X22467284Y-6727814D01*
G01X22473126Y-6744832D01*
G01X22484556Y-6756262D01*
G01X22495986Y-6762104D01*
G01X22513004Y-6762104D01*
G01X22524434Y-6756262D01*
G01X22535864Y-6744832D01*
G01X22541706Y-6727814D01*
G01X22541706Y-6716384D01*
G01X22535864Y-6699112D01*
G01X22524434Y-6687682D01*
G01X22513004Y-6682094D01*
G01X22495986Y-6682094D01*
G01X22589458Y-6682094D02*
G01X22589458Y-6739244D01*
G01X22595300Y-6756262D01*
G01X22606730Y-6762104D01*
G01X22623748Y-6762104D01*
G01X22635178Y-6756262D01*
G01X22652450Y-6739244D01*
G01X22652450Y-6682094D02*
G01X22652450Y-6762104D01*
G01X22700202Y-6682094D02*
G01X22700202Y-6762104D01*
G01X22700202Y-6704954D02*
G01X22717474Y-6687682D01*
G01X22728904Y-6682094D01*
G01X22745922Y-6682094D01*
G01X22757352Y-6687682D01*
G01X22763194Y-6704954D01*
G01X22763194Y-6762104D01*
G01X22879526Y-6641962D02*
G01X22879526Y-6762104D01*
G01X22879526Y-6699112D02*
G01X22868096Y-6687682D01*
G01X22856666Y-6682094D01*
G01X22839648Y-6682094D01*
G01X22828218Y-6687682D01*
G01X22816788Y-6699112D01*
G01X22810946Y-6716384D01*
G01X22810946Y-6727814D01*
G01X22816788Y-6744832D01*
G01X22828218Y-6756262D01*
G01X22839648Y-6762104D01*
G01X22856666Y-6762104D01*
G01X22868096Y-6756262D01*
G01X22879526Y-6744832D01*
G01X23770703Y-6641962D02*
G01X23770703Y-6762104D01*
G01X23770703Y-6641962D02*
G01X23822265Y-6641962D01*
G01X23839283Y-6647804D01*
G01X23845125Y-6653392D01*
G01X23850713Y-6664822D01*
G01X23850713Y-6682094D01*
G01X23845125Y-6693524D01*
G01X23839283Y-6699112D01*
G01X23822265Y-6704954D01*
G01X23770703Y-6704954D01*
G01X23967045Y-6682094D02*
G01X23967045Y-6762104D01*
G01X23967045Y-6699112D02*
G01X23955615Y-6687682D01*
G01X23944185Y-6682094D01*
G01X23927167Y-6682094D01*
G01X23915737Y-6687682D01*
G01X23904307Y-6699112D01*
G01X23898465Y-6716384D01*
G01X23898465Y-6727814D01*
G01X23904307Y-6744832D01*
G01X23915737Y-6756262D01*
G01X23927167Y-6762104D01*
G01X23944185Y-6762104D01*
G01X23955615Y-6756262D01*
G01X23967045Y-6744832D01*
G01X24083377Y-6641962D02*
G01X24083377Y-6762104D01*
G01X24083377Y-6699112D02*
G01X24071947Y-6687682D01*
G01X24060517Y-6682094D01*
G01X24043499Y-6682094D01*
G01X24032069Y-6687682D01*
G01X24020639Y-6699112D01*
G01X24014797Y-6716384D01*
G01X24014797Y-6727814D01*
G01X24020639Y-6744832D01*
G01X24032069Y-6756262D01*
G01X24043499Y-6762104D01*
G01X24060517Y-6762104D01*
G01X24071947Y-6756262D01*
G01X24083377Y-6744832D01*
G01X25439882Y-6641962D02*
G01X25439882Y-6762104D01*
G01X25439882Y-6641962D02*
G01X25491444Y-6641962D01*
G01X25508462Y-6647804D01*
G01X25514304Y-6653392D01*
G01X25519892Y-6664822D01*
G01X25519892Y-6676252D01*
G01X25514304Y-6687682D01*
G01X25508462Y-6693524D01*
G01X25491444Y-6699112D01*
G01X25439882Y-6699112D01*
G01X25480014Y-6699112D02*
G01X25519892Y-6762104D01*
G01X25596346Y-6682094D02*
G01X25584916Y-6687682D01*
G01X25573486Y-6699112D01*
G01X25567644Y-6716384D01*
G01X25567644Y-6727814D01*
G01X25573486Y-6744832D01*
G01X25584916Y-6756262D01*
G01X25596346Y-6762104D01*
G01X25613364Y-6762104D01*
G01X25624794Y-6756262D01*
G01X25636224Y-6744832D01*
G01X25642066Y-6727814D01*
G01X25642066Y-6716384D01*
G01X25636224Y-6699112D01*
G01X25624794Y-6687682D01*
G01X25613364Y-6682094D01*
G01X25596346Y-6682094D01*
G01X25689818Y-6682094D02*
G01X25689818Y-6739244D01*
G01X25695660Y-6756262D01*
G01X25707090Y-6762104D01*
G01X25724108Y-6762104D01*
G01X25735538Y-6756262D01*
G01X25752810Y-6739244D01*
G01X25752810Y-6682094D02*
G01X25752810Y-6762104D01*
G01X25800562Y-6682094D02*
G01X25800562Y-6762104D01*
G01X25800562Y-6704954D02*
G01X25817834Y-6687682D01*
G01X25829264Y-6682094D01*
G01X25846282Y-6682094D01*
G01X25857712Y-6687682D01*
G01X25863554Y-6704954D01*
G01X25863554Y-6762104D01*
G01X25979886Y-6641962D02*
G01X25979886Y-6762104D01*
G01X25979886Y-6699112D02*
G01X25968456Y-6687682D01*
G01X25957026Y-6682094D01*
G01X25940008Y-6682094D01*
G01X25928578Y-6687682D01*
G01X25917148Y-6699112D01*
G01X25911306Y-6716384D01*
G01X25911306Y-6727814D01*
G01X25917148Y-6744832D01*
G01X25928578Y-6756262D01*
G01X25940008Y-6762104D01*
G01X25957026Y-6762104D01*
G01X25968456Y-6756262D01*
G01X25979886Y-6744832D01*
G01X27399383Y-6641962D02*
G01X27399383Y-6762104D01*
G01X27359251Y-6641962D02*
G01X27439261Y-6641962D01*
G01X27515715Y-6682094D02*
G01X27504285Y-6687682D01*
G01X27492855Y-6699112D01*
G01X27487013Y-6716384D01*
G01X27487013Y-6727814D01*
G01X27492855Y-6744832D01*
G01X27504285Y-6756262D01*
G01X27515715Y-6762104D01*
G01X27532733Y-6762104D01*
G01X27544163Y-6756262D01*
G01X27555593Y-6744832D01*
G01X27561435Y-6727814D01*
G01X27561435Y-6716384D01*
G01X27555593Y-6699112D01*
G01X27544163Y-6687682D01*
G01X27532733Y-6682094D01*
G01X27515715Y-6682094D01*
G01X27609187Y-6682094D02*
G01X27609187Y-6801982D01*
G01X27609187Y-6699112D02*
G01X27620617Y-6687682D01*
G01X27632047Y-6682094D01*
G01X27649319Y-6682094D01*
G01X27660749Y-6687682D01*
G01X27672179Y-6699112D01*
G01X27677767Y-6716384D01*
G01X27677767Y-6727814D01*
G01X27672179Y-6744832D01*
G01X27660749Y-6756262D01*
G01X27649319Y-6762104D01*
G01X27632047Y-6762104D01*
G01X27620617Y-6756262D01*
G01X27609187Y-6744832D01*
G01X27853535Y-6641962D02*
G01X27853535Y-6762104D01*
G01X27853535Y-6762104D02*
G01X27922115Y-6762104D01*
G01X28038447Y-6682094D02*
G01X28038447Y-6762104D01*
G01X28038447Y-6699112D02*
G01X28027017Y-6687682D01*
G01X28015587Y-6682094D01*
G01X27998569Y-6682094D01*
G01X27987139Y-6687682D01*
G01X27975709Y-6699112D01*
G01X27969867Y-6716384D01*
G01X27969867Y-6727814D01*
G01X27975709Y-6744832D01*
G01X27987139Y-6756262D01*
G01X27998569Y-6762104D01*
G01X28015587Y-6762104D01*
G01X28027017Y-6756262D01*
G01X28038447Y-6744832D01*
G01X28092041Y-6682094D02*
G01X28126331Y-6762104D01*
G01X28160621Y-6682094D02*
G01X28126331Y-6762104D01*
G01X28114901Y-6784964D01*
G01X28103471Y-6796394D01*
G01X28092041Y-6801982D01*
G01X28086199Y-6801982D01*
G01X28208373Y-6716384D02*
G01X28276953Y-6716384D01*
G01X28276953Y-6704954D01*
G01X28271365Y-6693524D01*
G01X28265523Y-6687682D01*
G01X28254093Y-6682094D01*
G01X28237075Y-6682094D01*
G01X28225645Y-6687682D01*
G01X28214215Y-6699112D01*
G01X28208373Y-6716384D01*
G01X28208373Y-6727814D01*
G01X28214215Y-6744832D01*
G01X28225645Y-6756262D01*
G01X28237075Y-6762104D01*
G01X28254093Y-6762104D01*
G01X28265523Y-6756262D01*
G01X28276953Y-6744832D01*
G01X28324705Y-6682094D02*
G01X28324705Y-6762104D01*
G01X28324705Y-6716384D02*
G01X28330547Y-6699112D01*
G01X28341977Y-6687682D01*
G01X28353407Y-6682094D01*
G01X28370425Y-6682094D01*
G01X28418177Y-6710542D02*
G01X28521047Y-6710542D01*
G01X28568799Y-6641962D02*
G01X28568799Y-6762104D01*
G01X28568799Y-6641962D02*
G01X28620361Y-6641962D01*
G01X28637379Y-6647804D01*
G01X28643221Y-6653392D01*
G01X28648809Y-6664822D01*
G01X28648809Y-6676252D01*
G01X28643221Y-6687682D01*
G01X28637379Y-6693524D01*
G01X28620361Y-6699112D01*
G01X28568799Y-6699112D02*
G01X28620361Y-6699112D01*
G01X28637379Y-6704954D01*
G01X28643221Y-6710542D01*
G01X28648809Y-6721972D01*
G01X28648809Y-6739244D01*
G01X28643221Y-6750674D01*
G01X28637379Y-6756262D01*
G01X28620361Y-6762104D01*
G01X28568799Y-6762104D01*
G01X28725263Y-6682094D02*
G01X28713833Y-6687682D01*
G01X28702403Y-6699112D01*
G01X28696561Y-6716384D01*
G01X28696561Y-6727814D01*
G01X28702403Y-6744832D01*
G01X28713833Y-6756262D01*
G01X28725263Y-6762104D01*
G01X28742281Y-6762104D01*
G01X28753711Y-6756262D01*
G01X28765141Y-6744832D01*
G01X28770983Y-6727814D01*
G01X28770983Y-6716384D01*
G01X28765141Y-6699112D01*
G01X28753711Y-6687682D01*
G01X28742281Y-6682094D01*
G01X28725263Y-6682094D01*
G01X28836007Y-6641962D02*
G01X28836007Y-6739244D01*
G01X28841595Y-6756262D01*
G01X28853025Y-6762104D01*
G01X28864455Y-6762104D01*
G01X28818735Y-6682094D02*
G01X28858867Y-6682094D01*
G01X28929479Y-6641962D02*
G01X28929479Y-6739244D01*
G01X28935067Y-6756262D01*
G01X28946497Y-6762104D01*
G01X28957927Y-6762104D01*
G01X28912207Y-6682094D02*
G01X28952339Y-6682094D01*
G01X29034381Y-6682094D02*
G01X29022951Y-6687682D01*
G01X29011521Y-6699112D01*
G01X29005679Y-6716384D01*
G01X29005679Y-6727814D01*
G01X29011521Y-6744832D01*
G01X29022951Y-6756262D01*
G01X29034381Y-6762104D01*
G01X29051399Y-6762104D01*
G01X29062829Y-6756262D01*
G01X29074259Y-6744832D01*
G01X29080101Y-6727814D01*
G01X29080101Y-6716384D01*
G01X29074259Y-6699112D01*
G01X29062829Y-6687682D01*
G01X29051399Y-6682094D01*
G01X29034381Y-6682094D01*
G01X29127853Y-6682094D02*
G01X29127853Y-6762104D01*
G01X29127853Y-6704954D02*
G01X29145125Y-6687682D01*
G01X29156555Y-6682094D01*
G01X29173573Y-6682094D01*
G01X29185003Y-6687682D01*
G01X29190845Y-6704954D01*
G01X29190845Y-6762104D01*
G01X29190845Y-6704954D02*
G01X29207863Y-6687682D01*
G01X29219293Y-6682094D01*
G01X29236565Y-6682094D01*
G01X29247995Y-6687682D01*
G01X29253583Y-6704954D01*
G01X29253583Y-6762104D01*
G01X29429351Y-6641962D02*
G01X29429351Y-6762104D01*
G01X29429351Y-6762104D02*
G01X29497931Y-6762104D01*
G01X29614263Y-6682094D02*
G01X29614263Y-6762104D01*
G01X29614263Y-6699112D02*
G01X29602833Y-6687682D01*
G01X29591403Y-6682094D01*
G01X29574385Y-6682094D01*
G01X29562955Y-6687682D01*
G01X29551525Y-6699112D01*
G01X29545683Y-6716384D01*
G01X29545683Y-6727814D01*
G01X29551525Y-6744832D01*
G01X29562955Y-6756262D01*
G01X29574385Y-6762104D01*
G01X29591403Y-6762104D01*
G01X29602833Y-6756262D01*
G01X29614263Y-6744832D01*
G01X29667857Y-6682094D02*
G01X29702147Y-6762104D01*
G01X29736437Y-6682094D02*
G01X29702147Y-6762104D01*
G01X29690717Y-6784964D01*
G01X29679287Y-6796394D01*
G01X29667857Y-6801982D01*
G01X29662015Y-6801982D01*
G01X29784189Y-6716384D02*
G01X29852769Y-6716384D01*
G01X29852769Y-6704954D01*
G01X29847181Y-6693524D01*
G01X29841339Y-6687682D01*
G01X29829909Y-6682094D01*
G01X29812891Y-6682094D01*
G01X29801461Y-6687682D01*
G01X29790031Y-6699112D01*
G01X29784189Y-6716384D01*
G01X29784189Y-6727814D01*
G01X29790031Y-6744832D01*
G01X29801461Y-6756262D01*
G01X29812891Y-6762104D01*
G01X29829909Y-6762104D01*
G01X29841339Y-6756262D01*
G01X29852769Y-6744832D01*
G01X29900521Y-6682094D02*
G01X29900521Y-6762104D01*
G01X29900521Y-6716384D02*
G01X29906363Y-6699112D01*
G01X29917793Y-6687682D01*
G01X29929223Y-6682094D01*
G01X29946241Y-6682094D01*
G01X15499374Y-7245393D02*
G01X15510804Y-7239805D01*
G01X15528076Y-7222533D01*
G01X15528076Y-7342675D01*
G01X15610118Y-7222533D02*
G01X15593100Y-7228375D01*
G01X15581670Y-7245393D01*
G01X15575828Y-7274095D01*
G01X15575828Y-7291113D01*
G01X15581670Y-7319815D01*
G01X15593100Y-7336833D01*
G01X15610118Y-7342675D01*
G01X15621548Y-7342675D01*
G01X15638820Y-7336833D01*
G01X15650250Y-7319815D01*
G01X15655838Y-7291113D01*
G01X15655838Y-7274095D01*
G01X15650250Y-7245393D01*
G01X15638820Y-7228375D01*
G01X15621548Y-7222533D01*
G01X15610118Y-7222533D01*
G01X16982117Y-7222533D02*
G01X16924967Y-7222533D01*
G01X16919379Y-7274095D01*
G01X16924967Y-7268253D01*
G01X16942239Y-7262665D01*
G01X16959257Y-7262665D01*
G01X16976529Y-7268253D01*
G01X16987959Y-7279683D01*
G01X16993547Y-7296955D01*
G01X16993547Y-7308385D01*
G01X16987959Y-7325403D01*
G01X16976529Y-7336833D01*
G01X16959257Y-7342675D01*
G01X16942239Y-7342675D01*
G01X16924967Y-7336833D01*
G01X16919379Y-7331245D01*
G01X16913537Y-7319815D01*
G01X17109879Y-7222533D02*
G01X17052729Y-7222533D01*
G01X17047141Y-7274095D01*
G01X17052729Y-7268253D01*
G01X17070001Y-7262665D01*
G01X17087019Y-7262665D01*
G01X17104291Y-7268253D01*
G01X17115721Y-7279683D01*
G01X17121309Y-7296955D01*
G01X17121309Y-7308385D01*
G01X17115721Y-7325403D01*
G01X17104291Y-7336833D01*
G01X17087019Y-7342675D01*
G01X17070001Y-7342675D01*
G01X17052729Y-7336833D01*
G01X17047141Y-7331245D01*
G01X17041299Y-7319815D01*
G01X17174903Y-7313973D02*
G01X17169061Y-7319815D01*
G01X17174903Y-7325403D01*
G01X17180491Y-7319815D01*
G01X17174903Y-7313973D01*
G01X17228243Y-7245393D02*
G01X17239673Y-7239805D01*
G01X17256945Y-7222533D01*
G01X17256945Y-7342675D01*
G01X17304697Y-7262665D02*
G01X17367689Y-7342675D01*
G01X17367689Y-7262665D02*
G01X17304697Y-7342675D01*
G01X17484021Y-7222533D02*
G01X17426871Y-7222533D01*
G01X17421283Y-7274095D01*
G01X17426871Y-7268253D01*
G01X17444143Y-7262665D01*
G01X17461161Y-7262665D01*
G01X17478433Y-7268253D01*
G01X17489863Y-7279683D01*
G01X17495451Y-7296955D01*
G01X17495451Y-7308385D01*
G01X17489863Y-7325403D01*
G01X17478433Y-7336833D01*
G01X17461161Y-7342675D01*
G01X17444143Y-7342675D01*
G01X17426871Y-7336833D01*
G01X17421283Y-7331245D01*
G01X17415441Y-7319815D01*
G01X17611783Y-7222533D02*
G01X17554633Y-7222533D01*
G01X17549045Y-7274095D01*
G01X17554633Y-7268253D01*
G01X17571905Y-7262665D01*
G01X17588923Y-7262665D01*
G01X17606195Y-7268253D01*
G01X17617625Y-7279683D01*
G01X17623213Y-7296955D01*
G01X17623213Y-7308385D01*
G01X17617625Y-7325403D01*
G01X17606195Y-7336833D01*
G01X17588923Y-7342675D01*
G01X17571905Y-7342675D01*
G01X17554633Y-7336833D01*
G01X17549045Y-7331245D01*
G01X17543203Y-7319815D01*
G01X17676807Y-7313973D02*
G01X17670965Y-7319815D01*
G01X17676807Y-7325403D01*
G01X17682395Y-7319815D01*
G01X17676807Y-7313973D01*
G01X17730147Y-7245393D02*
G01X17741577Y-7239805D01*
G01X17758849Y-7222533D01*
G01X17758849Y-7342675D01*
G01X17806601Y-7262665D02*
G01X17806601Y-7342675D01*
G01X17806601Y-7285525D02*
G01X17823873Y-7268253D01*
G01X17835303Y-7262665D01*
G01X17852321Y-7262665D01*
G01X17863751Y-7268253D01*
G01X17869593Y-7285525D01*
G01X17869593Y-7342675D01*
G01X17869593Y-7285525D02*
G01X17886611Y-7268253D01*
G01X17898041Y-7262665D01*
G01X17915313Y-7262665D01*
G01X17926743Y-7268253D01*
G01X17932331Y-7285525D01*
G01X17932331Y-7342675D01*
G01X17980083Y-7222533D02*
G01X17985925Y-7228375D01*
G01X17991513Y-7222533D01*
G01X17985925Y-7216945D01*
G01X17980083Y-7222533D01*
G01X17985925Y-7262665D02*
G01X17985925Y-7342675D01*
G01X18039265Y-7222533D02*
G01X18039265Y-7342675D01*
G01X18127149Y-7199673D02*
G01X18115719Y-7211103D01*
G01X18104289Y-7228375D01*
G01X18092859Y-7251235D01*
G01X18087017Y-7279683D01*
G01X18087017Y-7302543D01*
G01X18092859Y-7331245D01*
G01X18104289Y-7354105D01*
G01X18115719Y-7371123D01*
G01X18127149Y-7382553D01*
G01X18174901Y-7245393D02*
G01X18186331Y-7239805D01*
G01X18203603Y-7222533D01*
G01X18203603Y-7342675D01*
G01X18257197Y-7313973D02*
G01X18251355Y-7319815D01*
G01X18257197Y-7325403D01*
G01X18262785Y-7319815D01*
G01X18257197Y-7313973D01*
G01X18367687Y-7222533D02*
G01X18310537Y-7302543D01*
G01X18396389Y-7302543D01*
G01X18367687Y-7222533D02*
G01X18367687Y-7342675D01*
G01X18478431Y-7222533D02*
G01X18461413Y-7228375D01*
G01X18449983Y-7245393D01*
G01X18444141Y-7274095D01*
G01X18444141Y-7291113D01*
G01X18449983Y-7319815D01*
G01X18461413Y-7336833D01*
G01X18478431Y-7342675D01*
G01X18489861Y-7342675D01*
G01X18507133Y-7336833D01*
G01X18518563Y-7319815D01*
G01X18524151Y-7291113D01*
G01X18524151Y-7274095D01*
G01X18518563Y-7245393D01*
G01X18507133Y-7228375D01*
G01X18489861Y-7222533D01*
G01X18478431Y-7222533D01*
G01X18606193Y-7222533D02*
G01X18589175Y-7228375D01*
G01X18577745Y-7245393D01*
G01X18571903Y-7274095D01*
G01X18571903Y-7291113D01*
G01X18577745Y-7319815D01*
G01X18589175Y-7336833D01*
G01X18606193Y-7342675D01*
G01X18617623Y-7342675D01*
G01X18634895Y-7336833D01*
G01X18646325Y-7319815D01*
G01X18651913Y-7291113D01*
G01X18651913Y-7274095D01*
G01X18646325Y-7245393D01*
G01X18634895Y-7228375D01*
G01X18617623Y-7222533D01*
G01X18606193Y-7222533D01*
G01X18699665Y-7262665D02*
G01X18762657Y-7342675D01*
G01X18762657Y-7262665D02*
G01X18699665Y-7342675D01*
G01X18810409Y-7245393D02*
G01X18821839Y-7239805D01*
G01X18839111Y-7222533D01*
G01X18839111Y-7342675D01*
G01X18892705Y-7313973D02*
G01X18886863Y-7319815D01*
G01X18892705Y-7325403D01*
G01X18898293Y-7319815D01*
G01X18892705Y-7313973D01*
G01X19003195Y-7222533D02*
G01X18946045Y-7302543D01*
G01X19031897Y-7302543D01*
G01X19003195Y-7222533D02*
G01X19003195Y-7342675D01*
G01X19113939Y-7222533D02*
G01X19096921Y-7228375D01*
G01X19085491Y-7245393D01*
G01X19079649Y-7274095D01*
G01X19079649Y-7291113D01*
G01X19085491Y-7319815D01*
G01X19096921Y-7336833D01*
G01X19113939Y-7342675D01*
G01X19125369Y-7342675D01*
G01X19142641Y-7336833D01*
G01X19154071Y-7319815D01*
G01X19159659Y-7291113D01*
G01X19159659Y-7274095D01*
G01X19154071Y-7245393D01*
G01X19142641Y-7228375D01*
G01X19125369Y-7222533D01*
G01X19113939Y-7222533D01*
G01X19241701Y-7222533D02*
G01X19224683Y-7228375D01*
G01X19213253Y-7245393D01*
G01X19207411Y-7274095D01*
G01X19207411Y-7291113D01*
G01X19213253Y-7319815D01*
G01X19224683Y-7336833D01*
G01X19241701Y-7342675D01*
G01X19253131Y-7342675D01*
G01X19270403Y-7336833D01*
G01X19281833Y-7319815D01*
G01X19287421Y-7291113D01*
G01X19287421Y-7274095D01*
G01X19281833Y-7245393D01*
G01X19270403Y-7228375D01*
G01X19253131Y-7222533D01*
G01X19241701Y-7222533D01*
G01X19335173Y-7262665D02*
G01X19335173Y-7342675D01*
G01X19335173Y-7285525D02*
G01X19352445Y-7268253D01*
G01X19363875Y-7262665D01*
G01X19380893Y-7262665D01*
G01X19392323Y-7268253D01*
G01X19398165Y-7285525D01*
G01X19398165Y-7342675D01*
G01X19398165Y-7285525D02*
G01X19415183Y-7268253D01*
G01X19426613Y-7262665D01*
G01X19443885Y-7262665D01*
G01X19455315Y-7268253D01*
G01X19460903Y-7285525D01*
G01X19460903Y-7342675D01*
G01X19508655Y-7262665D02*
G01X19508655Y-7342675D01*
G01X19508655Y-7285525D02*
G01X19525927Y-7268253D01*
G01X19537357Y-7262665D01*
G01X19554375Y-7262665D01*
G01X19565805Y-7268253D01*
G01X19571647Y-7285525D01*
G01X19571647Y-7342675D01*
G01X19571647Y-7285525D02*
G01X19588665Y-7268253D01*
G01X19600095Y-7262665D01*
G01X19617367Y-7262665D01*
G01X19628797Y-7268253D01*
G01X19634385Y-7285525D01*
G01X19634385Y-7342675D01*
G01X19682137Y-7199673D02*
G01X19693567Y-7211103D01*
G01X19704997Y-7228375D01*
G01X19716427Y-7251235D01*
G01X19722269Y-7279683D01*
G01X19722269Y-7302543D01*
G01X19716427Y-7331245D01*
G01X19704997Y-7354105D01*
G01X19693567Y-7371123D01*
G01X19682137Y-7382553D01*
G01X20878115Y-7222533D02*
G01X20878115Y-7342675D01*
G01X20878115Y-7222533D02*
G01X20929677Y-7222533D01*
G01X20946695Y-7228375D01*
G01X20952537Y-7233963D01*
G01X20958125Y-7245393D01*
G01X20958125Y-7262665D01*
G01X20952537Y-7274095D01*
G01X20946695Y-7279683D01*
G01X20929677Y-7285525D01*
G01X20878115Y-7285525D01*
G01X21046009Y-7222533D02*
G01X21046009Y-7342675D01*
G01X21005877Y-7222533D02*
G01X21085887Y-7222533D01*
G01X21133639Y-7222533D02*
G01X21133639Y-7342675D01*
G01X21213649Y-7222533D02*
G01X21213649Y-7342675D01*
G01X21133639Y-7279683D02*
G01X21213649Y-7279683D01*
G01X22339522Y-7222533D02*
G01X22339522Y-7342675D01*
G01X22339522Y-7222533D02*
G01X22391084Y-7222533D01*
G01X22408102Y-7228375D01*
G01X22413944Y-7233963D01*
G01X22419532Y-7245393D01*
G01X22419532Y-7256823D01*
G01X22413944Y-7268253D01*
G01X22408102Y-7274095D01*
G01X22391084Y-7279683D01*
G01X22339522Y-7279683D01*
G01X22379654Y-7279683D02*
G01X22419532Y-7342675D01*
G01X22495986Y-7262665D02*
G01X22484556Y-7268253D01*
G01X22473126Y-7279683D01*
G01X22467284Y-7296955D01*
G01X22467284Y-7308385D01*
G01X22473126Y-7325403D01*
G01X22484556Y-7336833D01*
G01X22495986Y-7342675D01*
G01X22513004Y-7342675D01*
G01X22524434Y-7336833D01*
G01X22535864Y-7325403D01*
G01X22541706Y-7308385D01*
G01X22541706Y-7296955D01*
G01X22535864Y-7279683D01*
G01X22524434Y-7268253D01*
G01X22513004Y-7262665D01*
G01X22495986Y-7262665D01*
G01X22589458Y-7262665D02*
G01X22589458Y-7319815D01*
G01X22595300Y-7336833D01*
G01X22606730Y-7342675D01*
G01X22623748Y-7342675D01*
G01X22635178Y-7336833D01*
G01X22652450Y-7319815D01*
G01X22652450Y-7262665D02*
G01X22652450Y-7342675D01*
G01X22700202Y-7262665D02*
G01X22700202Y-7342675D01*
G01X22700202Y-7285525D02*
G01X22717474Y-7268253D01*
G01X22728904Y-7262665D01*
G01X22745922Y-7262665D01*
G01X22757352Y-7268253D01*
G01X22763194Y-7285525D01*
G01X22763194Y-7342675D01*
G01X22879526Y-7222533D02*
G01X22879526Y-7342675D01*
G01X22879526Y-7279683D02*
G01X22868096Y-7268253D01*
G01X22856666Y-7262665D01*
G01X22839648Y-7262665D01*
G01X22828218Y-7268253D01*
G01X22816788Y-7279683D01*
G01X22810946Y-7296955D01*
G01X22810946Y-7308385D01*
G01X22816788Y-7325403D01*
G01X22828218Y-7336833D01*
G01X22839648Y-7342675D01*
G01X22856666Y-7342675D01*
G01X22868096Y-7336833D01*
G01X22879526Y-7325403D01*
G01X23770703Y-7222533D02*
G01X23770703Y-7342675D01*
G01X23770703Y-7222533D02*
G01X23822265Y-7222533D01*
G01X23839283Y-7228375D01*
G01X23845125Y-7233963D01*
G01X23850713Y-7245393D01*
G01X23850713Y-7262665D01*
G01X23845125Y-7274095D01*
G01X23839283Y-7279683D01*
G01X23822265Y-7285525D01*
G01X23770703Y-7285525D01*
G01X23967045Y-7262665D02*
G01X23967045Y-7342675D01*
G01X23967045Y-7279683D02*
G01X23955615Y-7268253D01*
G01X23944185Y-7262665D01*
G01X23927167Y-7262665D01*
G01X23915737Y-7268253D01*
G01X23904307Y-7279683D01*
G01X23898465Y-7296955D01*
G01X23898465Y-7308385D01*
G01X23904307Y-7325403D01*
G01X23915737Y-7336833D01*
G01X23927167Y-7342675D01*
G01X23944185Y-7342675D01*
G01X23955615Y-7336833D01*
G01X23967045Y-7325403D01*
G01X24083377Y-7222533D02*
G01X24083377Y-7342675D01*
G01X24083377Y-7279683D02*
G01X24071947Y-7268253D01*
G01X24060517Y-7262665D01*
G01X24043499Y-7262665D01*
G01X24032069Y-7268253D01*
G01X24020639Y-7279683D01*
G01X24014797Y-7296955D01*
G01X24014797Y-7308385D01*
G01X24020639Y-7325403D01*
G01X24032069Y-7336833D01*
G01X24043499Y-7342675D01*
G01X24060517Y-7342675D01*
G01X24071947Y-7336833D01*
G01X24083377Y-7325403D01*
G01X25439882Y-7222533D02*
G01X25439882Y-7342675D01*
G01X25439882Y-7222533D02*
G01X25491444Y-7222533D01*
G01X25508462Y-7228375D01*
G01X25514304Y-7233963D01*
G01X25519892Y-7245393D01*
G01X25519892Y-7256823D01*
G01X25514304Y-7268253D01*
G01X25508462Y-7274095D01*
G01X25491444Y-7279683D01*
G01X25439882Y-7279683D01*
G01X25480014Y-7279683D02*
G01X25519892Y-7342675D01*
G01X25596346Y-7262665D02*
G01X25584916Y-7268253D01*
G01X25573486Y-7279683D01*
G01X25567644Y-7296955D01*
G01X25567644Y-7308385D01*
G01X25573486Y-7325403D01*
G01X25584916Y-7336833D01*
G01X25596346Y-7342675D01*
G01X25613364Y-7342675D01*
G01X25624794Y-7336833D01*
G01X25636224Y-7325403D01*
G01X25642066Y-7308385D01*
G01X25642066Y-7296955D01*
G01X25636224Y-7279683D01*
G01X25624794Y-7268253D01*
G01X25613364Y-7262665D01*
G01X25596346Y-7262665D01*
G01X25689818Y-7262665D02*
G01X25689818Y-7319815D01*
G01X25695660Y-7336833D01*
G01X25707090Y-7342675D01*
G01X25724108Y-7342675D01*
G01X25735538Y-7336833D01*
G01X25752810Y-7319815D01*
G01X25752810Y-7262665D02*
G01X25752810Y-7342675D01*
G01X25800562Y-7262665D02*
G01X25800562Y-7342675D01*
G01X25800562Y-7285525D02*
G01X25817834Y-7268253D01*
G01X25829264Y-7262665D01*
G01X25846282Y-7262665D01*
G01X25857712Y-7268253D01*
G01X25863554Y-7285525D01*
G01X25863554Y-7342675D01*
G01X25979886Y-7222533D02*
G01X25979886Y-7342675D01*
G01X25979886Y-7279683D02*
G01X25968456Y-7268253D01*
G01X25957026Y-7262665D01*
G01X25940008Y-7262665D01*
G01X25928578Y-7268253D01*
G01X25917148Y-7279683D01*
G01X25911306Y-7296955D01*
G01X25911306Y-7308385D01*
G01X25917148Y-7325403D01*
G01X25928578Y-7336833D01*
G01X25940008Y-7342675D01*
G01X25957026Y-7342675D01*
G01X25968456Y-7336833D01*
G01X25979886Y-7325403D01*
G01X27399383Y-7222533D02*
G01X27399383Y-7342675D01*
G01X27359251Y-7222533D02*
G01X27439261Y-7222533D01*
G01X27515715Y-7262665D02*
G01X27504285Y-7268253D01*
G01X27492855Y-7279683D01*
G01X27487013Y-7296955D01*
G01X27487013Y-7308385D01*
G01X27492855Y-7325403D01*
G01X27504285Y-7336833D01*
G01X27515715Y-7342675D01*
G01X27532733Y-7342675D01*
G01X27544163Y-7336833D01*
G01X27555593Y-7325403D01*
G01X27561435Y-7308385D01*
G01X27561435Y-7296955D01*
G01X27555593Y-7279683D01*
G01X27544163Y-7268253D01*
G01X27532733Y-7262665D01*
G01X27515715Y-7262665D01*
G01X27609187Y-7262665D02*
G01X27609187Y-7382553D01*
G01X27609187Y-7279683D02*
G01X27620617Y-7268253D01*
G01X27632047Y-7262665D01*
G01X27649319Y-7262665D01*
G01X27660749Y-7268253D01*
G01X27672179Y-7279683D01*
G01X27677767Y-7296955D01*
G01X27677767Y-7308385D01*
G01X27672179Y-7325403D01*
G01X27660749Y-7336833D01*
G01X27649319Y-7342675D01*
G01X27632047Y-7342675D01*
G01X27620617Y-7336833D01*
G01X27609187Y-7325403D01*
G01X27853535Y-7222533D02*
G01X27853535Y-7342675D01*
G01X27853535Y-7342675D02*
G01X27922115Y-7342675D01*
G01X28038447Y-7262665D02*
G01X28038447Y-7342675D01*
G01X28038447Y-7279683D02*
G01X28027017Y-7268253D01*
G01X28015587Y-7262665D01*
G01X27998569Y-7262665D01*
G01X27987139Y-7268253D01*
G01X27975709Y-7279683D01*
G01X27969867Y-7296955D01*
G01X27969867Y-7308385D01*
G01X27975709Y-7325403D01*
G01X27987139Y-7336833D01*
G01X27998569Y-7342675D01*
G01X28015587Y-7342675D01*
G01X28027017Y-7336833D01*
G01X28038447Y-7325403D01*
G01X28092041Y-7262665D02*
G01X28126331Y-7342675D01*
G01X28160621Y-7262665D02*
G01X28126331Y-7342675D01*
G01X28114901Y-7365535D01*
G01X28103471Y-7376965D01*
G01X28092041Y-7382553D01*
G01X28086199Y-7382553D01*
G01X28208373Y-7296955D02*
G01X28276953Y-7296955D01*
G01X28276953Y-7285525D01*
G01X28271365Y-7274095D01*
G01X28265523Y-7268253D01*
G01X28254093Y-7262665D01*
G01X28237075Y-7262665D01*
G01X28225645Y-7268253D01*
G01X28214215Y-7279683D01*
G01X28208373Y-7296955D01*
G01X28208373Y-7308385D01*
G01X28214215Y-7325403D01*
G01X28225645Y-7336833D01*
G01X28237075Y-7342675D01*
G01X28254093Y-7342675D01*
G01X28265523Y-7336833D01*
G01X28276953Y-7325403D01*
G01X28324705Y-7262665D02*
G01X28324705Y-7342675D01*
G01X28324705Y-7296955D02*
G01X28330547Y-7279683D01*
G01X28341977Y-7268253D01*
G01X28353407Y-7262665D01*
G01X28370425Y-7262665D01*
G01X28418177Y-7291113D02*
G01X28521047Y-7291113D01*
G01X28568799Y-7222533D02*
G01X28568799Y-7342675D01*
G01X28568799Y-7222533D02*
G01X28620361Y-7222533D01*
G01X28637379Y-7228375D01*
G01X28643221Y-7233963D01*
G01X28648809Y-7245393D01*
G01X28648809Y-7256823D01*
G01X28643221Y-7268253D01*
G01X28637379Y-7274095D01*
G01X28620361Y-7279683D01*
G01X28568799Y-7279683D02*
G01X28620361Y-7279683D01*
G01X28637379Y-7285525D01*
G01X28643221Y-7291113D01*
G01X28648809Y-7302543D01*
G01X28648809Y-7319815D01*
G01X28643221Y-7331245D01*
G01X28637379Y-7336833D01*
G01X28620361Y-7342675D01*
G01X28568799Y-7342675D01*
G01X28725263Y-7262665D02*
G01X28713833Y-7268253D01*
G01X28702403Y-7279683D01*
G01X28696561Y-7296955D01*
G01X28696561Y-7308385D01*
G01X28702403Y-7325403D01*
G01X28713833Y-7336833D01*
G01X28725263Y-7342675D01*
G01X28742281Y-7342675D01*
G01X28753711Y-7336833D01*
G01X28765141Y-7325403D01*
G01X28770983Y-7308385D01*
G01X28770983Y-7296955D01*
G01X28765141Y-7279683D01*
G01X28753711Y-7268253D01*
G01X28742281Y-7262665D01*
G01X28725263Y-7262665D01*
G01X28836007Y-7222533D02*
G01X28836007Y-7319815D01*
G01X28841595Y-7336833D01*
G01X28853025Y-7342675D01*
G01X28864455Y-7342675D01*
G01X28818735Y-7262665D02*
G01X28858867Y-7262665D01*
G01X28929479Y-7222533D02*
G01X28929479Y-7319815D01*
G01X28935067Y-7336833D01*
G01X28946497Y-7342675D01*
G01X28957927Y-7342675D01*
G01X28912207Y-7262665D02*
G01X28952339Y-7262665D01*
G01X29034381Y-7262665D02*
G01X29022951Y-7268253D01*
G01X29011521Y-7279683D01*
G01X29005679Y-7296955D01*
G01X29005679Y-7308385D01*
G01X29011521Y-7325403D01*
G01X29022951Y-7336833D01*
G01X29034381Y-7342675D01*
G01X29051399Y-7342675D01*
G01X29062829Y-7336833D01*
G01X29074259Y-7325403D01*
G01X29080101Y-7308385D01*
G01X29080101Y-7296955D01*
G01X29074259Y-7279683D01*
G01X29062829Y-7268253D01*
G01X29051399Y-7262665D01*
G01X29034381Y-7262665D01*
G01X29127853Y-7262665D02*
G01X29127853Y-7342675D01*
G01X29127853Y-7285525D02*
G01X29145125Y-7268253D01*
G01X29156555Y-7262665D01*
G01X29173573Y-7262665D01*
G01X29185003Y-7268253D01*
G01X29190845Y-7285525D01*
G01X29190845Y-7342675D01*
G01X29190845Y-7285525D02*
G01X29207863Y-7268253D01*
G01X29219293Y-7262665D01*
G01X29236565Y-7262665D01*
G01X29247995Y-7268253D01*
G01X29253583Y-7285525D01*
G01X29253583Y-7342675D01*
G01X29429351Y-7222533D02*
G01X29429351Y-7342675D01*
G01X29429351Y-7342675D02*
G01X29497931Y-7342675D01*
G01X29614263Y-7262665D02*
G01X29614263Y-7342675D01*
G01X29614263Y-7279683D02*
G01X29602833Y-7268253D01*
G01X29591403Y-7262665D01*
G01X29574385Y-7262665D01*
G01X29562955Y-7268253D01*
G01X29551525Y-7279683D01*
G01X29545683Y-7296955D01*
G01X29545683Y-7308385D01*
G01X29551525Y-7325403D01*
G01X29562955Y-7336833D01*
G01X29574385Y-7342675D01*
G01X29591403Y-7342675D01*
G01X29602833Y-7336833D01*
G01X29614263Y-7325403D01*
G01X29667857Y-7262665D02*
G01X29702147Y-7342675D01*
G01X29736437Y-7262665D02*
G01X29702147Y-7342675D01*
G01X29690717Y-7365535D01*
G01X29679287Y-7376965D01*
G01X29667857Y-7382553D01*
G01X29662015Y-7382553D01*
G01X29784189Y-7296955D02*
G01X29852769Y-7296955D01*
G01X29852769Y-7285525D01*
G01X29847181Y-7274095D01*
G01X29841339Y-7268253D01*
G01X29829909Y-7262665D01*
G01X29812891Y-7262665D01*
G01X29801461Y-7268253D01*
G01X29790031Y-7279683D01*
G01X29784189Y-7296955D01*
G01X29784189Y-7308385D01*
G01X29790031Y-7325403D01*
G01X29801461Y-7336833D01*
G01X29812891Y-7342675D01*
G01X29829909Y-7342675D01*
G01X29841339Y-7336833D01*
G01X29852769Y-7325403D01*
G01X29900521Y-7262665D02*
G01X29900521Y-7342675D01*
G01X29900521Y-7296955D02*
G01X29906363Y-7279683D01*
G01X29917793Y-7268253D01*
G01X29929223Y-7262665D01*
G01X29946241Y-7262665D01*
G01X15505216Y-7831807D02*
G01X15505216Y-7825965D01*
G01X15510804Y-7814535D01*
G01X15516646Y-7808947D01*
G01X15528076Y-7803105D01*
G01X15550936Y-7803105D01*
G01X15562366Y-7808947D01*
G01X15567954Y-7814535D01*
G01X15573796Y-7825965D01*
G01X15573796Y-7837395D01*
G01X15567954Y-7848825D01*
G01X15556524Y-7866097D01*
G01X15499374Y-7923247D01*
G01X15579384Y-7923247D01*
G01X15695716Y-7820377D02*
G01X15690128Y-7808947D01*
G01X15672856Y-7803105D01*
G01X15661426Y-7803105D01*
G01X15644408Y-7808947D01*
G01X15632978Y-7825965D01*
G01X15627136Y-7854667D01*
G01X15627136Y-7883115D01*
G01X15632978Y-7905975D01*
G01X15644408Y-7917405D01*
G01X15661426Y-7923247D01*
G01X15667268Y-7923247D01*
G01X15684286Y-7917405D01*
G01X15695716Y-7905975D01*
G01X15701558Y-7888957D01*
G01X15701558Y-7883115D01*
G01X15695716Y-7866097D01*
G01X15684286Y-7854667D01*
G01X15667268Y-7848825D01*
G01X15661426Y-7848825D01*
G01X15644408Y-7854667D01*
G01X15632978Y-7866097D01*
G01X15627136Y-7883115D01*
G01X16924967Y-7803105D02*
G01X16987959Y-7803105D01*
G01X16953669Y-7848825D01*
G01X16970687Y-7848825D01*
G01X16982117Y-7854667D01*
G01X16987959Y-7860255D01*
G01X16993547Y-7877527D01*
G01X16993547Y-7888957D01*
G01X16987959Y-7905975D01*
G01X16976529Y-7917405D01*
G01X16959257Y-7923247D01*
G01X16942239Y-7923247D01*
G01X16924967Y-7917405D01*
G01X16919379Y-7911817D01*
G01X16913537Y-7900387D01*
G01X17115721Y-7843237D02*
G01X17109879Y-7860255D01*
G01X17098449Y-7871685D01*
G01X17081431Y-7877527D01*
G01X17075589Y-7877527D01*
G01X17058571Y-7871685D01*
G01X17047141Y-7860255D01*
G01X17041299Y-7843237D01*
G01X17041299Y-7837395D01*
G01X17047141Y-7820377D01*
G01X17058571Y-7808947D01*
G01X17075589Y-7803105D01*
G01X17081431Y-7803105D01*
G01X17098449Y-7808947D01*
G01X17109879Y-7820377D01*
G01X17115721Y-7843237D01*
G01X17115721Y-7871685D01*
G01X17109879Y-7900387D01*
G01X17098449Y-7917405D01*
G01X17081431Y-7923247D01*
G01X17070001Y-7923247D01*
G01X17052729Y-7917405D01*
G01X17047141Y-7905975D01*
G01X17169315Y-7894545D02*
G01X17163473Y-7900387D01*
G01X17169315Y-7905975D01*
G01X17174903Y-7900387D01*
G01X17169315Y-7894545D01*
G01X17279805Y-7803105D02*
G01X17222655Y-7883115D01*
G01X17308507Y-7883115D01*
G01X17279805Y-7803105D02*
G01X17279805Y-7923247D01*
G01X17356259Y-7843237D02*
G01X17419251Y-7923247D01*
G01X17419251Y-7843237D02*
G01X17356259Y-7923247D01*
G01X17478433Y-7803105D02*
G01X17541425Y-7803105D01*
G01X17507135Y-7848825D01*
G01X17524153Y-7848825D01*
G01X17535583Y-7854667D01*
G01X17541425Y-7860255D01*
G01X17547013Y-7877527D01*
G01X17547013Y-7888957D01*
G01X17541425Y-7905975D01*
G01X17529995Y-7917405D01*
G01X17512723Y-7923247D01*
G01X17495705Y-7923247D01*
G01X17478433Y-7917405D01*
G01X17472845Y-7911817D01*
G01X17467003Y-7900387D01*
G01X17669187Y-7843237D02*
G01X17663345Y-7860255D01*
G01X17651915Y-7871685D01*
G01X17634897Y-7877527D01*
G01X17629055Y-7877527D01*
G01X17612037Y-7871685D01*
G01X17600607Y-7860255D01*
G01X17594765Y-7843237D01*
G01X17594765Y-7837395D01*
G01X17600607Y-7820377D01*
G01X17612037Y-7808947D01*
G01X17629055Y-7803105D01*
G01X17634897Y-7803105D01*
G01X17651915Y-7808947D01*
G01X17663345Y-7820377D01*
G01X17669187Y-7843237D01*
G01X17669187Y-7871685D01*
G01X17663345Y-7900387D01*
G01X17651915Y-7917405D01*
G01X17634897Y-7923247D01*
G01X17623467Y-7923247D01*
G01X17606195Y-7917405D01*
G01X17600607Y-7905975D01*
G01X17722781Y-7894545D02*
G01X17716939Y-7900387D01*
G01X17722781Y-7905975D01*
G01X17728369Y-7900387D01*
G01X17722781Y-7894545D01*
G01X17833271Y-7803105D02*
G01X17776121Y-7883115D01*
G01X17861973Y-7883115D01*
G01X17833271Y-7803105D02*
G01X17833271Y-7923247D01*
G01X17909725Y-7843237D02*
G01X17909725Y-7923247D01*
G01X17909725Y-7866097D02*
G01X17926997Y-7848825D01*
G01X17938427Y-7843237D01*
G01X17955445Y-7843237D01*
G01X17966875Y-7848825D01*
G01X17972717Y-7866097D01*
G01X17972717Y-7923247D01*
G01X17972717Y-7866097D02*
G01X17989735Y-7848825D01*
G01X18001165Y-7843237D01*
G01X18018437Y-7843237D01*
G01X18029867Y-7848825D01*
G01X18035455Y-7866097D01*
G01X18035455Y-7923247D01*
G01X18083207Y-7803105D02*
G01X18089049Y-7808947D01*
G01X18094637Y-7803105D01*
G01X18089049Y-7797517D01*
G01X18083207Y-7803105D01*
G01X18089049Y-7843237D02*
G01X18089049Y-7923247D01*
G01X18142389Y-7803105D02*
G01X18142389Y-7923247D01*
G01X18230273Y-7780245D02*
G01X18218843Y-7791675D01*
G01X18207413Y-7808947D01*
G01X18195983Y-7831807D01*
G01X18190141Y-7860255D01*
G01X18190141Y-7883115D01*
G01X18195983Y-7911817D01*
G01X18207413Y-7934677D01*
G01X18218843Y-7951695D01*
G01X18230273Y-7963125D01*
G01X18278025Y-7825965D02*
G01X18289455Y-7820377D01*
G01X18306727Y-7803105D01*
G01X18306727Y-7923247D01*
G01X18360321Y-7894545D02*
G01X18354479Y-7900387D01*
G01X18360321Y-7905975D01*
G01X18365909Y-7900387D01*
G01X18360321Y-7894545D01*
G01X18447951Y-7803105D02*
G01X18430933Y-7808947D01*
G01X18419503Y-7825965D01*
G01X18413661Y-7854667D01*
G01X18413661Y-7871685D01*
G01X18419503Y-7900387D01*
G01X18430933Y-7917405D01*
G01X18447951Y-7923247D01*
G01X18459381Y-7923247D01*
G01X18476653Y-7917405D01*
G01X18488083Y-7900387D01*
G01X18493671Y-7871685D01*
G01X18493671Y-7854667D01*
G01X18488083Y-7825965D01*
G01X18476653Y-7808947D01*
G01X18459381Y-7803105D01*
G01X18447951Y-7803105D01*
G01X18575713Y-7803105D02*
G01X18558695Y-7808947D01*
G01X18547265Y-7825965D01*
G01X18541423Y-7854667D01*
G01X18541423Y-7871685D01*
G01X18547265Y-7900387D01*
G01X18558695Y-7917405D01*
G01X18575713Y-7923247D01*
G01X18587143Y-7923247D01*
G01X18604415Y-7917405D01*
G01X18615845Y-7900387D01*
G01X18621433Y-7871685D01*
G01X18621433Y-7854667D01*
G01X18615845Y-7825965D01*
G01X18604415Y-7808947D01*
G01X18587143Y-7803105D01*
G01X18575713Y-7803105D01*
G01X18703475Y-7803105D02*
G01X18686457Y-7808947D01*
G01X18675027Y-7825965D01*
G01X18669185Y-7854667D01*
G01X18669185Y-7871685D01*
G01X18675027Y-7900387D01*
G01X18686457Y-7917405D01*
G01X18703475Y-7923247D01*
G01X18714905Y-7923247D01*
G01X18732177Y-7917405D01*
G01X18743607Y-7900387D01*
G01X18749195Y-7871685D01*
G01X18749195Y-7854667D01*
G01X18743607Y-7825965D01*
G01X18732177Y-7808947D01*
G01X18714905Y-7803105D01*
G01X18703475Y-7803105D01*
G01X18796947Y-7843237D02*
G01X18859939Y-7923247D01*
G01X18859939Y-7843237D02*
G01X18796947Y-7923247D01*
G01X18907691Y-7825965D02*
G01X18919121Y-7820377D01*
G01X18936393Y-7803105D01*
G01X18936393Y-7923247D01*
G01X18989987Y-7894545D02*
G01X18984145Y-7900387D01*
G01X18989987Y-7905975D01*
G01X18995575Y-7900387D01*
G01X18989987Y-7894545D01*
G01X19077617Y-7803105D02*
G01X19060599Y-7808947D01*
G01X19049169Y-7825965D01*
G01X19043327Y-7854667D01*
G01X19043327Y-7871685D01*
G01X19049169Y-7900387D01*
G01X19060599Y-7917405D01*
G01X19077617Y-7923247D01*
G01X19089047Y-7923247D01*
G01X19106319Y-7917405D01*
G01X19117749Y-7900387D01*
G01X19123337Y-7871685D01*
G01X19123337Y-7854667D01*
G01X19117749Y-7825965D01*
G01X19106319Y-7808947D01*
G01X19089047Y-7803105D01*
G01X19077617Y-7803105D01*
G01X19205379Y-7803105D02*
G01X19188361Y-7808947D01*
G01X19176931Y-7825965D01*
G01X19171089Y-7854667D01*
G01X19171089Y-7871685D01*
G01X19176931Y-7900387D01*
G01X19188361Y-7917405D01*
G01X19205379Y-7923247D01*
G01X19216809Y-7923247D01*
G01X19234081Y-7917405D01*
G01X19245511Y-7900387D01*
G01X19251099Y-7871685D01*
G01X19251099Y-7854667D01*
G01X19245511Y-7825965D01*
G01X19234081Y-7808947D01*
G01X19216809Y-7803105D01*
G01X19205379Y-7803105D01*
G01X19333141Y-7803105D02*
G01X19316123Y-7808947D01*
G01X19304693Y-7825965D01*
G01X19298851Y-7854667D01*
G01X19298851Y-7871685D01*
G01X19304693Y-7900387D01*
G01X19316123Y-7917405D01*
G01X19333141Y-7923247D01*
G01X19344571Y-7923247D01*
G01X19361843Y-7917405D01*
G01X19373273Y-7900387D01*
G01X19378861Y-7871685D01*
G01X19378861Y-7854667D01*
G01X19373273Y-7825965D01*
G01X19361843Y-7808947D01*
G01X19344571Y-7803105D01*
G01X19333141Y-7803105D01*
G01X19426613Y-7843237D02*
G01X19426613Y-7923247D01*
G01X19426613Y-7866097D02*
G01X19443885Y-7848825D01*
G01X19455315Y-7843237D01*
G01X19472333Y-7843237D01*
G01X19483763Y-7848825D01*
G01X19489605Y-7866097D01*
G01X19489605Y-7923247D01*
G01X19489605Y-7866097D02*
G01X19506623Y-7848825D01*
G01X19518053Y-7843237D01*
G01X19535325Y-7843237D01*
G01X19546755Y-7848825D01*
G01X19552343Y-7866097D01*
G01X19552343Y-7923247D01*
G01X19600095Y-7843237D02*
G01X19600095Y-7923247D01*
G01X19600095Y-7866097D02*
G01X19617367Y-7848825D01*
G01X19628797Y-7843237D01*
G01X19645815Y-7843237D01*
G01X19657245Y-7848825D01*
G01X19663087Y-7866097D01*
G01X19663087Y-7923247D01*
G01X19663087Y-7866097D02*
G01X19680105Y-7848825D01*
G01X19691535Y-7843237D01*
G01X19708807Y-7843237D01*
G01X19720237Y-7848825D01*
G01X19725825Y-7866097D01*
G01X19725825Y-7923247D01*
G01X19773577Y-7780245D02*
G01X19785007Y-7791675D01*
G01X19796437Y-7808947D01*
G01X19807867Y-7831807D01*
G01X19813709Y-7860255D01*
G01X19813709Y-7883115D01*
G01X19807867Y-7911817D01*
G01X19796437Y-7934677D01*
G01X19785007Y-7951695D01*
G01X19773577Y-7963125D01*
G01X20878115Y-7803105D02*
G01X20878115Y-7923247D01*
G01X20878115Y-7803105D02*
G01X20929677Y-7803105D01*
G01X20946695Y-7808947D01*
G01X20952537Y-7814535D01*
G01X20958125Y-7825965D01*
G01X20958125Y-7843237D01*
G01X20952537Y-7854667D01*
G01X20946695Y-7860255D01*
G01X20929677Y-7866097D01*
G01X20878115Y-7866097D01*
G01X21046009Y-7803105D02*
G01X21046009Y-7923247D01*
G01X21005877Y-7803105D02*
G01X21085887Y-7803105D01*
G01X21133639Y-7803105D02*
G01X21133639Y-7923247D01*
G01X21213649Y-7803105D02*
G01X21213649Y-7923247D01*
G01X21133639Y-7860255D02*
G01X21213649Y-7860255D01*
G01X22339522Y-7803105D02*
G01X22339522Y-7923247D01*
G01X22339522Y-7803105D02*
G01X22391084Y-7803105D01*
G01X22408102Y-7808947D01*
G01X22413944Y-7814535D01*
G01X22419532Y-7825965D01*
G01X22419532Y-7837395D01*
G01X22413944Y-7848825D01*
G01X22408102Y-7854667D01*
G01X22391084Y-7860255D01*
G01X22339522Y-7860255D01*
G01X22379654Y-7860255D02*
G01X22419532Y-7923247D01*
G01X22495986Y-7843237D02*
G01X22484556Y-7848825D01*
G01X22473126Y-7860255D01*
G01X22467284Y-7877527D01*
G01X22467284Y-7888957D01*
G01X22473126Y-7905975D01*
G01X22484556Y-7917405D01*
G01X22495986Y-7923247D01*
G01X22513004Y-7923247D01*
G01X22524434Y-7917405D01*
G01X22535864Y-7905975D01*
G01X22541706Y-7888957D01*
G01X22541706Y-7877527D01*
G01X22535864Y-7860255D01*
G01X22524434Y-7848825D01*
G01X22513004Y-7843237D01*
G01X22495986Y-7843237D01*
G01X22589458Y-7843237D02*
G01X22589458Y-7900387D01*
G01X22595300Y-7917405D01*
G01X22606730Y-7923247D01*
G01X22623748Y-7923247D01*
G01X22635178Y-7917405D01*
G01X22652450Y-7900387D01*
G01X22652450Y-7843237D02*
G01X22652450Y-7923247D01*
G01X22700202Y-7843237D02*
G01X22700202Y-7923247D01*
G01X22700202Y-7866097D02*
G01X22717474Y-7848825D01*
G01X22728904Y-7843237D01*
G01X22745922Y-7843237D01*
G01X22757352Y-7848825D01*
G01X22763194Y-7866097D01*
G01X22763194Y-7923247D01*
G01X22879526Y-7803105D02*
G01X22879526Y-7923247D01*
G01X22879526Y-7860255D02*
G01X22868096Y-7848825D01*
G01X22856666Y-7843237D01*
G01X22839648Y-7843237D01*
G01X22828218Y-7848825D01*
G01X22816788Y-7860255D01*
G01X22810946Y-7877527D01*
G01X22810946Y-7888957D01*
G01X22816788Y-7905975D01*
G01X22828218Y-7917405D01*
G01X22839648Y-7923247D01*
G01X22856666Y-7923247D01*
G01X22868096Y-7917405D01*
G01X22879526Y-7905975D01*
G01X23770703Y-7803105D02*
G01X23770703Y-7923247D01*
G01X23770703Y-7803105D02*
G01X23822265Y-7803105D01*
G01X23839283Y-7808947D01*
G01X23845125Y-7814535D01*
G01X23850713Y-7825965D01*
G01X23850713Y-7843237D01*
G01X23845125Y-7854667D01*
G01X23839283Y-7860255D01*
G01X23822265Y-7866097D01*
G01X23770703Y-7866097D01*
G01X23967045Y-7843237D02*
G01X23967045Y-7923247D01*
G01X23967045Y-7860255D02*
G01X23955615Y-7848825D01*
G01X23944185Y-7843237D01*
G01X23927167Y-7843237D01*
G01X23915737Y-7848825D01*
G01X23904307Y-7860255D01*
G01X23898465Y-7877527D01*
G01X23898465Y-7888957D01*
G01X23904307Y-7905975D01*
G01X23915737Y-7917405D01*
G01X23927167Y-7923247D01*
G01X23944185Y-7923247D01*
G01X23955615Y-7917405D01*
G01X23967045Y-7905975D01*
G01X24083377Y-7803105D02*
G01X24083377Y-7923247D01*
G01X24083377Y-7860255D02*
G01X24071947Y-7848825D01*
G01X24060517Y-7843237D01*
G01X24043499Y-7843237D01*
G01X24032069Y-7848825D01*
G01X24020639Y-7860255D01*
G01X24014797Y-7877527D01*
G01X24014797Y-7888957D01*
G01X24020639Y-7905975D01*
G01X24032069Y-7917405D01*
G01X24043499Y-7923247D01*
G01X24060517Y-7923247D01*
G01X24071947Y-7917405D01*
G01X24083377Y-7905975D01*
G01X25480014Y-7780245D02*
G01X25468584Y-7791675D01*
G01X25457154Y-7808947D01*
G01X25445724Y-7831807D01*
G01X25439882Y-7860255D01*
G01X25439882Y-7883115D01*
G01X25445724Y-7911817D01*
G01X25457154Y-7934677D01*
G01X25468584Y-7951695D01*
G01X25480014Y-7963125D01*
G01X25527766Y-7803105D02*
G01X25527766Y-7923247D01*
G01X25527766Y-7803105D02*
G01X25573486Y-7923247D01*
G01X25619206Y-7803105D02*
G01X25573486Y-7923247D01*
G01X25619206Y-7803105D02*
G01X25619206Y-7923247D01*
G01X25666958Y-7803105D02*
G01X25672800Y-7808947D01*
G01X25678388Y-7803105D01*
G01X25672800Y-7797517D01*
G01X25666958Y-7803105D01*
G01X25672800Y-7843237D02*
G01X25672800Y-7923247D01*
G01X25726140Y-7843237D02*
G01X25789132Y-7923247D01*
G01X25789132Y-7843237D02*
G01X25726140Y-7923247D01*
G01X25836884Y-7877527D02*
G01X25905464Y-7877527D01*
G01X25905464Y-7866097D01*
G01X25899876Y-7854667D01*
G01X25894034Y-7848825D01*
G01X25882604Y-7843237D01*
G01X25865586Y-7843237D01*
G01X25854156Y-7848825D01*
G01X25842726Y-7860255D01*
G01X25836884Y-7877527D01*
G01X25836884Y-7888957D01*
G01X25842726Y-7905975D01*
G01X25854156Y-7917405D01*
G01X25865586Y-7923247D01*
G01X25882604Y-7923247D01*
G01X25894034Y-7917405D01*
G01X25905464Y-7905975D01*
G01X26021796Y-7803105D02*
G01X26021796Y-7923247D01*
G01X26021796Y-7860255D02*
G01X26010366Y-7848825D01*
G01X25998936Y-7843237D01*
G01X25981918Y-7843237D01*
G01X25970488Y-7848825D01*
G01X25959058Y-7860255D01*
G01X25953216Y-7877527D01*
G01X25953216Y-7888957D01*
G01X25959058Y-7905975D01*
G01X25970488Y-7917405D01*
G01X25981918Y-7923247D01*
G01X25998936Y-7923247D01*
G01X26010366Y-7917405D01*
G01X26021796Y-7905975D01*
G01X26069548Y-7780245D02*
G01X26080978Y-7791675D01*
G01X26092408Y-7808947D01*
G01X26103838Y-7831807D01*
G01X26109680Y-7860255D01*
G01X26109680Y-7883115D01*
G01X26103838Y-7911817D01*
G01X26092408Y-7934677D01*
G01X26080978Y-7951695D01*
G01X26069548Y-7963125D01*
G01X27399383Y-7803105D02*
G01X27399383Y-7923247D01*
G01X27359251Y-7803105D02*
G01X27439261Y-7803105D01*
G01X27515715Y-7843237D02*
G01X27504285Y-7848825D01*
G01X27492855Y-7860255D01*
G01X27487013Y-7877527D01*
G01X27487013Y-7888957D01*
G01X27492855Y-7905975D01*
G01X27504285Y-7917405D01*
G01X27515715Y-7923247D01*
G01X27532733Y-7923247D01*
G01X27544163Y-7917405D01*
G01X27555593Y-7905975D01*
G01X27561435Y-7888957D01*
G01X27561435Y-7877527D01*
G01X27555593Y-7860255D01*
G01X27544163Y-7848825D01*
G01X27532733Y-7843237D01*
G01X27515715Y-7843237D01*
G01X27609187Y-7843237D02*
G01X27609187Y-7963125D01*
G01X27609187Y-7860255D02*
G01X27620617Y-7848825D01*
G01X27632047Y-7843237D01*
G01X27649319Y-7843237D01*
G01X27660749Y-7848825D01*
G01X27672179Y-7860255D01*
G01X27677767Y-7877527D01*
G01X27677767Y-7888957D01*
G01X27672179Y-7905975D01*
G01X27660749Y-7917405D01*
G01X27649319Y-7923247D01*
G01X27632047Y-7923247D01*
G01X27620617Y-7917405D01*
G01X27609187Y-7905975D01*
G01X27853535Y-7803105D02*
G01X27853535Y-7923247D01*
G01X27853535Y-7923247D02*
G01X27922115Y-7923247D01*
G01X28038447Y-7843237D02*
G01X28038447Y-7923247D01*
G01X28038447Y-7860255D02*
G01X28027017Y-7848825D01*
G01X28015587Y-7843237D01*
G01X27998569Y-7843237D01*
G01X27987139Y-7848825D01*
G01X27975709Y-7860255D01*
G01X27969867Y-7877527D01*
G01X27969867Y-7888957D01*
G01X27975709Y-7905975D01*
G01X27987139Y-7917405D01*
G01X27998569Y-7923247D01*
G01X28015587Y-7923247D01*
G01X28027017Y-7917405D01*
G01X28038447Y-7905975D01*
G01X28092041Y-7843237D02*
G01X28126331Y-7923247D01*
G01X28160621Y-7843237D02*
G01X28126331Y-7923247D01*
G01X28114901Y-7946107D01*
G01X28103471Y-7957537D01*
G01X28092041Y-7963125D01*
G01X28086199Y-7963125D01*
G01X28208373Y-7877527D02*
G01X28276953Y-7877527D01*
G01X28276953Y-7866097D01*
G01X28271365Y-7854667D01*
G01X28265523Y-7848825D01*
G01X28254093Y-7843237D01*
G01X28237075Y-7843237D01*
G01X28225645Y-7848825D01*
G01X28214215Y-7860255D01*
G01X28208373Y-7877527D01*
G01X28208373Y-7888957D01*
G01X28214215Y-7905975D01*
G01X28225645Y-7917405D01*
G01X28237075Y-7923247D01*
G01X28254093Y-7923247D01*
G01X28265523Y-7917405D01*
G01X28276953Y-7905975D01*
G01X28324705Y-7843237D02*
G01X28324705Y-7923247D01*
G01X28324705Y-7877527D02*
G01X28330547Y-7860255D01*
G01X28341977Y-7848825D01*
G01X28353407Y-7843237D01*
G01X28370425Y-7843237D01*
G01X28418177Y-7871685D02*
G01X28521047Y-7871685D01*
G01X28568799Y-7803105D02*
G01X28568799Y-7923247D01*
G01X28568799Y-7803105D02*
G01X28620361Y-7803105D01*
G01X28637379Y-7808947D01*
G01X28643221Y-7814535D01*
G01X28648809Y-7825965D01*
G01X28648809Y-7837395D01*
G01X28643221Y-7848825D01*
G01X28637379Y-7854667D01*
G01X28620361Y-7860255D01*
G01X28568799Y-7860255D02*
G01X28620361Y-7860255D01*
G01X28637379Y-7866097D01*
G01X28643221Y-7871685D01*
G01X28648809Y-7883115D01*
G01X28648809Y-7900387D01*
G01X28643221Y-7911817D01*
G01X28637379Y-7917405D01*
G01X28620361Y-7923247D01*
G01X28568799Y-7923247D01*
G01X28725263Y-7843237D02*
G01X28713833Y-7848825D01*
G01X28702403Y-7860255D01*
G01X28696561Y-7877527D01*
G01X28696561Y-7888957D01*
G01X28702403Y-7905975D01*
G01X28713833Y-7917405D01*
G01X28725263Y-7923247D01*
G01X28742281Y-7923247D01*
G01X28753711Y-7917405D01*
G01X28765141Y-7905975D01*
G01X28770983Y-7888957D01*
G01X28770983Y-7877527D01*
G01X28765141Y-7860255D01*
G01X28753711Y-7848825D01*
G01X28742281Y-7843237D01*
G01X28725263Y-7843237D01*
G01X28836007Y-7803105D02*
G01X28836007Y-7900387D01*
G01X28841595Y-7917405D01*
G01X28853025Y-7923247D01*
G01X28864455Y-7923247D01*
G01X28818735Y-7843237D02*
G01X28858867Y-7843237D01*
G01X28929479Y-7803105D02*
G01X28929479Y-7900387D01*
G01X28935067Y-7917405D01*
G01X28946497Y-7923247D01*
G01X28957927Y-7923247D01*
G01X28912207Y-7843237D02*
G01X28952339Y-7843237D01*
G01X29034381Y-7843237D02*
G01X29022951Y-7848825D01*
G01X29011521Y-7860255D01*
G01X29005679Y-7877527D01*
G01X29005679Y-7888957D01*
G01X29011521Y-7905975D01*
G01X29022951Y-7917405D01*
G01X29034381Y-7923247D01*
G01X29051399Y-7923247D01*
G01X29062829Y-7917405D01*
G01X29074259Y-7905975D01*
G01X29080101Y-7888957D01*
G01X29080101Y-7877527D01*
G01X29074259Y-7860255D01*
G01X29062829Y-7848825D01*
G01X29051399Y-7843237D01*
G01X29034381Y-7843237D01*
G01X29127853Y-7843237D02*
G01X29127853Y-7923247D01*
G01X29127853Y-7866097D02*
G01X29145125Y-7848825D01*
G01X29156555Y-7843237D01*
G01X29173573Y-7843237D01*
G01X29185003Y-7848825D01*
G01X29190845Y-7866097D01*
G01X29190845Y-7923247D01*
G01X29190845Y-7866097D02*
G01X29207863Y-7848825D01*
G01X29219293Y-7843237D01*
G01X29236565Y-7843237D01*
G01X29247995Y-7848825D01*
G01X29253583Y-7866097D01*
G01X29253583Y-7923247D01*
G01X29429351Y-7803105D02*
G01X29429351Y-7923247D01*
G01X29429351Y-7923247D02*
G01X29497931Y-7923247D01*
G01X29614263Y-7843237D02*
G01X29614263Y-7923247D01*
G01X29614263Y-7860255D02*
G01X29602833Y-7848825D01*
G01X29591403Y-7843237D01*
G01X29574385Y-7843237D01*
G01X29562955Y-7848825D01*
G01X29551525Y-7860255D01*
G01X29545683Y-7877527D01*
G01X29545683Y-7888957D01*
G01X29551525Y-7905975D01*
G01X29562955Y-7917405D01*
G01X29574385Y-7923247D01*
G01X29591403Y-7923247D01*
G01X29602833Y-7917405D01*
G01X29614263Y-7905975D01*
G01X29667857Y-7843237D02*
G01X29702147Y-7923247D01*
G01X29736437Y-7843237D02*
G01X29702147Y-7923247D01*
G01X29690717Y-7946107D01*
G01X29679287Y-7957537D01*
G01X29667857Y-7963125D01*
G01X29662015Y-7963125D01*
G01X29784189Y-7877527D02*
G01X29852769Y-7877527D01*
G01X29852769Y-7866097D01*
G01X29847181Y-7854667D01*
G01X29841339Y-7848825D01*
G01X29829909Y-7843237D01*
G01X29812891Y-7843237D01*
G01X29801461Y-7848825D01*
G01X29790031Y-7860255D01*
G01X29784189Y-7877527D01*
G01X29784189Y-7888957D01*
G01X29790031Y-7905975D01*
G01X29801461Y-7917405D01*
G01X29812891Y-7923247D01*
G01X29829909Y-7923247D01*
G01X29841339Y-7917405D01*
G01X29852769Y-7905975D01*
G01X29900521Y-7843237D02*
G01X29900521Y-7923247D01*
G01X29900521Y-7877527D02*
G01X29906363Y-7860255D01*
G01X29917793Y-7848825D01*
G01X29929223Y-7843237D01*
G01X29946241Y-7843237D01*
G01X15567954Y-8383676D02*
G01X15510804Y-8383676D01*
G01X15505216Y-8435238D01*
G01X15510804Y-8429396D01*
G01X15528076Y-8423808D01*
G01X15545094Y-8423808D01*
G01X15562366Y-8429396D01*
G01X15573796Y-8440826D01*
G01X15579384Y-8458098D01*
G01X15579384Y-8469528D01*
G01X15573796Y-8486546D01*
G01X15562366Y-8497976D01*
G01X15545094Y-8503818D01*
G01X15528076Y-8503818D01*
G01X15510804Y-8497976D01*
G01X15505216Y-8492388D01*
G01X15499374Y-8480958D01*
G01X15627136Y-8406536D02*
G01X15638566Y-8400948D01*
G01X15655838Y-8383676D01*
G01X15655838Y-8503818D01*
G01X16913537Y-8406536D02*
G01X16924967Y-8400948D01*
G01X16942239Y-8383676D01*
G01X16942239Y-8503818D01*
G01X16995833Y-8412378D02*
G01X16995833Y-8406536D01*
G01X17001421Y-8395106D01*
G01X17007263Y-8389518D01*
G01X17018693Y-8383676D01*
G01X17041553Y-8383676D01*
G01X17052983Y-8389518D01*
G01X17058571Y-8395106D01*
G01X17064413Y-8406536D01*
G01X17064413Y-8417966D01*
G01X17058571Y-8429396D01*
G01X17047141Y-8446668D01*
G01X16989991Y-8503818D01*
G01X17070001Y-8503818D01*
G01X17123595Y-8475116D02*
G01X17117753Y-8480958D01*
G01X17123595Y-8486546D01*
G01X17129183Y-8480958D01*
G01X17123595Y-8475116D01*
G01X17211225Y-8383676D02*
G01X17194207Y-8389518D01*
G01X17182777Y-8406536D01*
G01X17176935Y-8435238D01*
G01X17176935Y-8452256D01*
G01X17182777Y-8480958D01*
G01X17194207Y-8497976D01*
G01X17211225Y-8503818D01*
G01X17222655Y-8503818D01*
G01X17239927Y-8497976D01*
G01X17251357Y-8480958D01*
G01X17256945Y-8452256D01*
G01X17256945Y-8435238D01*
G01X17251357Y-8406536D01*
G01X17239927Y-8389518D01*
G01X17222655Y-8383676D01*
G01X17211225Y-8383676D01*
G01X17304697Y-8423808D02*
G01X17304697Y-8503818D01*
G01X17304697Y-8446668D02*
G01X17321969Y-8429396D01*
G01X17333399Y-8423808D01*
G01X17350417Y-8423808D01*
G01X17361847Y-8429396D01*
G01X17367689Y-8446668D01*
G01X17367689Y-8503818D01*
G01X17367689Y-8446668D02*
G01X17384707Y-8429396D01*
G01X17396137Y-8423808D01*
G01X17413409Y-8423808D01*
G01X17424839Y-8429396D01*
G01X17430427Y-8446668D01*
G01X17430427Y-8503818D01*
G01X17478179Y-8383676D02*
G01X17484021Y-8389518D01*
G01X17489609Y-8383676D01*
G01X17484021Y-8378088D01*
G01X17478179Y-8383676D01*
G01X17484021Y-8423808D02*
G01X17484021Y-8503818D01*
G01X17537361Y-8383676D02*
G01X17537361Y-8503818D01*
G01X17625245Y-8360816D02*
G01X17613815Y-8372246D01*
G01X17602385Y-8389518D01*
G01X17590955Y-8412378D01*
G01X17585113Y-8440826D01*
G01X17585113Y-8463686D01*
G01X17590955Y-8492388D01*
G01X17602385Y-8515248D01*
G01X17613815Y-8532266D01*
G01X17625245Y-8543696D01*
G01X17707287Y-8383676D02*
G01X17690269Y-8389518D01*
G01X17678839Y-8406536D01*
G01X17672997Y-8435238D01*
G01X17672997Y-8452256D01*
G01X17678839Y-8480958D01*
G01X17690269Y-8497976D01*
G01X17707287Y-8503818D01*
G01X17718717Y-8503818D01*
G01X17735989Y-8497976D01*
G01X17747419Y-8480958D01*
G01X17753007Y-8452256D01*
G01X17753007Y-8435238D01*
G01X17747419Y-8406536D01*
G01X17735989Y-8389518D01*
G01X17718717Y-8383676D01*
G01X17707287Y-8383676D01*
G01X17806601Y-8475116D02*
G01X17800759Y-8480958D01*
G01X17806601Y-8486546D01*
G01X17812189Y-8480958D01*
G01X17806601Y-8475116D01*
G01X17871371Y-8383676D02*
G01X17934363Y-8383676D01*
G01X17900073Y-8429396D01*
G01X17917091Y-8429396D01*
G01X17928521Y-8435238D01*
G01X17934363Y-8440826D01*
G01X17939951Y-8458098D01*
G01X17939951Y-8469528D01*
G01X17934363Y-8486546D01*
G01X17922933Y-8497976D01*
G01X17905661Y-8503818D01*
G01X17888643Y-8503818D01*
G01X17871371Y-8497976D01*
G01X17865783Y-8492388D01*
G01X17859941Y-8480958D01*
G01X18021993Y-8383676D02*
G01X18004975Y-8389518D01*
G01X17993545Y-8406536D01*
G01X17987703Y-8435238D01*
G01X17987703Y-8452256D01*
G01X17993545Y-8480958D01*
G01X18004975Y-8497976D01*
G01X18021993Y-8503818D01*
G01X18033423Y-8503818D01*
G01X18050695Y-8497976D01*
G01X18062125Y-8480958D01*
G01X18067713Y-8452256D01*
G01X18067713Y-8435238D01*
G01X18062125Y-8406536D01*
G01X18050695Y-8389518D01*
G01X18033423Y-8383676D01*
G01X18021993Y-8383676D01*
G01X18184045Y-8383676D02*
G01X18126895Y-8383676D01*
G01X18121307Y-8435238D01*
G01X18126895Y-8429396D01*
G01X18144167Y-8423808D01*
G01X18161185Y-8423808D01*
G01X18178457Y-8429396D01*
G01X18189887Y-8440826D01*
G01X18195475Y-8458098D01*
G01X18195475Y-8469528D01*
G01X18189887Y-8486546D01*
G01X18178457Y-8497976D01*
G01X18161185Y-8503818D01*
G01X18144167Y-8503818D01*
G01X18126895Y-8497976D01*
G01X18121307Y-8492388D01*
G01X18115465Y-8480958D01*
G01X18243227Y-8423808D02*
G01X18243227Y-8503818D01*
G01X18243227Y-8446668D02*
G01X18260499Y-8429396D01*
G01X18271929Y-8423808D01*
G01X18288947Y-8423808D01*
G01X18300377Y-8429396D01*
G01X18306219Y-8446668D01*
G01X18306219Y-8503818D01*
G01X18306219Y-8446668D02*
G01X18323237Y-8429396D01*
G01X18334667Y-8423808D01*
G01X18351939Y-8423808D01*
G01X18363369Y-8429396D01*
G01X18368957Y-8446668D01*
G01X18368957Y-8503818D01*
G01X18416709Y-8423808D02*
G01X18416709Y-8503818D01*
G01X18416709Y-8446668D02*
G01X18433981Y-8429396D01*
G01X18445411Y-8423808D01*
G01X18462429Y-8423808D01*
G01X18473859Y-8429396D01*
G01X18479701Y-8446668D01*
G01X18479701Y-8503818D01*
G01X18479701Y-8446668D02*
G01X18496719Y-8429396D01*
G01X18508149Y-8423808D01*
G01X18525421Y-8423808D01*
G01X18536851Y-8429396D01*
G01X18542439Y-8446668D01*
G01X18542439Y-8503818D01*
G01X18590191Y-8360816D02*
G01X18601621Y-8372246D01*
G01X18613051Y-8389518D01*
G01X18624481Y-8412378D01*
G01X18630323Y-8440826D01*
G01X18630323Y-8463686D01*
G01X18624481Y-8492388D01*
G01X18613051Y-8515248D01*
G01X18601621Y-8532266D01*
G01X18590191Y-8543696D01*
G01X20878115Y-8383676D02*
G01X20878115Y-8503818D01*
G01X20878115Y-8383676D02*
G01X20929677Y-8383676D01*
G01X20946695Y-8389518D01*
G01X20952537Y-8395106D01*
G01X20958125Y-8406536D01*
G01X20958125Y-8423808D01*
G01X20952537Y-8435238D01*
G01X20946695Y-8440826D01*
G01X20929677Y-8446668D01*
G01X20878115Y-8446668D01*
G01X21046009Y-8383676D02*
G01X21046009Y-8503818D01*
G01X21005877Y-8383676D02*
G01X21085887Y-8383676D01*
G01X21133639Y-8383676D02*
G01X21133639Y-8503818D01*
G01X21213649Y-8383676D02*
G01X21213649Y-8503818D01*
G01X21133639Y-8440826D02*
G01X21213649Y-8440826D01*
G01X22339522Y-8383676D02*
G01X22339522Y-8503818D01*
G01X22339522Y-8383676D02*
G01X22391084Y-8383676D01*
G01X22408102Y-8389518D01*
G01X22413944Y-8395106D01*
G01X22419532Y-8406536D01*
G01X22419532Y-8417966D01*
G01X22413944Y-8429396D01*
G01X22408102Y-8435238D01*
G01X22391084Y-8440826D01*
G01X22339522Y-8440826D01*
G01X22379654Y-8440826D02*
G01X22419532Y-8503818D01*
G01X22495986Y-8423808D02*
G01X22484556Y-8429396D01*
G01X22473126Y-8440826D01*
G01X22467284Y-8458098D01*
G01X22467284Y-8469528D01*
G01X22473126Y-8486546D01*
G01X22484556Y-8497976D01*
G01X22495986Y-8503818D01*
G01X22513004Y-8503818D01*
G01X22524434Y-8497976D01*
G01X22535864Y-8486546D01*
G01X22541706Y-8469528D01*
G01X22541706Y-8458098D01*
G01X22535864Y-8440826D01*
G01X22524434Y-8429396D01*
G01X22513004Y-8423808D01*
G01X22495986Y-8423808D01*
G01X22589458Y-8423808D02*
G01X22589458Y-8480958D01*
G01X22595300Y-8497976D01*
G01X22606730Y-8503818D01*
G01X22623748Y-8503818D01*
G01X22635178Y-8497976D01*
G01X22652450Y-8480958D01*
G01X22652450Y-8423808D02*
G01X22652450Y-8503818D01*
G01X22700202Y-8423808D02*
G01X22700202Y-8503818D01*
G01X22700202Y-8446668D02*
G01X22717474Y-8429396D01*
G01X22728904Y-8423808D01*
G01X22745922Y-8423808D01*
G01X22757352Y-8429396D01*
G01X22763194Y-8446668D01*
G01X22763194Y-8503818D01*
G01X22879526Y-8383676D02*
G01X22879526Y-8503818D01*
G01X22879526Y-8440826D02*
G01X22868096Y-8429396D01*
G01X22856666Y-8423808D01*
G01X22839648Y-8423808D01*
G01X22828218Y-8429396D01*
G01X22816788Y-8440826D01*
G01X22810946Y-8458098D01*
G01X22810946Y-8469528D01*
G01X22816788Y-8486546D01*
G01X22828218Y-8497976D01*
G01X22839648Y-8503818D01*
G01X22856666Y-8503818D01*
G01X22868096Y-8497976D01*
G01X22879526Y-8486546D01*
G01X23770703Y-8383676D02*
G01X23816423Y-8503818D01*
G01X23862143Y-8383676D02*
G01X23816423Y-8503818D01*
G01X23909895Y-8383676D02*
G01X23915737Y-8389518D01*
G01X23921325Y-8383676D01*
G01X23915737Y-8378088D01*
G01X23909895Y-8383676D01*
G01X23915737Y-8423808D02*
G01X23915737Y-8503818D01*
G01X24037657Y-8423808D02*
G01X24037657Y-8503818D01*
G01X24037657Y-8440826D02*
G01X24026227Y-8429396D01*
G01X24014797Y-8423808D01*
G01X23997779Y-8423808D01*
G01X23986349Y-8429396D01*
G01X23974919Y-8440826D01*
G01X23969077Y-8458098D01*
G01X23969077Y-8469528D01*
G01X23974919Y-8486546D01*
G01X23986349Y-8497976D01*
G01X23997779Y-8503818D01*
G01X24014797Y-8503818D01*
G01X24026227Y-8497976D01*
G01X24037657Y-8486546D01*
G01X27399383Y-8383676D02*
G01X27399383Y-8503818D01*
G01X27359251Y-8383676D02*
G01X27439261Y-8383676D01*
G01X27515715Y-8423808D02*
G01X27504285Y-8429396D01*
G01X27492855Y-8440826D01*
G01X27487013Y-8458098D01*
G01X27487013Y-8469528D01*
G01X27492855Y-8486546D01*
G01X27504285Y-8497976D01*
G01X27515715Y-8503818D01*
G01X27532733Y-8503818D01*
G01X27544163Y-8497976D01*
G01X27555593Y-8486546D01*
G01X27561435Y-8469528D01*
G01X27561435Y-8458098D01*
G01X27555593Y-8440826D01*
G01X27544163Y-8429396D01*
G01X27532733Y-8423808D01*
G01X27515715Y-8423808D01*
G01X27609187Y-8423808D02*
G01X27609187Y-8543696D01*
G01X27609187Y-8440826D02*
G01X27620617Y-8429396D01*
G01X27632047Y-8423808D01*
G01X27649319Y-8423808D01*
G01X27660749Y-8429396D01*
G01X27672179Y-8440826D01*
G01X27677767Y-8458098D01*
G01X27677767Y-8469528D01*
G01X27672179Y-8486546D01*
G01X27660749Y-8497976D01*
G01X27649319Y-8503818D01*
G01X27632047Y-8503818D01*
G01X27620617Y-8497976D01*
G01X27609187Y-8486546D01*
G01X27853535Y-8383676D02*
G01X27853535Y-8503818D01*
G01X27853535Y-8503818D02*
G01X27922115Y-8503818D01*
G01X28038447Y-8423808D02*
G01X28038447Y-8503818D01*
G01X28038447Y-8440826D02*
G01X28027017Y-8429396D01*
G01X28015587Y-8423808D01*
G01X27998569Y-8423808D01*
G01X27987139Y-8429396D01*
G01X27975709Y-8440826D01*
G01X27969867Y-8458098D01*
G01X27969867Y-8469528D01*
G01X27975709Y-8486546D01*
G01X27987139Y-8497976D01*
G01X27998569Y-8503818D01*
G01X28015587Y-8503818D01*
G01X28027017Y-8497976D01*
G01X28038447Y-8486546D01*
G01X28092041Y-8423808D02*
G01X28126331Y-8503818D01*
G01X28160621Y-8423808D02*
G01X28126331Y-8503818D01*
G01X28114901Y-8526678D01*
G01X28103471Y-8538108D01*
G01X28092041Y-8543696D01*
G01X28086199Y-8543696D01*
G01X28208373Y-8458098D02*
G01X28276953Y-8458098D01*
G01X28276953Y-8446668D01*
G01X28271365Y-8435238D01*
G01X28265523Y-8429396D01*
G01X28254093Y-8423808D01*
G01X28237075Y-8423808D01*
G01X28225645Y-8429396D01*
G01X28214215Y-8440826D01*
G01X28208373Y-8458098D01*
G01X28208373Y-8469528D01*
G01X28214215Y-8486546D01*
G01X28225645Y-8497976D01*
G01X28237075Y-8503818D01*
G01X28254093Y-8503818D01*
G01X28265523Y-8497976D01*
G01X28276953Y-8486546D01*
G01X28324705Y-8423808D02*
G01X28324705Y-8503818D01*
G01X28324705Y-8458098D02*
G01X28330547Y-8440826D01*
G01X28341977Y-8429396D01*
G01X28353407Y-8423808D01*
G01X28370425Y-8423808D01*
G01X28418177Y-8452256D02*
G01X28521047Y-8452256D01*
G01X28568799Y-8383676D02*
G01X28568799Y-8503818D01*
G01X28568799Y-8383676D02*
G01X28620361Y-8383676D01*
G01X28637379Y-8389518D01*
G01X28643221Y-8395106D01*
G01X28648809Y-8406536D01*
G01X28648809Y-8417966D01*
G01X28643221Y-8429396D01*
G01X28637379Y-8435238D01*
G01X28620361Y-8440826D01*
G01X28568799Y-8440826D02*
G01X28620361Y-8440826D01*
G01X28637379Y-8446668D01*
G01X28643221Y-8452256D01*
G01X28648809Y-8463686D01*
G01X28648809Y-8480958D01*
G01X28643221Y-8492388D01*
G01X28637379Y-8497976D01*
G01X28620361Y-8503818D01*
G01X28568799Y-8503818D01*
G01X28725263Y-8423808D02*
G01X28713833Y-8429396D01*
G01X28702403Y-8440826D01*
G01X28696561Y-8458098D01*
G01X28696561Y-8469528D01*
G01X28702403Y-8486546D01*
G01X28713833Y-8497976D01*
G01X28725263Y-8503818D01*
G01X28742281Y-8503818D01*
G01X28753711Y-8497976D01*
G01X28765141Y-8486546D01*
G01X28770983Y-8469528D01*
G01X28770983Y-8458098D01*
G01X28765141Y-8440826D01*
G01X28753711Y-8429396D01*
G01X28742281Y-8423808D01*
G01X28725263Y-8423808D01*
G01X28836007Y-8383676D02*
G01X28836007Y-8480958D01*
G01X28841595Y-8497976D01*
G01X28853025Y-8503818D01*
G01X28864455Y-8503818D01*
G01X28818735Y-8423808D02*
G01X28858867Y-8423808D01*
G01X28929479Y-8383676D02*
G01X28929479Y-8480958D01*
G01X28935067Y-8497976D01*
G01X28946497Y-8503818D01*
G01X28957927Y-8503818D01*
G01X28912207Y-8423808D02*
G01X28952339Y-8423808D01*
G01X29034381Y-8423808D02*
G01X29022951Y-8429396D01*
G01X29011521Y-8440826D01*
G01X29005679Y-8458098D01*
G01X29005679Y-8469528D01*
G01X29011521Y-8486546D01*
G01X29022951Y-8497976D01*
G01X29034381Y-8503818D01*
G01X29051399Y-8503818D01*
G01X29062829Y-8497976D01*
G01X29074259Y-8486546D01*
G01X29080101Y-8469528D01*
G01X29080101Y-8458098D01*
G01X29074259Y-8440826D01*
G01X29062829Y-8429396D01*
G01X29051399Y-8423808D01*
G01X29034381Y-8423808D01*
G01X29127853Y-8423808D02*
G01X29127853Y-8503818D01*
G01X29127853Y-8446668D02*
G01X29145125Y-8429396D01*
G01X29156555Y-8423808D01*
G01X29173573Y-8423808D01*
G01X29185003Y-8429396D01*
G01X29190845Y-8446668D01*
G01X29190845Y-8503818D01*
G01X29190845Y-8446668D02*
G01X29207863Y-8429396D01*
G01X29219293Y-8423808D01*
G01X29236565Y-8423808D01*
G01X29247995Y-8429396D01*
G01X29253583Y-8446668D01*
G01X29253583Y-8503818D01*
G01X29429351Y-8383676D02*
G01X29429351Y-8503818D01*
G01X29429351Y-8503818D02*
G01X29497931Y-8503818D01*
G01X29614263Y-8423808D02*
G01X29614263Y-8503818D01*
G01X29614263Y-8440826D02*
G01X29602833Y-8429396D01*
G01X29591403Y-8423808D01*
G01X29574385Y-8423808D01*
G01X29562955Y-8429396D01*
G01X29551525Y-8440826D01*
G01X29545683Y-8458098D01*
G01X29545683Y-8469528D01*
G01X29551525Y-8486546D01*
G01X29562955Y-8497976D01*
G01X29574385Y-8503818D01*
G01X29591403Y-8503818D01*
G01X29602833Y-8497976D01*
G01X29614263Y-8486546D01*
G01X29667857Y-8423808D02*
G01X29702147Y-8503818D01*
G01X29736437Y-8423808D02*
G01X29702147Y-8503818D01*
G01X29690717Y-8526678D01*
G01X29679287Y-8538108D01*
G01X29667857Y-8543696D01*
G01X29662015Y-8543696D01*
G01X29784189Y-8458098D02*
G01X29852769Y-8458098D01*
G01X29852769Y-8446668D01*
G01X29847181Y-8435238D01*
G01X29841339Y-8429396D01*
G01X29829909Y-8423808D01*
G01X29812891Y-8423808D01*
G01X29801461Y-8429396D01*
G01X29790031Y-8440826D01*
G01X29784189Y-8458098D01*
G01X29784189Y-8469528D01*
G01X29790031Y-8486546D01*
G01X29801461Y-8497976D01*
G01X29812891Y-8503818D01*
G01X29829909Y-8503818D01*
G01X29841339Y-8497976D01*
G01X29852769Y-8486546D01*
G01X29900521Y-8423808D02*
G01X29900521Y-8503818D01*
G01X29900521Y-8458098D02*
G01X29906363Y-8440826D01*
G01X29917793Y-8429396D01*
G01X29929223Y-8423808D01*
G01X29946241Y-8423808D01*

G04 Image Start*
G36*
G01X14202886Y-7726542D02*
G01X14367986Y-7891642D01*
G01X14202886Y-8056742D01*
G01X14037786Y-7891642D01*
G01X14073701Y-7891642D01*
G01X14202886Y-8020826D01*
G01X14332070Y-7891642D01*
G01X14202886Y-7762458D01*
G01X14202886Y-7762458D01*
G01X14073701Y-7891642D01*
G01X14037786Y-7891642D01*
G01X14202886Y-7726542D01*
G37*
G36*
G01X14334763Y-5661431D02*
G01X14229149Y-5649951D01*
G01X14186274Y-5747156D01*
G01X14143399Y-5649951D01*
G01X14037786Y-5661431D01*
G01X14100549Y-5575706D01*
G01X14060827Y-5521452D01*
G01X14092320Y-5521452D01*
G01X14132020Y-5575706D01*
G01X14092320Y-5629961D01*
G01X14159147Y-5622696D01*
G01X14159147Y-5622696D01*
G01X14186274Y-5684190D01*
G01X14213401Y-5622696D01*
G01X14280229Y-5629961D01*
G01X14240529Y-5575706D01*
G01X14280203Y-5521477D01*
G01X14213376Y-5528742D01*
G01X14186274Y-5467223D01*
G01X14159147Y-5528716D01*
G01X14092320Y-5521452D01*
G01X14060827Y-5521452D01*
G01X14037786Y-5489981D01*
G01X14143424Y-5501462D01*
G01X14186274Y-5404256D01*
G01X14229149Y-5501462D01*
G01X14334763Y-5489981D01*
G01X14271999Y-5575706D01*
G01X14334763Y-5661431D01*
G37*
G36*
G01X14205769Y-4547127D02*
G01X14198029Y-4547715D01*
G01X14190186Y-4547913D01*
G01X14182343Y-4547715D01*
G01X14174602Y-4547127D01*
G01X14166975Y-4546158D01*
G01X14159470Y-4544818D01*
G01X14144864Y-4541063D01*
G01X14130862Y-4535938D01*
G01X14117540Y-4529521D01*
G01X14104974Y-4521888D01*
G01X14093242Y-4513115D01*
G01X14082420Y-4503279D01*
G01X14072584Y-4492457D01*
G01X14063811Y-4480725D01*
G01X14056178Y-4468160D01*
G01X14049761Y-4454838D01*
G01X14044637Y-4440835D01*
G01X14040882Y-4426230D01*
G01X14039542Y-4418724D01*
G01X14038572Y-4411097D01*
G01X14037984Y-4403357D01*
G01X14037786Y-4395513D01*
G01X14063186Y-4395513D01*
G01X14063843Y-4408480D01*
G01X14065770Y-4421076D01*
G01X14068905Y-4433238D01*
G01X14073182Y-4444900D01*
G01X14078537Y-4455999D01*
G01X14084905Y-4466471D01*
G01X14092223Y-4476251D01*
G01X14100425Y-4485274D01*
G01X14109449Y-4493477D01*
G01X14119228Y-4500794D01*
G01X14129700Y-4507163D01*
G01X14140799Y-4512517D01*
G01X14152462Y-4516794D01*
G01X14164623Y-4519929D01*
G01X14164623Y-4519929D01*
G01X14177219Y-4521857D01*
G01X14190186Y-4522513D01*
G01X14203152Y-4521857D01*
G01X14215748Y-4519929D01*
G01X14227910Y-4516794D01*
G01X14239572Y-4512517D01*
G01X14250672Y-4507163D01*
G01X14261143Y-4500794D01*
G01X14270923Y-4493477D01*
G01X14279946Y-4485274D01*
G01X14288149Y-4476251D01*
G01X14295466Y-4466471D01*
G01X14301835Y-4455999D01*
G01X14307190Y-4444900D01*
G01X14311466Y-4433238D01*
G01X14314601Y-4421076D01*
G01X14316529Y-4408480D01*
G01X14317186Y-4395513D01*
G01X14316529Y-4382547D01*
G01X14314601Y-4369951D01*
G01X14311466Y-4357789D01*
G01X14307190Y-4346127D01*
G01X14301835Y-4335028D01*
G01X14295466Y-4324556D01*
G01X14288149Y-4314776D01*
G01X14279946Y-4305753D01*
G01X14270923Y-4297550D01*
G01X14261143Y-4290233D01*
G01X14250672Y-4283864D01*
G01X14239572Y-4278510D01*
G01X14227910Y-4274233D01*
G01X14215748Y-4271098D01*
G01X14203152Y-4269170D01*
G01X14190186Y-4268513D01*
G01X14177219Y-4269170D01*
G01X14164623Y-4271098D01*
G01X14152462Y-4274233D01*
G01X14140799Y-4278510D01*
G01X14129700Y-4283864D01*
G01X14119228Y-4290233D01*
G01X14109449Y-4297550D01*
G01X14100425Y-4305753D01*
G01X14092223Y-4314776D01*
G01X14084905Y-4324556D01*
G01X14078537Y-4335028D01*
G01X14073182Y-4346127D01*
G01X14068905Y-4357789D01*
G01X14065770Y-4369951D01*
G01X14063843Y-4382547D01*
G01X14063186Y-4395513D01*
G01X14037786Y-4395513D01*
G01X14037984Y-4387670D01*
G01X14038572Y-4379930D01*
G01X14039542Y-4372303D01*
G01X14040882Y-4364797D01*
G01X14044637Y-4350192D01*
G01X14049761Y-4336189D01*
G01X14056178Y-4322867D01*
G01X14063811Y-4310302D01*
G01X14072584Y-4298570D01*
G01X14082420Y-4287748D01*
G01X14093242Y-4277912D01*
G01X14104974Y-4269139D01*
G01X14117540Y-4261506D01*
G01X14130862Y-4255089D01*
G01X14144864Y-4249964D01*
G01X14159470Y-4246209D01*
G01X14166975Y-4244869D01*
G01X14174602Y-4243900D01*
G01X14182343Y-4243312D01*
G01X14190186Y-4243113D01*
G01X14198029Y-4243312D01*
G01X14205769Y-4243900D01*
G01X14213396Y-4244869D01*
G01X14220902Y-4246209D01*
G01X14235508Y-4249964D01*
G01X14249510Y-4255089D01*
G01X14262832Y-4261506D01*
G01X14275397Y-4269139D01*
G01X14287129Y-4277912D01*
G01X14297952Y-4287748D01*
G01X14307787Y-4298570D01*
G01X14316560Y-4310302D01*
G01X14324193Y-4322867D01*
G01X14330610Y-4336189D01*
G01X14335735Y-4350192D01*
G01X14339490Y-4364797D01*
G01X14340830Y-4372303D01*
G01X14341799Y-4379930D01*
G01X14342387Y-4387670D01*
G01X14342586Y-4395513D01*
G01X14342387Y-4403357D01*
G01X14341799Y-4411097D01*
G01X14340830Y-4418724D01*
G01X14339490Y-4426230D01*
G01X14335735Y-4440835D01*
G01X14330610Y-4454838D01*
G01X14324193Y-4468160D01*
G01X14316560Y-4480725D01*
G01X14307787Y-4492457D01*
G01X14297952Y-4503279D01*
G01X14287129Y-4513115D01*
G01X14275397Y-4521888D01*
G01X14262832Y-4529521D01*
G01X14249510Y-4535938D01*
G01X14235508Y-4541063D01*
G01X14220902Y-4544818D01*
G01X14213396Y-4546158D01*
G01X14205769Y-4547127D01*
G37*
G36*
G01X14342586Y-6787065D02*
G01X14259477Y-6787065D01*
G01X14259477Y-6870199D01*
G01X14120920Y-6870199D01*
G01X14120920Y-6787090D01*
G01X14037786Y-6787090D01*
G01X14037786Y-6673933D01*
G01X14063186Y-6673933D01*
G01X14063186Y-6761665D01*
G01X14146320Y-6761665D01*
G01X14146320Y-6844799D01*
G01X14146320Y-6844799D01*
G01X14234052Y-6844799D01*
G01X14234052Y-6761690D01*
G01X14317186Y-6761690D01*
G01X14317186Y-6673933D01*
G01X14234052Y-6673933D01*
G01X14234052Y-6590799D01*
G01X14146320Y-6590799D01*
G01X14146320Y-6673933D01*
G01X14063186Y-6673933D01*
G01X14037786Y-6673933D01*
G01X14037786Y-6648533D01*
G01X14120920Y-6648533D01*
G01X14120920Y-6565399D01*
G01X14259452Y-6565399D01*
G01X14259452Y-6648533D01*
G01X14342586Y-6648533D01*
G01X14342586Y-6787065D01*
G37*
G36*
G01X14342586Y-5984828D02*
G01X14272558Y-6137228D01*
G01X14342586Y-6289628D01*
G01X14190186Y-6219600D01*
G01X14037786Y-6289628D01*
G01X14061548Y-6237913D01*
G01X14089500Y-6237913D01*
G01X14179569Y-6196511D01*
G01X14190186Y-6191635D01*
G01X14200803Y-6196511D01*
G01X14290871Y-6237913D01*
G01X14249469Y-6147845D01*
G01X14244593Y-6137228D01*
G01X14249469Y-6126611D01*
G01X14290871Y-6036542D01*
G01X14200803Y-6077944D01*
G01X14190186Y-6082821D01*
G01X14179569Y-6077944D01*
G01X14089500Y-6036542D01*
G01X14130902Y-6126611D01*
G01X14135779Y-6137228D01*
G01X14135779Y-6137228D01*
G01X14130902Y-6147845D01*
G01X14089500Y-6237913D01*
G01X14061548Y-6237913D01*
G01X14107814Y-6137228D01*
G01X14037786Y-5984828D01*
G01X14190186Y-6054856D01*
G01X14342586Y-5984828D01*
G37*
G36*
G01X14037786Y-4823685D02*
G01X14342586Y-4823685D01*
G01X14190186Y-5087642D01*
G01X14052451Y-4849085D01*
G01X14081779Y-4849085D01*
G01X14190186Y-5036842D01*
G01X14298593Y-4849085D01*
G01X14298593Y-4849085D01*
G01X14081779Y-4849085D01*
G01X14052451Y-4849085D01*
G01X14037786Y-4823685D01*
G37*
G36*
G01X14317186Y-7425371D02*
G01X14215586Y-7425371D01*
G01X14177486Y-7349171D01*
G01X14139386Y-7425371D01*
G01X14037786Y-7425371D01*
G01X14037786Y-7399971D01*
G01X14063186Y-7399971D01*
G01X14123689Y-7399971D01*
G01X14154753Y-7337817D01*
G01X14177486Y-7292376D01*
G01X14200219Y-7337817D01*
G01X14231283Y-7399971D01*
G01X14291786Y-7399971D01*
G01X14291786Y-7339468D01*
G01X14229632Y-7308378D01*
G01X14184191Y-7285671D01*
G01X14229632Y-7262963D01*
G01X14291786Y-7231873D01*
G01X14291786Y-7171371D01*
G01X14231283Y-7171371D01*
G01X14200219Y-7233524D01*
G01X14177486Y-7278965D01*
G01X14154753Y-7233524D01*
G01X14123689Y-7171371D01*
G01X14063186Y-7171371D01*
G01X14063186Y-7231873D01*
G01X14125340Y-7262963D01*
G01X14170780Y-7285671D01*
G01X14125340Y-7308378D01*
G01X14063186Y-7339468D01*
G01X14063186Y-7399971D01*
G01X14063186Y-7399971D01*
G01X14037786Y-7399971D01*
G01X14037786Y-7323771D01*
G01X14113986Y-7285671D01*
G01X14037786Y-7247571D01*
G01X14037786Y-7145971D01*
G01X14139386Y-7145971D01*
G01X14177486Y-7222171D01*
G01X14215586Y-7145971D01*
G01X14317186Y-7145971D01*
G01X14317186Y-7247571D01*
G01X14240986Y-7285671D01*
G01X14317186Y-7323771D01*
G01X14317186Y-7425371D01*
G37*
G36*
G01X14037786Y-3662542D02*
G01X14317186Y-3662542D01*
G01X14317186Y-3941942D01*
G01X14037786Y-3941942D01*
G01X14037786Y-3687942D01*
G01X14063186Y-3687942D01*
G01X14063186Y-3916542D01*
G01X14291786Y-3916542D01*
G01X14291786Y-3687942D01*
G01X14291786Y-3687942D01*
G01X14063186Y-3687942D01*
G01X14037786Y-3687942D01*
G01X14037786Y-3662542D01*
G37*
G36*
G01X14037786Y-8307113D02*
G01X14317186Y-8307113D01*
G01X14317186Y-8586513D01*
G01X14037786Y-8586513D01*
G01X14037786Y-8332513D01*
G01X14063186Y-8332513D01*
G01X14063186Y-8561113D01*
G01X14291786Y-8561113D01*
G01X14291786Y-8332513D01*
G01X14291786Y-8332513D01*
G01X14063186Y-8332513D01*
G01X14037786Y-8332513D01*
G01X14037786Y-8307113D01*
G37*
G36*
G01X14088586Y-8357913D02*
G01X14266386Y-8357913D01*
G01X14266386Y-8535713D01*
G01X14088586Y-8535713D01*
G01X14088586Y-8510313D01*
G01X14113986Y-8510313D01*
G01X14240986Y-8510313D01*
G01X14240986Y-8383313D01*
G01X14113986Y-8383313D01*
G01X14113986Y-8510313D01*
G01X14113986Y-8510313D01*
G01X14088586Y-8510313D01*
G01X14088586Y-8357913D01*
G37*

G04 PolygonModel Start*
G54D20*
G01X13747500Y-8742542D02*
G01X30536973Y-8742542D01*
G01X13747500Y-8161971D02*
G01X30536973Y-8161971D01*
G01X13747500Y-7581399D02*
G01X30536973Y-7581399D01*
G01X13747500Y-7000828D02*
G01X30536973Y-7000828D01*
G01X13747500Y-6420256D02*
G01X30536973Y-6420256D01*
G01X13747500Y-5839685D02*
G01X30536973Y-5839685D01*
G01X13747500Y-5259113D02*
G01X30536973Y-5259113D01*
G01X13747500Y-4678542D02*
G01X30536973Y-4678542D01*
G01X13747500Y-4097971D02*
G01X30536973Y-4097971D01*
G01X13747500Y-3517399D02*
G01X30536973Y-3517399D01*
G01X13747500Y-2936828D02*
G01X30536973Y-2936828D01*
G01X13747500Y-2936828D02*
G01X13747500Y-8717142D01*
G01X15198929Y-2936828D02*
G01X15198929Y-8717142D01*
G01X16613092Y-2936828D02*
G01X16613092Y-8717142D01*
G01X20577669Y-2936828D02*
G01X20577669Y-8717142D01*
G01X22039076Y-2936828D02*
G01X22039076Y-8717142D01*
G01X23470257Y-2936828D02*
G01X23470257Y-8717142D01*
G01X25139436Y-2936828D02*
G01X25139436Y-8717142D01*
G01X27058805Y-2936828D02*
G01X27058805Y-8717142D01*
G01X30536973Y-2936828D02*
G01X30536973Y-8717142D01*

M02*

