G04 Layer: BottomLayer*
G04 EasyEDA Pro v3.2.149.88089769, 2026-09-30 13:01:49*
G04 Gerber Generator version 0.3*
G04 Scale: 100 percent, Rotated: No, Reflected: No*
G04 Dimensions in millimeters*
G04 Leading zeros omitted, absolute positions, 4 integers and 5 decimals*
G04 Generated by one-click*
G04 Object Configs: Pad,Via,Track,Text,Image,Dimension,BoardOutline,BoardCutout,CopperFilled,SolidRegion,FPCStiffener,Line,PlaneZone,ComponentProperty,ComponentSilkscreen,TearDrop*
G04 Layer Configs: 1,15,16,2,3,4,5,6,7,8,9,10,11,13,14,56*
G04 Copper Areas: 85*
%FSLAX45Y45*%
%MOMM*%
%ADD10C,0.2032*%
%ADD11C,0.254*%
%ADD12C,1.8*%
%ADD13C,1.6*%
%ADD14R,0.9X0.8*%
%ADD15R,0.8X0.9*%
%ADD16R,1.59301X2.0*%
%ADD17R,1.7095X1.7*%
%ADD18R,1.7X1.7*%
%ADD19C,1.7*%
%ADD20C,1.524*%
%ADD21O,0.9X1.6*%
%ADD22R,0.9X1.6*%
%ADD23R,0.86401X0.80648*%
%ADD24R,1.37701X1.13254*%
%ADD25R,0.80648X0.86401*%
%ADD26C,2.794*%
%ADD27R,2.3X1.5*%
%ADD28R,2.99999X1.6*%
%ADD29R,6.19999X5.79999*%
%ADD30R,1.6X1.6*%
%ADD31C,3.19999*%
%ADD32O,2.0X1.524*%
%ADD33C,2.2*%
%ADD34C,1.3*%
%ADD35O,1.3X1.8*%
%ADD36C,0.61*%
%ADD37C,0.3048*%
%ADD38C,1.27*%
%ADD39C,0.508*%
%ADD40C,0.305*%
G75*


G04 Copper Start*
G36*
G01X2323426Y-6504686D02*
G01X1280261Y-6504686D01*
G01X1301261Y-6490292D01*
G01X1319958Y-6473012D01*
G01X1335958Y-6453208D01*
G01X1348924Y-6431298D01*
G01X1358584Y-6407742D01*
G01X1364735Y-6383037D01*
G01X1367247Y-6357702D01*
G01X1366067Y-6332270D01*
G01X1361220Y-6307276D01*
G01X1352808Y-6283246D01*
G01X1341008Y-6260686D01*
G01X1326069Y-6240071D01*
G01X1308304Y-6221834D01*
G01X1288087Y-6206359D01*
G01X1265845Y-6193971D01*
G01X1242044Y-6184932D01*
G01X1217186Y-6179431D01*
G01X1191793Y-6177585D01*
G01X1166401Y-6179431D01*
G01X1141543Y-6184932D01*
G01X1117742Y-6193971D01*
G01X1095499Y-6206359D01*
G01X1075283Y-6221834D01*
G01X1057518Y-6240071D01*
G01X1042578Y-6260686D01*
G01X1030779Y-6283246D01*
G01X1022367Y-6307276D01*
G01X1017520Y-6332270D01*
G01X1016340Y-6357702D01*
G01X1018852Y-6383037D01*
G01X1025002Y-6407742D01*
G01X1034663Y-6431298D01*
G01X1047629Y-6453208D01*
G01X1063629Y-6473012D01*
G01X1082326Y-6490292D01*
G01X1103326Y-6504686D01*
G01X45809Y-6504686D01*
G01X45809Y-6290237D01*
G01X77376Y-6290237D01*
G01X79369Y-6318105D01*
G01X85308Y-6345404D01*
G01X95071Y-6371581D01*
G01X108461Y-6396102D01*
G01X125204Y-6418468D01*
G01X144959Y-6438223D01*
G01X167325Y-6454966D01*
G01X191846Y-6468356D01*
G01X218023Y-6478119D01*
G01X245323Y-6484058D01*
G01X273190Y-6486051D01*
G01X301057Y-6484058D01*
G01X328357Y-6478119D01*
G01X354534Y-6468356D01*
G01X379055Y-6454966D01*
G01X401420Y-6438223D01*
G01X421176Y-6418468D01*
G01X437919Y-6396102D01*
G01X451308Y-6371581D01*
G01X461072Y-6345404D01*
G01X467010Y-6318105D01*
G01X469003Y-6290237D01*
G01X467010Y-6262370D01*
G01X461072Y-6235070D01*
G01X451308Y-6208893D01*
G01X437919Y-6184372D01*
G01X428806Y-6172200D01*
G01X3024487Y-6172200D01*
G01X3026476Y-6196200D01*
G01X3032388Y-6219546D01*
G01X3042062Y-6241600D01*
G01X3055233Y-6261761D01*
G01X3071544Y-6279479D01*
G01X3090548Y-6294270D01*
G01X3111728Y-6305732D01*
G01X3134506Y-6313552D01*
G01X3158260Y-6317516D01*
G01X3182342Y-6317516D01*
G01X3206096Y-6313552D01*
G01X3228874Y-6305732D01*
G01X3250054Y-6294270D01*
G01X3269058Y-6279479D01*
G01X3285369Y-6261761D01*
G01X3298540Y-6241600D01*
G01X3308214Y-6219546D01*
G01X3314126Y-6196200D01*
G01X3316115Y-6172200D01*
G01X3316115Y-6172200D01*
G01X3524486Y-6172200D01*
G01X3526475Y-6196200D01*
G01X3532387Y-6219546D01*
G01X3542061Y-6241600D01*
G01X3555232Y-6261761D01*
G01X3571543Y-6279479D01*
G01X3590547Y-6294270D01*
G01X3611727Y-6305732D01*
G01X3634505Y-6313552D01*
G01X3658259Y-6317516D01*
G01X3682341Y-6317516D01*
G01X3706095Y-6313552D01*
G01X3728873Y-6305732D01*
G01X3750053Y-6294270D01*
G01X3769057Y-6279479D01*
G01X3785368Y-6261761D01*
G01X3798539Y-6241600D01*
G01X3808213Y-6219546D01*
G01X3814125Y-6196200D01*
G01X3816114Y-6172200D01*
G01X3816114Y-6172200D01*
G01X4024485Y-6172200D01*
G01X4026474Y-6196200D01*
G01X4032386Y-6219546D01*
G01X4042060Y-6241600D01*
G01X4055231Y-6261761D01*
G01X4071542Y-6279479D01*
G01X4090546Y-6294270D01*
G01X4111726Y-6305732D01*
G01X4134504Y-6313552D01*
G01X4158258Y-6317516D01*
G01X4182340Y-6317516D01*
G01X4206094Y-6313552D01*
G01X4228872Y-6305732D01*
G01X4250052Y-6294270D01*
G01X4269056Y-6279479D01*
G01X4285367Y-6261761D01*
G01X4298538Y-6241600D01*
G01X4308212Y-6219546D01*
G01X4314124Y-6196200D01*
G01X4316113Y-6172200D01*
G01X4316113Y-6172200D01*
G01X4658787Y-6172200D01*
G01X4660775Y-6196200D01*
G01X4666687Y-6219546D01*
G01X4676361Y-6241600D01*
G01X4689533Y-6261761D01*
G01X4705844Y-6279479D01*
G01X4724848Y-6294270D01*
G01X4746028Y-6305732D01*
G01X4768805Y-6313552D01*
G01X4792559Y-6317516D01*
G01X4816642Y-6317516D01*
G01X4840396Y-6313552D01*
G01X4863173Y-6305732D01*
G01X4884353Y-6294270D01*
G01X4903357Y-6279479D01*
G01X4919668Y-6261761D01*
G01X4932840Y-6241600D01*
G01X4942514Y-6219546D01*
G01X4948426Y-6196200D01*
G01X4950414Y-6172200D01*
G01X4950414Y-6172200D01*
G01X5158786Y-6172200D01*
G01X5160774Y-6196200D01*
G01X5166686Y-6219546D01*
G01X5176360Y-6241600D01*
G01X5189532Y-6261761D01*
G01X5205843Y-6279479D01*
G01X5224847Y-6294270D01*
G01X5246027Y-6305732D01*
G01X5268804Y-6313552D01*
G01X5292558Y-6317516D01*
G01X5316641Y-6317516D01*
G01X5340395Y-6313552D01*
G01X5363172Y-6305732D01*
G01X5384352Y-6294270D01*
G01X5403356Y-6279479D01*
G01X5419667Y-6261761D01*
G01X5432839Y-6241600D01*
G01X5442513Y-6219546D01*
G01X5448425Y-6196200D01*
G01X5450413Y-6172200D01*
G01X5450413Y-6172200D01*
G01X6157387Y-6172200D01*
G01X6159375Y-6196200D01*
G01X6165287Y-6219546D01*
G01X6174961Y-6241600D01*
G01X6188133Y-6261761D01*
G01X6204444Y-6279479D01*
G01X6223448Y-6294270D01*
G01X6244628Y-6305732D01*
G01X6267405Y-6313552D01*
G01X6291159Y-6317516D01*
G01X6315242Y-6317516D01*
G01X6338996Y-6313552D01*
G01X6361773Y-6305732D01*
G01X6382953Y-6294270D01*
G01X6401957Y-6279479D01*
G01X6418268Y-6261761D01*
G01X6431440Y-6241600D01*
G01X6441114Y-6219546D01*
G01X6447026Y-6196200D01*
G01X6449014Y-6172200D01*
G01X6449014Y-6172200D01*
G01X6448723Y-6168688D01*
G01X6657428Y-6168688D01*
G01X6658720Y-6191883D01*
G01X6663680Y-6214578D01*
G01X6672181Y-6236198D01*
G01X6684007Y-6256193D01*
G01X6698859Y-6274057D01*
G01X6716360Y-6289335D01*
G01X6736064Y-6301639D01*
G01X6757473Y-6310658D01*
G01X6780042Y-6316163D01*
G01X6803200Y-6318014D01*
G01X6826357Y-6316163D01*
G01X6848926Y-6310658D01*
G01X6870335Y-6301639D01*
G01X6888594Y-6290237D01*
G01X7577386Y-6290237D01*
G01X7579380Y-6318105D01*
G01X7585318Y-6345404D01*
G01X7595082Y-6371581D01*
G01X7608471Y-6396102D01*
G01X7625214Y-6418468D01*
G01X7644969Y-6438223D01*
G01X7667335Y-6454966D01*
G01X7691856Y-6468356D01*
G01X7718033Y-6478119D01*
G01X7745333Y-6484058D01*
G01X7773200Y-6486051D01*
G01X7801067Y-6484058D01*
G01X7828367Y-6478119D01*
G01X7854544Y-6468356D01*
G01X7879065Y-6454966D01*
G01X7901431Y-6438223D01*
G01X7921186Y-6418468D01*
G01X7937929Y-6396102D01*
G01X7951318Y-6371581D01*
G01X7961082Y-6345404D01*
G01X7967021Y-6318105D01*
G01X7969014Y-6290237D01*
G01X7967021Y-6262370D01*
G01X7961082Y-6235070D01*
G01X7951318Y-6208893D01*
G01X7937929Y-6184372D01*
G01X7921186Y-6162007D01*
G01X7901431Y-6142251D01*
G01X7879065Y-6125508D01*
G01X7854544Y-6112119D01*
G01X7828367Y-6102356D01*
G01X7801067Y-6096417D01*
G01X7773200Y-6094424D01*
G01X7745333Y-6096417D01*
G01X7718033Y-6102356D01*
G01X7691856Y-6112119D01*
G01X7667335Y-6125508D01*
G01X7644969Y-6142251D01*
G01X7625214Y-6162007D01*
G01X7608471Y-6184372D01*
G01X7595082Y-6208893D01*
G01X7585318Y-6235070D01*
G01X7579380Y-6262370D01*
G01X7577386Y-6290237D01*
G01X7577386Y-6290237D01*
G01X6888594Y-6290237D01*
G01X6890039Y-6289335D01*
G01X6907540Y-6274057D01*
G01X6922392Y-6256193D01*
G01X6934218Y-6236198D01*
G01X6942719Y-6214578D01*
G01X6947679Y-6191883D01*
G01X6948971Y-6168688D01*
G01X6946563Y-6145582D01*
G01X6940516Y-6123152D01*
G01X6930984Y-6101967D01*
G01X6918208Y-6082564D01*
G01X6902514Y-6065437D01*
G01X6902514Y-5742075D01*
G01X6908051Y-5731758D01*
G01X6909965Y-5720207D01*
G01X6909965Y-5520207D01*
G01X6908212Y-5509140D01*
G01X6903125Y-5499156D01*
G01X6895202Y-5491233D01*
G01X6885218Y-5486146D01*
G01X6874151Y-5484393D01*
G01X6714849Y-5484393D01*
G01X6703782Y-5486146D01*
G01X6693798Y-5491233D01*
G01X6685875Y-5499156D01*
G01X6680788Y-5509140D01*
G01X6679035Y-5520207D01*
G01X6679035Y-5720207D01*
G01X6680797Y-5731300D01*
G01X6685907Y-5741302D01*
G01X6693864Y-5749229D01*
G01X6703886Y-5754302D01*
G01X6703886Y-6065437D01*
G01X6703886Y-6065437D01*
G01X6688191Y-6082564D01*
G01X6675415Y-6101967D01*
G01X6665883Y-6123152D01*
G01X6659836Y-6145582D01*
G01X6657428Y-6168688D01*
G01X6448723Y-6168688D01*
G01X6447026Y-6148200D01*
G01X6441114Y-6124854D01*
G01X6431440Y-6102800D01*
G01X6418268Y-6082639D01*
G01X6401957Y-6064921D01*
G01X6382953Y-6050130D01*
G01X6361773Y-6038668D01*
G01X6338996Y-6030848D01*
G01X6315242Y-6026884D01*
G01X6291159Y-6026884D01*
G01X6267405Y-6030848D01*
G01X6244628Y-6038668D01*
G01X6223448Y-6050130D01*
G01X6204444Y-6064921D01*
G01X6188133Y-6082639D01*
G01X6174961Y-6102800D01*
G01X6165287Y-6124854D01*
G01X6159375Y-6148200D01*
G01X6157387Y-6172200D01*
G01X5450413Y-6172200D01*
G01X5448425Y-6148200D01*
G01X5442513Y-6124854D01*
G01X5432839Y-6102800D01*
G01X5419667Y-6082639D01*
G01X5403356Y-6064921D01*
G01X5384352Y-6050130D01*
G01X5363172Y-6038668D01*
G01X5340395Y-6030848D01*
G01X5316641Y-6026884D01*
G01X5292558Y-6026884D01*
G01X5268804Y-6030848D01*
G01X5246027Y-6038668D01*
G01X5224847Y-6050130D01*
G01X5205843Y-6064921D01*
G01X5189532Y-6082639D01*
G01X5176360Y-6102800D01*
G01X5166686Y-6124854D01*
G01X5160774Y-6148200D01*
G01X5158786Y-6172200D01*
G01X4950414Y-6172200D01*
G01X4948426Y-6148200D01*
G01X4942514Y-6124854D01*
G01X4932840Y-6102800D01*
G01X4919668Y-6082639D01*
G01X4903357Y-6064921D01*
G01X4884353Y-6050130D01*
G01X4863173Y-6038668D01*
G01X4840396Y-6030848D01*
G01X4816642Y-6026884D01*
G01X4792559Y-6026884D01*
G01X4768805Y-6030848D01*
G01X4746028Y-6038668D01*
G01X4724848Y-6050130D01*
G01X4705844Y-6064921D01*
G01X4689533Y-6082639D01*
G01X4676361Y-6102800D01*
G01X4666687Y-6124854D01*
G01X4660775Y-6148200D01*
G01X4658787Y-6172200D01*
G01X4316113Y-6172200D01*
G01X4314124Y-6148200D01*
G01X4308212Y-6124854D01*
G01X4298538Y-6102800D01*
G01X4285367Y-6082639D01*
G01X4269056Y-6064921D01*
G01X4250052Y-6050130D01*
G01X4228872Y-6038668D01*
G01X4206094Y-6030848D01*
G01X4182340Y-6026884D01*
G01X4158258Y-6026884D01*
G01X4134504Y-6030848D01*
G01X4111726Y-6038668D01*
G01X4090546Y-6050130D01*
G01X4071542Y-6064921D01*
G01X4055231Y-6082639D01*
G01X4042060Y-6102800D01*
G01X4032386Y-6124854D01*
G01X4026474Y-6148200D01*
G01X4024485Y-6172200D01*
G01X3816114Y-6172200D01*
G01X3814125Y-6148200D01*
G01X3808213Y-6124854D01*
G01X3798539Y-6102800D01*
G01X3785368Y-6082639D01*
G01X3769057Y-6064921D01*
G01X3750053Y-6050130D01*
G01X3728873Y-6038668D01*
G01X3706095Y-6030848D01*
G01X3682341Y-6026884D01*
G01X3658259Y-6026884D01*
G01X3634505Y-6030848D01*
G01X3611727Y-6038668D01*
G01X3590547Y-6050130D01*
G01X3571543Y-6064921D01*
G01X3555232Y-6082639D01*
G01X3542061Y-6102800D01*
G01X3532387Y-6124854D01*
G01X3526475Y-6148200D01*
G01X3524486Y-6172200D01*
G01X3316115Y-6172200D01*
G01X3314126Y-6148200D01*
G01X3308214Y-6124854D01*
G01X3298540Y-6102800D01*
G01X3285369Y-6082639D01*
G01X3269058Y-6064921D01*
G01X3250054Y-6050130D01*
G01X3228874Y-6038668D01*
G01X3206096Y-6030848D01*
G01X3182342Y-6026884D01*
G01X3158260Y-6026884D01*
G01X3134506Y-6030848D01*
G01X3111728Y-6038668D01*
G01X3090548Y-6050130D01*
G01X3071544Y-6064921D01*
G01X3055233Y-6082639D01*
G01X3042062Y-6102800D01*
G01X3032388Y-6124854D01*
G01X3026476Y-6148200D01*
G01X3024487Y-6172200D01*
G01X428806Y-6172200D01*
G01X421176Y-6162007D01*
G01X401420Y-6142251D01*
G01X379055Y-6125508D01*
G01X354534Y-6112119D01*
G01X328357Y-6102356D01*
G01X301057Y-6096417D01*
G01X273190Y-6094424D01*
G01X245323Y-6096417D01*
G01X218023Y-6102356D01*
G01X191846Y-6112119D01*
G01X167325Y-6125508D01*
G01X144959Y-6142251D01*
G01X125204Y-6162007D01*
G01X108461Y-6184372D01*
G01X95071Y-6208893D01*
G01X85308Y-6235070D01*
G01X79369Y-6262370D01*
G01X77376Y-6290237D01*
G01X77376Y-6290237D01*
G01X45809Y-6290237D01*
G01X45809Y-4976814D01*
G01X307086Y-4976814D01*
G01X307086Y-5524500D01*
G01X308994Y-5543875D01*
G01X314646Y-5562506D01*
G01X323823Y-5579676D01*
G01X336174Y-5594726D01*
G01X564774Y-5823326D01*
G01X579824Y-5835677D01*
G01X596994Y-5844854D01*
G01X615625Y-5850506D01*
G01X635000Y-5852414D01*
G01X847081Y-5852414D01*
G01X863641Y-5873025D01*
G01X883109Y-5890914D01*
G01X905044Y-5905677D01*
G01X928947Y-5916976D01*
G01X954277Y-5924557D01*
G01X980457Y-5928248D01*
G01X1006895Y-5927963D01*
G01X1032991Y-5923711D01*
G01X1058151Y-5915587D01*
G01X1081806Y-5903775D01*
G01X1103418Y-5888545D01*
G01X1122497Y-5870240D01*
G01X1138610Y-5849278D01*
G01X1151391Y-5826133D01*
G01X1160551Y-5801331D01*
G01X1165881Y-5775434D01*
G01X1167261Y-5749031D01*
G01X1164658Y-5722719D01*
G01X1158134Y-5697098D01*
G01X1147834Y-5672747D01*
G01X1133993Y-5650219D01*
G01X1116926Y-5630026D01*
G01X1097019Y-5612626D01*
G01X1074724Y-5598414D01*
G01X2273300Y-5598414D01*
G01X2292675Y-5596506D01*
G01X2311306Y-5590854D01*
G01X2328476Y-5581677D01*
G01X2343526Y-5569326D01*
G01X2483226Y-5429626D01*
G01X2495577Y-5414576D01*
G01X2504754Y-5397406D01*
G01X2510406Y-5378775D01*
G01X2512314Y-5359400D01*
G01X2512314Y-5297039D01*
G01X2532613Y-5280473D01*
G01X2550221Y-5261071D01*
G01X2564744Y-5239264D01*
G01X2575859Y-5215538D01*
G01X2583318Y-5190421D01*
G01X2586955Y-5164474D01*
G01X2586689Y-5138275D01*
G01X2582525Y-5112407D01*
G01X2574558Y-5087448D01*
G01X2562963Y-5063952D01*
G01X2548001Y-5042444D01*
G01X2530003Y-5023403D01*
G01X2509371Y-5007254D01*
G01X2486565Y-4994356D01*
G01X2462093Y-4984996D01*
G01X2436501Y-4979384D01*
G01X2410358Y-4977644D01*
G01X2384248Y-4979815D01*
G01X2358751Y-4985849D01*
G01X2334437Y-4995611D01*
G01X2311847Y-5008884D01*
G01X2291485Y-5025371D01*
G01X2273804Y-5044706D01*
G01X2259198Y-5066458D01*
G01X2247993Y-5090142D01*
G01X2240438Y-5115230D01*
G01X2236702Y-5141162D01*
G01X2236868Y-5167362D01*
G01X2240933Y-5193246D01*
G01X2248805Y-5218236D01*
G01X2260310Y-5241775D01*
G01X2275191Y-5263340D01*
G01X2293116Y-5282449D01*
G01X2313686Y-5298677D01*
G01X2313686Y-5318263D01*
G01X2232163Y-5399786D01*
G01X980937Y-5399786D01*
G01X810514Y-5229363D01*
G01X810514Y-5153101D01*
G01X1016279Y-5153101D01*
G01X1018240Y-5179260D01*
G01X1024077Y-5204835D01*
G01X1033661Y-5229254D01*
G01X1046777Y-5251972D01*
G01X1063133Y-5272481D01*
G01X1082362Y-5290324D01*
G01X1104036Y-5305101D01*
G01X1127671Y-5316483D01*
G01X1152738Y-5324215D01*
G01X1178677Y-5328124D01*
G01X1204910Y-5328124D01*
G01X1230849Y-5324215D01*
G01X1255916Y-5316483D01*
G01X1279550Y-5305101D01*
G01X1301225Y-5290324D01*
G01X1320454Y-5272481D01*
G01X1336810Y-5251972D01*
G01X1349926Y-5229254D01*
G01X1359510Y-5204835D01*
G01X1365347Y-5179260D01*
G01X1367307Y-5153101D01*
G01X1367307Y-5153101D01*
G01X1365347Y-5126942D01*
G01X1359510Y-5101368D01*
G01X1349926Y-5076949D01*
G01X1336810Y-5054231D01*
G01X1320454Y-5033721D01*
G01X1301225Y-5015879D01*
G01X1279550Y-5001102D01*
G01X1255916Y-4989720D01*
G01X1230849Y-4981988D01*
G01X1204910Y-4978078D01*
G01X1178677Y-4978078D01*
G01X1152738Y-4981988D01*
G01X1127671Y-4989720D01*
G01X1104036Y-5001102D01*
G01X1082362Y-5015879D01*
G01X1063133Y-5033721D01*
G01X1046777Y-5054231D01*
G01X1033661Y-5076949D01*
G01X1024077Y-5101368D01*
G01X1018240Y-5126942D01*
G01X1016279Y-5153101D01*
G01X810514Y-5153101D01*
G01X810514Y-4637865D01*
G01X1083864Y-4637865D01*
G01X1083864Y-4658535D01*
G01X1087662Y-4678854D01*
G01X1095129Y-4698129D01*
G01X1106011Y-4715704D01*
G01X1119937Y-4730979D01*
G01X1136432Y-4743436D01*
G01X1154936Y-4752650D01*
G01X1174818Y-4758307D01*
G01X1195400Y-4760214D01*
G01X1243000Y-4760214D01*
G01X1263376Y-4758345D01*
G01X1283072Y-4752801D01*
G01X1301431Y-4743766D01*
G01X1317840Y-4731543D01*
G01X1331752Y-4716539D01*
G01X1342702Y-4699254D01*
G01X1604453Y-4699254D01*
G01X1716499Y-4811301D01*
G01X1727073Y-4819414D01*
G01X1739386Y-4824514D01*
G01X1752600Y-4826254D01*
G01X2374900Y-4826254D01*
G01X2388114Y-4824514D01*
G01X2400427Y-4819414D01*
G01X2411001Y-4811301D01*
G01X2499901Y-4722401D01*
G01X2508014Y-4711827D01*
G01X2513114Y-4699514D01*
G01X2514854Y-4686300D01*
G01X2514854Y-4205641D01*
G01X2532651Y-4205641D01*
G01X2543718Y-4203888D01*
G01X2553701Y-4198801D01*
G01X2561625Y-4190878D01*
G01X2566712Y-4180894D01*
G01X2568465Y-4169827D01*
G01X2568465Y-4056573D01*
G01X2566712Y-4045506D01*
G01X2561625Y-4035522D01*
G01X2553701Y-4027599D01*
G01X2543718Y-4022512D01*
G01X2532651Y-4020759D01*
G01X2394949Y-4020759D01*
G01X2383882Y-4022512D01*
G01X2373899Y-4027599D01*
G01X2365975Y-4035522D01*
G01X2360888Y-4045506D01*
G01X2359135Y-4056573D01*
G01X2359135Y-4169827D01*
G01X2360888Y-4180894D01*
G01X2365975Y-4190878D01*
G01X2373899Y-4198801D01*
G01X2383882Y-4203888D01*
G01X2394949Y-4205641D01*
G01X2412746Y-4205641D01*
G01X2412746Y-4665153D01*
G01X2353753Y-4724146D01*
G01X2087337Y-4724146D01*
G01X2099491Y-4708354D01*
G01X2108655Y-4690658D01*
G01X2114538Y-4671618D01*
G01X2116955Y-4651837D01*
G01X2115828Y-4631941D01*
G01X2111193Y-4612560D01*
G01X2103197Y-4594306D01*
G01X2092093Y-4577759D01*
G01X2078232Y-4563441D01*
G01X2062054Y-4551805D01*
G01X2044070Y-4543221D01*
G01X2024849Y-4537959D01*
G01X2005000Y-4536186D01*
G01X1957400Y-4536186D01*
G01X1937551Y-4537959D01*
G01X1918330Y-4543221D01*
G01X1900346Y-4551805D01*
G01X1884168Y-4563441D01*
G01X1870307Y-4577759D01*
G01X1859203Y-4594306D01*
G01X1851207Y-4612560D01*
G01X1846572Y-4631941D01*
G01X1845445Y-4651837D01*
G01X1847862Y-4671618D01*
G01X1853745Y-4690658D01*
G01X1862909Y-4708354D01*
G01X1875063Y-4724146D01*
G01X1773747Y-4724146D01*
G01X1661701Y-4612099D01*
G01X1661701Y-4612099D01*
G01X1651127Y-4603986D01*
G01X1638814Y-4598886D01*
G01X1625600Y-4597146D01*
G01X1342702Y-4597146D01*
G01X1331752Y-4579861D01*
G01X1317840Y-4564857D01*
G01X1301431Y-4552634D01*
G01X1283072Y-4543599D01*
G01X1263376Y-4538055D01*
G01X1243000Y-4536186D01*
G01X1195400Y-4536186D01*
G01X1174818Y-4538093D01*
G01X1154936Y-4543750D01*
G01X1136432Y-4552964D01*
G01X1119937Y-4565421D01*
G01X1106011Y-4580696D01*
G01X1095129Y-4598271D01*
G01X1087662Y-4617546D01*
G01X1083864Y-4637865D01*
G01X810514Y-4637865D01*
G01X810514Y-3822700D01*
G01X808974Y-3805277D01*
G01X804401Y-3788394D01*
G01X796937Y-3772576D01*
G01X786814Y-3758312D01*
G01X786814Y-3466400D01*
G01X785419Y-3461193D01*
G01X781607Y-3457381D01*
G01X776400Y-3455986D01*
G01X45809Y-3455986D01*
G01X45809Y-3190218D01*
G01X77376Y-3190218D01*
G01X79369Y-3218085D01*
G01X85308Y-3245385D01*
G01X95071Y-3271562D01*
G01X108461Y-3296083D01*
G01X125204Y-3318449D01*
G01X144959Y-3338204D01*
G01X167325Y-3354947D01*
G01X191846Y-3368337D01*
G01X218023Y-3378100D01*
G01X245323Y-3384039D01*
G01X273190Y-3386032D01*
G01X301057Y-3384039D01*
G01X328357Y-3378100D01*
G01X354534Y-3368337D01*
G01X379055Y-3354947D01*
G01X401420Y-3338204D01*
G01X421176Y-3318449D01*
G01X437919Y-3296083D01*
G01X451308Y-3271562D01*
G01X451809Y-3270218D01*
G01X707387Y-3270218D01*
G01X709140Y-3281285D01*
G01X714227Y-3291269D01*
G01X722151Y-3299192D01*
G01X732134Y-3304279D01*
G01X743201Y-3306032D01*
G01X903201Y-3306032D01*
G01X903201Y-3306032D01*
G01X914268Y-3304279D01*
G01X924252Y-3299192D01*
G01X932175Y-3291269D01*
G01X937262Y-3281285D01*
G01X939015Y-3270218D01*
G01X939015Y-3194878D01*
G01X961481Y-3194878D01*
G01X964160Y-3215408D01*
G01X970451Y-3235132D01*
G01X980154Y-3253421D01*
G01X992958Y-3269691D01*
G01X1008454Y-3283420D01*
G01X1026147Y-3294172D01*
G01X1026147Y-3553701D01*
G01X1027887Y-3566915D01*
G01X1032987Y-3579228D01*
G01X1041101Y-3589802D01*
G01X1171978Y-3720679D01*
G01X1171978Y-3746794D01*
G01X1159044Y-3731133D01*
G01X1143494Y-3718066D01*
G01X1125841Y-3708021D01*
G01X1106664Y-3701330D01*
G01X1086594Y-3698211D01*
G01X1066291Y-3698768D01*
G01X1046422Y-3702981D01*
G01X1027640Y-3710714D01*
G01X1010564Y-3721711D01*
G01X995754Y-3735611D01*
G01X983698Y-3751956D01*
G01X974791Y-3770210D01*
G01X969327Y-3789773D01*
G01X967486Y-3810000D01*
G01X969327Y-3830227D01*
G01X974791Y-3849790D01*
G01X983698Y-3868044D01*
G01X995754Y-3884389D01*
G01X1010564Y-3898289D01*
G01X1027640Y-3909286D01*
G01X1046422Y-3917019D01*
G01X1066291Y-3921232D01*
G01X1086594Y-3921789D01*
G01X1106664Y-3918670D01*
G01X1125841Y-3911979D01*
G01X1143494Y-3901934D01*
G01X1159044Y-3888867D01*
G01X1171978Y-3873206D01*
G01X1171978Y-4284662D01*
G01X1152416Y-4290762D01*
G01X1134293Y-4300322D01*
G01X1118214Y-4313024D01*
G01X1104719Y-4328443D01*
G01X1094258Y-4346062D01*
G01X1087181Y-4365291D01*
G01X1083725Y-4385488D01*
G01X1084007Y-4405977D01*
G01X1088016Y-4426071D01*
G01X1095618Y-4445099D01*
G01X1106560Y-4462424D01*
G01X1120474Y-4477465D01*
G01X1136895Y-4489721D01*
G01X1155274Y-4498780D01*
G01X1174996Y-4504340D01*
G01X1195400Y-4506214D01*
G01X1243000Y-4506214D01*
G01X1262918Y-4504429D01*
G01X1282202Y-4499130D01*
G01X1300236Y-4490487D01*
G01X1316446Y-4478774D01*
G01X1330315Y-4464366D01*
G01X1341400Y-4447721D01*
G01X1349349Y-4429370D01*
G01X1353908Y-4409898D01*
G01X1354932Y-4389925D01*
G01X1354155Y-4383865D01*
G01X1845864Y-4383865D01*
G01X1845864Y-4404535D01*
G01X1849662Y-4424854D01*
G01X1857129Y-4444129D01*
G01X1868011Y-4461704D01*
G01X1881937Y-4476979D01*
G01X1898432Y-4489436D01*
G01X1916936Y-4498650D01*
G01X1936818Y-4504307D01*
G01X1957400Y-4506214D01*
G01X2005000Y-4506214D01*
G01X2025582Y-4504307D01*
G01X2045464Y-4498650D01*
G01X2063968Y-4489436D01*
G01X2080463Y-4476979D01*
G01X2094389Y-4461704D01*
G01X2105271Y-4444129D01*
G01X2112738Y-4424854D01*
G01X2116536Y-4404535D01*
G01X2116536Y-4383865D01*
G01X2112738Y-4363546D01*
G01X2105271Y-4344271D01*
G01X2094389Y-4326696D01*
G01X2080463Y-4311421D01*
G01X2063968Y-4298964D01*
G01X2045464Y-4289750D01*
G01X2025582Y-4284093D01*
G01X2005000Y-4282186D01*
G01X2005000Y-4282186D01*
G01X1957400Y-4282186D01*
G01X1936818Y-4284093D01*
G01X1916936Y-4289750D01*
G01X1898432Y-4298964D01*
G01X1881937Y-4311421D01*
G01X1868011Y-4326696D01*
G01X1857129Y-4344271D01*
G01X1849662Y-4363546D01*
G01X1845864Y-4383865D01*
G01X1354155Y-4383865D01*
G01X1352388Y-4370089D01*
G01X1346357Y-4351022D01*
G01X1337032Y-4333331D01*
G01X1324709Y-4317580D01*
G01X1309782Y-4304271D01*
G01X1292726Y-4293829D01*
G01X1274086Y-4286586D01*
G01X1274086Y-4016300D01*
G01X1874986Y-4016300D01*
G01X1874986Y-4086300D01*
G01X1876698Y-4102848D01*
G01X1881763Y-4118695D01*
G01X1889965Y-4133169D01*
G01X1900957Y-4145656D01*
G01X1914274Y-4155629D01*
G01X1929350Y-4162663D01*
G01X1945547Y-4166461D01*
G01X1962179Y-4166862D01*
G01X1978540Y-4163849D01*
G01X1993938Y-4157549D01*
G01X2007719Y-4148230D01*
G01X2019300Y-4136286D01*
G01X2030384Y-4147809D01*
G01X2043519Y-4156925D01*
G01X2058192Y-4163276D01*
G01X2073828Y-4166614D01*
G01X2089815Y-4166809D01*
G01X2105528Y-4163852D01*
G01X2120351Y-4157860D01*
G01X2133704Y-4149067D01*
G01X2133704Y-4149067D01*
G01X2139390Y-4156538D01*
G01X2146823Y-4162275D01*
G01X2155492Y-4165883D01*
G01X2164800Y-4167114D01*
G01X2254800Y-4167114D01*
G01X2265867Y-4165361D01*
G01X2275851Y-4160274D01*
G01X2283774Y-4152351D01*
G01X2288861Y-4142367D01*
G01X2290614Y-4131300D01*
G01X2290614Y-3971300D01*
G01X2289557Y-3962664D01*
G01X2359135Y-3962664D01*
G01X2359135Y-3969827D01*
G01X2360888Y-3980894D01*
G01X2365975Y-3990878D01*
G01X2373899Y-3998801D01*
G01X2383882Y-4003888D01*
G01X2394949Y-4005641D01*
G01X2532651Y-4005641D01*
G01X2543718Y-4003888D01*
G01X2553701Y-3998801D01*
G01X2561625Y-3990878D01*
G01X2566712Y-3980894D01*
G01X2568465Y-3969827D01*
G01X2568465Y-3856573D01*
G01X2566712Y-3845506D01*
G01X2561625Y-3835522D01*
G01X2553701Y-3827599D01*
G01X2543718Y-3822512D01*
G01X2532651Y-3820759D01*
G01X2394949Y-3820759D01*
G01X2383882Y-3822512D01*
G01X2373899Y-3827599D01*
G01X2365975Y-3835522D01*
G01X2360888Y-3845506D01*
G01X2359135Y-3856573D01*
G01X2359135Y-3860536D01*
G01X2120900Y-3860536D01*
G01X2107684Y-3862276D01*
G01X2095368Y-3867377D01*
G01X2084792Y-3875492D01*
G01X2046692Y-3913592D01*
G01X2038577Y-3924168D01*
G01X2033476Y-3936484D01*
G01X2031736Y-3949700D01*
G01X2031736Y-3953663D01*
G01X2019300Y-3966314D01*
G01X2007719Y-3954370D01*
G01X1993938Y-3945051D01*
G01X1978540Y-3938751D01*
G01X1962179Y-3935738D01*
G01X1945547Y-3936139D01*
G01X1929350Y-3939937D01*
G01X1914274Y-3946971D01*
G01X1900957Y-3956944D01*
G01X1889965Y-3969431D01*
G01X1881763Y-3983905D01*
G01X1876698Y-3999752D01*
G01X1874986Y-4016300D01*
G01X1274086Y-4016300D01*
G01X1274086Y-3822787D01*
G01X1297399Y-3846101D01*
G01X1307973Y-3854214D01*
G01X1320286Y-3859314D01*
G01X1333500Y-3861054D01*
G01X1487797Y-3861054D01*
G01X1498892Y-3878526D01*
G01X1513012Y-3893658D01*
G01X1529675Y-3905934D01*
G01X1548312Y-3914935D01*
G01X1568287Y-3920354D01*
G01X1588918Y-3922005D01*
G01X1609500Y-3919832D01*
G01X1629332Y-3913910D01*
G01X1647735Y-3904440D01*
G01X1664082Y-3891746D01*
G01X1677814Y-3876261D01*
G01X1688463Y-3858514D01*
G01X1828800Y-3858514D01*
G01X1841356Y-3856861D01*
G01X1853057Y-3852014D01*
G01X1863105Y-3844305D01*
G01X1963195Y-3744214D01*
G01X2631186Y-3744214D01*
G01X2631186Y-4000500D01*
G01X2632839Y-4013056D01*
G01X2637686Y-4024757D01*
G01X2645395Y-4034805D01*
G01X2737486Y-4126895D01*
G01X2737486Y-4789920D01*
G01X2738881Y-4795127D01*
G01X2742693Y-4798939D01*
G01X2747900Y-4800334D01*
G01X3253067Y-4800334D01*
G01X3253067Y-5562181D01*
G01X3253067Y-5562181D01*
G01X3254720Y-5574738D01*
G01X3259567Y-5586438D01*
G01X3267277Y-5596486D01*
G01X3407395Y-5736605D01*
G01X3417443Y-5744314D01*
G01X3429144Y-5749161D01*
G01X3441700Y-5750814D01*
G01X5644390Y-5750814D01*
G01X5656761Y-5759912D01*
G01X5670894Y-5765921D01*
G01X5686029Y-5768518D01*
G01X5701356Y-5767564D01*
G01X5716053Y-5763110D01*
G01X5729331Y-5755394D01*
G01X5740478Y-5744832D01*
G01X5748897Y-5731989D01*
G01X5754136Y-5717553D01*
G01X5755914Y-5702300D01*
G01X5754136Y-5687047D01*
G01X5748897Y-5672611D01*
G01X5740478Y-5659768D01*
G01X5729331Y-5649206D01*
G01X5716053Y-5641490D01*
G01X5701356Y-5637036D01*
G01X5686029Y-5636082D01*
G01X5670894Y-5638679D01*
G01X5656761Y-5644688D01*
G01X5644390Y-5653786D01*
G01X3461795Y-5653786D01*
G01X3350095Y-5542086D01*
G01X3350095Y-4800334D01*
G01X3456686Y-4800334D01*
G01X3456686Y-5029200D01*
G01X3458339Y-5041756D01*
G01X3463186Y-5053457D01*
G01X3470895Y-5063505D01*
G01X3686795Y-5279405D01*
G01X3696843Y-5287114D01*
G01X3708544Y-5291961D01*
G01X3721100Y-5293614D01*
G01X5606290Y-5293614D01*
G01X5618661Y-5302712D01*
G01X5632794Y-5308721D01*
G01X5647929Y-5311318D01*
G01X5663256Y-5310364D01*
G01X5677953Y-5305910D01*
G01X5687792Y-5300193D01*
G01X6679035Y-5300193D01*
G01X6680788Y-5311260D01*
G01X6685875Y-5321244D01*
G01X6693798Y-5329167D01*
G01X6703782Y-5334254D01*
G01X6714849Y-5336007D01*
G01X6874151Y-5336007D01*
G01X6885218Y-5334254D01*
G01X6895202Y-5329167D01*
G01X6903125Y-5321244D01*
G01X6908212Y-5311260D01*
G01X6909965Y-5300193D01*
G01X6909965Y-5168487D01*
G01X6985447Y-5093004D01*
G01X7023533Y-5093004D01*
G01X7031524Y-5101818D01*
G01X7041961Y-5107528D01*
G01X7053693Y-5109504D01*
G01X7104378Y-5109504D01*
G01X7104378Y-5438392D01*
G01X7106287Y-5457768D01*
G01X7111938Y-5476398D01*
G01X7121116Y-5493568D01*
G01X7133467Y-5508618D01*
G01X7232276Y-5607427D01*
G01X7247326Y-5619778D01*
G01X7264496Y-5628956D01*
G01X7283127Y-5634608D01*
G01X7302503Y-5636517D01*
G01X7410826Y-5636517D01*
G01X7429128Y-5645411D01*
G01X7448704Y-5650965D01*
G01X7468950Y-5653007D01*
G01X7489240Y-5651474D01*
G01X7508950Y-5646414D01*
G01X7527469Y-5637982D01*
G01X7544227Y-5626438D01*
G01X7558706Y-5612140D01*
G01X7570459Y-5595529D01*
G01X7579123Y-5577117D01*
G01X7584430Y-5557473D01*
G01X7586218Y-5537203D01*
G01X7585276Y-5526517D01*
G01X7705096Y-5526517D01*
G01X7705096Y-5547888D01*
G01X7709023Y-5568897D01*
G01X7716744Y-5588825D01*
G01X7727995Y-5606996D01*
G01X7742393Y-5622790D01*
G01X7759448Y-5635669D01*
G01X7778579Y-5645196D01*
G01X7799135Y-5651044D01*
G01X7820416Y-5653016D01*
G01X7841697Y-5651044D01*
G01X7862253Y-5645196D01*
G01X7881384Y-5635669D01*
G01X7898439Y-5622790D01*
G01X7912838Y-5606996D01*
G01X7924088Y-5588825D01*
G01X7931809Y-5568897D01*
G01X7935736Y-5547888D01*
G01X7935736Y-5526517D01*
G01X7931809Y-5505509D01*
G01X7924088Y-5485580D01*
G01X7912838Y-5467409D01*
G01X7898439Y-5451615D01*
G01X7881384Y-5438736D01*
G01X7862253Y-5429209D01*
G01X7841697Y-5423361D01*
G01X7820416Y-5421389D01*
G01X7820416Y-5421389D01*
G01X7799135Y-5423361D01*
G01X7778579Y-5429209D01*
G01X7759448Y-5438736D01*
G01X7742393Y-5451615D01*
G01X7727995Y-5467409D01*
G01X7716744Y-5485580D01*
G01X7709023Y-5505509D01*
G01X7705096Y-5526517D01*
G01X7585276Y-5526517D01*
G01X7584430Y-5516933D01*
G01X7579123Y-5497288D01*
G01X7570459Y-5478876D01*
G01X7558706Y-5462265D01*
G01X7544227Y-5447967D01*
G01X7527469Y-5436423D01*
G01X7508950Y-5427991D01*
G01X7489240Y-5422931D01*
G01X7468950Y-5421398D01*
G01X7448704Y-5423440D01*
G01X7429128Y-5428994D01*
G01X7410826Y-5437889D01*
G01X7343640Y-5437889D01*
G01X7303006Y-5397255D01*
G01X7303006Y-5109504D01*
G01X7353692Y-5109504D01*
G01X7364759Y-5107751D01*
G01X7374743Y-5102664D01*
G01X7382666Y-5094741D01*
G01X7387753Y-5084757D01*
G01X7389506Y-5073690D01*
G01X7389506Y-5054683D01*
G01X7542688Y-5054683D01*
G01X7544441Y-5065750D01*
G01X7549528Y-5075734D01*
G01X7557452Y-5083657D01*
G01X7567435Y-5088744D01*
G01X7578502Y-5090497D01*
G01X8198501Y-5090497D01*
G01X8209568Y-5088744D01*
G01X8219552Y-5083657D01*
G01X8227475Y-5075734D01*
G01X8232562Y-5065750D01*
G01X8234315Y-5054683D01*
G01X8234315Y-4474684D01*
G01X8234315Y-4474684D01*
G01X8232562Y-4463617D01*
G01X8227475Y-4453633D01*
G01X8219552Y-4445710D01*
G01X8209568Y-4440623D01*
G01X8198501Y-4438870D01*
G01X7578502Y-4438870D01*
G01X7567435Y-4440623D01*
G01X7557452Y-4445710D01*
G01X7549528Y-4453633D01*
G01X7544441Y-4463617D01*
G01X7542688Y-4474684D01*
G01X7542688Y-5054683D01*
G01X7389506Y-5054683D01*
G01X7389506Y-4913690D01*
G01X7387753Y-4902623D01*
G01X7382666Y-4892639D01*
G01X7374743Y-4884716D01*
G01X7364759Y-4879629D01*
G01X7353692Y-4877876D01*
G01X7053693Y-4877876D01*
G01X7041961Y-4879852D01*
G01X7031524Y-4885562D01*
G01X7023533Y-4894376D01*
G01X6944310Y-4894376D01*
G01X6924935Y-4896284D01*
G01X6906304Y-4901936D01*
G01X6889134Y-4911113D01*
G01X6874085Y-4923464D01*
G01X6733170Y-5064379D01*
G01X6714849Y-5064379D01*
G01X6714849Y-5064379D01*
G01X6703782Y-5066132D01*
G01X6693798Y-5071219D01*
G01X6685875Y-5079142D01*
G01X6680788Y-5089126D01*
G01X6679035Y-5100193D01*
G01X6679035Y-5300193D01*
G01X5687792Y-5300193D01*
G01X5691231Y-5298194D01*
G01X5702378Y-5287632D01*
G01X5710797Y-5274789D01*
G01X5716036Y-5260353D01*
G01X5717814Y-5245100D01*
G01X5716036Y-5229847D01*
G01X5710797Y-5215411D01*
G01X5702378Y-5202568D01*
G01X5691231Y-5192006D01*
G01X5677953Y-5184290D01*
G01X5663256Y-5179836D01*
G01X5647929Y-5178882D01*
G01X5632794Y-5181479D01*
G01X5618661Y-5187488D01*
G01X5606290Y-5196586D01*
G01X3741195Y-5196586D01*
G01X3553714Y-5009105D01*
G01X3553714Y-4572000D01*
G01X3552061Y-4559444D01*
G01X3547214Y-4547743D01*
G01X3539505Y-4537695D01*
G01X3495323Y-4493514D01*
G01X3878805Y-4493514D01*
G01X4156695Y-4771405D01*
G01X4166743Y-4779114D01*
G01X4178444Y-4783961D01*
G01X4191000Y-4785614D01*
G01X4214919Y-4785614D01*
G01X4207495Y-4791695D01*
G01X4145505Y-4853686D01*
G01X4062678Y-4853686D01*
G01X4059765Y-4843963D01*
G01X4054240Y-4835447D01*
G01X4046549Y-4828824D01*
G01X4037308Y-4824624D01*
G01X4027260Y-4823186D01*
G01X3946613Y-4823186D01*
G01X3936999Y-4824500D01*
G01X3928091Y-4828347D01*
G01X3920542Y-4834444D01*
G01X3914907Y-4842344D01*
G01X3911600Y-4851466D01*
G01X3908427Y-4842602D01*
G01X3903054Y-4834871D01*
G01X3895851Y-4828808D01*
G01X3887318Y-4824831D01*
G01X3887318Y-4800114D01*
G01X3893743Y-4795194D01*
G01X3898900Y-4788957D01*
G01X3906886Y-4797647D01*
G01X3917262Y-4803269D01*
G01X3928902Y-4805214D01*
G01X4008902Y-4805214D01*
G01X4019969Y-4803461D01*
G01X4029953Y-4798374D01*
G01X4037876Y-4790451D01*
G01X4042963Y-4780467D01*
G01X4044716Y-4769400D01*
G01X4044716Y-4679400D01*
G01X4042963Y-4668333D01*
G01X4037876Y-4658349D01*
G01X4029953Y-4650426D01*
G01X4019969Y-4645339D01*
G01X4008902Y-4643586D01*
G01X3928902Y-4643586D01*
G01X3917262Y-4645531D01*
G01X3906886Y-4651153D01*
G01X3898900Y-4659843D01*
G01X3890914Y-4651153D01*
G01X3880538Y-4645531D01*
G01X3868898Y-4643586D01*
G01X3788898Y-4643586D01*
G01X3777831Y-4645339D01*
G01X3767847Y-4650426D01*
G01X3759924Y-4658349D01*
G01X3754837Y-4668333D01*
G01X3753084Y-4679400D01*
G01X3753084Y-4769400D01*
G01X3754615Y-4779762D01*
G01X3759080Y-4789238D01*
G01X3766095Y-4797016D01*
G01X3775060Y-4802433D01*
G01X3785210Y-4805024D01*
G01X3785210Y-4824831D01*
G01X3776745Y-4828764D01*
G01X3769584Y-4834750D01*
G01X3764214Y-4842384D01*
G01X3760998Y-4851146D01*
G01X3723305Y-4851146D01*
G01X3695105Y-4822946D01*
G01X3692036Y-4808289D01*
G01X3685757Y-4794695D01*
G01X3676588Y-4782856D01*
G01X3664996Y-4773376D01*
G01X3651573Y-4766738D01*
G01X3637003Y-4763282D01*
G01X3622029Y-4763183D01*
G01X3607414Y-4766446D01*
G01X3593904Y-4772904D01*
G01X3582188Y-4782230D01*
G01X3572863Y-4793946D01*
G01X3566404Y-4807456D01*
G01X3563141Y-4822071D01*
G01X3563240Y-4837045D01*
G01X3566697Y-4851615D01*
G01X3573334Y-4865038D01*
G01X3582814Y-4876630D01*
G01X3594653Y-4885799D01*
G01X3608247Y-4892078D01*
G01X3622904Y-4895147D01*
G01X3666058Y-4938301D01*
G01X3676631Y-4946414D01*
G01X3688944Y-4951514D01*
G01X3702158Y-4953254D01*
G01X3760998Y-4953254D01*
G01X3764109Y-4961814D01*
G01X3769279Y-4969313D01*
G01X3776173Y-4975265D01*
G01X3784346Y-4979286D01*
G01X3784346Y-4991100D01*
G01X3786086Y-5004314D01*
G01X3791186Y-5016627D01*
G01X3799299Y-5027201D01*
G01X3837399Y-5065301D01*
G01X3847973Y-5073414D01*
G01X3860286Y-5078514D01*
G01X3873500Y-5080254D01*
G01X4275703Y-5080254D01*
G01X4281389Y-5087733D01*
G01X4288824Y-5093476D01*
G01X4297496Y-5097088D01*
G01X4306810Y-5098320D01*
G01X4536810Y-5098320D01*
G01X4547877Y-5096567D01*
G01X4557861Y-5091480D01*
G01X4565784Y-5083557D01*
G01X4570871Y-5073573D01*
G01X4572624Y-5062506D01*
G01X4572624Y-5038560D01*
G01X5180976Y-5038560D01*
G01X5180976Y-5062506D01*
G01X5182729Y-5073573D01*
G01X5187816Y-5083557D01*
G01X5195739Y-5091480D01*
G01X5205723Y-5096567D01*
G01X5216790Y-5098320D01*
G01X5446790Y-5098320D01*
G01X5457857Y-5096567D01*
G01X5467841Y-5091480D01*
G01X5475764Y-5083557D01*
G01X5480851Y-5073573D01*
G01X5482604Y-5062506D01*
G01X5482604Y-4912506D01*
G01X5480851Y-4901439D01*
G01X5475764Y-4891455D01*
G01X5467841Y-4883532D01*
G01X5457857Y-4878445D01*
G01X5446790Y-4876692D01*
G01X5216790Y-4876692D01*
G01X5205723Y-4878445D01*
G01X5195739Y-4883532D01*
G01X5187816Y-4891455D01*
G01X5182729Y-4901439D01*
G01X5180976Y-4912506D01*
G01X5180976Y-4936452D01*
G01X4572624Y-4936452D01*
G01X4572624Y-4912506D01*
G01X4570871Y-4901439D01*
G01X4565784Y-4891455D01*
G01X4557861Y-4883532D01*
G01X4547877Y-4878445D01*
G01X4536810Y-4876692D01*
G01X4306810Y-4876692D01*
G01X4295743Y-4878445D01*
G01X4285759Y-4883532D01*
G01X4277836Y-4891455D01*
G01X4272749Y-4901439D01*
G01X4270996Y-4912506D01*
G01X4270996Y-4978146D01*
G01X4041764Y-4978146D01*
G01X4051723Y-4971558D01*
G01X4058962Y-4962062D01*
G01X4062678Y-4950714D01*
G01X4165600Y-4950714D01*
G01X4178156Y-4949061D01*
G01X4189857Y-4944214D01*
G01X4199905Y-4936505D01*
G01X4261895Y-4874514D01*
G01X5567905Y-4874514D01*
G01X5617195Y-4923805D01*
G01X5627243Y-4931514D01*
G01X5638944Y-4936361D01*
G01X5651500Y-4938014D01*
G01X6604000Y-4938014D01*
G01X6616556Y-4936361D01*
G01X6628257Y-4931514D01*
G01X6638305Y-4923805D01*
G01X6979695Y-4582414D01*
G01X7017879Y-4582414D01*
G01X7017879Y-4615677D01*
G01X7019632Y-4626744D01*
G01X7024719Y-4636728D01*
G01X7032642Y-4644651D01*
G01X7042626Y-4649738D01*
G01X7053693Y-4651491D01*
G01X7353692Y-4651491D01*
G01X7364759Y-4649738D01*
G01X7374743Y-4644651D01*
G01X7382666Y-4636728D01*
G01X7387753Y-4626744D01*
G01X7389506Y-4615677D01*
G01X7389506Y-4455677D01*
G01X7387753Y-4444610D01*
G01X7382666Y-4434626D01*
G01X7374743Y-4426703D01*
G01X7364759Y-4421616D01*
G01X7353692Y-4419863D01*
G01X7262114Y-4419863D01*
G01X7262114Y-4114756D01*
G01X7353253Y-4023617D01*
G01X7359390Y-4023617D01*
G01X7372298Y-4040624D01*
G01X7388109Y-4054973D01*
G01X7406285Y-4066176D01*
G01X7426209Y-4073852D01*
G01X7447203Y-4077739D01*
G01X7468555Y-4077707D01*
G01X7489537Y-4073756D01*
G01X7509438Y-4066019D01*
G01X7527580Y-4054762D01*
G01X7543347Y-4040365D01*
G01X7556204Y-4023318D01*
G01X7565712Y-4004201D01*
G01X7571550Y-3983663D01*
G01X7573518Y-3962403D01*
G01X7572529Y-3951717D01*
G01X7692396Y-3951717D01*
G01X7692396Y-3973088D01*
G01X7696323Y-3994097D01*
G01X7704044Y-4014025D01*
G01X7715295Y-4032196D01*
G01X7729693Y-4047990D01*
G01X7746748Y-4060869D01*
G01X7765879Y-4070396D01*
G01X7786435Y-4076244D01*
G01X7807716Y-4078216D01*
G01X7828997Y-4076244D01*
G01X7849553Y-4070396D01*
G01X7868684Y-4060869D01*
G01X7885739Y-4047990D01*
G01X7900138Y-4032196D01*
G01X7911388Y-4014025D01*
G01X7919109Y-3994097D01*
G01X7923036Y-3973088D01*
G01X7923036Y-3951717D01*
G01X7919109Y-3930709D01*
G01X7911388Y-3910780D01*
G01X7900138Y-3892609D01*
G01X7885739Y-3876815D01*
G01X7868684Y-3863936D01*
G01X7849553Y-3854409D01*
G01X7828997Y-3848561D01*
G01X7807716Y-3846589D01*
G01X7807716Y-3846589D01*
G01X7786435Y-3848561D01*
G01X7765879Y-3854409D01*
G01X7746748Y-3863936D01*
G01X7729693Y-3876815D01*
G01X7715295Y-3892609D01*
G01X7704044Y-3910780D01*
G01X7696323Y-3930709D01*
G01X7692396Y-3951717D01*
G01X7572529Y-3951717D01*
G01X7571550Y-3941142D01*
G01X7565712Y-3920604D01*
G01X7556204Y-3901487D01*
G01X7543347Y-3884440D01*
G01X7527580Y-3870043D01*
G01X7509438Y-3858786D01*
G01X7489537Y-3851050D01*
G01X7468555Y-3847098D01*
G01X7447203Y-3847066D01*
G01X7426209Y-3850953D01*
G01X7406285Y-3858629D01*
G01X7388109Y-3869832D01*
G01X7372298Y-3884181D01*
G01X7359390Y-3901189D01*
G01X7327897Y-3901189D01*
G01X7315955Y-3902365D01*
G01X7304472Y-3905848D01*
G01X7293889Y-3911505D01*
G01X7284613Y-3919118D01*
G01X7157615Y-4046115D01*
G01X7150002Y-4055391D01*
G01X7144346Y-4065974D01*
G01X7140862Y-4077458D01*
G01X7139686Y-4089400D01*
G01X7139686Y-4419863D01*
G01X7053693Y-4419863D01*
G01X7042626Y-4421616D01*
G01X7032642Y-4426703D01*
G01X7024719Y-4434626D01*
G01X7019632Y-4444610D01*
G01X7017879Y-4455677D01*
G01X7017879Y-4485386D01*
G01X6959600Y-4485386D01*
G01X6947044Y-4487039D01*
G01X6935343Y-4491886D01*
G01X6925295Y-4499595D01*
G01X6583905Y-4840986D01*
G01X5826058Y-4840986D01*
G01X5830984Y-4825492D01*
G01X5831991Y-4809266D01*
G01X5829020Y-4793282D01*
G01X5822250Y-4778501D01*
G01X5812086Y-4765812D01*
G01X5799141Y-4755977D01*
G01X5784191Y-4749587D01*
G01X5768136Y-4747027D01*
G01X5732599Y-4711489D01*
G01X5736605Y-4707905D01*
G01X5901705Y-4542805D01*
G01X5909414Y-4532757D01*
G01X5914261Y-4521056D01*
G01X5915914Y-4508500D01*
G01X5915914Y-4434498D01*
G01X5935110Y-4424674D01*
G01X5952347Y-4411716D01*
G01X5967117Y-4396005D01*
G01X5978988Y-4378002D01*
G01X5987610Y-4358236D01*
G01X5992730Y-4337289D01*
G01X5994046Y-4318000D01*
G01X6502583Y-4318000D01*
G01X6504494Y-4339847D01*
G01X6510170Y-4361031D01*
G01X6519439Y-4380907D01*
G01X6532018Y-4398872D01*
G01X6547525Y-4414379D01*
G01X6565490Y-4426958D01*
G01X6585366Y-4436226D01*
G01X6606549Y-4441902D01*
G01X6628397Y-4443814D01*
G01X6650244Y-4441902D01*
G01X6671428Y-4436226D01*
G01X6691304Y-4426958D01*
G01X6709268Y-4414379D01*
G01X6724776Y-4398872D01*
G01X6737355Y-4380907D01*
G01X6746623Y-4361031D01*
G01X6752299Y-4339847D01*
G01X6754211Y-4318000D01*
G01X6752299Y-4296153D01*
G01X6746623Y-4274969D01*
G01X6737355Y-4255093D01*
G01X6724776Y-4237128D01*
G01X6709268Y-4221621D01*
G01X6691304Y-4209042D01*
G01X6671428Y-4199774D01*
G01X6650244Y-4194098D01*
G01X6628397Y-4192186D01*
G01X6606549Y-4194098D01*
G01X6585366Y-4199774D01*
G01X6565490Y-4209042D01*
G01X6547525Y-4221621D01*
G01X6532018Y-4237128D01*
G01X6519439Y-4255093D01*
G01X6510170Y-4274969D01*
G01X6504494Y-4296153D01*
G01X6502583Y-4318000D01*
G01X6502583Y-4318000D01*
G01X5994046Y-4318000D01*
G01X5994197Y-4315775D01*
G01X5991970Y-4294326D01*
G01X5986112Y-4273573D01*
G01X5976796Y-4254125D01*
G01X5964297Y-4236553D01*
G01X5948980Y-4221374D01*
G01X5931296Y-4209034D01*
G01X5911764Y-4199894D01*
G01X5890959Y-4194225D01*
G01X5869491Y-4192191D01*
G01X5847991Y-4193853D01*
G01X5827090Y-4199162D01*
G01X5807404Y-4207963D01*
G01X5789509Y-4219996D01*
G01X5773932Y-4234908D01*
G01X5761130Y-4252261D01*
G01X5751480Y-4271545D01*
G01X5745265Y-4292194D01*
G01X5742666Y-4313601D01*
G01X5743762Y-4335137D01*
G01X5748519Y-4356170D01*
G01X5756798Y-4376081D01*
G01X5768356Y-4394287D01*
G01X5782853Y-4410251D01*
G01X5799863Y-4423505D01*
G01X5818886Y-4433660D01*
G01X5818886Y-4488405D01*
G01X5682205Y-4625086D01*
G01X5480317Y-4625086D01*
G01X5482028Y-4618893D01*
G01X5482604Y-4612494D01*
G01X5482604Y-4462494D01*
G01X5480851Y-4451427D01*
G01X5475764Y-4441443D01*
G01X5467841Y-4433520D01*
G01X5457857Y-4428433D01*
G01X5446790Y-4426680D01*
G01X5216790Y-4426680D01*
G01X5205723Y-4428433D01*
G01X5195739Y-4433520D01*
G01X5187816Y-4441443D01*
G01X5182729Y-4451427D01*
G01X5180976Y-4462494D01*
G01X5180976Y-4612494D01*
G01X5181553Y-4618893D01*
G01X5183263Y-4625086D01*
G01X4570346Y-4625086D01*
G01X4572050Y-4618905D01*
G01X4572624Y-4612519D01*
G01X4572624Y-4462520D01*
G01X4570871Y-4451453D01*
G01X4565784Y-4441469D01*
G01X4557861Y-4433546D01*
G01X4547877Y-4428459D01*
G01X4536810Y-4426706D01*
G01X4306810Y-4426706D01*
G01X4295743Y-4428459D01*
G01X4285759Y-4433546D01*
G01X4277836Y-4441469D01*
G01X4272749Y-4451453D01*
G01X4270996Y-4462520D01*
G01X4270996Y-4612519D01*
G01X4271570Y-4618905D01*
G01X4273273Y-4625086D01*
G01X4261895Y-4625086D01*
G01X3971305Y-4334495D01*
G01X3961257Y-4326786D01*
G01X3949556Y-4321939D01*
G01X3937000Y-4320286D01*
G01X3479534Y-4320286D01*
G01X3479534Y-4127500D01*
G01X3769086Y-4127500D01*
G01X3770777Y-4142379D01*
G01X3775763Y-4156499D01*
G01X3783789Y-4169140D01*
G01X3794448Y-4179658D01*
G01X3807195Y-4187517D01*
G01X3821379Y-4192315D01*
G01X3836279Y-4193808D01*
G01X3851134Y-4191920D01*
G01X3865187Y-4186748D01*
G01X3877721Y-4178554D01*
G01X3941253Y-4178554D01*
G01X4075105Y-4312407D01*
G01X4085679Y-4320520D01*
G01X4097992Y-4325620D01*
G01X4111206Y-4327360D01*
G01X4270996Y-4327360D01*
G01X4270996Y-4351306D01*
G01X4272749Y-4362373D01*
G01X4277836Y-4372357D01*
G01X4285759Y-4380280D01*
G01X4295743Y-4385367D01*
G01X4306810Y-4387120D01*
G01X4536810Y-4387120D01*
G01X4547877Y-4385367D01*
G01X4557861Y-4380280D01*
G01X4565784Y-4372357D01*
G01X4570871Y-4362373D01*
G01X4572624Y-4351306D01*
G01X4572624Y-4327360D01*
G01X5180976Y-4327360D01*
G01X5180976Y-4351306D01*
G01X5182729Y-4362373D01*
G01X5187816Y-4372357D01*
G01X5195739Y-4380280D01*
G01X5205723Y-4385367D01*
G01X5216790Y-4387120D01*
G01X5446790Y-4387120D01*
G01X5457857Y-4385367D01*
G01X5467841Y-4380280D01*
G01X5475764Y-4372357D01*
G01X5480851Y-4362373D01*
G01X5482604Y-4351306D01*
G01X5482604Y-4201306D01*
G01X5480851Y-4190239D01*
G01X5475764Y-4180255D01*
G01X5467841Y-4172332D01*
G01X5457857Y-4167245D01*
G01X5446790Y-4165492D01*
G01X5216790Y-4165492D01*
G01X5205723Y-4167245D01*
G01X5195739Y-4172332D01*
G01X5187816Y-4180255D01*
G01X5182729Y-4190239D01*
G01X5180976Y-4201306D01*
G01X5180976Y-4225252D01*
G01X4572624Y-4225252D01*
G01X4572624Y-4201306D01*
G01X4570871Y-4190239D01*
G01X4565784Y-4180255D01*
G01X4557861Y-4172332D01*
G01X4547877Y-4167245D01*
G01X4536810Y-4165492D01*
G01X4306810Y-4165492D01*
G01X4295743Y-4167245D01*
G01X4285759Y-4172332D01*
G01X4277836Y-4180255D01*
G01X4272749Y-4190239D01*
G01X4270996Y-4201306D01*
G01X4270996Y-4225252D01*
G01X4132353Y-4225252D01*
G01X3998501Y-4091399D01*
G01X3998501Y-4091399D01*
G01X3987927Y-4083286D01*
G01X3975614Y-4078186D01*
G01X3962400Y-4076446D01*
G01X3877721Y-4076446D01*
G01X3865187Y-4068252D01*
G01X3851134Y-4063080D01*
G01X3836279Y-4061192D01*
G01X3821379Y-4062685D01*
G01X3807195Y-4067483D01*
G01X3794448Y-4075342D01*
G01X3783789Y-4085860D01*
G01X3775763Y-4098501D01*
G01X3770777Y-4112621D01*
G01X3769086Y-4127500D01*
G01X3479534Y-4127500D01*
G01X3479534Y-4068700D01*
G01X3478139Y-4063493D01*
G01X3474327Y-4059681D01*
G01X3469120Y-4058286D01*
G01X2806095Y-4058286D01*
G01X2728214Y-3980405D01*
G01X2728214Y-3949700D01*
G01X3870686Y-3949700D01*
G01X3872377Y-3964579D01*
G01X3877363Y-3978699D01*
G01X3885389Y-3991340D01*
G01X3896048Y-4001858D01*
G01X3908795Y-4009717D01*
G01X3922979Y-4014515D01*
G01X3937879Y-4016008D01*
G01X3952734Y-4014120D01*
G01X3966787Y-4008948D01*
G01X3979321Y-4000754D01*
G01X4060183Y-4000754D01*
G01X4048879Y-4010917D01*
G01X4040187Y-4023388D01*
G01X4034563Y-4037510D01*
G01X4032302Y-4052542D01*
G01X4033524Y-4067694D01*
G01X4038164Y-4082170D01*
G01X4045978Y-4095209D01*
G01X4056557Y-4106125D01*
G01X4069343Y-4114346D01*
G01X4083666Y-4119439D01*
G01X4098772Y-4121137D01*
G01X4113867Y-4119350D01*
G01X4128160Y-4114173D01*
G01X4140897Y-4105877D01*
G01X5601132Y-4105877D01*
G01X5613808Y-4112724D01*
G01X5627663Y-4116672D01*
G01X5642045Y-4117535D01*
G01X5656273Y-4115271D01*
G01X5669676Y-4109988D01*
G01X5681622Y-4101934D01*
G01X5691547Y-4091491D01*
G01X5698982Y-4079151D01*
G01X5703577Y-4065496D01*
G01X5705114Y-4051171D01*
G01X5703521Y-4036853D01*
G01X5698874Y-4023216D01*
G01X5691391Y-4010905D01*
G01X5681425Y-4000500D01*
G01X5691644Y-3989764D01*
G01X5699222Y-3977026D01*
G01X5703782Y-3962924D01*
G01X5705096Y-3948161D01*
G01X5703098Y-3933475D01*
G01X5697889Y-3919599D01*
G01X5689727Y-3907227D01*
G01X5679022Y-3896976D01*
G01X5666307Y-3889360D01*
G01X5652218Y-3884758D01*
G01X5637459Y-3883399D01*
G01X5622767Y-3885353D01*
G01X5608876Y-3890522D01*
G01X5596479Y-3898646D01*
G01X5482604Y-3898646D01*
G01X5482604Y-3751294D01*
G01X5480851Y-3740227D01*
G01X5475764Y-3730243D01*
G01X5467841Y-3722320D01*
G01X5457857Y-3717233D01*
G01X5446790Y-3715480D01*
G01X5382844Y-3715480D01*
G01X5382844Y-3681627D01*
G01X5392479Y-3678651D01*
G01X5400903Y-3673108D01*
G01X5407448Y-3665436D01*
G01X5411595Y-3656244D01*
G01X5413014Y-3646260D01*
G01X5413014Y-3565613D01*
G01X5411700Y-3555999D01*
G01X5407853Y-3547091D01*
G01X5401756Y-3539542D01*
G01X5393856Y-3533907D01*
G01X5384734Y-3530600D01*
G01X5393856Y-3527293D01*
G01X5401756Y-3521658D01*
G01X5407853Y-3514109D01*
G01X5411700Y-3505201D01*
G01X5413014Y-3495587D01*
G01X5413014Y-3414940D01*
G01X5411261Y-3403873D01*
G01X5406174Y-3393889D01*
G01X5398251Y-3385966D01*
G01X5388267Y-3380879D01*
G01X5377200Y-3379126D01*
G01X5290800Y-3379126D01*
G01X5279733Y-3380879D01*
G01X5269749Y-3385966D01*
G01X5261826Y-3393889D01*
G01X5256739Y-3403873D01*
G01X5254986Y-3414940D01*
G01X5254986Y-3495587D01*
G01X5256300Y-3505201D01*
G01X5260147Y-3514109D01*
G01X5266244Y-3521658D01*
G01X5274144Y-3527293D01*
G01X5283266Y-3530600D01*
G01X5274144Y-3533907D01*
G01X5266244Y-3539542D01*
G01X5260147Y-3547091D01*
G01X5256300Y-3555999D01*
G01X5254986Y-3565613D01*
G01X5254986Y-3646260D01*
G01X5256821Y-3657577D01*
G01X5262137Y-3667734D01*
G01X5270391Y-3675690D01*
G01X5280736Y-3680631D01*
G01X5280736Y-3715480D01*
G01X5216790Y-3715480D01*
G01X5205723Y-3717233D01*
G01X5195739Y-3722320D01*
G01X5187816Y-3730243D01*
G01X5182729Y-3740227D01*
G01X5180976Y-3751294D01*
G01X5180976Y-3775265D01*
G01X4572624Y-3775265D01*
G01X4572624Y-3751320D01*
G01X4570871Y-3740253D01*
G01X4565784Y-3730269D01*
G01X4557861Y-3722346D01*
G01X4547877Y-3717259D01*
G01X4536810Y-3715506D01*
G01X4306810Y-3715506D01*
G01X4295743Y-3717259D01*
G01X4285759Y-3722346D01*
G01X4277836Y-3730269D01*
G01X4272749Y-3740253D01*
G01X4270996Y-3751320D01*
G01X4270996Y-3898646D01*
G01X3979321Y-3898646D01*
G01X3979321Y-3898646D01*
G01X3966787Y-3890452D01*
G01X3952734Y-3885280D01*
G01X3937879Y-3883392D01*
G01X3922979Y-3884885D01*
G01X3908795Y-3889683D01*
G01X3896048Y-3897542D01*
G01X3885389Y-3908060D01*
G01X3877363Y-3920701D01*
G01X3872377Y-3934821D01*
G01X3870686Y-3949700D01*
G01X2728214Y-3949700D01*
G01X2728214Y-3740910D01*
G01X2736890Y-3729269D01*
G01X2742824Y-3716020D01*
G01X2745733Y-3701797D01*
G01X2745477Y-3687281D01*
G01X2742069Y-3673169D01*
G01X2735671Y-3660137D01*
G01X2726591Y-3648809D01*
G01X2715263Y-3639729D01*
G01X2702231Y-3633331D01*
G01X2688119Y-3629923D01*
G01X2673603Y-3629667D01*
G01X2659380Y-3632576D01*
G01X2646131Y-3638510D01*
G01X2634490Y-3647186D01*
G01X1943100Y-3647186D01*
G01X1930544Y-3648839D01*
G01X1918843Y-3653686D01*
G01X1908795Y-3661395D01*
G01X1884214Y-3685977D01*
G01X1884214Y-3611402D01*
G01X1882269Y-3599762D01*
G01X1876647Y-3589386D01*
G01X1867957Y-3581400D01*
G01X1876647Y-3573414D01*
G01X1882269Y-3563038D01*
G01X1884214Y-3551398D01*
G01X1884214Y-3471398D01*
G01X1882461Y-3460331D01*
G01X1877374Y-3450347D01*
G01X1869451Y-3442424D01*
G01X1859467Y-3437337D01*
G01X1848400Y-3435584D01*
G01X1827793Y-3435584D01*
G01X1761505Y-3369295D01*
G01X1751457Y-3361586D01*
G01X1739756Y-3356739D01*
G01X1727200Y-3355086D01*
G01X1655485Y-3355086D01*
G01X1644752Y-3344353D01*
G01X1644752Y-3289549D01*
G01X1661476Y-3277367D01*
G01X1675767Y-3262404D01*
G01X1687166Y-3245137D01*
G01X1695311Y-3226116D01*
G01X1699942Y-3205950D01*
G01X1700679Y-3190218D01*
G01X1723387Y-3190218D01*
G01X1725359Y-3211499D01*
G01X1731208Y-3232055D01*
G01X1740734Y-3251186D01*
G01X1753614Y-3268241D01*
G01X1769408Y-3282640D01*
G01X1787579Y-3293890D01*
G01X1807507Y-3301611D01*
G01X1828515Y-3305538D01*
G01X1849887Y-3305538D01*
G01X1870895Y-3301611D01*
G01X1890824Y-3293890D01*
G01X1908995Y-3282640D01*
G01X1924789Y-3268241D01*
G01X1937668Y-3251186D01*
G01X1947194Y-3232055D01*
G01X1953043Y-3211499D01*
G01X1955015Y-3190218D01*
G01X1954427Y-3183867D01*
G01X1977562Y-3183867D01*
G01X1978277Y-3204545D01*
G01X1982660Y-3224765D01*
G01X1990571Y-3243883D01*
G01X2001758Y-3261288D01*
G01X2015863Y-3276425D01*
G01X2032436Y-3288810D01*
G01X2050948Y-3298049D01*
G01X2050948Y-3321284D01*
G01X2050500Y-3321284D01*
G01X2039433Y-3323037D01*
G01X2029449Y-3328124D01*
G01X2021526Y-3336047D01*
G01X2016439Y-3346031D01*
G01X2014686Y-3357098D01*
G01X2014686Y-3437098D01*
G01X2016631Y-3448738D01*
G01X2022253Y-3459114D01*
G01X2030943Y-3467100D01*
G01X2022253Y-3475086D01*
G01X2016631Y-3485462D01*
G01X2014686Y-3497102D01*
G01X2014686Y-3577102D01*
G01X2016439Y-3588169D01*
G01X2021526Y-3598153D01*
G01X2029449Y-3606076D01*
G01X2039433Y-3611163D01*
G01X2050500Y-3612916D01*
G01X2140500Y-3612916D01*
G01X2151567Y-3611163D01*
G01X2161551Y-3606076D01*
G01X2169474Y-3598153D01*
G01X2174561Y-3588169D01*
G01X2176314Y-3577102D01*
G01X2176314Y-3497102D01*
G01X2174369Y-3485462D01*
G01X2168747Y-3475086D01*
G01X2160057Y-3467100D01*
G01X2168747Y-3459114D01*
G01X2174369Y-3448738D01*
G01X2176314Y-3437098D01*
G01X2176314Y-3437098D01*
G01X2176314Y-3359810D01*
G01X6146392Y-3359810D01*
G01X6148329Y-3379478D01*
G01X6154066Y-3398390D01*
G01X6163383Y-3415820D01*
G01X6175920Y-3431097D01*
G01X6191197Y-3443634D01*
G01X6208626Y-3452950D01*
G01X6227538Y-3458687D01*
G01X6247206Y-3460624D01*
G01X6266874Y-3458687D01*
G01X6285786Y-3452950D01*
G01X6303215Y-3443634D01*
G01X6318492Y-3431097D01*
G01X6331030Y-3415820D01*
G01X6340346Y-3398390D01*
G01X6346083Y-3379478D01*
G01X6348020Y-3359810D01*
G01X6348020Y-3359810D01*
G01X6631380Y-3359810D01*
G01X6633317Y-3379478D01*
G01X6639054Y-3398390D01*
G01X6648370Y-3415820D01*
G01X6660908Y-3431097D01*
G01X6676185Y-3443634D01*
G01X6693614Y-3452950D01*
G01X6712526Y-3458687D01*
G01X6732194Y-3460624D01*
G01X6751862Y-3458687D01*
G01X6770774Y-3452950D01*
G01X6788203Y-3443634D01*
G01X6803480Y-3431097D01*
G01X6816017Y-3415820D01*
G01X6825334Y-3398390D01*
G01X6831071Y-3379478D01*
G01X6833008Y-3359810D01*
G01X6833008Y-3359810D01*
G01X6831071Y-3340143D01*
G01X6825334Y-3321231D01*
G01X6816017Y-3303801D01*
G01X6803480Y-3288524D01*
G01X6788203Y-3275987D01*
G01X6770774Y-3266671D01*
G01X6751862Y-3260934D01*
G01X6732194Y-3258997D01*
G01X6712526Y-3260934D01*
G01X6693614Y-3266671D01*
G01X6676185Y-3275987D01*
G01X6660908Y-3288524D01*
G01X6648370Y-3303801D01*
G01X6639054Y-3321231D01*
G01X6633317Y-3340143D01*
G01X6631380Y-3359810D01*
G01X6348020Y-3359810D01*
G01X6346083Y-3340143D01*
G01X6340346Y-3321231D01*
G01X6331030Y-3303801D01*
G01X6318492Y-3288524D01*
G01X6303215Y-3275987D01*
G01X6285786Y-3266671D01*
G01X6266874Y-3260934D01*
G01X6247206Y-3258997D01*
G01X6227538Y-3260934D01*
G01X6208626Y-3266671D01*
G01X6191197Y-3275987D01*
G01X6175920Y-3288524D01*
G01X6163383Y-3303801D01*
G01X6154066Y-3321231D01*
G01X6148329Y-3340143D01*
G01X6146392Y-3359810D01*
G01X2176314Y-3359810D01*
G01X2176314Y-3357098D01*
G01X2174681Y-3346406D01*
G01X2169931Y-3336690D01*
G01X2162497Y-3328835D01*
G01X2153056Y-3323557D01*
G01X2153056Y-3289366D01*
G01X2169743Y-3277133D01*
G01X2183987Y-3262127D01*
G01X2195333Y-3244826D01*
G01X2203420Y-3225781D01*
G01X2207989Y-3205602D01*
G01X2208663Y-3190218D01*
G01X2231387Y-3190218D01*
G01X2233359Y-3211499D01*
G01X2239208Y-3232055D01*
G01X2248734Y-3251186D01*
G01X2261614Y-3268241D01*
G01X2277408Y-3282640D01*
G01X2295579Y-3293890D01*
G01X2315507Y-3301611D01*
G01X2336515Y-3305538D01*
G01X2357887Y-3305538D01*
G01X2378895Y-3301611D01*
G01X2398824Y-3293890D01*
G01X2416995Y-3282640D01*
G01X2432789Y-3268241D01*
G01X2445668Y-3251186D01*
G01X2455194Y-3232055D01*
G01X2461043Y-3211499D01*
G01X2463015Y-3190218D01*
G01X2463015Y-3190218D01*
G01X2485387Y-3190218D01*
G01X2487359Y-3211499D01*
G01X2493208Y-3232055D01*
G01X2502734Y-3251186D01*
G01X2515614Y-3268241D01*
G01X2531408Y-3282640D01*
G01X2549579Y-3293890D01*
G01X2569507Y-3301611D01*
G01X2590515Y-3305538D01*
G01X2611887Y-3305538D01*
G01X2632895Y-3301611D01*
G01X2652824Y-3293890D01*
G01X2670995Y-3282640D01*
G01X2686789Y-3268241D01*
G01X2699668Y-3251186D01*
G01X2709194Y-3232055D01*
G01X2715043Y-3211499D01*
G01X2717015Y-3190218D01*
G01X2717015Y-3190218D01*
G01X2739387Y-3190218D01*
G01X2741359Y-3211499D01*
G01X2747208Y-3232055D01*
G01X2756734Y-3251186D01*
G01X2769614Y-3268241D01*
G01X2785408Y-3282640D01*
G01X2803579Y-3293890D01*
G01X2823507Y-3301611D01*
G01X2844515Y-3305538D01*
G01X2865887Y-3305538D01*
G01X2886895Y-3301611D01*
G01X2906824Y-3293890D01*
G01X2924995Y-3282640D01*
G01X2940789Y-3268241D01*
G01X2953668Y-3251186D01*
G01X2963194Y-3232055D01*
G01X2969043Y-3211499D01*
G01X2971015Y-3190218D01*
G01X2971015Y-3190218D01*
G01X2993387Y-3190218D01*
G01X2995359Y-3211499D01*
G01X3001208Y-3232055D01*
G01X3010734Y-3251186D01*
G01X3023614Y-3268241D01*
G01X3039408Y-3282640D01*
G01X3057579Y-3293890D01*
G01X3077507Y-3301611D01*
G01X3098515Y-3305538D01*
G01X3119887Y-3305538D01*
G01X3140895Y-3301611D01*
G01X3160824Y-3293890D01*
G01X3178995Y-3282640D01*
G01X3194789Y-3268241D01*
G01X3207668Y-3251186D01*
G01X3217194Y-3232055D01*
G01X3223043Y-3211499D01*
G01X3225015Y-3190218D01*
G01X3225015Y-3190218D01*
G01X3247387Y-3190218D01*
G01X3249359Y-3211499D01*
G01X3255208Y-3232055D01*
G01X3264734Y-3251186D01*
G01X3277614Y-3268241D01*
G01X3293408Y-3282640D01*
G01X3311579Y-3293890D01*
G01X3331507Y-3301611D01*
G01X3352515Y-3305538D01*
G01X3373887Y-3305538D01*
G01X3394895Y-3301611D01*
G01X3414824Y-3293890D01*
G01X3432995Y-3282640D01*
G01X3448789Y-3268241D01*
G01X3461668Y-3251186D01*
G01X3471194Y-3232055D01*
G01X3477043Y-3211499D01*
G01X3479015Y-3190218D01*
G01X3479015Y-3190218D01*
G01X3501387Y-3190218D01*
G01X3503359Y-3211499D01*
G01X3509208Y-3232055D01*
G01X3518734Y-3251186D01*
G01X3531614Y-3268241D01*
G01X3547408Y-3282640D01*
G01X3565579Y-3293890D01*
G01X3585507Y-3301611D01*
G01X3606515Y-3305538D01*
G01X3627887Y-3305538D01*
G01X3648895Y-3301611D01*
G01X3668824Y-3293890D01*
G01X3686995Y-3282640D01*
G01X3702789Y-3268241D01*
G01X3715668Y-3251186D01*
G01X3725194Y-3232055D01*
G01X3731043Y-3211499D01*
G01X3733015Y-3190218D01*
G01X3733015Y-3190218D01*
G01X3755387Y-3190218D01*
G01X3757359Y-3211499D01*
G01X3763208Y-3232055D01*
G01X3772734Y-3251186D01*
G01X3785614Y-3268241D01*
G01X3801408Y-3282640D01*
G01X3819579Y-3293890D01*
G01X3839507Y-3301611D01*
G01X3860515Y-3305538D01*
G01X3881887Y-3305538D01*
G01X3902895Y-3301611D01*
G01X3922824Y-3293890D01*
G01X3940995Y-3282640D01*
G01X3956789Y-3268241D01*
G01X3969668Y-3251186D01*
G01X3979194Y-3232055D01*
G01X3985043Y-3211499D01*
G01X3987015Y-3190218D01*
G01X3987015Y-3190218D01*
G01X4009387Y-3190218D01*
G01X4011359Y-3211499D01*
G01X4017208Y-3232055D01*
G01X4026734Y-3251186D01*
G01X4039614Y-3268241D01*
G01X4055408Y-3282640D01*
G01X4073579Y-3293890D01*
G01X4093507Y-3301611D01*
G01X4114515Y-3305538D01*
G01X4135887Y-3305538D01*
G01X4156895Y-3301611D01*
G01X4176824Y-3293890D01*
G01X4194995Y-3282640D01*
G01X4210789Y-3268241D01*
G01X4223668Y-3251186D01*
G01X4233194Y-3232055D01*
G01X4239043Y-3211499D01*
G01X4241015Y-3190218D01*
G01X4241015Y-3190218D01*
G01X4263387Y-3190218D01*
G01X4265359Y-3211499D01*
G01X4271208Y-3232055D01*
G01X4280734Y-3251186D01*
G01X4293614Y-3268241D01*
G01X4309408Y-3282640D01*
G01X4327579Y-3293890D01*
G01X4347507Y-3301611D01*
G01X4368515Y-3305538D01*
G01X4389887Y-3305538D01*
G01X4410895Y-3301611D01*
G01X4430824Y-3293890D01*
G01X4448995Y-3282640D01*
G01X4464789Y-3268241D01*
G01X4477668Y-3251186D01*
G01X4487194Y-3232055D01*
G01X4493043Y-3211499D01*
G01X4495015Y-3190218D01*
G01X4495015Y-3190218D01*
G01X4517387Y-3190218D01*
G01X4519359Y-3211499D01*
G01X4525208Y-3232055D01*
G01X4534734Y-3251186D01*
G01X4547614Y-3268241D01*
G01X4563408Y-3282640D01*
G01X4581579Y-3293890D01*
G01X4601507Y-3301611D01*
G01X4622515Y-3305538D01*
G01X4643887Y-3305538D01*
G01X4664895Y-3301611D01*
G01X4684824Y-3293890D01*
G01X4702995Y-3282640D01*
G01X4718789Y-3268241D01*
G01X4731668Y-3251186D01*
G01X4741194Y-3232055D01*
G01X4747043Y-3211499D01*
G01X4749015Y-3190218D01*
G01X4747043Y-3168937D01*
G01X4741194Y-3148381D01*
G01X4731668Y-3129250D01*
G01X4718789Y-3112195D01*
G01X4702995Y-3097797D01*
G01X4684824Y-3086546D01*
G01X4664895Y-3078825D01*
G01X4643887Y-3074898D01*
G01X4622515Y-3074898D01*
G01X4601507Y-3078825D01*
G01X4581579Y-3086546D01*
G01X4563408Y-3097797D01*
G01X4547614Y-3112195D01*
G01X4534734Y-3129250D01*
G01X4525208Y-3148381D01*
G01X4519359Y-3168937D01*
G01X4517387Y-3190218D01*
G01X4517387Y-3190218D01*
G01X4495015Y-3190218D01*
G01X4493043Y-3168937D01*
G01X4487194Y-3148381D01*
G01X4477668Y-3129250D01*
G01X4464789Y-3112195D01*
G01X4448995Y-3097797D01*
G01X4430824Y-3086546D01*
G01X4410895Y-3078825D01*
G01X4389887Y-3074898D01*
G01X4368515Y-3074898D01*
G01X4347507Y-3078825D01*
G01X4327579Y-3086546D01*
G01X4309408Y-3097797D01*
G01X4293614Y-3112195D01*
G01X4280734Y-3129250D01*
G01X4271208Y-3148381D01*
G01X4265359Y-3168937D01*
G01X4263387Y-3190218D01*
G01X4263387Y-3190218D01*
G01X4241015Y-3190218D01*
G01X4239043Y-3168937D01*
G01X4233194Y-3148381D01*
G01X4223668Y-3129250D01*
G01X4210789Y-3112195D01*
G01X4194995Y-3097797D01*
G01X4176824Y-3086546D01*
G01X4156895Y-3078825D01*
G01X4135887Y-3074898D01*
G01X4114515Y-3074898D01*
G01X4093507Y-3078825D01*
G01X4073579Y-3086546D01*
G01X4055408Y-3097797D01*
G01X4039614Y-3112195D01*
G01X4026734Y-3129250D01*
G01X4017208Y-3148381D01*
G01X4011359Y-3168937D01*
G01X4009387Y-3190218D01*
G01X4009387Y-3190218D01*
G01X3987015Y-3190218D01*
G01X3985043Y-3168937D01*
G01X3979194Y-3148381D01*
G01X3969668Y-3129250D01*
G01X3956789Y-3112195D01*
G01X3940995Y-3097797D01*
G01X3922824Y-3086546D01*
G01X3902895Y-3078825D01*
G01X3881887Y-3074898D01*
G01X3860515Y-3074898D01*
G01X3839507Y-3078825D01*
G01X3819579Y-3086546D01*
G01X3801408Y-3097797D01*
G01X3785614Y-3112195D01*
G01X3772734Y-3129250D01*
G01X3763208Y-3148381D01*
G01X3757359Y-3168937D01*
G01X3755387Y-3190218D01*
G01X3755387Y-3190218D01*
G01X3733015Y-3190218D01*
G01X3731043Y-3168937D01*
G01X3725194Y-3148381D01*
G01X3715668Y-3129250D01*
G01X3702789Y-3112195D01*
G01X3686995Y-3097797D01*
G01X3668824Y-3086546D01*
G01X3648895Y-3078825D01*
G01X3627887Y-3074898D01*
G01X3606515Y-3074898D01*
G01X3585507Y-3078825D01*
G01X3565579Y-3086546D01*
G01X3547408Y-3097797D01*
G01X3531614Y-3112195D01*
G01X3518734Y-3129250D01*
G01X3509208Y-3148381D01*
G01X3503359Y-3168937D01*
G01X3501387Y-3190218D01*
G01X3501387Y-3190218D01*
G01X3479015Y-3190218D01*
G01X3477043Y-3168937D01*
G01X3471194Y-3148381D01*
G01X3461668Y-3129250D01*
G01X3448789Y-3112195D01*
G01X3432995Y-3097797D01*
G01X3414824Y-3086546D01*
G01X3394895Y-3078825D01*
G01X3373887Y-3074898D01*
G01X3352515Y-3074898D01*
G01X3331507Y-3078825D01*
G01X3311579Y-3086546D01*
G01X3293408Y-3097797D01*
G01X3277614Y-3112195D01*
G01X3264734Y-3129250D01*
G01X3255208Y-3148381D01*
G01X3249359Y-3168937D01*
G01X3247387Y-3190218D01*
G01X3247387Y-3190218D01*
G01X3225015Y-3190218D01*
G01X3223043Y-3168937D01*
G01X3217194Y-3148381D01*
G01X3207668Y-3129250D01*
G01X3194789Y-3112195D01*
G01X3178995Y-3097797D01*
G01X3160824Y-3086546D01*
G01X3140895Y-3078825D01*
G01X3119887Y-3074898D01*
G01X3098515Y-3074898D01*
G01X3077507Y-3078825D01*
G01X3057579Y-3086546D01*
G01X3039408Y-3097797D01*
G01X3023614Y-3112195D01*
G01X3010734Y-3129250D01*
G01X3001208Y-3148381D01*
G01X2995359Y-3168937D01*
G01X2993387Y-3190218D01*
G01X2993387Y-3190218D01*
G01X2971015Y-3190218D01*
G01X2969043Y-3168937D01*
G01X2963194Y-3148381D01*
G01X2953668Y-3129250D01*
G01X2940789Y-3112195D01*
G01X2924995Y-3097797D01*
G01X2906824Y-3086546D01*
G01X2886895Y-3078825D01*
G01X2865887Y-3074898D01*
G01X2844515Y-3074898D01*
G01X2823507Y-3078825D01*
G01X2803579Y-3086546D01*
G01X2785408Y-3097797D01*
G01X2769614Y-3112195D01*
G01X2756734Y-3129250D01*
G01X2747208Y-3148381D01*
G01X2741359Y-3168937D01*
G01X2739387Y-3190218D01*
G01X2739387Y-3190218D01*
G01X2717015Y-3190218D01*
G01X2715043Y-3168937D01*
G01X2709194Y-3148381D01*
G01X2699668Y-3129250D01*
G01X2686789Y-3112195D01*
G01X2670995Y-3097797D01*
G01X2652824Y-3086546D01*
G01X2632895Y-3078825D01*
G01X2611887Y-3074898D01*
G01X2590515Y-3074898D01*
G01X2569507Y-3078825D01*
G01X2549579Y-3086546D01*
G01X2531408Y-3097797D01*
G01X2515614Y-3112195D01*
G01X2502734Y-3129250D01*
G01X2493208Y-3148381D01*
G01X2487359Y-3168937D01*
G01X2485387Y-3190218D01*
G01X2485387Y-3190218D01*
G01X2463015Y-3190218D01*
G01X2461043Y-3168937D01*
G01X2455194Y-3148381D01*
G01X2445668Y-3129250D01*
G01X2432789Y-3112195D01*
G01X2416995Y-3097797D01*
G01X2398824Y-3086546D01*
G01X2378895Y-3078825D01*
G01X2357887Y-3074898D01*
G01X2336515Y-3074898D01*
G01X2315507Y-3078825D01*
G01X2295579Y-3086546D01*
G01X2277408Y-3097797D01*
G01X2261614Y-3112195D01*
G01X2248734Y-3129250D01*
G01X2239208Y-3148381D01*
G01X2233359Y-3168937D01*
G01X2231387Y-3190218D01*
G01X2231387Y-3190218D01*
G01X2208663Y-3190218D01*
G01X2208894Y-3184932D01*
G01X2206108Y-3164431D01*
G01X2199718Y-3144752D01*
G01X2189928Y-3126525D01*
G01X2177051Y-3110331D01*
G01X2161499Y-3096686D01*
G01X2143766Y-3086026D01*
G01X2124420Y-3078691D01*
G01X2104077Y-3074916D01*
G01X2083387Y-3074821D01*
G01X2063011Y-3078409D01*
G01X2043598Y-3085565D01*
G01X2025768Y-3096061D01*
G01X2010090Y-3109562D01*
G01X1997065Y-3125637D01*
G01X1987108Y-3143774D01*
G01X1980537Y-3163392D01*
G01X1977562Y-3183867D01*
G01X1954427Y-3183867D01*
G01X1953043Y-3168937D01*
G01X1947194Y-3148381D01*
G01X1937668Y-3129250D01*
G01X1924789Y-3112195D01*
G01X1908995Y-3097797D01*
G01X1890824Y-3086546D01*
G01X1870895Y-3078825D01*
G01X1849887Y-3074898D01*
G01X1828515Y-3074898D01*
G01X1807507Y-3078825D01*
G01X1787579Y-3086546D01*
G01X1769408Y-3097797D01*
G01X1753614Y-3112195D01*
G01X1740734Y-3129250D01*
G01X1731208Y-3148381D01*
G01X1725359Y-3168937D01*
G01X1723387Y-3190218D01*
G01X1723387Y-3190218D01*
G01X1700679Y-3190218D01*
G01X1700910Y-3185282D01*
G01X1698185Y-3164771D01*
G01X1691854Y-3145073D01*
G01X1682119Y-3126815D01*
G01X1669290Y-3110582D01*
G01X1653777Y-3096890D01*
G01X1636076Y-3086177D01*
G01X1616750Y-3078784D01*
G01X1596418Y-3074949D01*
G01X1575728Y-3074792D01*
G01X1555340Y-3078320D01*
G01X1535905Y-3085420D01*
G01X1518044Y-3095864D01*
G01X1502326Y-3109320D01*
G01X1489253Y-3125358D01*
G01X1479243Y-3143466D01*
G01X1472615Y-3163067D01*
G01X1469581Y-3183534D01*
G01X1470236Y-3204214D01*
G01X1474561Y-3224448D01*
G01X1482418Y-3243589D01*
G01X1493555Y-3261027D01*
G01X1507618Y-3276204D01*
G01X1524156Y-3288638D01*
G01X1542644Y-3297929D01*
G01X1542644Y-3365500D01*
G01X1544383Y-3378714D01*
G01X1549484Y-3391027D01*
G01X1557597Y-3401601D01*
G01X1595697Y-3439701D01*
G01X1606271Y-3447814D01*
G01X1618584Y-3452914D01*
G01X1631798Y-3454654D01*
G01X1638300Y-3454654D01*
G01X1646352Y-3454015D01*
G01X1654203Y-3452114D01*
G01X1707105Y-3452114D01*
G01X1722769Y-3467779D01*
G01X1722586Y-3471398D01*
G01X1722586Y-3551398D01*
G01X1724531Y-3563038D01*
G01X1730153Y-3573414D01*
G01X1738843Y-3581400D01*
G01X1730153Y-3589386D01*
G01X1724531Y-3599762D01*
G01X1722586Y-3611402D01*
G01X1722586Y-3691402D01*
G01X1724339Y-3702469D01*
G01X1729426Y-3712453D01*
G01X1737349Y-3720376D01*
G01X1747333Y-3725463D01*
G01X1758400Y-3727216D01*
G01X1842975Y-3727216D01*
G01X1808705Y-3761486D01*
G01X1688463Y-3761486D01*
G01X1677814Y-3743739D01*
G01X1664082Y-3728254D01*
G01X1647735Y-3715560D01*
G01X1629332Y-3706090D01*
G01X1609500Y-3700168D01*
G01X1588918Y-3697995D01*
G01X1568287Y-3699646D01*
G01X1548312Y-3705065D01*
G01X1529675Y-3714066D01*
G01X1513012Y-3726342D01*
G01X1498892Y-3741474D01*
G01X1487797Y-3758946D01*
G01X1354647Y-3758946D01*
G01X1151701Y-3556000D01*
G01X1221486Y-3556000D01*
G01X1223393Y-3576583D01*
G01X1229050Y-3596464D01*
G01X1238264Y-3614968D01*
G01X1250721Y-3631463D01*
G01X1265996Y-3645389D01*
G01X1283571Y-3656271D01*
G01X1302846Y-3663738D01*
G01X1323165Y-3667536D01*
G01X1343835Y-3667536D01*
G01X1364154Y-3663738D01*
G01X1383429Y-3656271D01*
G01X1401004Y-3645389D01*
G01X1416279Y-3631463D01*
G01X1428736Y-3614968D01*
G01X1437950Y-3596464D01*
G01X1443607Y-3576583D01*
G01X1445514Y-3556000D01*
G01X1445514Y-3556000D01*
G01X1443607Y-3535417D01*
G01X1437950Y-3515536D01*
G01X1428736Y-3497032D01*
G01X1416279Y-3480537D01*
G01X1401004Y-3466611D01*
G01X1383429Y-3455729D01*
G01X1364154Y-3448262D01*
G01X1343835Y-3444464D01*
G01X1323165Y-3444464D01*
G01X1302846Y-3448262D01*
G01X1283571Y-3455729D01*
G01X1265996Y-3466611D01*
G01X1250721Y-3480537D01*
G01X1238264Y-3497032D01*
G01X1229050Y-3515536D01*
G01X1223393Y-3535417D01*
G01X1221486Y-3556000D01*
G01X1151701Y-3556000D01*
G01X1128255Y-3532554D01*
G01X1128255Y-3294172D01*
G01X1145948Y-3283420D01*
G01X1161445Y-3269691D01*
G01X1174249Y-3253421D01*
G01X1183951Y-3235132D01*
G01X1190243Y-3215408D01*
G01X1192921Y-3194878D01*
G01X1192692Y-3190218D01*
G01X1215387Y-3190218D01*
G01X1217359Y-3211499D01*
G01X1223208Y-3232055D01*
G01X1232734Y-3251186D01*
G01X1245614Y-3268241D01*
G01X1261408Y-3282640D01*
G01X1279579Y-3293890D01*
G01X1299507Y-3301611D01*
G01X1320515Y-3305538D01*
G01X1341887Y-3305538D01*
G01X1362895Y-3301611D01*
G01X1382824Y-3293890D01*
G01X1400995Y-3282640D01*
G01X1416789Y-3268241D01*
G01X1429668Y-3251186D01*
G01X1439194Y-3232055D01*
G01X1445043Y-3211499D01*
G01X1447015Y-3190218D01*
G01X1445043Y-3168937D01*
G01X1439194Y-3148381D01*
G01X1429668Y-3129250D01*
G01X1416789Y-3112195D01*
G01X1400995Y-3097797D01*
G01X1382824Y-3086546D01*
G01X1362895Y-3078825D01*
G01X1341887Y-3074898D01*
G01X1320515Y-3074898D01*
G01X1299507Y-3078825D01*
G01X1279579Y-3086546D01*
G01X1261408Y-3097797D01*
G01X1245614Y-3112195D01*
G01X1232734Y-3129250D01*
G01X1223208Y-3148381D01*
G01X1217359Y-3168937D01*
G01X1215387Y-3190218D01*
G01X1215387Y-3190218D01*
G01X1192692Y-3190218D01*
G01X1191902Y-3174200D01*
G01X1187217Y-3154033D01*
G01X1179016Y-3135023D01*
G01X1167562Y-3117777D01*
G01X1153220Y-3102845D01*
G01X1136449Y-3090706D01*
G01X1117784Y-3081747D01*
G01X1097822Y-3076255D01*
G01X1077201Y-3074404D01*
G01X1056581Y-3076255D01*
G01X1036619Y-3081747D01*
G01X1017954Y-3090706D01*
G01X1001183Y-3102845D01*
G01X986841Y-3117777D01*
G01X975386Y-3135023D01*
G01X967185Y-3154033D01*
G01X962501Y-3174200D01*
G01X961481Y-3194878D01*
G01X939015Y-3194878D01*
G01X939015Y-3110218D01*
G01X937262Y-3099151D01*
G01X932175Y-3089167D01*
G01X924252Y-3081244D01*
G01X914268Y-3076157D01*
G01X903201Y-3074404D01*
G01X743201Y-3074404D01*
G01X732134Y-3076157D01*
G01X722151Y-3081244D01*
G01X714227Y-3089167D01*
G01X709140Y-3099151D01*
G01X707387Y-3110218D01*
G01X707387Y-3270218D01*
G01X451809Y-3270218D01*
G01X461072Y-3245385D01*
G01X467010Y-3218085D01*
G01X469003Y-3190218D01*
G01X467010Y-3162351D01*
G01X461072Y-3135051D01*
G01X451308Y-3108874D01*
G01X437919Y-3084353D01*
G01X421176Y-3061987D01*
G01X401420Y-3042232D01*
G01X379055Y-3025489D01*
G01X354534Y-3012100D01*
G01X328357Y-3002336D01*
G01X301057Y-2996398D01*
G01X273190Y-2994404D01*
G01X245323Y-2996398D01*
G01X218023Y-3002336D01*
G01X191846Y-3012100D01*
G01X167325Y-3025489D01*
G01X144959Y-3042232D01*
G01X125204Y-3061987D01*
G01X108461Y-3084353D01*
G01X95071Y-3108874D01*
G01X85308Y-3135051D01*
G01X79369Y-3162351D01*
G01X77376Y-3190218D01*
G01X77376Y-3190218D01*
G01X45809Y-3190218D01*
G01X45809Y-2972642D01*
G01X5330588Y-2972642D01*
G01X5311528Y-2981567D01*
G01X5294306Y-2993666D01*
G01X5279445Y-3008569D01*
G01X5267396Y-3025825D01*
G01X5258524Y-3044910D01*
G01X5253100Y-3065246D01*
G01X5251286Y-3086214D01*
G01X5253139Y-3107179D01*
G01X5258603Y-3127504D01*
G01X5267510Y-3146573D01*
G01X5279592Y-3163806D01*
G01X5294481Y-3178681D01*
G01X5311726Y-3190747D01*
G01X5330803Y-3199637D01*
G01X5351133Y-3205081D01*
G01X5372100Y-3206914D01*
G01X5393067Y-3205081D01*
G01X5413397Y-3199637D01*
G01X5432474Y-3190747D01*
G01X5449719Y-3178681D01*
G01X5464608Y-3163806D01*
G01X5476690Y-3146573D01*
G01X5485597Y-3127504D01*
G01X5491061Y-3107179D01*
G01X5492914Y-3086214D01*
G01X5491100Y-3065246D01*
G01X5485676Y-3044910D01*
G01X5476804Y-3025825D01*
G01X5464755Y-3008569D01*
G01X5449894Y-2993666D01*
G01X5432672Y-2981567D01*
G01X5413612Y-2972642D01*
G01X5584588Y-2972642D01*
G01X5565528Y-2981567D01*
G01X5548306Y-2993666D01*
G01X5533445Y-3008569D01*
G01X5521396Y-3025825D01*
G01X5512524Y-3044910D01*
G01X5507100Y-3065246D01*
G01X5505286Y-3086214D01*
G01X5507139Y-3107179D01*
G01X5512603Y-3127504D01*
G01X5521510Y-3146573D01*
G01X5533592Y-3163806D01*
G01X5548481Y-3178681D01*
G01X5565726Y-3190747D01*
G01X5584803Y-3199637D01*
G01X5605133Y-3205081D01*
G01X5626100Y-3206914D01*
G01X5647067Y-3205081D01*
G01X5667397Y-3199637D01*
G01X5686474Y-3190747D01*
G01X5703719Y-3178681D01*
G01X5718608Y-3163806D01*
G01X5730690Y-3146573D01*
G01X5739597Y-3127504D01*
G01X5745061Y-3107179D01*
G01X5746914Y-3086214D01*
G01X5745100Y-3065246D01*
G01X5739676Y-3044910D01*
G01X5730804Y-3025825D01*
G01X5718755Y-3008569D01*
G01X5703894Y-2993666D01*
G01X5686672Y-2981567D01*
G01X5667612Y-2972642D01*
G01X5773357Y-2972642D01*
G01X5765792Y-2980517D01*
G01X5760951Y-2990307D01*
G01X5759286Y-3001100D01*
G01X5759286Y-3171100D01*
G01X5761039Y-3182167D01*
G01X5766126Y-3192151D01*
G01X5774049Y-3200074D01*
G01X5784033Y-3205161D01*
G01X5795100Y-3206914D01*
G01X5965100Y-3206914D01*
G01X5976167Y-3205161D01*
G01X5986151Y-3200074D01*
G01X5994074Y-3192151D01*
G01X5999161Y-3182167D01*
G01X6000914Y-3171100D01*
G01X6000914Y-3001100D01*
G01X5999249Y-2990307D01*
G01X5994408Y-2980517D01*
G01X5986843Y-2972642D01*
G01X6091166Y-2972642D01*
G01X6073108Y-2981727D01*
G01X6057226Y-2994231D01*
G01X6044157Y-3009653D01*
G01X6034428Y-3027373D01*
G01X6028429Y-3046677D01*
G01X6026403Y-3066790D01*
G01X6026403Y-3116790D01*
G01X6028340Y-3136457D01*
G01X6034077Y-3155369D01*
G01X6043393Y-3172799D01*
G01X6055930Y-3188076D01*
G01X6071207Y-3200613D01*
G01X6088637Y-3209929D01*
G01X6107549Y-3215666D01*
G01X6127217Y-3217603D01*
G01X6146884Y-3215666D01*
G01X6165796Y-3209929D01*
G01X6183226Y-3200613D01*
G01X6198503Y-3188076D01*
G01X6211040Y-3172799D01*
G01X6220356Y-3155369D01*
G01X6226093Y-3136457D01*
G01X6228030Y-3116790D01*
G01X6228030Y-3066790D01*
G01X6226004Y-3046677D01*
G01X6220005Y-3027373D01*
G01X6210276Y-3009653D01*
G01X6197208Y-2994231D01*
G01X6181325Y-2981727D01*
G01X6163267Y-2972642D01*
G01X6816133Y-2972642D01*
G01X6798075Y-2981727D01*
G01X6782192Y-2994231D01*
G01X6769124Y-3009653D01*
G01X6759395Y-3027373D01*
G01X6753396Y-3046677D01*
G01X6751370Y-3066790D01*
G01X6751370Y-3116790D01*
G01X6753307Y-3136457D01*
G01X6759044Y-3155369D01*
G01X6768360Y-3172799D01*
G01X6780897Y-3188076D01*
G01X6796174Y-3200613D01*
G01X6813604Y-3209929D01*
G01X6832516Y-3215666D01*
G01X6852183Y-3217603D01*
G01X6871851Y-3215666D01*
G01X6890763Y-3209929D01*
G01X6908193Y-3200613D01*
G01X6920859Y-3190218D01*
G01X7577386Y-3190218D01*
G01X7579380Y-3218085D01*
G01X7585318Y-3245385D01*
G01X7595082Y-3271562D01*
G01X7608471Y-3296083D01*
G01X7625214Y-3318449D01*
G01X7644969Y-3338204D01*
G01X7667335Y-3354947D01*
G01X7691856Y-3368337D01*
G01X7718033Y-3378100D01*
G01X7745333Y-3384039D01*
G01X7773200Y-3386032D01*
G01X7801067Y-3384039D01*
G01X7828367Y-3378100D01*
G01X7854544Y-3368337D01*
G01X7879065Y-3354947D01*
G01X7901431Y-3338204D01*
G01X7921186Y-3318449D01*
G01X7937929Y-3296083D01*
G01X7951318Y-3271562D01*
G01X7961082Y-3245385D01*
G01X7967021Y-3218085D01*
G01X7969014Y-3190218D01*
G01X7967021Y-3162351D01*
G01X7961082Y-3135051D01*
G01X7951318Y-3108874D01*
G01X7937929Y-3084353D01*
G01X7921186Y-3061987D01*
G01X7901431Y-3042232D01*
G01X7879065Y-3025489D01*
G01X7854544Y-3012100D01*
G01X7828367Y-3002336D01*
G01X7801067Y-2996398D01*
G01X7773200Y-2994404D01*
G01X7745333Y-2996398D01*
G01X7718033Y-3002336D01*
G01X7691856Y-3012100D01*
G01X7667335Y-3025489D01*
G01X7644969Y-3042232D01*
G01X7625214Y-3061987D01*
G01X7608471Y-3084353D01*
G01X7595082Y-3108874D01*
G01X7585318Y-3135051D01*
G01X7579380Y-3162351D01*
G01X7577386Y-3190218D01*
G01X7577386Y-3190218D01*
G01X6920859Y-3190218D01*
G01X6923470Y-3188076D01*
G01X6936007Y-3172799D01*
G01X6945323Y-3155369D01*
G01X6951060Y-3136457D01*
G01X6952997Y-3116790D01*
G01X6952997Y-3066790D01*
G01X6950971Y-3046677D01*
G01X6944972Y-3027373D01*
G01X6935243Y-3009653D01*
G01X6922174Y-2994231D01*
G01X6906292Y-2981727D01*
G01X6888234Y-2972642D01*
G01X11711686Y-2972642D01*
G01X11711686Y-6504686D01*
G01X2500187Y-6504686D01*
G01X2521199Y-6490301D01*
G01X2539909Y-6473026D01*
G01X2555922Y-6453226D01*
G01X2568902Y-6431317D01*
G01X2578575Y-6407761D01*
G01X2584737Y-6383052D01*
G01X2587258Y-6357713D01*
G01X2586087Y-6332274D01*
G01X2581246Y-6307274D01*
G01X2572839Y-6283236D01*
G01X2561042Y-6260669D01*
G01X2546103Y-6240046D01*
G01X2528338Y-6221802D01*
G01X2508119Y-6206320D01*
G01X2485873Y-6193928D01*
G01X2462067Y-6184884D01*
G01X2437204Y-6179381D01*
G01X2411806Y-6177534D01*
G01X2386408Y-6179381D01*
G01X2361545Y-6184884D01*
G01X2337740Y-6193928D01*
G01X2315494Y-6206320D01*
G01X2295275Y-6221802D01*
G01X2277509Y-6240046D01*
G01X2262571Y-6260669D01*
G01X2250774Y-6283236D01*
G01X2242366Y-6307274D01*
G01X2237526Y-6332274D01*
G01X2236354Y-6357713D01*
G01X2238876Y-6383052D01*
G01X2245038Y-6407761D01*
G01X2254710Y-6431317D01*
G01X2267690Y-6453226D01*
G01X2283703Y-6473026D01*
G01X2302413Y-6490301D01*
G01X2323426Y-6504686D01*
G37*
G54D10*
G01X2323426Y-6504686D02*
G01X1280261Y-6504686D01*
G03X1191793Y-6177585I-88467J151587D01*
G03X1103326Y-6504686I0J-175514D01*
G01X45809Y-6504686D01*
G01X45809Y-4976814D01*
G01X307086Y-4976814D01*
G01X307086Y-5524500D01*
G03X336174Y-5594726I99314J0D01*
G01X564774Y-5823326D01*
G03X635000Y-5852414I70226J70226D01*
G01X847081Y-5852414D01*
G03X1122497Y-5870240I144713J99314D01*
G03X1074724Y-5598414I-130703J117140D01*
G01X2273300Y-5598414D01*
G03X2343526Y-5569326I0J99314D01*
G01X2483226Y-5429626D01*
G03X2512314Y-5359400I-70226J70226D01*
G01X2512314Y-5297039D01*
G03X2410358Y-4977644I-100508J143887D01*
G03X2313686Y-5298677I1448J-175508D01*
G01X2313686Y-5318263D01*
G01X2232163Y-5399786D01*
G01X980937Y-5399786D01*
G01X810514Y-5229363D01*
G01X810514Y-3822700D01*
G03X786814Y-3758312I-99314J0D01*
G01X786814Y-3466400D01*
G03X776400Y-3455986I-10414J0D01*
G01X45809Y-3455986D01*
G01X45809Y-2972642D01*
G01X5330588Y-2972642D01*
G03X5372100Y-3206914I41512J-113458D01*
G03X5413612Y-2972642I0J120814D01*
G01X5584588Y-2972642D01*
G03X5626100Y-3206914I41512J-113458D01*
G03X5667612Y-2972642I0J120814D01*
G01X5773357Y-2972642D01*
G03X5759286Y-3001100I21743J-28458D01*
G01X5759286Y-3171100D01*
G03X5795100Y-3206914I35814J0D01*
G01X5965100Y-3206914D01*
G03X6000914Y-3171100I0J35814D01*
G01X6000914Y-3001100D01*
G03X5986843Y-2972642I-35814J0D01*
G01X6091166Y-2972642D01*
G03X6026403Y-3066790I36050J-94148D01*
G01X6026403Y-3116790D01*
G03X6228030Y-3116790I100814J0D01*
G01X6228030Y-3066790D01*
G03X6163267Y-2972642I-100814J0D01*
G01X6816133Y-2972642D01*
G03X6751370Y-3066790I36050J-94148D01*
G01X6751370Y-3116790D01*
G03X6952997Y-3116790I100814J0D01*
G01X6952997Y-3066790D01*
G03X6888234Y-2972642I-100814J0D01*
G01X11711686Y-2972642D01*
G01X11711686Y-6504686D01*
G01X2500187Y-6504686D01*
G03X2411806Y-6177534I-88380J151638D01*
G03X2323426Y-6504686I0J-175514D01*
G01X77376Y-3190218D02*
G03X469003Y-3190218I195814J0D01*
G03X77376Y-3190218I-195814J0D01*
G01X77376Y-6290237D02*
G03X469003Y-6290237I195814J0D01*
G03X77376Y-6290237I-195814J0D01*
G01X903201Y-3306032D02*
G03X939015Y-3270218I0J35814D01*
G01X939015Y-3110218D01*
G03X903201Y-3074404I-35814J0D01*
G01X743201Y-3074404D01*
G03X707387Y-3110218I0J-35814D01*
G01X707387Y-3270218D01*
G03X743201Y-3306032I35814J0D01*
G01X903201Y-3306032D01*
G01X3253067Y-5562181D02*
G03X3267277Y-5596486I48514J0D01*
G01X3407395Y-5736605D01*
G03X3441700Y-5750814I34305J34305D01*
G01X5644390Y-5750814D01*
G03X5755914Y-5702300I45210J48514D01*
G03X5644390Y-5653786I-66314J0D01*
G01X3461795Y-5653786D01*
G01X3350095Y-5542086D01*
G01X3350095Y-4800334D01*
G01X3456686Y-4800334D01*
G01X3456686Y-5029200D01*
G03X3470895Y-5063505I48514J0D01*
G01X3686795Y-5279405D01*
G03X3721100Y-5293614I34305J34305D01*
G01X5606290Y-5293614D01*
G03X5717814Y-5245100I45210J48514D01*
G03X5606290Y-5196586I-66314J0D01*
G01X3741195Y-5196586D01*
G01X3553714Y-5009105D01*
G01X3553714Y-4572000D01*
G03X3539505Y-4537695I-48514J0D01*
G01X3495323Y-4493514D01*
G01X3878805Y-4493514D01*
G01X4156695Y-4771405D01*
G03X4191000Y-4785614I34305J34305D01*
G01X4214919Y-4785614D01*
G03X4207495Y-4791695I26881J-40386D01*
G01X4145505Y-4853686D01*
G01X4062678Y-4853686D01*
G03X4027260Y-4823186I-35418J-5314D01*
G01X3946613Y-4823186D01*
G03X3911600Y-4851466I0J-35814D01*
G03X3887318Y-4824831I-35013J-7534D01*
G01X3887318Y-4800114D01*
G03X3898900Y-4788957I-18420J30714D01*
G03X3928902Y-4805214I30002J19557D01*
G01X4008902Y-4805214D01*
G03X4044716Y-4769400I0J35814D01*
G01X4044716Y-4679400D01*
G03X4008902Y-4643586I-35814J0D01*
G01X3928902Y-4643586D01*
G03X3898900Y-4659843I0J-35814D01*
G03X3868898Y-4643586I-30002J-19557D01*
G01X3788898Y-4643586D01*
G03X3753084Y-4679400I0J-35814D01*
G01X3753084Y-4769400D01*
G03X3785210Y-4805024I35814J0D01*
G01X3785210Y-4824831D01*
G03X3760998Y-4851146I10730J-34169D01*
G01X3723305Y-4851146D01*
G01X3695105Y-4822946D01*
G03X3582188Y-4782230I-66026J-6175D01*
G03X3622904Y-4895147I46891J-46891D01*
G01X3666058Y-4938301D01*
G03X3702158Y-4953254I36101J36101D01*
G01X3760998Y-4953254D01*
G03X3784346Y-4979286I34942J7854D01*
G01X3784346Y-4991100D01*
G03X3799299Y-5027201I51054J0D01*
G01X3837399Y-5065301D01*
G03X3873500Y-5080254I36101J36101D01*
G01X4275703Y-5080254D01*
G03X4306810Y-5098320I31107J17748D01*
G01X4536810Y-5098320D01*
G03X4572624Y-5062506I0J35814D01*
G01X4572624Y-5038560D01*
G01X5180976Y-5038560D01*
G01X5180976Y-5062506D01*
G03X5216790Y-5098320I35814J0D01*
G01X5446790Y-5098320D01*
G03X5482604Y-5062506I0J35814D01*
G01X5482604Y-4912506D01*
G03X5446790Y-4876692I-35814J0D01*
G01X5216790Y-4876692D01*
G03X5180976Y-4912506I0J-35814D01*
G01X5180976Y-4936452D01*
G01X4572624Y-4936452D01*
G01X4572624Y-4912506D01*
G03X4536810Y-4876692I-35814J0D01*
G01X4306810Y-4876692D01*
G03X4270996Y-4912506I0J-35814D01*
G01X4270996Y-4978146D01*
G01X4041764Y-4978146D01*
G03X4062678Y-4950714I-14504J32746D01*
G01X4165600Y-4950714D01*
G03X4199905Y-4936505I0J48514D01*
G01X4261895Y-4874514D01*
G01X5567905Y-4874514D01*
G01X5617195Y-4923805D01*
G03X5651500Y-4938014I34305J34305D01*
G01X6604000Y-4938014D01*
G03X6638305Y-4923805I0J48514D01*
G01X6979695Y-4582414D01*
G01X7017879Y-4582414D01*
G01X7017879Y-4615677D01*
G03X7053693Y-4651491I35814J0D01*
G01X7353692Y-4651491D01*
G03X7389506Y-4615677I0J35814D01*
G01X7389506Y-4455677D01*
G03X7353692Y-4419863I-35814J0D01*
G01X7262114Y-4419863D01*
G01X7262114Y-4114756D01*
G01X7353253Y-4023617D01*
G01X7359390Y-4023617D01*
G03X7573518Y-3962403I98314J61214D01*
G03X7359390Y-3901189I-115814J0D01*
G01X7327897Y-3901189D01*
G03X7284613Y-3919118I0J-61214D01*
G01X7157615Y-4046115D01*
G03X7139686Y-4089400I43285J-43285D01*
G01X7139686Y-4419863D01*
G01X7053693Y-4419863D01*
G03X7017879Y-4455677I0J-35814D01*
G01X7017879Y-4485386D01*
G01X6959600Y-4485386D01*
G03X6925295Y-4499595I0J-48514D01*
G01X6583905Y-4840986D01*
G01X5826058Y-4840986D01*
G03X5768136Y-4747027I-60258J27686D01*
G01X5732599Y-4711489D01*
G03X5736605Y-4707905I-30299J37889D01*
G01X5901705Y-4542805D01*
G03X5915914Y-4508500I-34305J34305D01*
G01X5915914Y-4434498D01*
G03X5869491Y-4192191I-47511J116498D01*
G03X5818886Y-4433660I-1087J-125809D01*
G01X5818886Y-4488405D01*
G01X5682205Y-4625086D01*
G01X5480317Y-4625086D01*
G03X5482604Y-4612494I-33527J12592D01*
G01X5482604Y-4462494D01*
G03X5446790Y-4426680I-35814J0D01*
G01X5216790Y-4426680D01*
G03X5180976Y-4462494I0J-35814D01*
G01X5180976Y-4612494D01*
G03X5183263Y-4625086I35814J0D01*
G01X4570346Y-4625086D01*
G03X4572624Y-4612519I-33537J12567D01*
G01X4572624Y-4462520D01*
G03X4536810Y-4426706I-35814J0D01*
G01X4306810Y-4426706D01*
G03X4270996Y-4462520I0J-35814D01*
G01X4270996Y-4612519D01*
G03X4273273Y-4625086I35814J0D01*
G01X4261895Y-4625086D01*
G01X3971305Y-4334495D01*
G03X3937000Y-4320286I-34305J-34305D01*
G01X3479534Y-4320286D01*
G01X3479534Y-4068700D01*
G03X3469120Y-4058286I-10414J0D01*
G01X2806095Y-4058286D01*
G01X2728214Y-3980405D01*
G01X2728214Y-3740910D01*
G03X2726591Y-3648809I-48514J45210D01*
G03X2634490Y-3647186I-46891J-46891D01*
G01X1943100Y-3647186D01*
G03X1908795Y-3661395I0J-48514D01*
G01X1884214Y-3685977D01*
G01X1884214Y-3611402D01*
G03X1867957Y-3581400I-35814J0D01*
G03X1884214Y-3551398I-19557J30002D01*
G01X1884214Y-3471398D01*
G03X1848400Y-3435584I-35814J0D01*
G01X1827793Y-3435584D01*
G01X1761505Y-3369295D01*
G03X1727200Y-3355086I-34305J-34305D01*
G01X1655485Y-3355086D01*
G01X1644752Y-3344353D01*
G01X1644752Y-3289549D01*
G03X1575728Y-3074792I-59550J99331D01*
G03X1542644Y-3297929I9473J-115426D01*
G01X1542644Y-3365500D01*
G03X1557597Y-3401601I51054J0D01*
G01X1595697Y-3439701D01*
G03X1631798Y-3454654I36101J36101D01*
G01X1638300Y-3454654D01*
G03X1654203Y-3452114I0J51054D01*
G01X1707105Y-3452114D01*
G01X1722769Y-3467779D01*
G03X1722586Y-3471398I35631J-3619D01*
G01X1722586Y-3551398D01*
G03X1738843Y-3581400I35814J0D01*
G03X1722586Y-3611402I19557J-30002D01*
G01X1722586Y-3691402D01*
G03X1758400Y-3727216I35814J0D01*
G01X1842975Y-3727216D01*
G01X1808705Y-3761486D01*
G01X1688463Y-3761486D01*
G03X1487797Y-3758946I-100963J-48514D01*
G01X1354647Y-3758946D01*
G01X1128255Y-3532554D01*
G01X1128255Y-3294172D01*
G03X1077201Y-3074404I-51054J103954D01*
G03X1026147Y-3294172I0J-115814D01*
G01X1026147Y-3553701D01*
G03X1041101Y-3589802I51054J0D01*
G01X1171978Y-3720679D01*
G01X1171978Y-3746794D01*
G03X967486Y-3810000I-92478J-63206D01*
G03X1171978Y-3873206I112014J0D01*
G01X1171978Y-4284662D01*
G03X1195400Y-4506214I23423J-109538D01*
G01X1243000Y-4506214D01*
G03X1274086Y-4286586I0J112014D01*
G01X1274086Y-3822787D01*
G01X1297399Y-3846101D01*
G03X1333500Y-3861054I36101J36101D01*
G01X1487797Y-3861054D01*
G03X1688463Y-3858514I99703J51054D01*
G01X1828800Y-3858514D01*
G03X1863105Y-3844305I0J48514D01*
G01X1963195Y-3744214D01*
G01X2631186Y-3744214D01*
G01X2631186Y-4000500D01*
G03X2645395Y-4034805I48514J0D01*
G01X2737486Y-4126895D01*
G01X2737486Y-4789920D01*
G03X2747900Y-4800334I10414J0D01*
G01X3253067Y-4800334D01*
G01X3253067Y-5562181D01*
G01X1367307Y-5153101D02*
G03X1016279Y-5153101I-175514J0D01*
G03X1367307Y-5153101I175514J0D01*
G01X1661701Y-4612099D02*
G03X1625600Y-4597146I-36101J-36101D01*
G01X1342702Y-4597146D01*
G03X1243000Y-4536186I-99703J-51054D01*
G01X1195400Y-4536186D01*
G03X1195400Y-4760214I0J-112014D01*
G01X1243000Y-4760214D01*
G03X1342702Y-4699254I0J112014D01*
G01X1604453Y-4699254D01*
G01X1716499Y-4811301D01*
G03X1752600Y-4826254I36101J36101D01*
G01X2374900Y-4826254D01*
G03X2411001Y-4811301I0J51054D01*
G01X2499901Y-4722401D01*
G03X2514854Y-4686300I-36101J36101D01*
G01X2514854Y-4205641D01*
G01X2532651Y-4205641D01*
G03X2568465Y-4169827I0J35814D01*
G01X2568465Y-4056573D01*
G03X2532651Y-4020759I-35814J0D01*
G01X2394949Y-4020759D01*
G03X2359135Y-4056573I0J-35814D01*
G01X2359135Y-4169827D01*
G03X2394949Y-4205641I35814J0D01*
G01X2412746Y-4205641D01*
G01X2412746Y-4665153D01*
G01X2353753Y-4724146D01*
G01X2087337Y-4724146D01*
G03X2005000Y-4536186I-82337J75946D01*
G01X1957400Y-4536186D01*
G03X1875063Y-4724146I0J-112014D01*
G01X1773747Y-4724146D01*
G01X1661701Y-4612099D01*
G01X1215387Y-3190218D02*
G03X1447015Y-3190218I115814J0D01*
G03X1215387Y-3190218I-115814J0D01*
G01X1445514Y-3556000D02*
G03X1221486Y-3556000I-112014J0D01*
G03X1445514Y-3556000I112014J0D01*
G01X1723387Y-3190218D02*
G03X1955015Y-3190218I115814J0D01*
G03X1723387Y-3190218I-115814J0D01*
G01X2005000Y-4282186D02*
G01X1957400Y-4282186D01*
G03X1957400Y-4506214I0J-112014D01*
G01X2005000Y-4506214D01*
G03X2005000Y-4282186I0J112014D01*
G01X2133704Y-4149067D02*
G03X2164800Y-4167114I31096J17767D01*
G01X2254800Y-4167114D01*
G03X2290614Y-4131300I0J35814D01*
G01X2290614Y-3971300D01*
G03X2289557Y-3962664I-35814J0D01*
G01X2359135Y-3962664D01*
G01X2359135Y-3969827D01*
G03X2394949Y-4005641I35814J0D01*
G01X2532651Y-4005641D01*
G03X2568465Y-3969827I0J35814D01*
G01X2568465Y-3856573D01*
G03X2532651Y-3820759I-35814J0D01*
G01X2394949Y-3820759D01*
G03X2359135Y-3856573I0J-35814D01*
G01X2359135Y-3860536D01*
G01X2120900Y-3860536D01*
G03X2084792Y-3875492I0J-51064D01*
G01X2046692Y-3913592D01*
G03X2031736Y-3949700I36108J-36108D01*
G01X2031736Y-3953663D01*
G03X2019300Y-3966314I51064J-62637D01*
G03X1874986Y-4016300I-63500J-49986D01*
G01X1874986Y-4086300D01*
G03X2019300Y-4136286I80814J0D01*
G03X2133704Y-4149067I63500J49986D01*
G01X2176314Y-3437098D02*
G01X2176314Y-3357098D01*
G03X2153056Y-3323557I-35814J0D01*
G01X2153056Y-3289366D01*
G03X2083387Y-3074821I-59855J99147D01*
G03X2050948Y-3298049I9814J-115397D01*
G01X2050948Y-3321284D01*
G01X2050500Y-3321284D01*
G03X2014686Y-3357098I0J-35814D01*
G01X2014686Y-3437098D01*
G03X2030943Y-3467100I35814J0D01*
G03X2014686Y-3497102I19557J-30002D01*
G01X2014686Y-3577102D01*
G03X2050500Y-3612916I35814J0D01*
G01X2140500Y-3612916D01*
G03X2176314Y-3577102I0J35814D01*
G01X2176314Y-3497102D01*
G03X2160057Y-3467100I-35814J0D01*
G03X2176314Y-3437098I-19557J30002D01*
G01X2231387Y-3190218D02*
G03X2463015Y-3190218I115814J0D01*
G03X2231387Y-3190218I-115814J0D01*
G01X2485387Y-3190218D02*
G03X2717015Y-3190218I115814J0D01*
G03X2485387Y-3190218I-115814J0D01*
G01X2739387Y-3190218D02*
G03X2971015Y-3190218I115814J0D01*
G03X2739387Y-3190218I-115814J0D01*
G01X2993387Y-3190218D02*
G03X3225015Y-3190218I115814J0D01*
G03X2993387Y-3190218I-115814J0D01*
G01X3316115Y-6172200D02*
G03X3024487Y-6172200I-145814J0D01*
G03X3316115Y-6172200I145814J0D01*
G01X3247387Y-3190218D02*
G03X3479015Y-3190218I115814J0D01*
G03X3247387Y-3190218I-115814J0D01*
G01X3501387Y-3190218D02*
G03X3733015Y-3190218I115814J0D01*
G03X3501387Y-3190218I-115814J0D01*
G01X3816114Y-6172200D02*
G03X3524486Y-6172200I-145814J0D01*
G03X3816114Y-6172200I145814J0D01*
G01X3755387Y-3190218D02*
G03X3987015Y-3190218I115814J0D01*
G03X3755387Y-3190218I-115814J0D01*
G01X3998501Y-4091399D02*
G03X3962400Y-4076446I-36101J-36101D01*
G01X3877721Y-4076446D01*
G03X3769086Y-4127500I-42321J-51054D01*
G03X3877721Y-4178554I66314J0D01*
G01X3941253Y-4178554D01*
G01X4075105Y-4312407D01*
G03X4111206Y-4327360I36101J36101D01*
G01X4270996Y-4327360D01*
G01X4270996Y-4351306D01*
G03X4306810Y-4387120I35814J0D01*
G01X4536810Y-4387120D01*
G03X4572624Y-4351306I0J35814D01*
G01X4572624Y-4327360D01*
G01X5180976Y-4327360D01*
G01X5180976Y-4351306D01*
G03X5216790Y-4387120I35814J0D01*
G01X5446790Y-4387120D01*
G03X5482604Y-4351306I0J35814D01*
G01X5482604Y-4201306D01*
G03X5446790Y-4165492I-35814J0D01*
G01X5216790Y-4165492D01*
G03X5180976Y-4201306I0J-35814D01*
G01X5180976Y-4225252D01*
G01X4572624Y-4225252D01*
G01X4572624Y-4201306D01*
G03X4536810Y-4165492I-35814J0D01*
G01X4306810Y-4165492D01*
G03X4270996Y-4201306I0J-35814D01*
G01X4270996Y-4225252D01*
G01X4132353Y-4225252D01*
G01X3998501Y-4091399D01*
G01X3979321Y-3898646D02*
G03X3870686Y-3949700I-42321J-51054D01*
G03X3979321Y-4000754I66314J0D01*
G01X4060183Y-4000754D01*
G03X4045978Y-4095209I38394J-54069D01*
G03X4140897Y-4105877I52598J40385D01*
G01X5601132Y-4105877D01*
G03X5691547Y-4091491I37668J54577D01*
G03X5681425Y-4000500I-52747J40191D01*
G03X5689727Y-3907227I-42625J50800D01*
G03X5596479Y-3898646I-50927J-42473D01*
G01X5482604Y-3898646D01*
G01X5482604Y-3751294D01*
G03X5446790Y-3715480I-35814J0D01*
G01X5382844Y-3715480D01*
G01X5382844Y-3681627D01*
G03X5413014Y-3646260I-5644J35366D01*
G01X5413014Y-3565613D01*
G03X5384734Y-3530600I-35814J0D01*
G03X5413014Y-3495587I-7534J35013D01*
G01X5413014Y-3414940D01*
G03X5377200Y-3379126I-35814J0D01*
G01X5290800Y-3379126D01*
G03X5254986Y-3414940I0J-35814D01*
G01X5254986Y-3495587D01*
G03X5283266Y-3530600I35814J0D01*
G03X5254986Y-3565613I7534J-35013D01*
G01X5254986Y-3646260D01*
G03X5280736Y-3680631I35814J0D01*
G01X5280736Y-3715480D01*
G01X5216790Y-3715480D01*
G03X5180976Y-3751294I0J-35814D01*
G01X5180976Y-3775265D01*
G01X4572624Y-3775265D01*
G01X4572624Y-3751320D01*
G03X4536810Y-3715506I-35814J0D01*
G01X4306810Y-3715506D01*
G03X4270996Y-3751320I0J-35814D01*
G01X4270996Y-3898646D01*
G01X3979321Y-3898646D01*
G01X4009387Y-3190218D02*
G03X4241015Y-3190218I115814J0D01*
G03X4009387Y-3190218I-115814J0D01*
G01X4316113Y-6172200D02*
G03X4024485Y-6172200I-145814J0D01*
G03X4316113Y-6172200I145814J0D01*
G01X4263387Y-3190218D02*
G03X4495015Y-3190218I115814J0D01*
G03X4263387Y-3190218I-115814J0D01*
G01X4517387Y-3190218D02*
G03X4749015Y-3190218I115814J0D01*
G03X4517387Y-3190218I-115814J0D01*
G01X4950414Y-6172200D02*
G03X4658787Y-6172200I-145814J0D01*
G03X4950414Y-6172200I145814J0D01*
G01X5450413Y-6172200D02*
G03X5158786Y-6172200I-145814J0D01*
G03X5450413Y-6172200I145814J0D01*
G01X6348020Y-3359810D02*
G03X6146392Y-3359810I-100814J0D01*
G03X6348020Y-3359810I100814J0D01*
G01X6449014Y-6172200D02*
G03X6157387Y-6172200I-145814J0D01*
G03X6449014Y-6172200I145814J0D01*
G01X6502583Y-4318000D02*
G03X6754211Y-4318000I125814J0D01*
G03X6502583Y-4318000I-125814J0D01*
G01X6833008Y-3359810D02*
G03X6631380Y-3359810I-100814J0D01*
G03X6833008Y-3359810I100814J0D01*
G01X6703886Y-6065437D02*
G03X6803200Y-6318014I99314J-106763D01*
G03X6902514Y-6065437I0J145814D01*
G01X6902514Y-5742075D01*
G03X6909965Y-5720207I-28363J21868D01*
G01X6909965Y-5520207D01*
G03X6874151Y-5484393I-35814J0D01*
G01X6714849Y-5484393D01*
G03X6679035Y-5520207I0J-35814D01*
G01X6679035Y-5720207D01*
G03X6703886Y-5754302I35814J0D01*
G01X6703886Y-6065437D01*
G01X6714849Y-5064379D02*
G03X6679035Y-5100193I0J-35814D01*
G01X6679035Y-5300193D01*
G03X6714849Y-5336007I35814J0D01*
G01X6874151Y-5336007D01*
G03X6909965Y-5300193I0J35814D01*
G01X6909965Y-5168487D01*
G01X6985447Y-5093004D01*
G01X7023533Y-5093004D01*
G03X7053693Y-5109504I30160J19314D01*
G01X7104378Y-5109504D01*
G01X7104378Y-5438392D01*
G03X7133467Y-5508618I99314J0D01*
G01X7232276Y-5607427D01*
G03X7302503Y-5636517I70227J70224D01*
G01X7410826Y-5636517D01*
G03X7586218Y-5537203I59578J99314D01*
G03X7410826Y-5437889I-115814J0D01*
G01X7343640Y-5437889D01*
G01X7303006Y-5397255D01*
G01X7303006Y-5109504D01*
G01X7353692Y-5109504D01*
G03X7389506Y-5073690I0J35814D01*
G01X7389506Y-4913690D01*
G03X7353692Y-4877876I-35814J0D01*
G01X7053693Y-4877876D01*
G03X7023533Y-4894376I0J-35814D01*
G01X6944310Y-4894376D01*
G03X6874085Y-4923464I0J-99314D01*
G01X6733170Y-5064379D01*
G01X6714849Y-5064379D01*
G01X8234315Y-4474684D02*
G03X8198501Y-4438870I-35814J0D01*
G01X7578502Y-4438870D01*
G03X7542688Y-4474684I0J-35814D01*
G01X7542688Y-5054683D01*
G03X7578502Y-5090497I35814J0D01*
G01X8198501Y-5090497D01*
G03X8234315Y-5054683I0J35814D01*
G01X8234315Y-4474684D01*
G01X7577386Y-3190218D02*
G03X7969014Y-3190218I195814J0D01*
G03X7577386Y-3190218I-195814J0D01*
G01X7577386Y-6290237D02*
G03X7969014Y-6290237I195814J0D01*
G03X7577386Y-6290237I-195814J0D01*
G01X7807716Y-3846589D02*
G03X7807716Y-4078216I0J-115814D01*
G03X7807716Y-3846589I0J115814D01*
G01X7820416Y-5421389D02*
G03X7820416Y-5653016I0J-115814D01*
G03X7820416Y-5421389I0J115814D01*
G54D11*
G01X823201Y-3190218D02*
G01X717547Y-3190218D01*
G01X823201Y-3190218D02*
G01X928855Y-3190218D01*
G01X823201Y-3190218D02*
G01X823201Y-3084564D01*
G01X823201Y-3190218D02*
G01X823201Y-3295872D01*
G01X1079500Y-3810000D02*
G01X977646Y-3810000D01*
G01X1079500Y-3810000D02*
G01X1079500Y-3911854D01*
G01X1079500Y-3810000D02*
G01X1079500Y-3708146D01*
G01X1839201Y-3190218D02*
G01X1733547Y-3190218D01*
G01X1839201Y-3190218D02*
G01X1944855Y-3190218D01*
G01X1839201Y-3190218D02*
G01X1839201Y-3084564D01*
G01X1839201Y-3190218D02*
G01X1839201Y-3295872D01*
G01X1981200Y-4648200D02*
G01X1981200Y-4546346D01*
G01X1981200Y-4648200D02*
G01X2106854Y-4648200D01*
G01X1981200Y-4648200D02*
G01X1855546Y-4648200D01*
G01X1955800Y-4051300D02*
G01X1885146Y-4051300D01*
G01X1955800Y-4051300D02*
G01X1955800Y-4156954D01*
G01X1955800Y-4051300D02*
G01X1955800Y-3945646D01*
G01X3670300Y-6172200D02*
G01X3805954Y-6172200D01*
G01X3670300Y-6172200D02*
G01X3534646Y-6172200D01*
G01X3670300Y-6172200D02*
G01X3670300Y-6307854D01*
G01X3670300Y-6172200D02*
G01X3670300Y-6036546D01*
G01X4633201Y-3190218D02*
G01X4527547Y-3190218D01*
G01X4633201Y-3190218D02*
G01X4738855Y-3190218D01*
G01X4633201Y-3190218D02*
G01X4633201Y-3084564D01*
G01X4633201Y-3190218D02*
G01X4633201Y-3295872D01*
G01X5304600Y-6172200D02*
G01X5440253Y-6172200D01*
G01X5304600Y-6172200D02*
G01X5168946Y-6172200D01*
G01X5304600Y-6172200D02*
G01X5304600Y-6307854D01*
G01X5304600Y-6172200D02*
G01X5304600Y-6036546D01*
G01X5372100Y-3086100D02*
G01X5482754Y-3086100D01*
G01X5372100Y-3086100D02*
G01X5261446Y-3086100D01*
G01X5372100Y-3086100D02*
G01X5372100Y-3196754D01*
G01X6127217Y-3091790D02*
G01X6217870Y-3091790D01*
G01X6127217Y-3091790D02*
G01X6036563Y-3091790D01*
G01X6127217Y-3091790D02*
G01X6127217Y-3207443D01*
G01X6247206Y-3359810D02*
G01X6337860Y-3359810D01*
G01X6247206Y-3359810D02*
G01X6156552Y-3359810D01*
G01X6247206Y-3359810D02*
G01X6247206Y-3450464D01*
G01X6247206Y-3359810D02*
G01X6247206Y-3269157D01*
G01X6303201Y-6172200D02*
G01X6438854Y-6172200D01*
G01X6303201Y-6172200D02*
G01X6167547Y-6172200D01*
G01X6303201Y-6172200D02*
G01X6303201Y-6307854D01*
G01X6303201Y-6172200D02*
G01X6303201Y-6036546D01*
G01X6732194Y-3359810D02*
G01X6822848Y-3359810D01*
G01X6732194Y-3359810D02*
G01X6641540Y-3359810D01*
G01X6732194Y-3359810D02*
G01X6732194Y-3450464D01*
G01X6732194Y-3359810D02*
G01X6732194Y-3269157D01*
G01X6852183Y-3091790D02*
G01X6942837Y-3091790D01*
G01X6852183Y-3091790D02*
G01X6761530Y-3091790D01*
G01X6852183Y-3091790D02*
G01X6852183Y-3207443D01*
G01X7807716Y-3962403D02*
G01X7807716Y-3856749D01*
G01X7807716Y-3962403D02*
G01X7807716Y-4068056D01*
G01X7807716Y-3962403D02*
G01X7913370Y-3962403D01*
G01X7807716Y-3962403D02*
G01X7702062Y-3962403D01*
G01X7820416Y-5537203D02*
G01X7820416Y-5431549D01*
G01X7820416Y-5537203D02*
G01X7820416Y-5642856D01*
G01X7820416Y-5537203D02*
G01X7926070Y-5537203D01*
G01X7820416Y-5537203D02*
G01X7714762Y-5537203D01*
G01X6628397Y-4318000D02*
G01X6512743Y-4318000D01*
G01X6628397Y-4318000D02*
G01X6744051Y-4318000D01*
G01X6628397Y-4318000D02*
G01X6628397Y-4202346D01*
G01X6628397Y-4318000D02*
G01X6628397Y-4433654D01*
G01X1803400Y-3651402D02*
G01X1803400Y-3717056D01*
G01X1803400Y-3651402D02*
G01X1874054Y-3651402D01*
G01X1803400Y-3651402D02*
G01X1732746Y-3651402D01*
G01X2095500Y-3537102D02*
G01X2095500Y-3602756D01*
G01X2095500Y-3537102D02*
G01X2166154Y-3537102D01*
G01X2095500Y-3537102D02*
G01X2024846Y-3537102D01*
G01X3968902Y-4724400D02*
G01X4034556Y-4724400D01*
G01X3968902Y-4724400D02*
G01X3968902Y-4653746D01*
G01X3968902Y-4724400D02*
G01X3968902Y-4795054D01*
G01X4421810Y-4537519D02*
G01X4562464Y-4537519D01*
G01X4421810Y-4537519D02*
G01X4281156Y-4537519D01*
G01X4421810Y-4537519D02*
G01X4421810Y-4436866D01*
G01X5331790Y-4537494D02*
G01X5472444Y-4537494D01*
G01X5331790Y-4537494D02*
G01X5191136Y-4537494D01*
G01X5331790Y-4537494D02*
G01X5331790Y-4436840D01*
G01X5334000Y-3455264D02*
G01X5334000Y-3389286D01*
G01X5334000Y-3455264D02*
G01X5402854Y-3455264D01*
G01X5334000Y-3455264D02*
G01X5265146Y-3455264D01*
G01X7888502Y-4764683D02*
G01X8224155Y-4764683D01*
G01X7888502Y-4764683D02*
G01X7552848Y-4764683D01*
G01X7888502Y-4764683D02*
G01X7888502Y-5080337D01*
G01X7888502Y-4764683D02*
G01X7888502Y-4449030D01*
G04 Copper End*

G04 Pad Start*
G54D12*
G01X6628397Y-4318000D03*
G01X5868403Y-4318000D03*
G54D13*
G01X7470404Y-5537203D03*
G01X7820416Y-5537203D03*
G01X7457704Y-3962403D03*
G01X7807716Y-3962403D03*
G54D14*
G01X2095500Y-3537102D03*
G01X2095500Y-3397098D03*
G01X1803400Y-3651402D03*
G01X1803400Y-3511398D03*
G54D15*
G01X3968902Y-4724400D03*
G01X3828898Y-4724400D03*
G54D16*
G01X6794500Y-5620207D03*
G01X6794500Y-5200193D03*
G54D18*
G01X5880100Y-3086100D03*
G54D19*
G01X5626100Y-3086100D03*
G01X5372100Y-3086100D03*
G54D20*
G01X1079500Y-3810000D03*
G01X1333500Y-3556000D03*
G01X1587500Y-3810000D03*
G54D21*
G01X1955800Y-4051300D03*
G01X2082800Y-4051300D03*
G54D22*
G01X2209800Y-4051300D03*
G54D23*
G01X5334000Y-3605936D03*
G01X5334000Y-3455264D03*
G54D24*
G01X2463800Y-4113200D03*
G01X2463800Y-3913200D03*
G54D25*
G01X3986936Y-4902200D03*
G01X3836264Y-4902200D03*
G54D26*
G01X2411806Y-5153152D03*
G01X991794Y-5753100D03*
G01X1191793Y-6353099D03*
G01X1191793Y-5153101D03*
G01X2411806Y-6353048D03*
G54D27*
G01X5331790Y-3826294D03*
G01X4421810Y-3826319D03*
G01X5331790Y-4276306D03*
G01X4421810Y-4276306D03*
G01X5331790Y-4537494D03*
G01X4421810Y-4537519D03*
G01X5331790Y-4987506D03*
G01X4421810Y-4987506D03*
G54D28*
G01X7203692Y-4993690D03*
G01X7203692Y-4535677D03*
G54D29*
G01X7888502Y-4764683D03*
G54D13*
G01X4633201Y-3190218D03*
G01X4379201Y-3190218D03*
G01X4125201Y-3190218D03*
G01X3871201Y-3190218D03*
G01X3617201Y-3190218D03*
G01X3363201Y-3190218D03*
G01X3109201Y-3190218D03*
G01X2855201Y-3190218D03*
G01X2601201Y-3190218D03*
G01X2347201Y-3190218D03*
G01X2093201Y-3190218D03*
G01X1839201Y-3190218D03*
G01X1585201Y-3190218D03*
G01X1331201Y-3190218D03*
G01X1077201Y-3190218D03*
G54D30*
G01X823201Y-3190218D03*
G54D31*
G01X273190Y-3190218D03*
G01X273190Y-6290237D03*
G01X7773200Y-3190218D03*
G01X7773200Y-6290237D03*
G54D32*
G01X1981200Y-4394200D03*
G01X1981200Y-4648200D03*
G01X1219200Y-4394200D03*
G01X1219200Y-4648200D03*
G54D33*
G01X6803200Y-6172200D03*
G01X6303201Y-6172200D03*
G01X4170299Y-6172200D03*
G01X3670300Y-6172200D03*
G01X3170301Y-6172200D03*
G01X5304600Y-6172200D03*
G01X4804601Y-6172200D03*
G01X406400Y-4716399D03*
G01X406400Y-4216400D03*
G01X406400Y-3716401D03*
G54D34*
G01X6247206Y-3359810D03*
G01X6732194Y-3359810D03*
G54D35*
G01X6852183Y-3091790D03*
G01X6127217Y-3091790D03*
G04 Pad End*

G04 Via Start*
G54D36*
G01X3629079Y-4829121D03*
G01X3835400Y-4127500D03*
G01X3937000Y-3949700D03*
G01X4098577Y-4054823D03*
G01X5638800Y-3949700D03*
G01X5638800Y-4051300D03*
G01X2997200Y-4368800D03*
G01X3098800Y-4445000D03*
G01X3124200Y-4572000D03*
G01X3301581Y-4610519D03*
G01X5689600Y-5702300D03*
G01X5651500Y-5245100D03*
G01X5765800Y-4813300D03*
G01X3213100Y-4267200D03*
G01X2679700Y-3695700D03*
G01X7632700Y-4521200D03*
G01X7733308Y-4521200D03*
G01X7833952Y-4521200D03*
G01X7934596Y-4521200D03*
G01X8035239Y-4521200D03*
G01X8135883Y-4521200D03*
G01X7632700Y-4610100D03*
G01X7733308Y-4610100D03*
G01X7833952Y-4610100D03*
G01X7934596Y-4610100D03*
G01X8035239Y-4610100D03*
G01X8135883Y-4610100D03*
G01X7634502Y-4705144D03*
G01X7735109Y-4705144D03*
G01X7835753Y-4705144D03*
G01X7936397Y-4705144D03*
G01X8037041Y-4705144D03*
G01X8137685Y-4705144D03*
G01X7632700Y-4787900D03*
G01X7733308Y-4787900D03*
G01X7833952Y-4787900D03*
G01X7934596Y-4787900D03*
G01X8035239Y-4787900D03*
G01X8135883Y-4787900D03*
G01X7632700Y-4889500D03*
G01X7733308Y-4889500D03*
G01X7833952Y-4889500D03*
G01X7934596Y-4889500D03*
G01X8035239Y-4889500D03*
G01X8135883Y-4889500D03*
G01X7632700Y-4978400D03*
G01X7733308Y-4978400D03*
G01X7833952Y-4978400D03*
G01X7934596Y-4978400D03*
G01X8035239Y-4978400D03*
G01X8135883Y-4978400D03*
G04 Via End*

G04 Track Start*
G54D37*
G01X1219200Y-4648200D02*
G01X1625600Y-4648200D01*
G01X1752600Y-4775200D01*
G01X2374900Y-4775200D01*
G01X2463800Y-4686300D01*
G01X2463800Y-4113200D01*
G54D38*
G01X6803200Y-6172200D02*
G01X6803200Y-5628907D01*
G01X6794500Y-5620207D01*
G01X6794500Y-5200193D02*
G01X6794500Y-5143500D01*
G01X6944310Y-4993690D02*
G01X7203692Y-4993690D01*
G01X6794500Y-5143500D02*
G01X6944310Y-4993690D01*
G01X7203692Y-4993690D02*
G01X7203692Y-5438392D01*
G01X7302500Y-5537200D01*
G01X7302503Y-5537203D02*
G01X7470404Y-5537203D01*
G54D39*
G01X7457704Y-3962403D02*
G01X7327897Y-3962403D01*
G01X7200900Y-4089400D01*
G01X7200900Y-4532884D01*
G54D37*
G01X1585201Y-3190218D02*
G01X1593698Y-3198714D01*
G01X2102002Y-3390900D02*
G01X2102002Y-3199019D01*
G01X2093201Y-3190218D01*
G01X3836264Y-4902200D02*
G01X3702158Y-4902200D01*
G01X3629079Y-4829121D01*
G01X3836264Y-4902200D02*
G01X3836264Y-4731766D01*
G01X3828898Y-4724400D01*
G01X4421810Y-4987506D02*
G01X4380116Y-5029200D01*
G01X3873500Y-5029200D02*
G01X3835400Y-4991100D01*
G01X3835400Y-4903064D01*
G01X3836264Y-4902200D01*
G01X4380116Y-5029200D02*
G01X3873500Y-5029200D01*
G01X5331790Y-3826294D02*
G01X5331790Y-3608146D01*
G01X5334000Y-3605936D01*
G01X4421810Y-4276306D02*
G01X5331790Y-4276306D01*
G01X4421810Y-3826319D02*
G01X5331765Y-3826319D01*
G01X1333500Y-3810000D02*
G01X1587500Y-3810000D01*
G01X1077201Y-3190218D02*
G01X1077201Y-3553701D01*
G01X1219200Y-4394200D02*
G01X1223032Y-4390368D01*
G01X1223032Y-3699532D01*
G01X1077201Y-3553701D02*
G01X1223032Y-3699532D01*
G01X1333500Y-3810000D01*
G01X4421810Y-4276306D02*
G01X4111206Y-4276306D01*
G01X3962400Y-4127500D01*
G01X3835400Y-4127500D01*
G01X4098577Y-4054823D02*
G01X5635277Y-4054823D01*
G01X5638800Y-4051300D01*
G01X3937000Y-3949700D02*
G01X5638800Y-3949700D01*
G01X5331790Y-4987506D02*
G01X4421810Y-4987506D01*
G54D38*
G01X991794Y-5753100D02*
G01X635000Y-5753100D01*
G01X406400Y-5524500D01*
G01X406400Y-4716399D01*
G01X406400Y-3716401D02*
G01X604901Y-3716401D01*
G01X711200Y-3822700D01*
G01X2273300Y-5499100D02*
G01X2413000Y-5359400D01*
G01X2413000Y-5154346D01*
G01X2411806Y-5153152D01*
G01X711200Y-3822700D02*
G01X711200Y-5270500D01*
G01X939800Y-5499100D01*
G01X2273300Y-5499100D01*
G54D11*
G01X4241800Y-4673600D02*
G01X5702300Y-4673600D01*
G01X5867400Y-4508500D01*
G01X5867400Y-4319003D01*
G01X5868403Y-4318000D01*
G01X3441700Y-5702300D02*
G01X5689600Y-5702300D01*
G01X2997200Y-4368800D02*
G01X3937000Y-4368800D01*
G01X4241800Y-4673600D01*
G01X3098800Y-4445000D02*
G01X3898900Y-4445000D01*
G01X4191000Y-4737100D01*
G01X5689600Y-4737100D01*
G01X5765800Y-4813300D01*
G01X3124200Y-4572000D02*
G01X3136900Y-4572000D01*
G01X3213100Y-4495800D01*
G01X3301581Y-4610519D02*
G01X3301581Y-5562181D01*
G01X3441700Y-5702300D01*
G01X3213100Y-4495800D02*
G01X3429000Y-4495800D01*
G01X3505200Y-4572000D01*
G01X3505200Y-5029200D01*
G01X3721100Y-5245100D01*
G01X5651500Y-5245100D01*
G01X3213100Y-4267200D02*
G01X2895600Y-4267200D01*
G01X2832100Y-4203700D01*
G01X2832100Y-4152900D01*
G01X2679700Y-4000500D02*
G01X2679700Y-3695700D01*
G01X2832100Y-4152900D02*
G01X2679700Y-4000500D01*
G01X1587500Y-3810000D02*
G01X1828800Y-3810000D01*
G01X1943100Y-3695700D01*
G01X2679700Y-3695700D01*
G01X3986936Y-4902200D02*
G01X4165600Y-4902200D01*
G01X4241800Y-4826000D01*
G01X5588000Y-4826000D01*
G01X5651500Y-4889500D01*
G01X6604000Y-4889500D02*
G01X6959600Y-4533900D01*
G01X7201916Y-4533900D01*
G54D39*
G01X7200900Y-4532884D02*
G01X7201916Y-4533900D01*
G01X7203692Y-4535677D01*
G54D11*
G01X5651500Y-4889500D02*
G01X6604000Y-4889500D01*
G01X1803400Y-3511398D02*
G01X1803400Y-3479800D01*
G01X1727200Y-3403600D01*
G01X1638300Y-3403600D01*
G54D37*
G01X1593698Y-3198714D02*
G01X1593698Y-3365500D01*
G01X1631798Y-3403600D01*
G01X1638300Y-3403600D01*
G54D40*
G01X2082800Y-4051300D02*
G01X2082800Y-3949700D01*
G01X2120900Y-3911600D01*
G01X2462200Y-3911600D01*
G01X2463800Y-3913200D01*
G04 Track End*

M02*

