G04 Layer: TopLayer*
G04 EasyEDA Pro v3.2.149.88089769, 2026-10-02 10:17:39*
G04 Gerber Generator version 0.3*
G04 Scale: 100 percent, Rotated: No, Reflected: No*
G04 Dimensions in millimeters*
G04 Leading zeros omitted, absolute positions, 4 integers and 5 decimals*
G04 Generated by one-click*
G04 Object Configs: Pad,Via,Track,Text,Image,Dimension,BoardOutline,BoardCutout,CopperFilled,SolidRegion,FPCStiffener,Line,PlaneZone,ComponentProperty,ComponentSilkscreen,TearDrop*
G04 Layer Configs: 1,15,16,2,3,4,5,6,7,8,9,10,11,13,14,56*
G04 Copper Areas: 130*
%FSLAX45Y45*%
%MOMM*%
%ADD10C,0.2032*%
%ADD11C,0.254*%
%ADD12R,6.19999X5.79999*%
%ADD13C,1.8*%
%ADD14C,1.6*%
%ADD15R,0.8X0.9*%
%ADD16R,1.48501X1.72799*%
%ADD17R,2.0792X2.05999*%
%ADD18R,2.07X2.05999*%
%ADD19R,2.05999X2.07*%
%ADD20R,2.0X1.59301*%
%ADD21R,1.7X1.7*%
%ADD22C,1.7*%
%ADD23C,1.524*%
%ADD24O,0.9X1.6*%
%ADD25R,0.9X1.6*%
%ADD26R,1.37701X1.13254*%
%ADD27R,0.86401X0.80648*%
%ADD28R,0.80648X0.86401*%
%ADD29C,2.794*%
%ADD30R,2.99999X2.0*%
%ADD31O,0.44801X1.68399*%
%ADD32O,1.68399X0.44801*%
%ADD33R,1.6X1.6*%
%ADD34C,3.19999*%
%ADD35O,2.0X1.524*%
%ADD36C,2.2*%
%ADD37R,0.4X2.0*%
%ADD38C,1.3*%
%ADD39O,1.3X1.8*%
%ADD40C,0.61*%
%ADD41C,0.508*%
%ADD42C,0.3048*%
%ADD43C,0.305*%
%ADD44C,1.27*%
G75*


G04 Copper Start*
G36*
G01X11711686Y-6504686D02*
G01X2500187Y-6504686D01*
G01X2521199Y-6490301D01*
G01X2539909Y-6473026D01*
G01X2555922Y-6453226D01*
G01X2568902Y-6431317D01*
G01X2578575Y-6407761D01*
G01X2584737Y-6383052D01*
G01X2587258Y-6357713D01*
G01X2586087Y-6332274D01*
G01X2581246Y-6307274D01*
G01X2572839Y-6283236D01*
G01X2561042Y-6260669D01*
G01X2546103Y-6240046D01*
G01X2528338Y-6221802D01*
G01X2508119Y-6206320D01*
G01X2485873Y-6193928D01*
G01X2462067Y-6184884D01*
G01X2437204Y-6179381D01*
G01X2411806Y-6177534D01*
G01X2386408Y-6179381D01*
G01X2361545Y-6184884D01*
G01X2337740Y-6193928D01*
G01X2315494Y-6206320D01*
G01X2295275Y-6221802D01*
G01X2277509Y-6240046D01*
G01X2262571Y-6260669D01*
G01X2250774Y-6283236D01*
G01X2242366Y-6307274D01*
G01X2237526Y-6332274D01*
G01X2236354Y-6357713D01*
G01X2238876Y-6383052D01*
G01X2245038Y-6407761D01*
G01X2254710Y-6431317D01*
G01X2267690Y-6453226D01*
G01X2283703Y-6473026D01*
G01X2302413Y-6490301D01*
G01X2323426Y-6504686D01*
G01X1280261Y-6504686D01*
G01X1301985Y-6489712D01*
G01X1321218Y-6471650D01*
G01X1337527Y-6450909D01*
G01X1350542Y-6427958D01*
G01X1359970Y-6403315D01*
G01X1365598Y-6377538D01*
G01X1367297Y-6351208D01*
G01X1365031Y-6324920D01*
G01X1358849Y-6299270D01*
G01X1348892Y-6274836D01*
G01X1335385Y-6252171D01*
G01X1318634Y-6231786D01*
G01X1299015Y-6214143D01*
G01X1276974Y-6199640D01*
G01X1253007Y-6188606D01*
G01X1253007Y-6059862D01*
G01X1300585Y-6012285D01*
G01X1308198Y-6003009D01*
G01X1313854Y-5992426D01*
G01X1317338Y-5980942D01*
G01X1318514Y-5969000D01*
G01X1318514Y-5588000D01*
G01X1317338Y-5576058D01*
G01X1313854Y-5564574D01*
G01X1308198Y-5553991D01*
G01X1300585Y-5544715D01*
G01X957212Y-5201343D01*
G01X957212Y-4637865D01*
G01X1083864Y-4637865D01*
G01X1083864Y-4658535D01*
G01X1087662Y-4678854D01*
G01X1095129Y-4698129D01*
G01X1106011Y-4715704D01*
G01X1119937Y-4730979D01*
G01X1136432Y-4743436D01*
G01X1154936Y-4752650D01*
G01X1174818Y-4758307D01*
G01X1195400Y-4760214D01*
G01X1243000Y-4760214D01*
G01X1263582Y-4758307D01*
G01X1283464Y-4752650D01*
G01X1301968Y-4743436D01*
G01X1318463Y-4730979D01*
G01X1332389Y-4715704D01*
G01X1343271Y-4698129D01*
G01X1350738Y-4678854D01*
G01X1354536Y-4658535D01*
G01X1354536Y-4637865D01*
G01X1350738Y-4617546D01*
G01X1343271Y-4598271D01*
G01X1332389Y-4580696D01*
G01X1318463Y-4565421D01*
G01X1301968Y-4552964D01*
G01X1283464Y-4543750D01*
G01X1263582Y-4538093D01*
G01X1243000Y-4536186D01*
G01X1243000Y-4536186D01*
G01X1195400Y-4536186D01*
G01X1174818Y-4538093D01*
G01X1154936Y-4543750D01*
G01X1136432Y-4552964D01*
G01X1119937Y-4565421D01*
G01X1106011Y-4580696D01*
G01X1095129Y-4598271D01*
G01X1087662Y-4617546D01*
G01X1083864Y-4637865D01*
G01X957212Y-4637865D01*
G01X957212Y-4476057D01*
G01X977856Y-4455414D01*
G01X1101592Y-4455414D01*
G01X1112954Y-4470027D01*
G01X1126567Y-4482569D01*
G01X1142060Y-4492699D01*
G01X1159010Y-4500138D01*
G01X1176953Y-4504685D01*
G01X1195400Y-4506214D01*
G01X1243000Y-4506214D01*
G01X1263582Y-4504307D01*
G01X1283464Y-4498650D01*
G01X1301968Y-4489436D01*
G01X1318463Y-4476979D01*
G01X1332389Y-4461704D01*
G01X1343271Y-4444129D01*
G01X1350738Y-4424854D01*
G01X1354536Y-4404535D01*
G01X1354536Y-4383865D01*
G01X1350738Y-4363546D01*
G01X1343271Y-4344271D01*
G01X1332389Y-4326696D01*
G01X1318463Y-4311421D01*
G01X1301968Y-4298964D01*
G01X1283464Y-4289750D01*
G01X1263582Y-4284093D01*
G01X1243000Y-4282186D01*
G01X1195400Y-4282186D01*
G01X1176953Y-4283715D01*
G01X1159010Y-4288262D01*
G01X1142060Y-4295701D01*
G01X1126567Y-4305831D01*
G01X1112954Y-4318373D01*
G01X1101592Y-4332986D01*
G01X952500Y-4332986D01*
G01X940558Y-4334162D01*
G01X929074Y-4337646D01*
G01X918491Y-4343302D01*
G01X909215Y-4350915D01*
G01X852713Y-4407417D01*
G01X845101Y-4416693D01*
G01X839444Y-4427276D01*
G01X835960Y-4438760D01*
G01X834784Y-4450702D01*
G01X834784Y-5226698D01*
G01X835960Y-5238640D01*
G01X839444Y-5250124D01*
G01X845101Y-5260707D01*
G01X852713Y-5269983D01*
G01X1196086Y-5613356D01*
G01X1196086Y-5943644D01*
G01X1148509Y-5991222D01*
G01X1140896Y-6000498D01*
G01X1135239Y-6011081D01*
G01X1131756Y-6022564D01*
G01X1130579Y-6034507D01*
G01X1130579Y-6188606D01*
G01X1106613Y-6199640D01*
G01X1084572Y-6214143D01*
G01X1064953Y-6231786D01*
G01X1048201Y-6252171D01*
G01X1034694Y-6274836D01*
G01X1024738Y-6299270D01*
G01X1018556Y-6324920D01*
G01X1016290Y-6351208D01*
G01X1017989Y-6377538D01*
G01X1023616Y-6403315D01*
G01X1033044Y-6427958D01*
G01X1046060Y-6450909D01*
G01X1062369Y-6471650D01*
G01X1081602Y-6489712D01*
G01X1103326Y-6504686D01*
G01X45809Y-6504686D01*
G01X45809Y-6290237D01*
G01X77376Y-6290237D01*
G01X79369Y-6318105D01*
G01X85308Y-6345404D01*
G01X95071Y-6371581D01*
G01X108461Y-6396102D01*
G01X125204Y-6418468D01*
G01X144959Y-6438223D01*
G01X167325Y-6454966D01*
G01X191846Y-6468356D01*
G01X218023Y-6478119D01*
G01X245323Y-6484058D01*
G01X273190Y-6486051D01*
G01X301057Y-6484058D01*
G01X328357Y-6478119D01*
G01X354534Y-6468356D01*
G01X379055Y-6454966D01*
G01X401420Y-6438223D01*
G01X421176Y-6418468D01*
G01X437919Y-6396102D01*
G01X451308Y-6371581D01*
G01X461072Y-6345404D01*
G01X467010Y-6318105D01*
G01X469003Y-6290237D01*
G01X467010Y-6262370D01*
G01X461072Y-6235070D01*
G01X451308Y-6208893D01*
G01X437919Y-6184372D01*
G01X421176Y-6162007D01*
G01X401420Y-6142251D01*
G01X379055Y-6125508D01*
G01X354534Y-6112119D01*
G01X328357Y-6102356D01*
G01X301057Y-6096417D01*
G01X273190Y-6094424D01*
G01X245323Y-6096417D01*
G01X218023Y-6102356D01*
G01X191846Y-6112119D01*
G01X167325Y-6125508D01*
G01X144959Y-6142251D01*
G01X125204Y-6162007D01*
G01X108461Y-6184372D01*
G01X95071Y-6208893D01*
G01X85308Y-6235070D01*
G01X79369Y-6262370D01*
G01X77376Y-6290237D01*
G01X77376Y-6290237D01*
G01X45809Y-6290237D01*
G01X45809Y-5753100D01*
G01X816280Y-5753100D01*
G01X818240Y-5779259D01*
G01X824077Y-5804834D01*
G01X833661Y-5829253D01*
G01X846777Y-5851971D01*
G01X863133Y-5872480D01*
G01X882363Y-5890322D01*
G01X904037Y-5905100D01*
G01X927671Y-5916481D01*
G01X952738Y-5924213D01*
G01X978678Y-5928123D01*
G01X1004910Y-5928123D01*
G01X1030849Y-5924213D01*
G01X1055916Y-5916481D01*
G01X1079551Y-5905100D01*
G01X1101225Y-5890322D01*
G01X1120455Y-5872480D01*
G01X1136810Y-5851971D01*
G01X1149926Y-5829253D01*
G01X1159510Y-5804834D01*
G01X1165347Y-5779259D01*
G01X1167308Y-5753100D01*
G01X1167308Y-5753100D01*
G01X1165347Y-5726941D01*
G01X1159510Y-5701366D01*
G01X1149926Y-5676947D01*
G01X1136810Y-5654229D01*
G01X1120455Y-5633720D01*
G01X1101225Y-5615878D01*
G01X1079551Y-5601100D01*
G01X1055916Y-5589719D01*
G01X1030849Y-5581987D01*
G01X1004910Y-5578077D01*
G01X978678Y-5578077D01*
G01X952738Y-5581987D01*
G01X927671Y-5589719D01*
G01X904037Y-5601100D01*
G01X882363Y-5615878D01*
G01X863133Y-5633720D01*
G01X846777Y-5654229D01*
G01X833661Y-5676947D01*
G01X824077Y-5701366D01*
G01X818240Y-5726941D01*
G01X816280Y-5753100D01*
G01X45809Y-5753100D01*
G01X45809Y-4976814D01*
G01X776400Y-4976814D01*
G01X781607Y-4975419D01*
G01X785419Y-4971607D01*
G01X786814Y-4966400D01*
G01X786814Y-3810000D01*
G01X967486Y-3810000D01*
G01X969393Y-3830583D01*
G01X975050Y-3850464D01*
G01X984264Y-3868968D01*
G01X996721Y-3885463D01*
G01X1011996Y-3899389D01*
G01X1029571Y-3910271D01*
G01X1048846Y-3917738D01*
G01X1069165Y-3921536D01*
G01X1089835Y-3921536D01*
G01X1110154Y-3917738D01*
G01X1129429Y-3910271D01*
G01X1147004Y-3899389D01*
G01X1162279Y-3885463D01*
G01X1174736Y-3868968D01*
G01X1183950Y-3850464D01*
G01X1189607Y-3830583D01*
G01X1191514Y-3810000D01*
G01X1191514Y-3810000D01*
G01X1475486Y-3810000D01*
G01X1477393Y-3830583D01*
G01X1483050Y-3850464D01*
G01X1492264Y-3868968D01*
G01X1504721Y-3885463D01*
G01X1519996Y-3899389D01*
G01X1537571Y-3910271D01*
G01X1556846Y-3917738D01*
G01X1577165Y-3921536D01*
G01X1597835Y-3921536D01*
G01X1618154Y-3917738D01*
G01X1637429Y-3910271D01*
G01X1655004Y-3899389D01*
G01X1670279Y-3885463D01*
G01X1682736Y-3868968D01*
G01X1691950Y-3850464D01*
G01X1697607Y-3830583D01*
G01X1699514Y-3810000D01*
G01X1699514Y-3810000D01*
G01X1697607Y-3789417D01*
G01X1691950Y-3769536D01*
G01X1682736Y-3751032D01*
G01X1670279Y-3734537D01*
G01X1655004Y-3720611D01*
G01X1637429Y-3709729D01*
G01X1618154Y-3702262D01*
G01X1597835Y-3698464D01*
G01X1577165Y-3698464D01*
G01X1556846Y-3702262D01*
G01X1537571Y-3709729D01*
G01X1519996Y-3720611D01*
G01X1504721Y-3734537D01*
G01X1492264Y-3751032D01*
G01X1483050Y-3769536D01*
G01X1477393Y-3789417D01*
G01X1475486Y-3810000D01*
G01X1191514Y-3810000D01*
G01X1189607Y-3789417D01*
G01X1183950Y-3769536D01*
G01X1174736Y-3751032D01*
G01X1162279Y-3734537D01*
G01X1147004Y-3720611D01*
G01X1129429Y-3709729D01*
G01X1110154Y-3702262D01*
G01X1089835Y-3698464D01*
G01X1069165Y-3698464D01*
G01X1048846Y-3702262D01*
G01X1029571Y-3709729D01*
G01X1011996Y-3720611D01*
G01X996721Y-3734537D01*
G01X984264Y-3751032D01*
G01X975050Y-3769536D01*
G01X969393Y-3789417D01*
G01X967486Y-3810000D01*
G01X786814Y-3810000D01*
G01X786814Y-3466400D01*
G01X785419Y-3461193D01*
G01X781607Y-3457381D01*
G01X776400Y-3455986D01*
G01X45809Y-3455986D01*
G01X45809Y-3190218D01*
G01X77376Y-3190218D01*
G01X79369Y-3218085D01*
G01X85308Y-3245385D01*
G01X95071Y-3271562D01*
G01X108461Y-3296083D01*
G01X125204Y-3318449D01*
G01X144959Y-3338204D01*
G01X167325Y-3354947D01*
G01X191846Y-3368337D01*
G01X218023Y-3378100D01*
G01X245323Y-3384039D01*
G01X273190Y-3386032D01*
G01X301057Y-3384039D01*
G01X328357Y-3378100D01*
G01X354534Y-3368337D01*
G01X379055Y-3354947D01*
G01X401420Y-3338204D01*
G01X421176Y-3318449D01*
G01X437919Y-3296083D01*
G01X451308Y-3271562D01*
G01X461072Y-3245385D01*
G01X467010Y-3218085D01*
G01X469003Y-3190218D01*
G01X467010Y-3162351D01*
G01X461072Y-3135051D01*
G01X451809Y-3110218D01*
G01X707387Y-3110218D01*
G01X707387Y-3270218D01*
G01X709140Y-3281285D01*
G01X714227Y-3291269D01*
G01X722151Y-3299192D01*
G01X732134Y-3304279D01*
G01X743201Y-3306032D01*
G01X903201Y-3306032D01*
G01X903201Y-3306032D01*
G01X914268Y-3304279D01*
G01X924252Y-3299192D01*
G01X932175Y-3291269D01*
G01X937262Y-3281285D01*
G01X939015Y-3270218D01*
G01X939015Y-3190218D01*
G01X961387Y-3190218D01*
G01X963359Y-3211499D01*
G01X969208Y-3232055D01*
G01X978734Y-3251186D01*
G01X991614Y-3268241D01*
G01X1007408Y-3282640D01*
G01X1025579Y-3293890D01*
G01X1045507Y-3301611D01*
G01X1066515Y-3305538D01*
G01X1087887Y-3305538D01*
G01X1108895Y-3301611D01*
G01X1128824Y-3293890D01*
G01X1146995Y-3282640D01*
G01X1162789Y-3268241D01*
G01X1175668Y-3251186D01*
G01X1185194Y-3232055D01*
G01X1191043Y-3211499D01*
G01X1192194Y-3199083D01*
G01X1215727Y-3199083D01*
G01X1219198Y-3219682D01*
G01X1226313Y-3239322D01*
G01X1236840Y-3257366D01*
G01X1250437Y-3273224D01*
G01X1266662Y-3286382D01*
G01X1284986Y-3296411D01*
G01X1284986Y-3455037D01*
G01X1267733Y-3465326D01*
G01X1252595Y-3478531D01*
G01X1240059Y-3494227D01*
G01X1230528Y-3511911D01*
G01X1224309Y-3531012D01*
G01X1221601Y-3550917D01*
G01X1222493Y-3570985D01*
G01X1226954Y-3590571D01*
G01X1234843Y-3609046D01*
G01X1245904Y-3625814D01*
G01X1259782Y-3640338D01*
G01X1276032Y-3652148D01*
G01X1294129Y-3660867D01*
G01X1313493Y-3666213D01*
G01X1333500Y-3668014D01*
G01X1333500Y-3668014D01*
G01X1353507Y-3666213D01*
G01X1372871Y-3660867D01*
G01X1390968Y-3652148D01*
G01X1407218Y-3640338D01*
G01X1421096Y-3625814D01*
G01X1432157Y-3609046D01*
G01X1440046Y-3590571D01*
G01X1444507Y-3570985D01*
G01X1445399Y-3550917D01*
G01X1442691Y-3531012D01*
G01X1436472Y-3511911D01*
G01X1426941Y-3494227D01*
G01X1414405Y-3478531D01*
G01X1399267Y-3465326D01*
G01X1382014Y-3455037D01*
G01X1382014Y-3294290D01*
G01X1399882Y-3283469D01*
G01X1415517Y-3269615D01*
G01X1428407Y-3253177D01*
G01X1438136Y-3234691D01*
G01X1444385Y-3214758D01*
G01X1446952Y-3194027D01*
G01X1445754Y-3173172D01*
G01X1440828Y-3152871D01*
G01X1432336Y-3133786D01*
G01X1420554Y-3116536D01*
G01X1405864Y-3101684D01*
G01X1388746Y-3089712D01*
G01X1369755Y-3081010D01*
G01X1349510Y-3075861D01*
G01X1328670Y-3074432D01*
G01X1307911Y-3076770D01*
G01X1287911Y-3082799D01*
G01X1269319Y-3092323D01*
G01X1252740Y-3105032D01*
G01X1238714Y-3120512D01*
G01X1227697Y-3138260D01*
G01X1220047Y-3157699D01*
G01X1216013Y-3178195D01*
G01X1215727Y-3199083D01*
G01X1192194Y-3199083D01*
G01X1193015Y-3190218D01*
G01X1191043Y-3168937D01*
G01X1185194Y-3148381D01*
G01X1175668Y-3129250D01*
G01X1162789Y-3112195D01*
G01X1146995Y-3097797D01*
G01X1128824Y-3086546D01*
G01X1108895Y-3078825D01*
G01X1087887Y-3074898D01*
G01X1066515Y-3074898D01*
G01X1045507Y-3078825D01*
G01X1025579Y-3086546D01*
G01X1007408Y-3097797D01*
G01X991614Y-3112195D01*
G01X978734Y-3129250D01*
G01X969208Y-3148381D01*
G01X963359Y-3168937D01*
G01X961387Y-3190218D01*
G01X961387Y-3190218D01*
G01X939015Y-3190218D01*
G01X939015Y-3110218D01*
G01X937262Y-3099151D01*
G01X932175Y-3089167D01*
G01X924252Y-3081244D01*
G01X914268Y-3076157D01*
G01X903201Y-3074404D01*
G01X743201Y-3074404D01*
G01X732134Y-3076157D01*
G01X722151Y-3081244D01*
G01X714227Y-3089167D01*
G01X709140Y-3099151D01*
G01X707387Y-3110218D01*
G01X451809Y-3110218D01*
G01X451308Y-3108874D01*
G01X437919Y-3084353D01*
G01X421176Y-3061987D01*
G01X401420Y-3042232D01*
G01X379055Y-3025489D01*
G01X354534Y-3012100D01*
G01X328357Y-3002336D01*
G01X301057Y-2996398D01*
G01X273190Y-2994404D01*
G01X245323Y-2996398D01*
G01X218023Y-3002336D01*
G01X191846Y-3012100D01*
G01X167325Y-3025489D01*
G01X144959Y-3042232D01*
G01X125204Y-3061987D01*
G01X108461Y-3084353D01*
G01X95071Y-3108874D01*
G01X85308Y-3135051D01*
G01X79369Y-3162351D01*
G01X77376Y-3190218D01*
G01X77376Y-3190218D01*
G01X45809Y-3190218D01*
G01X45809Y-2972642D01*
G01X5330588Y-2972642D01*
G01X5311528Y-2981567D01*
G01X5294306Y-2993666D01*
G01X5279445Y-3008569D01*
G01X5267396Y-3025825D01*
G01X5258524Y-3044910D01*
G01X5253100Y-3065246D01*
G01X5251286Y-3086214D01*
G01X5253139Y-3107179D01*
G01X5258603Y-3127504D01*
G01X5267510Y-3146573D01*
G01X5279592Y-3163806D01*
G01X5294481Y-3178681D01*
G01X5311726Y-3190747D01*
G01X5330803Y-3199637D01*
G01X5351133Y-3205081D01*
G01X5372100Y-3206914D01*
G01X5393067Y-3205081D01*
G01X5413397Y-3199637D01*
G01X5432474Y-3190747D01*
G01X5449719Y-3178681D01*
G01X5464608Y-3163806D01*
G01X5476690Y-3146573D01*
G01X5485597Y-3127504D01*
G01X5491061Y-3107179D01*
G01X5492914Y-3086214D01*
G01X5491100Y-3065246D01*
G01X5485676Y-3044910D01*
G01X5476804Y-3025825D01*
G01X5464755Y-3008569D01*
G01X5449894Y-2993666D01*
G01X5432672Y-2981567D01*
G01X5413612Y-2972642D01*
G01X5584588Y-2972642D01*
G01X5564645Y-2982084D01*
G01X5546752Y-2994996D01*
G01X5531506Y-3010947D01*
G01X5519415Y-3029405D01*
G01X5510883Y-3049754D01*
G01X5506194Y-3071315D01*
G01X5505505Y-3093370D01*
G01X5508839Y-3115182D01*
G01X5516084Y-3136024D01*
G01X5526999Y-3155201D01*
G01X5541219Y-3172072D01*
G01X5558271Y-3186076D01*
G01X5577586Y-3196745D01*
G01X5577586Y-3225800D01*
G01X5579239Y-3238356D01*
G01X5584086Y-3250057D01*
G01X5591795Y-3260105D01*
G01X5655295Y-3323605D01*
G01X5660786Y-3328330D01*
G01X5660786Y-3340986D01*
G01X5482100Y-3340986D01*
G01X5471033Y-3342739D01*
G01X5461049Y-3347826D01*
G01X5453126Y-3355750D01*
G01X5448039Y-3365733D01*
G01X5446286Y-3376800D01*
G01X5446286Y-3582800D01*
G01X5448039Y-3593867D01*
G01X5453126Y-3603850D01*
G01X5461049Y-3611774D01*
G01X5471033Y-3616861D01*
G01X5482100Y-3618614D01*
G01X5661452Y-3618614D01*
G01X5665271Y-3623512D01*
G01X5671200Y-3625364D01*
G01X5894585Y-3625364D01*
G01X5900514Y-3623512D01*
G01X5904334Y-3618614D01*
G01X6074900Y-3618614D01*
G01X6085967Y-3616861D01*
G01X6095951Y-3611774D01*
G01X6103874Y-3603850D01*
G01X6108961Y-3593867D01*
G01X6110714Y-3582800D01*
G01X6110714Y-3528314D01*
G01X6114005Y-3528314D01*
G01X6239495Y-3653805D01*
G01X6249543Y-3661514D01*
G01X6261244Y-3666361D01*
G01X6273800Y-3668014D01*
G01X6373343Y-3668014D01*
G01X6376871Y-3677676D01*
G01X6383001Y-3685937D01*
G01X6391225Y-3692115D01*
G01X6400866Y-3695700D01*
G01X6391744Y-3699007D01*
G01X6383844Y-3704642D01*
G01X6377747Y-3712191D01*
G01X6373900Y-3721099D01*
G01X6372586Y-3730713D01*
G01X6372586Y-3811360D01*
G01X6374126Y-3821751D01*
G01X6378615Y-3831247D01*
G01X6385665Y-3839033D01*
G01X6326053Y-3898646D01*
G01X5681121Y-3898646D01*
G01X5668724Y-3890522D01*
G01X5654833Y-3885353D01*
G01X5640141Y-3883399D01*
G01X5625382Y-3884758D01*
G01X5611293Y-3889360D01*
G01X5598578Y-3896976D01*
G01X5587873Y-3907227D01*
G01X5579711Y-3919599D01*
G01X5574502Y-3933475D01*
G01X5572504Y-3948161D01*
G01X5573818Y-3962924D01*
G01X5578378Y-3977026D01*
G01X5585956Y-3989764D01*
G01X5596175Y-4000500D01*
G01X5586188Y-4010932D01*
G01X5578697Y-4023279D01*
G01X5574056Y-4036955D01*
G01X5572486Y-4051312D01*
G01X5574061Y-4065667D01*
G01X5578707Y-4079342D01*
G01X5586202Y-4091686D01*
G01X5557295Y-4091686D01*
G01X5534914Y-4069305D01*
G01X5534914Y-3759200D01*
G01X5533261Y-3746644D01*
G01X5528414Y-3734943D01*
G01X5520705Y-3724895D01*
G01X5366704Y-3570895D01*
G01X5356657Y-3563185D01*
G01X5344956Y-3558339D01*
G01X5332400Y-3556686D01*
G01X4486165Y-3556686D01*
G01X4486165Y-3548573D01*
G01X4484412Y-3537506D01*
G01X4479325Y-3527522D01*
G01X4471401Y-3519599D01*
G01X4461418Y-3514512D01*
G01X4450351Y-3512759D01*
G01X4312649Y-3512759D01*
G01X4301582Y-3514512D01*
G01X4291599Y-3519599D01*
G01X4283675Y-3527522D01*
G01X4278588Y-3537506D01*
G01X4276835Y-3548573D01*
G01X4276835Y-3661827D01*
G01X4278588Y-3672894D01*
G01X4283675Y-3682878D01*
G01X4291599Y-3690801D01*
G01X4301582Y-3695888D01*
G01X4312649Y-3697641D01*
G01X4332986Y-3697641D01*
G01X4332986Y-4120105D01*
G01X4247105Y-4205986D01*
G01X4152900Y-4205986D01*
G01X4140344Y-4207639D01*
G01X4128643Y-4212486D01*
G01X4118595Y-4220195D01*
G01X3909393Y-4429398D01*
G01X3906393Y-4432686D01*
G01X3903698Y-4432686D01*
G01X3893796Y-4434082D01*
G01X3884666Y-4438161D01*
G01X3877020Y-4444606D01*
G01X3871453Y-4452913D01*
G01X3868401Y-4462436D01*
G01X3845400Y-4462436D01*
G01X3832184Y-4464176D01*
G01X3819868Y-4469277D01*
G01X3809292Y-4477392D01*
G01X3785459Y-4501226D01*
G01X3648027Y-4501226D01*
G01X3653766Y-4487258D01*
G01X3655719Y-4472285D01*
G01X3653755Y-4457312D01*
G01X3648007Y-4443349D01*
G01X3695700Y-4443349D01*
G01X3707088Y-4442063D01*
G01X3717901Y-4438269D01*
G01X3773805Y-4438269D01*
G01X3785704Y-4436702D01*
G01X3796792Y-4432110D01*
G01X3806314Y-4424804D01*
G01X4071109Y-4160009D01*
G01X4077218Y-4152445D01*
G01X4081601Y-4143765D01*
G01X4084060Y-4134357D01*
G01X4097292Y-4121125D01*
G01X4112931Y-4119565D01*
G01X4127763Y-4114369D01*
G01X4140957Y-4105828D01*
G01X4151769Y-4094423D01*
G01X4159594Y-4080793D01*
G01X4163992Y-4065704D01*
G01X4164716Y-4050005D01*
G01X4161724Y-4034576D01*
G01X4155186Y-4020284D01*
G01X4145468Y-4007932D01*
G01X4133116Y-3998214D01*
G01X4118824Y-3991676D01*
G01X4103395Y-3988684D01*
G01X4087696Y-3989408D01*
G01X4072607Y-3993806D01*
G01X4058977Y-4001631D01*
G01X4047572Y-4012443D01*
G01X4039031Y-4025637D01*
G01X4033835Y-4040469D01*
G01X4032275Y-4056108D01*
G01X4006091Y-4082291D01*
G01X3999982Y-4089855D01*
G01X3995599Y-4098535D01*
G01X3993140Y-4107943D01*
G01X3985514Y-4115569D01*
G01X3985514Y-3994910D01*
G01X3994343Y-3983007D01*
G01X4000308Y-3969440D01*
G01X4003111Y-3954887D01*
G01X4002612Y-3940075D01*
G01X3998836Y-3925744D01*
G01X3991971Y-3912609D01*
G01X3982361Y-3901327D01*
G01X3970486Y-3892461D01*
G01X3956937Y-3886454D01*
G01X3962400Y-3886454D01*
G01X3975614Y-3884714D01*
G01X3987927Y-3879614D01*
G01X3998501Y-3871501D01*
G01X4163601Y-3706401D01*
G01X4171714Y-3695827D01*
G01X4176814Y-3683514D01*
G01X4178554Y-3670300D01*
G01X4178554Y-3293011D01*
G01X4196003Y-3281869D01*
G01X4211190Y-3267799D01*
G01X4223629Y-3251250D01*
G01X4232922Y-3232751D01*
G01X4238774Y-3212892D01*
G01X4240444Y-3197428D01*
G01X4263612Y-3197428D01*
G01X4266742Y-3217892D01*
G01X4273466Y-3237472D01*
G01X4283569Y-3255543D01*
G01X4296727Y-3271526D01*
G01X4312521Y-3284910D01*
G01X4330446Y-3295269D01*
G01X4330446Y-3312759D01*
G01X4312649Y-3312759D01*
G01X4301582Y-3314512D01*
G01X4291599Y-3319599D01*
G01X4283675Y-3327522D01*
G01X4278588Y-3337506D01*
G01X4276835Y-3348573D01*
G01X4276835Y-3461827D01*
G01X4278588Y-3472894D01*
G01X4283675Y-3482878D01*
G01X4291599Y-3490801D01*
G01X4301582Y-3495888D01*
G01X4312649Y-3497641D01*
G01X4450351Y-3497641D01*
G01X4461418Y-3495888D01*
G01X4471401Y-3490801D01*
G01X4479325Y-3482878D01*
G01X4484412Y-3472894D01*
G01X4486165Y-3461827D01*
G01X4486165Y-3348573D01*
G01X4484412Y-3337506D01*
G01X4479325Y-3327522D01*
G01X4471401Y-3319599D01*
G01X4461418Y-3314512D01*
G01X4450351Y-3312759D01*
G01X4432554Y-3312759D01*
G01X4432554Y-3293011D01*
G01X4450003Y-3281869D01*
G01X4465190Y-3267799D01*
G01X4477629Y-3251250D01*
G01X4486922Y-3232751D01*
G01X4492774Y-3212892D01*
G01X4494996Y-3192309D01*
G01X4494847Y-3190218D01*
G01X4517387Y-3190218D01*
G01X4519359Y-3211499D01*
G01X4525208Y-3232055D01*
G01X4534734Y-3251186D01*
G01X4547614Y-3268241D01*
G01X4563408Y-3282640D01*
G01X4581579Y-3293890D01*
G01X4601507Y-3301611D01*
G01X4622515Y-3305538D01*
G01X4643887Y-3305538D01*
G01X4664895Y-3301611D01*
G01X4684824Y-3293890D01*
G01X4702995Y-3282640D01*
G01X4718789Y-3268241D01*
G01X4731668Y-3251186D01*
G01X4741194Y-3232055D01*
G01X4747043Y-3211499D01*
G01X4749015Y-3190218D01*
G01X4747043Y-3168937D01*
G01X4741194Y-3148381D01*
G01X4731668Y-3129250D01*
G01X4718789Y-3112195D01*
G01X4702995Y-3097797D01*
G01X4684824Y-3086546D01*
G01X4664895Y-3078825D01*
G01X4643887Y-3074898D01*
G01X4622515Y-3074898D01*
G01X4601507Y-3078825D01*
G01X4581579Y-3086546D01*
G01X4563408Y-3097797D01*
G01X4547614Y-3112195D01*
G01X4534734Y-3129250D01*
G01X4525208Y-3148381D01*
G01X4519359Y-3168937D01*
G01X4517387Y-3190218D01*
G01X4517387Y-3190218D01*
G01X4494847Y-3190218D01*
G01X4493519Y-3171660D01*
G01X4488388Y-3151603D01*
G01X4479768Y-3132780D01*
G01X4467935Y-3115792D01*
G01X4453266Y-3101183D01*
G01X4436231Y-3089419D01*
G01X4417373Y-3080876D01*
G01X4397296Y-3075827D01*
G01X4376640Y-3074433D01*
G01X4376640Y-3074433D01*
G01X4356066Y-3076739D01*
G01X4336232Y-3082671D01*
G01X4317770Y-3092039D01*
G01X4301272Y-3104545D01*
G01X4287264Y-3119789D01*
G01X4276193Y-3137283D01*
G01X4268414Y-3156469D01*
G01X4264175Y-3176733D01*
G01X4263612Y-3197428D01*
G01X4240444Y-3197428D01*
G01X4240996Y-3192309D01*
G01X4239519Y-3171660D01*
G01X4234388Y-3151603D01*
G01X4225768Y-3132780D01*
G01X4213935Y-3115792D01*
G01X4199266Y-3101183D01*
G01X4182231Y-3089419D01*
G01X4163373Y-3080876D01*
G01X4143296Y-3075827D01*
G01X4122640Y-3074433D01*
G01X4102066Y-3076739D01*
G01X4082232Y-3082671D01*
G01X4063770Y-3092039D01*
G01X4047272Y-3104545D01*
G01X4033264Y-3119789D01*
G01X4022193Y-3137283D01*
G01X4014414Y-3156469D01*
G01X4010175Y-3176733D01*
G01X4009612Y-3197428D01*
G01X4012742Y-3217892D01*
G01X4019466Y-3237472D01*
G01X4029569Y-3255543D01*
G01X4042727Y-3271526D01*
G01X4058521Y-3284910D01*
G01X4076446Y-3295269D01*
G01X4076446Y-3649153D01*
G01X3941253Y-3784346D01*
G01X3869755Y-3784346D01*
G01X3909601Y-3744501D01*
G01X3917714Y-3733927D01*
G01X3922814Y-3721614D01*
G01X3924554Y-3708400D01*
G01X3924554Y-3293011D01*
G01X3942003Y-3281869D01*
G01X3957190Y-3267799D01*
G01X3969629Y-3251250D01*
G01X3978922Y-3232751D01*
G01X3984774Y-3212892D01*
G01X3986996Y-3192309D01*
G01X3985519Y-3171660D01*
G01X3980388Y-3151603D01*
G01X3971768Y-3132780D01*
G01X3959935Y-3115792D01*
G01X3945266Y-3101183D01*
G01X3928231Y-3089419D01*
G01X3909373Y-3080876D01*
G01X3889296Y-3075827D01*
G01X3868640Y-3074433D01*
G01X3848066Y-3076739D01*
G01X3828232Y-3082671D01*
G01X3809770Y-3092039D01*
G01X3793272Y-3104545D01*
G01X3779264Y-3119789D01*
G01X3768193Y-3137283D01*
G01X3760414Y-3156469D01*
G01X3756175Y-3176733D01*
G01X3755612Y-3197428D01*
G01X3758742Y-3217892D01*
G01X3765466Y-3237472D01*
G01X3775569Y-3255543D01*
G01X3788727Y-3271526D01*
G01X3804521Y-3284910D01*
G01X3822446Y-3295269D01*
G01X3822446Y-3687253D01*
G01X3788853Y-3720846D01*
G01X3564955Y-3720846D01*
G01X3652186Y-3633615D01*
G01X3660299Y-3623042D01*
G01X3665400Y-3610729D01*
G01X3667139Y-3597515D01*
G01X3667139Y-3294712D01*
G01X3684946Y-3284151D01*
G01X3700589Y-3270589D01*
G01X3713566Y-3254457D01*
G01X3723464Y-3236273D01*
G01X3729966Y-3216618D01*
G01X3732865Y-3196118D01*
G01X3732067Y-3175430D01*
G01X3727599Y-3155215D01*
G01X3719603Y-3136118D01*
G01X3708334Y-3118750D01*
G01X3694153Y-3103666D01*
G01X3677513Y-3091348D01*
G01X3658946Y-3082189D01*
G01X3639044Y-3076483D01*
G01X3618445Y-3074411D01*
G01X3597806Y-3076040D01*
G01X3577786Y-3081318D01*
G01X3559026Y-3090076D01*
G01X3542126Y-3102034D01*
G01X3527624Y-3116810D01*
G01X3515985Y-3133932D01*
G01X3507581Y-3152852D01*
G01X3502679Y-3172967D01*
G01X3501438Y-3193633D01*
G01X3503896Y-3214190D01*
G01X3509974Y-3233981D01*
G01X3519479Y-3252374D01*
G01X3532108Y-3268780D01*
G01X3547455Y-3282675D01*
G01X3565031Y-3293616D01*
G01X3565031Y-3576368D01*
G01X3496753Y-3644646D01*
G01X3260155Y-3644646D01*
G01X3399302Y-3505499D01*
G01X3407415Y-3494926D01*
G01X3412516Y-3482612D01*
G01X3414255Y-3469399D01*
G01X3414255Y-3294172D01*
G01X3431948Y-3283420D01*
G01X3447445Y-3269691D01*
G01X3460249Y-3253421D01*
G01X3469951Y-3235132D01*
G01X3476243Y-3215408D01*
G01X3478921Y-3194878D01*
G01X3477902Y-3174200D01*
G01X3473217Y-3154033D01*
G01X3465016Y-3135023D01*
G01X3453562Y-3117777D01*
G01X3439220Y-3102845D01*
G01X3422449Y-3090706D01*
G01X3403784Y-3081747D01*
G01X3383822Y-3076255D01*
G01X3363201Y-3074404D01*
G01X3342581Y-3076255D01*
G01X3322619Y-3081747D01*
G01X3303954Y-3090706D01*
G01X3287183Y-3102845D01*
G01X3272841Y-3117777D01*
G01X3261386Y-3135023D01*
G01X3253185Y-3154033D01*
G01X3248501Y-3174200D01*
G01X3247481Y-3194878D01*
G01X3250160Y-3215408D01*
G01X3256451Y-3235132D01*
G01X3266154Y-3253421D01*
G01X3278958Y-3269691D01*
G01X3294454Y-3283420D01*
G01X3312147Y-3294172D01*
G01X3312147Y-3448251D01*
G01X2962554Y-3797844D01*
G01X2962554Y-3470300D01*
G01X2960815Y-3457087D01*
G01X2955714Y-3444773D01*
G01X2947601Y-3434200D01*
G01X2830101Y-3316699D01*
G01X2819527Y-3308586D01*
G01X2807214Y-3303486D01*
G01X2794000Y-3301746D01*
G01X2632416Y-3301746D01*
G01X2651805Y-3294391D01*
G01X2669572Y-3283697D01*
G01X2685146Y-3270006D01*
G01X2698029Y-3253757D01*
G01X2707808Y-3235470D01*
G01X2714170Y-3215733D01*
G01X2716909Y-3195178D01*
G01X2716677Y-3190218D01*
G01X2739387Y-3190218D01*
G01X2741359Y-3211499D01*
G01X2747208Y-3232055D01*
G01X2756734Y-3251186D01*
G01X2769614Y-3268241D01*
G01X2785408Y-3282640D01*
G01X2803579Y-3293890D01*
G01X2823507Y-3301611D01*
G01X2844515Y-3305538D01*
G01X2865887Y-3305538D01*
G01X2886895Y-3301611D01*
G01X2906824Y-3293890D01*
G01X2924995Y-3282640D01*
G01X2940789Y-3268241D01*
G01X2953668Y-3251186D01*
G01X2963194Y-3232055D01*
G01X2969043Y-3211499D01*
G01X2971015Y-3190218D01*
G01X2971015Y-3190218D01*
G01X2993387Y-3190218D01*
G01X2995359Y-3211499D01*
G01X3001208Y-3232055D01*
G01X3010734Y-3251186D01*
G01X3023614Y-3268241D01*
G01X3039408Y-3282640D01*
G01X3057579Y-3293890D01*
G01X3077507Y-3301611D01*
G01X3098515Y-3305538D01*
G01X3119887Y-3305538D01*
G01X3140895Y-3301611D01*
G01X3160824Y-3293890D01*
G01X3178995Y-3282640D01*
G01X3194789Y-3268241D01*
G01X3207668Y-3251186D01*
G01X3217194Y-3232055D01*
G01X3223043Y-3211499D01*
G01X3225015Y-3190218D01*
G01X3223043Y-3168937D01*
G01X3217194Y-3148381D01*
G01X3207668Y-3129250D01*
G01X3194789Y-3112195D01*
G01X3178995Y-3097797D01*
G01X3160824Y-3086546D01*
G01X3140895Y-3078825D01*
G01X3119887Y-3074898D01*
G01X3098515Y-3074898D01*
G01X3077507Y-3078825D01*
G01X3057579Y-3086546D01*
G01X3039408Y-3097797D01*
G01X3023614Y-3112195D01*
G01X3010734Y-3129250D01*
G01X3001208Y-3148381D01*
G01X2995359Y-3168937D01*
G01X2993387Y-3190218D01*
G01X2993387Y-3190218D01*
G01X2971015Y-3190218D01*
G01X2969043Y-3168937D01*
G01X2963194Y-3148381D01*
G01X2953668Y-3129250D01*
G01X2940789Y-3112195D01*
G01X2924995Y-3097797D01*
G01X2906824Y-3086546D01*
G01X2886895Y-3078825D01*
G01X2865887Y-3074898D01*
G01X2844515Y-3074898D01*
G01X2823507Y-3078825D01*
G01X2803579Y-3086546D01*
G01X2785408Y-3097797D01*
G01X2769614Y-3112195D01*
G01X2756734Y-3129250D01*
G01X2747208Y-3148381D01*
G01X2741359Y-3168937D01*
G01X2739387Y-3190218D01*
G01X2739387Y-3190218D01*
G01X2716677Y-3190218D01*
G01X2715939Y-3174464D01*
G01X2711290Y-3154255D01*
G01X2703112Y-3135199D01*
G01X2691666Y-3117907D01*
G01X2677321Y-3102933D01*
G01X2660535Y-3090758D01*
G01X2641846Y-3081771D01*
G01X2621855Y-3076261D01*
G01X2601201Y-3074404D01*
G01X2580548Y-3076261D01*
G01X2560556Y-3081771D01*
G01X2541868Y-3090758D01*
G01X2525082Y-3102933D01*
G01X2510736Y-3117907D01*
G01X2499291Y-3135199D01*
G01X2491113Y-3154255D01*
G01X2486464Y-3174464D01*
G01X2485494Y-3195178D01*
G01X2488233Y-3215733D01*
G01X2494594Y-3235470D01*
G01X2504373Y-3253757D01*
G01X2517256Y-3270006D01*
G01X2532831Y-3283697D01*
G01X2550597Y-3294391D01*
G01X2569986Y-3301746D01*
G01X2378416Y-3301746D01*
G01X2397805Y-3294391D01*
G01X2415572Y-3283697D01*
G01X2431146Y-3270006D01*
G01X2444029Y-3253757D01*
G01X2453808Y-3235470D01*
G01X2460170Y-3215733D01*
G01X2462909Y-3195178D01*
G01X2461939Y-3174464D01*
G01X2457290Y-3154255D01*
G01X2449112Y-3135199D01*
G01X2437666Y-3117907D01*
G01X2423321Y-3102933D01*
G01X2406535Y-3090758D01*
G01X2387846Y-3081771D01*
G01X2367855Y-3076261D01*
G01X2347201Y-3074404D01*
G01X2326548Y-3076261D01*
G01X2306556Y-3081771D01*
G01X2287868Y-3090758D01*
G01X2271082Y-3102933D01*
G01X2256736Y-3117907D01*
G01X2245291Y-3135199D01*
G01X2237113Y-3154255D01*
G01X2232464Y-3174464D01*
G01X2231494Y-3195178D01*
G01X2234233Y-3215733D01*
G01X2240594Y-3235470D01*
G01X2250373Y-3253757D01*
G01X2263256Y-3270006D01*
G01X2278831Y-3283697D01*
G01X2296597Y-3294391D01*
G01X2315986Y-3301746D01*
G01X2167447Y-3301746D01*
G01X2154303Y-3288602D01*
G01X2170560Y-3276407D01*
G01X2184434Y-3261558D01*
G01X2195499Y-3244513D01*
G01X2203415Y-3225796D01*
G01X2207937Y-3205984D01*
G01X2208926Y-3185686D01*
G01X2206353Y-3165528D01*
G01X2200295Y-3146130D01*
G01X2190940Y-3128089D01*
G01X2178575Y-3111961D01*
G01X2163582Y-3098243D01*
G01X2146422Y-3087357D01*
G01X2127623Y-3079638D01*
G01X2107764Y-3075324D01*
G01X2087457Y-3074547D01*
G01X2067327Y-3077332D01*
G01X2047993Y-3083592D01*
G01X2030052Y-3093136D01*
G01X2014054Y-3105669D01*
G01X2000494Y-3120805D01*
G01X1989788Y-3138078D01*
G01X1982267Y-3156957D01*
G01X1978160Y-3176860D01*
G01X1977597Y-3197174D01*
G01X1980592Y-3217274D01*
G01X1987055Y-3236541D01*
G01X1996786Y-3254381D01*
G01X2009486Y-3270246D01*
G01X2024763Y-3283647D01*
G01X2042147Y-3294172D01*
G01X2042147Y-3299701D01*
G01X2043887Y-3312915D01*
G01X2048987Y-3325228D01*
G01X2057101Y-3335802D01*
G01X2073845Y-3352546D01*
G01X1659447Y-3352546D01*
G01X1636255Y-3329354D01*
G01X1636255Y-3294172D01*
G01X1653948Y-3283420D01*
G01X1669445Y-3269691D01*
G01X1682249Y-3253421D01*
G01X1691951Y-3235132D01*
G01X1698243Y-3215408D01*
G01X1700921Y-3194878D01*
G01X1700692Y-3190218D01*
G01X1723387Y-3190218D01*
G01X1725359Y-3211499D01*
G01X1731208Y-3232055D01*
G01X1740734Y-3251186D01*
G01X1753614Y-3268241D01*
G01X1769408Y-3282640D01*
G01X1787579Y-3293890D01*
G01X1807507Y-3301611D01*
G01X1828515Y-3305538D01*
G01X1849887Y-3305538D01*
G01X1870895Y-3301611D01*
G01X1890824Y-3293890D01*
G01X1908995Y-3282640D01*
G01X1924789Y-3268241D01*
G01X1937668Y-3251186D01*
G01X1947194Y-3232055D01*
G01X1953043Y-3211499D01*
G01X1955015Y-3190218D01*
G01X1953043Y-3168937D01*
G01X1947194Y-3148381D01*
G01X1937668Y-3129250D01*
G01X1924789Y-3112195D01*
G01X1908995Y-3097797D01*
G01X1890824Y-3086546D01*
G01X1870895Y-3078825D01*
G01X1849887Y-3074898D01*
G01X1828515Y-3074898D01*
G01X1807507Y-3078825D01*
G01X1787579Y-3086546D01*
G01X1769408Y-3097797D01*
G01X1753614Y-3112195D01*
G01X1740734Y-3129250D01*
G01X1731208Y-3148381D01*
G01X1725359Y-3168937D01*
G01X1723387Y-3190218D01*
G01X1723387Y-3190218D01*
G01X1700692Y-3190218D01*
G01X1699902Y-3174200D01*
G01X1695217Y-3154033D01*
G01X1687016Y-3135023D01*
G01X1675562Y-3117777D01*
G01X1661220Y-3102845D01*
G01X1644449Y-3090706D01*
G01X1625784Y-3081747D01*
G01X1605822Y-3076255D01*
G01X1585201Y-3074404D01*
G01X1564581Y-3076255D01*
G01X1544619Y-3081747D01*
G01X1525954Y-3090706D01*
G01X1509183Y-3102845D01*
G01X1494841Y-3117777D01*
G01X1483386Y-3135023D01*
G01X1475185Y-3154033D01*
G01X1470501Y-3174200D01*
G01X1469481Y-3194878D01*
G01X1472160Y-3215408D01*
G01X1478451Y-3235132D01*
G01X1488154Y-3253421D01*
G01X1500958Y-3269691D01*
G01X1516454Y-3283420D01*
G01X1534147Y-3294172D01*
G01X1534147Y-3350501D01*
G01X1535887Y-3363715D01*
G01X1540987Y-3376028D01*
G01X1549101Y-3386602D01*
G01X1602199Y-3439701D01*
G01X1612773Y-3447814D01*
G01X1625086Y-3452914D01*
G01X1638300Y-3454654D01*
G01X1838579Y-3454654D01*
G01X1838579Y-3610251D01*
G01X1840332Y-3621318D01*
G01X1845419Y-3631302D01*
G01X1853342Y-3639225D01*
G01X1863326Y-3644312D01*
G01X1874393Y-3646065D01*
G01X1913179Y-3646065D01*
G01X1913179Y-3663493D01*
G01X1914355Y-3675435D01*
G01X1917838Y-3686918D01*
G01X1923495Y-3697501D01*
G01X1931108Y-3706778D01*
G01X2148586Y-3924256D01*
G01X2148586Y-3939367D01*
G01X2140107Y-3945360D01*
G01X2133704Y-3953533D01*
G01X2120351Y-3944740D01*
G01X2105528Y-3938748D01*
G01X2089815Y-3935791D01*
G01X2073828Y-3935986D01*
G01X2058192Y-3939324D01*
G01X2043519Y-3945675D01*
G01X2030384Y-3954791D01*
G01X2019300Y-3966314D01*
G01X2007719Y-3954370D01*
G01X1993938Y-3945051D01*
G01X1978540Y-3938751D01*
G01X1962179Y-3935738D01*
G01X1945547Y-3936139D01*
G01X1929350Y-3939937D01*
G01X1914274Y-3946971D01*
G01X1900957Y-3956944D01*
G01X1889965Y-3969431D01*
G01X1881763Y-3983905D01*
G01X1876698Y-3999752D01*
G01X1874986Y-4016300D01*
G01X1874986Y-4086300D01*
G01X1876698Y-4102848D01*
G01X1881763Y-4118695D01*
G01X1889965Y-4133169D01*
G01X1900957Y-4145656D01*
G01X1914274Y-4155629D01*
G01X1929350Y-4162663D01*
G01X1945547Y-4166461D01*
G01X1962179Y-4166862D01*
G01X1978540Y-4163849D01*
G01X1993938Y-4157549D01*
G01X2007719Y-4148230D01*
G01X2019300Y-4136286D01*
G01X2030384Y-4147809D01*
G01X2043519Y-4156925D01*
G01X2058192Y-4163276D01*
G01X2073828Y-4166614D01*
G01X2089815Y-4166809D01*
G01X2105528Y-4163852D01*
G01X2120351Y-4157860D01*
G01X2133704Y-4149067D01*
G01X2136103Y-4152727D01*
G01X2120944Y-4167886D01*
G01X1714500Y-4167886D01*
G01X1702558Y-4169062D01*
G01X1691074Y-4172546D01*
G01X1680491Y-4178202D01*
G01X1671215Y-4185815D01*
G01X1569615Y-4287415D01*
G01X1562002Y-4296691D01*
G01X1556346Y-4307274D01*
G01X1552862Y-4318758D01*
G01X1551686Y-4330700D01*
G01X1551686Y-5041944D01*
G01X1501743Y-5091887D01*
G01X1356287Y-5091887D01*
G01X1345581Y-5068516D01*
G01X1331576Y-5046959D01*
G01X1314572Y-5027679D01*
G01X1294934Y-5011090D01*
G01X1273084Y-4997547D01*
G01X1249490Y-4987342D01*
G01X1224658Y-4980692D01*
G01X1199122Y-4977740D01*
G01X1173428Y-4978551D01*
G01X1148128Y-4983106D01*
G01X1123765Y-4991307D01*
G01X1100861Y-5002980D01*
G01X1079908Y-5017873D01*
G01X1061355Y-5035667D01*
G01X1045600Y-5055980D01*
G01X1032981Y-5078376D01*
G01X1023769Y-5102376D01*
G01X1018162Y-5127464D01*
G01X1016279Y-5153101D01*
G01X1018162Y-5178739D01*
G01X1023769Y-5203827D01*
G01X1032981Y-5227826D01*
G01X1045600Y-5250223D01*
G01X1061355Y-5270536D01*
G01X1079908Y-5288330D01*
G01X1100861Y-5303223D01*
G01X1123765Y-5314895D01*
G01X1148128Y-5323097D01*
G01X1173428Y-5327652D01*
G01X1199122Y-5328462D01*
G01X1224658Y-5325511D01*
G01X1249490Y-5318861D01*
G01X1273084Y-5308655D01*
G01X1294934Y-5295112D01*
G01X1314572Y-5278523D01*
G01X1331576Y-5259243D01*
G01X1345581Y-5237686D01*
G01X1356287Y-5214315D01*
G01X1527099Y-5214315D01*
G01X1539041Y-5213139D01*
G01X1550524Y-5209656D01*
G01X1561107Y-5203999D01*
G01X1570384Y-5196386D01*
G01X1613618Y-5153152D01*
G01X2236292Y-5153152D01*
G01X2238253Y-5179311D01*
G01X2244090Y-5204886D01*
G01X2253674Y-5229305D01*
G01X2266790Y-5252023D01*
G01X2283145Y-5272532D01*
G01X2302375Y-5290374D01*
G01X2324049Y-5305152D01*
G01X2347684Y-5316533D01*
G01X2372751Y-5324265D01*
G01X2398690Y-5328175D01*
G01X2424922Y-5328175D01*
G01X2450862Y-5324265D01*
G01X2475929Y-5316533D01*
G01X2499563Y-5305152D01*
G01X2521237Y-5290374D01*
G01X2540467Y-5272532D01*
G01X2556823Y-5252023D01*
G01X2569939Y-5229305D01*
G01X2579523Y-5204886D01*
G01X2585360Y-5179311D01*
G01X2587320Y-5153152D01*
G01X2587320Y-5153152D01*
G01X2585360Y-5126993D01*
G01X2579523Y-5101418D01*
G01X2569939Y-5076999D01*
G01X2556823Y-5054281D01*
G01X2540467Y-5033772D01*
G01X2521237Y-5015930D01*
G01X2499563Y-5001152D01*
G01X2475929Y-4989771D01*
G01X2450862Y-4982039D01*
G01X2424922Y-4978129D01*
G01X2398690Y-4978129D01*
G01X2372751Y-4982039D01*
G01X2347684Y-4989771D01*
G01X2324049Y-5001152D01*
G01X2302375Y-5015930D01*
G01X2283145Y-5033772D01*
G01X2266790Y-5054281D01*
G01X2253674Y-5076999D01*
G01X2244090Y-5101418D01*
G01X2238253Y-5126993D01*
G01X2236292Y-5153152D01*
G01X1613618Y-5153152D01*
G01X1656185Y-5110585D01*
G01X1663798Y-5101309D01*
G01X1669454Y-5090726D01*
G01X1672938Y-5079242D01*
G01X1674114Y-5067300D01*
G01X1674114Y-4637865D01*
G01X1845864Y-4637865D01*
G01X1845864Y-4658535D01*
G01X1849662Y-4678854D01*
G01X1857129Y-4698129D01*
G01X1868011Y-4715704D01*
G01X1881937Y-4730979D01*
G01X1898432Y-4743436D01*
G01X1916936Y-4752650D01*
G01X1936818Y-4758307D01*
G01X1957400Y-4760214D01*
G01X2005000Y-4760214D01*
G01X2025582Y-4758307D01*
G01X2045464Y-4752650D01*
G01X2063968Y-4743436D01*
G01X2080463Y-4730979D01*
G01X2094389Y-4715704D01*
G01X2105271Y-4698129D01*
G01X2112738Y-4678854D01*
G01X2116536Y-4658535D01*
G01X2116536Y-4637865D01*
G01X2112738Y-4617546D01*
G01X2105271Y-4598271D01*
G01X2094389Y-4580696D01*
G01X2080463Y-4565421D01*
G01X2063968Y-4552964D01*
G01X2045464Y-4543750D01*
G01X2025582Y-4538093D01*
G01X2005000Y-4536186D01*
G01X2005000Y-4536186D01*
G01X1957400Y-4536186D01*
G01X1936818Y-4538093D01*
G01X1916936Y-4543750D01*
G01X1898432Y-4552964D01*
G01X1881937Y-4565421D01*
G01X1868011Y-4580696D01*
G01X1857129Y-4598271D01*
G01X1849662Y-4617546D01*
G01X1845864Y-4637865D01*
G01X1674114Y-4637865D01*
G01X1674114Y-4356056D01*
G01X1739856Y-4290314D01*
G01X1915509Y-4290314D01*
G01X1897220Y-4299725D01*
G01X1880960Y-4312322D01*
G01X1867277Y-4327680D01*
G01X1856633Y-4345281D01*
G01X1849387Y-4364531D01*
G01X1845783Y-4384782D01*
G01X1845942Y-4405350D01*
G01X1849860Y-4425542D01*
G01X1857404Y-4444677D01*
G01X1868320Y-4462111D01*
G01X1882240Y-4477254D01*
G01X1898694Y-4489597D01*
G01X1917127Y-4498724D01*
G01X1936918Y-4504325D01*
G01X1957400Y-4506214D01*
G01X2005000Y-4506214D01*
G01X2025376Y-4504345D01*
G01X2045072Y-4498801D01*
G01X2063431Y-4489766D01*
G01X2079840Y-4477543D01*
G01X2093752Y-4462539D01*
G01X2104702Y-4445254D01*
G01X2173498Y-4445254D01*
G01X2176857Y-4454288D01*
G01X2182505Y-4462099D01*
G01X2190030Y-4468120D01*
G01X2198889Y-4471917D01*
G01X2208440Y-4473214D01*
G01X2289087Y-4473214D01*
G01X2298701Y-4471900D01*
G01X2307609Y-4468053D01*
G01X2315158Y-4461956D01*
G01X2320793Y-4454056D01*
G01X2324100Y-4444934D01*
G01X2327407Y-4454056D01*
G01X2333042Y-4461956D01*
G01X2340591Y-4468053D01*
G01X2349499Y-4471900D01*
G01X2359113Y-4473214D01*
G01X2439760Y-4473214D01*
G01X2449685Y-4471812D01*
G01X2458832Y-4467714D01*
G01X2466485Y-4461242D01*
G01X2472045Y-4452903D01*
G01X2475077Y-4443349D01*
G01X2574993Y-4443349D01*
G01X2569313Y-4457057D01*
G01X2567283Y-4471756D01*
G01X2569036Y-4486491D01*
G01X2574456Y-4500303D01*
G01X2583192Y-4512297D01*
G01X2574543Y-4524133D01*
G01X2569125Y-4537755D01*
G01X2567281Y-4552298D01*
G01X2569129Y-4566841D01*
G01X2574551Y-4580461D01*
G01X2583204Y-4592295D01*
G01X2574550Y-4604131D01*
G01X2569127Y-4617754D01*
G01X2567281Y-4632300D01*
G01X2569127Y-4646845D01*
G01X2574550Y-4660469D01*
G01X2583204Y-4672305D01*
G01X2574377Y-4684456D01*
G01X2568952Y-4698460D01*
G01X2567291Y-4713387D01*
G01X2569504Y-4728242D01*
G01X2575443Y-4742037D01*
G01X2584714Y-4753853D01*
G01X2596700Y-4762903D01*
G01X2610602Y-4768586D01*
G01X2625495Y-4770524D01*
G01X2737486Y-4770524D01*
G01X2737486Y-4789920D01*
G01X2738881Y-4795127D01*
G01X2742693Y-4798939D01*
G01X2747900Y-4800334D01*
G01X2773276Y-4800334D01*
G01X2773276Y-4918305D01*
G01X2775095Y-4932741D01*
G01X2780436Y-4946276D01*
G01X2780436Y-5072162D01*
G01X2757899Y-5094699D01*
G01X2749786Y-5105273D01*
G01X2744686Y-5117586D01*
G01X2742946Y-5130800D01*
G01X2742946Y-5206815D01*
G01X2735275Y-5212480D01*
G01X2729372Y-5219968D01*
G01X2725653Y-5228749D01*
G01X2724384Y-5238200D01*
G01X2724384Y-5328200D01*
G01X2725456Y-5336896D01*
G01X2728607Y-5345072D01*
G01X2733650Y-5352238D01*
G01X2733650Y-5388709D01*
G01X2725644Y-5396642D01*
G01X2720499Y-5406670D01*
G01X2718726Y-5417800D01*
G01X2718726Y-5504200D01*
G01X2720390Y-5514989D01*
G01X2725226Y-5524776D01*
G01X2732786Y-5532651D01*
G01X2732786Y-5555686D01*
G01X2725410Y-5561381D01*
G01X2719753Y-5568786D01*
G01X2716198Y-5577400D01*
G01X2714986Y-5586640D01*
G01X2714986Y-5667287D01*
G01X2716300Y-5676901D01*
G01X2720147Y-5685809D01*
G01X2726244Y-5693358D01*
G01X2734144Y-5698993D01*
G01X2743266Y-5702300D01*
G01X2734144Y-5705607D01*
G01X2726244Y-5711242D01*
G01X2720147Y-5718791D01*
G01X2716300Y-5727699D01*
G01X2714986Y-5737313D01*
G01X2714986Y-5817960D01*
G01X2716198Y-5827200D01*
G01X2719753Y-5835814D01*
G01X2725410Y-5843219D01*
G01X2732786Y-5848914D01*
G01X2732786Y-6019800D01*
G01X2733962Y-6031742D01*
G01X2737446Y-6043226D01*
G01X2743102Y-6053809D01*
G01X2750715Y-6063085D01*
G01X2903115Y-6215485D01*
G01X2912391Y-6223098D01*
G01X2922974Y-6228754D01*
G01X2934458Y-6232238D01*
G01X2946400Y-6233414D01*
G01X3037959Y-6233414D01*
G01X3049346Y-6253634D01*
G01X3063796Y-6271791D01*
G01X3080944Y-6287426D01*
G01X3100356Y-6300143D01*
G01X3121539Y-6309619D01*
G01X3143956Y-6315614D01*
G01X3167042Y-6317977D01*
G01X3190209Y-6316648D01*
G01X3212873Y-6311661D01*
G01X3234458Y-6303141D01*
G01X3254418Y-6291305D01*
G01X3272248Y-6276452D01*
G01X3287496Y-6258959D01*
G01X3299775Y-6239268D01*
G01X3308775Y-6217879D01*
G01X3314268Y-6195332D01*
G01X3316115Y-6172200D01*
G01X3524486Y-6172200D01*
G01X3526475Y-6196200D01*
G01X3532387Y-6219546D01*
G01X3542061Y-6241600D01*
G01X3555232Y-6261761D01*
G01X3571543Y-6279479D01*
G01X3590547Y-6294270D01*
G01X3611727Y-6305732D01*
G01X3634505Y-6313552D01*
G01X3658259Y-6317516D01*
G01X3682341Y-6317516D01*
G01X3706095Y-6313552D01*
G01X3728873Y-6305732D01*
G01X3750053Y-6294270D01*
G01X3769057Y-6279479D01*
G01X3785368Y-6261761D01*
G01X3798539Y-6241600D01*
G01X3808213Y-6219546D01*
G01X3814125Y-6196200D01*
G01X3816114Y-6172200D01*
G01X3816114Y-6172200D01*
G01X3814125Y-6148200D01*
G01X3808213Y-6124854D01*
G01X3798539Y-6102800D01*
G01X3785368Y-6082639D01*
G01X3769057Y-6064921D01*
G01X3750053Y-6050130D01*
G01X3728873Y-6038668D01*
G01X3706095Y-6030848D01*
G01X3682341Y-6026884D01*
G01X3658259Y-6026884D01*
G01X3634505Y-6030848D01*
G01X3611727Y-6038668D01*
G01X3590547Y-6050130D01*
G01X3571543Y-6064921D01*
G01X3555232Y-6082639D01*
G01X3542061Y-6102800D01*
G01X3532387Y-6124854D01*
G01X3526475Y-6148200D01*
G01X3524486Y-6172200D01*
G01X3316115Y-6172200D01*
G01X3314268Y-6149068D01*
G01X3308775Y-6126521D01*
G01X3299775Y-6105132D01*
G01X3287496Y-6085441D01*
G01X3272248Y-6067948D01*
G01X3254418Y-6053095D01*
G01X3234458Y-6041259D01*
G01X3212873Y-6032739D01*
G01X3190209Y-6027752D01*
G01X3167042Y-6026423D01*
G01X3143956Y-6028786D01*
G01X3121539Y-6034781D01*
G01X3100356Y-6044257D01*
G01X3080944Y-6056974D01*
G01X3063796Y-6072609D01*
G01X3049346Y-6090766D01*
G01X3037959Y-6110986D01*
G01X2971756Y-6110986D01*
G01X2855214Y-5994444D01*
G01X2855214Y-5862814D01*
G01X3073394Y-5862814D01*
G01X3078135Y-5861672D01*
G01X3081837Y-5858497D01*
G01X3083687Y-5853985D01*
G01X3090409Y-5856025D01*
G01X3097400Y-5856714D01*
G01X3303400Y-5856714D01*
G01X3314467Y-5854961D01*
G01X3324450Y-5849874D01*
G01X3332374Y-5841951D01*
G01X3337461Y-5831967D01*
G01X3339214Y-5820900D01*
G01X3339214Y-5613900D01*
G01X3337461Y-5602833D01*
G01X3332374Y-5592849D01*
G01X3324450Y-5584926D01*
G01X3314467Y-5579839D01*
G01X3303400Y-5578086D01*
G01X3097400Y-5578086D01*
G01X3086333Y-5579839D01*
G01X3076350Y-5584926D01*
G01X3068426Y-5592849D01*
G01X3063339Y-5602833D01*
G01X3061586Y-5613900D01*
G01X3061586Y-5654717D01*
G01X2990548Y-5583679D01*
G01X2981272Y-5576066D01*
G01X2970689Y-5570409D01*
G01X2959206Y-5566926D01*
G01X2947264Y-5565750D01*
G01X2918414Y-5565750D01*
G01X2918414Y-5540014D01*
G01X2985860Y-5540014D01*
G01X2996927Y-5538261D01*
G01X3006911Y-5533174D01*
G01X3014834Y-5525251D01*
G01X3019921Y-5515267D01*
G01X3021674Y-5504200D01*
G01X3021674Y-5417800D01*
G01X3019921Y-5406733D01*
G01X3014834Y-5396749D01*
G01X3006911Y-5388826D01*
G01X2996927Y-5383739D01*
G01X2985860Y-5381986D01*
G01X2918414Y-5381986D01*
G01X2918414Y-5364014D01*
G01X2980202Y-5364014D01*
G01X2991269Y-5362261D01*
G01X3001253Y-5357174D01*
G01X3009176Y-5349251D01*
G01X3014263Y-5339267D01*
G01X3016016Y-5328200D01*
G01X3016016Y-5238200D01*
G01X3014417Y-5228100D01*
G01X3061586Y-5228100D01*
G01X3061586Y-5435100D01*
G01X3063339Y-5446167D01*
G01X3068426Y-5456151D01*
G01X3076350Y-5464074D01*
G01X3086333Y-5469161D01*
G01X3097400Y-5470914D01*
G01X3303400Y-5470914D01*
G01X3314467Y-5469161D01*
G01X3324450Y-5464074D01*
G01X3332374Y-5456151D01*
G01X3337461Y-5446167D01*
G01X3339214Y-5435100D01*
G01X3339214Y-5228100D01*
G01X3337461Y-5217033D01*
G01X3332374Y-5207049D01*
G01X3324450Y-5199126D01*
G01X3314467Y-5194039D01*
G01X3303400Y-5192286D01*
G01X3097400Y-5192286D01*
G01X3097400Y-5192286D01*
G01X3086333Y-5194039D01*
G01X3076350Y-5199126D01*
G01X3068426Y-5207049D01*
G01X3063339Y-5217033D01*
G01X3061586Y-5228100D01*
G01X3014417Y-5228100D01*
G01X3014263Y-5227133D01*
G01X3009176Y-5217149D01*
G01X3001253Y-5209226D01*
G01X2991269Y-5204139D01*
G01X2980202Y-5202386D01*
G01X2900202Y-5202386D01*
G01X2888746Y-5204268D01*
G01X2878494Y-5209715D01*
G01X2870523Y-5218156D01*
G01X2869877Y-5218156D01*
G01X2863175Y-5210728D01*
G01X2854679Y-5205445D01*
G01X2845054Y-5202717D01*
G01X2845054Y-5151947D01*
G01X2867591Y-5129410D01*
G01X2874571Y-5120707D01*
G01X2879493Y-5110695D01*
G01X2922999Y-5154201D01*
G01X2933573Y-5162314D01*
G01X2945886Y-5167414D01*
G01X2959100Y-5169154D01*
G01X3699953Y-5169154D01*
G01X3720846Y-5190047D01*
G01X3720846Y-5244915D01*
G01X3713175Y-5250580D01*
G01X3707272Y-5258068D01*
G01X3703553Y-5266849D01*
G01X3702284Y-5276300D01*
G01X3702284Y-5366300D01*
G01X3704016Y-5377303D01*
G01X3709045Y-5387242D01*
G01X3716884Y-5395155D01*
G01X3716884Y-5436341D01*
G01X3708565Y-5441905D01*
G01X3702110Y-5449554D01*
G01X3698024Y-5458690D01*
G01X3696626Y-5468600D01*
G01X3696626Y-5555000D01*
G01X3698290Y-5565789D01*
G01X3703126Y-5575576D01*
G01X3710686Y-5583451D01*
G01X3710686Y-5619186D01*
G01X3703310Y-5624881D01*
G01X3697653Y-5632286D01*
G01X3694098Y-5640900D01*
G01X3692886Y-5650140D01*
G01X3692886Y-5730787D01*
G01X3694200Y-5740401D01*
G01X3698047Y-5749309D01*
G01X3704144Y-5756858D01*
G01X3712044Y-5762493D01*
G01X3721166Y-5765800D01*
G01X3712044Y-5769107D01*
G01X3704144Y-5774742D01*
G01X3698047Y-5782291D01*
G01X3694200Y-5791199D01*
G01X3692886Y-5800813D01*
G01X3692886Y-5881460D01*
G01X3694639Y-5892527D01*
G01X3699726Y-5902511D01*
G01X3707649Y-5910434D01*
G01X3717633Y-5915521D01*
G01X3728700Y-5917274D01*
G01X3815100Y-5917274D01*
G01X3826230Y-5915501D01*
G01X3836258Y-5910356D01*
G01X3844191Y-5902350D01*
G01X3872681Y-5902350D01*
G01X3913886Y-5943556D01*
G01X3913886Y-6108700D01*
G01X3915062Y-6120642D01*
G01X3918546Y-6132126D01*
G01X3924202Y-6142709D01*
G01X3931815Y-6151985D01*
G01X3995315Y-6215485D01*
G01X4004457Y-6223008D01*
G01X4014877Y-6228630D01*
G01X4026184Y-6232142D01*
G01X4037955Y-6233411D01*
G01X4049820Y-6254337D01*
G01X4064964Y-6273027D01*
G01X4082974Y-6288974D01*
G01X4103362Y-6301742D01*
G01X4125571Y-6310984D01*
G01X4148998Y-6316450D01*
G01X4173004Y-6317989D01*
G01X4196937Y-6315560D01*
G01X4220145Y-6309229D01*
G01X4241996Y-6299169D01*
G01X4261896Y-6285654D01*
G01X4279302Y-6269050D01*
G01X4293742Y-6249811D01*
G01X4304823Y-6228459D01*
G01X4312242Y-6205576D01*
G01X4315797Y-6181784D01*
G01X4315393Y-6157732D01*
G01X4311040Y-6134073D01*
G01X4302856Y-6111453D01*
G01X4291065Y-6090485D01*
G01X4275986Y-6071742D01*
G01X4258031Y-6055732D01*
G01X4237689Y-6042893D01*
G01X4215512Y-6033573D01*
G01X4192105Y-6028026D01*
G01X4168104Y-6026403D01*
G01X4144163Y-6028748D01*
G01X4120933Y-6034997D01*
G01X4099047Y-6044981D01*
G01X4079100Y-6058427D01*
G01X4061635Y-6074969D01*
G01X4047128Y-6094158D01*
G01X4036314Y-6083344D01*
G01X4036314Y-5918200D01*
G01X4035231Y-5906735D01*
G01X4032019Y-5895676D01*
G01X4026794Y-5885414D01*
G01X4038415Y-5885414D01*
G01X4045611Y-5890528D01*
G01X4053839Y-5893726D01*
G01X4062600Y-5894814D01*
G01X4268600Y-5894814D01*
G01X4279667Y-5893061D01*
G01X4289650Y-5887974D01*
G01X4297574Y-5880051D01*
G01X4302661Y-5870067D01*
G01X4304414Y-5859000D01*
G01X4304414Y-5652000D01*
G01X4302661Y-5640933D01*
G01X4297574Y-5630949D01*
G01X4289650Y-5623026D01*
G01X4279667Y-5617939D01*
G01X4268600Y-5616186D01*
G01X4062600Y-5616186D01*
G01X4051533Y-5617939D01*
G01X4041550Y-5623026D01*
G01X4033626Y-5630949D01*
G01X4028539Y-5640933D01*
G01X4026786Y-5652000D01*
G01X4026786Y-5694286D01*
G01X3990156Y-5694286D01*
G01X3942185Y-5646315D01*
G01X3929831Y-5636776D01*
G01X3915467Y-5630670D01*
G01X3915467Y-5590814D01*
G01X3963760Y-5590814D01*
G01X3974827Y-5589061D01*
G01X3984811Y-5583974D01*
G01X3992734Y-5576051D01*
G01X3997821Y-5566067D01*
G01X3999574Y-5555000D01*
G01X3999574Y-5468600D01*
G01X3997821Y-5457533D01*
G01X3992734Y-5447549D01*
G01X3984811Y-5439626D01*
G01X3974827Y-5434539D01*
G01X3963760Y-5432786D01*
G01X3915467Y-5432786D01*
G01X3915467Y-5402114D01*
G01X3958102Y-5402114D01*
G01X3969169Y-5400361D01*
G01X3979153Y-5395274D01*
G01X3987076Y-5387351D01*
G01X3992163Y-5377367D01*
G01X3993916Y-5366300D01*
G01X3993916Y-5276300D01*
G01X3992163Y-5265233D01*
G01X3987076Y-5255249D01*
G01X3979153Y-5247326D01*
G01X3969169Y-5242239D01*
G01X3958102Y-5240486D01*
G01X3878102Y-5240486D01*
G01X3866462Y-5242431D01*
G01X3856086Y-5248053D01*
G01X3848100Y-5256743D01*
G01X3841372Y-5249080D01*
G01X3832757Y-5243624D01*
G01X3822954Y-5240817D01*
G01X3822954Y-5168900D01*
G01X3822805Y-5165007D01*
G01X3875499Y-5217701D01*
G01X3886073Y-5225814D01*
G01X3898386Y-5230914D01*
G01X3911600Y-5232654D01*
G01X4050058Y-5232654D01*
G01X4040612Y-5237930D01*
G01X4033174Y-5245786D01*
G01X4028421Y-5255505D01*
G01X4026786Y-5266200D01*
G01X4026786Y-5473200D01*
G01X4028539Y-5484267D01*
G01X4033626Y-5494251D01*
G01X4041550Y-5502174D01*
G01X4051533Y-5507261D01*
G01X4062600Y-5509014D01*
G01X4268600Y-5509014D01*
G01X4279667Y-5507261D01*
G01X4289650Y-5502174D01*
G01X4297574Y-5494251D01*
G01X4302661Y-5484267D01*
G01X4304414Y-5473200D01*
G01X4304414Y-5266200D01*
G01X4302779Y-5255505D01*
G01X4298026Y-5245786D01*
G01X4290588Y-5237930D01*
G01X4281142Y-5232654D01*
G01X4296853Y-5232654D01*
G01X4421599Y-5357401D01*
G01X4432173Y-5365514D01*
G01X4444486Y-5370614D01*
G01X4457700Y-5372354D01*
G01X4693399Y-5372354D01*
G01X4696077Y-5381084D01*
G01X4700876Y-5388852D01*
G01X4707484Y-5395155D01*
G01X4707484Y-5423641D01*
G01X4699165Y-5429205D01*
G01X4692710Y-5436854D01*
G01X4688624Y-5445990D01*
G01X4687226Y-5455900D01*
G01X4687226Y-5542300D01*
G01X4688890Y-5553089D01*
G01X4693726Y-5562876D01*
G01X4701286Y-5570751D01*
G01X4701286Y-5593786D01*
G01X4693910Y-5599481D01*
G01X4688253Y-5606886D01*
G01X4684698Y-5615500D01*
G01X4683486Y-5624740D01*
G01X4683486Y-5705387D01*
G01X4684800Y-5715001D01*
G01X4688647Y-5723909D01*
G01X4694744Y-5731458D01*
G01X4702644Y-5737093D01*
G01X4711766Y-5740400D01*
G01X4702644Y-5743707D01*
G01X4694744Y-5749342D01*
G01X4688647Y-5756891D01*
G01X4684800Y-5765799D01*
G01X4683486Y-5775413D01*
G01X4683486Y-5856060D01*
G01X4684698Y-5865300D01*
G01X4688253Y-5873914D01*
G01X4693910Y-5881319D01*
G01X4701286Y-5887014D01*
G01X4701286Y-5981700D01*
G01X4702462Y-5993642D01*
G01X4705946Y-6005126D01*
G01X4711602Y-6015709D01*
G01X4719215Y-6024985D01*
G01X4737153Y-6042923D01*
G01X4717663Y-6055138D01*
G01X4700335Y-6070266D01*
G01X4685603Y-6087931D01*
G01X4673832Y-6107693D01*
G01X4665314Y-6129060D01*
G01X4660263Y-6151501D01*
G01X4658804Y-6174457D01*
G01X4660973Y-6197356D01*
G01X4666716Y-6219630D01*
G01X4675891Y-6240723D01*
G01X4688268Y-6260111D01*
G01X4703540Y-6277312D01*
G01X4721327Y-6291897D01*
G01X4741187Y-6303503D01*
G01X4762624Y-6311841D01*
G01X4785106Y-6316705D01*
G01X4808074Y-6317972D01*
G01X4830954Y-6315612D01*
G01X4853179Y-6309684D01*
G01X4874195Y-6300334D01*
G01X4893479Y-6287795D01*
G01X4910552Y-6272380D01*
G01X4924988Y-6254472D01*
G01X4936428Y-6234516D01*
G01X4944587Y-6213010D01*
G01X4949263Y-6190488D01*
G01X4950119Y-6172200D01*
G01X5158786Y-6172200D01*
G01X5160774Y-6196200D01*
G01X5166686Y-6219546D01*
G01X5176360Y-6241600D01*
G01X5189532Y-6261761D01*
G01X5205843Y-6279479D01*
G01X5224847Y-6294270D01*
G01X5246027Y-6305732D01*
G01X5268804Y-6313552D01*
G01X5292558Y-6317516D01*
G01X5316641Y-6317516D01*
G01X5340395Y-6313552D01*
G01X5363172Y-6305732D01*
G01X5384352Y-6294270D01*
G01X5403356Y-6279479D01*
G01X5419667Y-6261761D01*
G01X5432839Y-6241600D01*
G01X5442513Y-6219546D01*
G01X5448425Y-6196200D01*
G01X5450413Y-6172200D01*
G01X5450413Y-6172200D01*
G01X6157387Y-6172200D01*
G01X6159375Y-6196200D01*
G01X6165287Y-6219546D01*
G01X6174961Y-6241600D01*
G01X6188133Y-6261761D01*
G01X6204444Y-6279479D01*
G01X6223448Y-6294270D01*
G01X6244628Y-6305732D01*
G01X6267405Y-6313552D01*
G01X6291159Y-6317516D01*
G01X6315242Y-6317516D01*
G01X6338996Y-6313552D01*
G01X6361773Y-6305732D01*
G01X6382953Y-6294270D01*
G01X6401957Y-6279479D01*
G01X6418268Y-6261761D01*
G01X6431440Y-6241600D01*
G01X6441114Y-6219546D01*
G01X6447026Y-6196200D01*
G01X6449014Y-6172200D01*
G01X6449014Y-6172200D01*
G01X6657386Y-6172200D01*
G01X6659374Y-6196200D01*
G01X6665286Y-6219546D01*
G01X6674960Y-6241600D01*
G01X6688132Y-6261761D01*
G01X6704443Y-6279479D01*
G01X6723447Y-6294270D01*
G01X6744627Y-6305732D01*
G01X6767404Y-6313552D01*
G01X6791158Y-6317516D01*
G01X6815241Y-6317516D01*
G01X6838995Y-6313552D01*
G01X6861772Y-6305732D01*
G01X6882952Y-6294270D01*
G01X6888134Y-6290237D01*
G01X7577386Y-6290237D01*
G01X7579380Y-6318105D01*
G01X7585318Y-6345404D01*
G01X7595082Y-6371581D01*
G01X7608471Y-6396102D01*
G01X7625214Y-6418468D01*
G01X7644969Y-6438223D01*
G01X7667335Y-6454966D01*
G01X7691856Y-6468356D01*
G01X7718033Y-6478119D01*
G01X7745333Y-6484058D01*
G01X7773200Y-6486051D01*
G01X7801067Y-6484058D01*
G01X7828367Y-6478119D01*
G01X7854544Y-6468356D01*
G01X7879065Y-6454966D01*
G01X7901431Y-6438223D01*
G01X7921186Y-6418468D01*
G01X7937929Y-6396102D01*
G01X7951318Y-6371581D01*
G01X7961082Y-6345404D01*
G01X7967021Y-6318105D01*
G01X7968773Y-6293599D01*
G01X8170088Y-6293599D01*
G01X8171841Y-6304666D01*
G01X8176928Y-6314650D01*
G01X8184851Y-6322573D01*
G01X8194835Y-6327660D01*
G01X8205902Y-6329413D01*
G01X8505901Y-6329413D01*
G01X8516968Y-6327660D01*
G01X8526952Y-6322573D01*
G01X8534875Y-6314650D01*
G01X8539962Y-6304666D01*
G01X8541715Y-6293599D01*
G01X9670085Y-6293599D01*
G01X9671838Y-6304666D01*
G01X9676925Y-6314650D01*
G01X9684848Y-6322573D01*
G01X9694832Y-6327660D01*
G01X9705899Y-6329413D01*
G01X10005898Y-6329413D01*
G01X10016965Y-6327660D01*
G01X10026949Y-6322573D01*
G01X10034872Y-6314650D01*
G01X10039959Y-6304666D01*
G01X10041712Y-6293599D01*
G01X10041712Y-6093600D01*
G01X10039959Y-6082533D01*
G01X10034872Y-6072549D01*
G01X10026949Y-6064626D01*
G01X10016965Y-6059539D01*
G01X10005898Y-6057786D01*
G01X9705899Y-6057786D01*
G01X9694832Y-6059539D01*
G01X9684848Y-6064626D01*
G01X9676925Y-6072549D01*
G01X9671838Y-6082533D01*
G01X9670085Y-6093600D01*
G01X9670085Y-6293599D01*
G01X9670085Y-6293599D01*
G01X8541715Y-6293599D01*
G01X8541715Y-6093600D01*
G01X8539962Y-6082533D01*
G01X8534875Y-6072549D01*
G01X8526952Y-6064626D01*
G01X8516968Y-6059539D01*
G01X8505901Y-6057786D01*
G01X8205902Y-6057786D01*
G01X8194835Y-6059539D01*
G01X8184851Y-6064626D01*
G01X8176928Y-6072549D01*
G01X8171841Y-6082533D01*
G01X8170088Y-6093600D01*
G01X8170088Y-6293599D01*
G01X8170088Y-6293599D01*
G01X7968773Y-6293599D01*
G01X7969014Y-6290237D01*
G01X7967021Y-6262370D01*
G01X7961082Y-6235070D01*
G01X7951318Y-6208893D01*
G01X7937929Y-6184372D01*
G01X7921186Y-6162007D01*
G01X7901431Y-6142251D01*
G01X7879065Y-6125508D01*
G01X7854544Y-6112119D01*
G01X7828367Y-6102356D01*
G01X7801067Y-6096417D01*
G01X7773200Y-6094424D01*
G01X7745333Y-6096417D01*
G01X7718033Y-6102356D01*
G01X7691856Y-6112119D01*
G01X7667335Y-6125508D01*
G01X7644969Y-6142251D01*
G01X7625214Y-6162007D01*
G01X7608471Y-6184372D01*
G01X7595082Y-6208893D01*
G01X7585318Y-6235070D01*
G01X7579380Y-6262370D01*
G01X7577386Y-6290237D01*
G01X7577386Y-6290237D01*
G01X6888134Y-6290237D01*
G01X6901956Y-6279479D01*
G01X6918267Y-6261761D01*
G01X6931439Y-6241600D01*
G01X6941113Y-6219546D01*
G01X6947025Y-6196200D01*
G01X6949013Y-6172200D01*
G01X6949013Y-6172200D01*
G01X6947025Y-6148200D01*
G01X6941113Y-6124854D01*
G01X6931439Y-6102800D01*
G01X6918267Y-6082639D01*
G01X6901956Y-6064921D01*
G01X6882952Y-6050130D01*
G01X6861772Y-6038668D01*
G01X6838995Y-6030848D01*
G01X6815241Y-6026884D01*
G01X6791158Y-6026884D01*
G01X6767404Y-6030848D01*
G01X6744627Y-6038668D01*
G01X6723447Y-6050130D01*
G01X6704443Y-6064921D01*
G01X6688132Y-6082639D01*
G01X6674960Y-6102800D01*
G01X6665286Y-6124854D01*
G01X6659374Y-6148200D01*
G01X6657386Y-6172200D01*
G01X6449014Y-6172200D01*
G01X6447026Y-6148200D01*
G01X6441114Y-6124854D01*
G01X6431440Y-6102800D01*
G01X6418268Y-6082639D01*
G01X6401957Y-6064921D01*
G01X6382953Y-6050130D01*
G01X6361773Y-6038668D01*
G01X6338996Y-6030848D01*
G01X6315242Y-6026884D01*
G01X6291159Y-6026884D01*
G01X6267405Y-6030848D01*
G01X6244628Y-6038668D01*
G01X6223448Y-6050130D01*
G01X6204444Y-6064921D01*
G01X6188133Y-6082639D01*
G01X6174961Y-6102800D01*
G01X6165287Y-6124854D01*
G01X6159375Y-6148200D01*
G01X6157387Y-6172200D01*
G01X5450413Y-6172200D01*
G01X5448425Y-6148200D01*
G01X5442513Y-6124854D01*
G01X5432839Y-6102800D01*
G01X5419667Y-6082639D01*
G01X5403356Y-6064921D01*
G01X5384352Y-6050130D01*
G01X5363172Y-6038668D01*
G01X5340395Y-6030848D01*
G01X5316641Y-6026884D01*
G01X5292558Y-6026884D01*
G01X5268804Y-6030848D01*
G01X5246027Y-6038668D01*
G01X5224847Y-6050130D01*
G01X5205843Y-6064921D01*
G01X5189532Y-6082639D01*
G01X5176360Y-6102800D01*
G01X5166686Y-6124854D01*
G01X5160774Y-6148200D01*
G01X5158786Y-6172200D01*
G01X4950119Y-6172200D01*
G01X4950339Y-6167511D01*
G01X4947788Y-6144651D01*
G01X4941674Y-6122476D01*
G01X4932149Y-6101539D01*
G01X4919450Y-6082360D01*
G01X4903893Y-6065417D01*
G01X4885865Y-6051131D01*
G01X4865815Y-6039858D01*
G01X4865815Y-6023800D01*
G01X4864638Y-6011858D01*
G01X4861155Y-6000375D01*
G01X4855498Y-5989792D01*
G01X4847885Y-5980516D01*
G01X4823714Y-5956344D01*
G01X4823714Y-5887014D01*
G01X4830953Y-5881456D01*
G01X4836552Y-5874249D01*
G01X4840147Y-5865860D01*
G01X4841506Y-5856835D01*
G01X4891952Y-5856835D01*
G01X4895650Y-5857514D01*
G01X5019187Y-5857514D01*
G01X5024295Y-5867445D01*
G01X5032212Y-5875320D01*
G01X5042170Y-5880373D01*
G01X5053200Y-5882114D01*
G01X5259200Y-5882114D01*
G01X5270267Y-5880361D01*
G01X5280250Y-5875274D01*
G01X5288174Y-5867351D01*
G01X5293261Y-5857367D01*
G01X5295014Y-5846300D01*
G01X5295014Y-5702300D01*
G01X5623286Y-5702300D01*
G01X5624977Y-5717179D01*
G01X5629963Y-5731299D01*
G01X5637989Y-5743940D01*
G01X5648648Y-5754458D01*
G01X5661395Y-5762317D01*
G01X5675579Y-5767115D01*
G01X5690479Y-5768608D01*
G01X5705334Y-5766720D01*
G01X5719387Y-5761548D01*
G01X5731921Y-5753354D01*
G01X8170088Y-5753354D01*
G01X8170088Y-5793600D01*
G01X8171841Y-5804667D01*
G01X8176928Y-5814651D01*
G01X8184851Y-5822574D01*
G01X8194835Y-5827661D01*
G01X8205902Y-5829414D01*
G01X8505901Y-5829414D01*
G01X8516968Y-5827661D01*
G01X8526952Y-5822574D01*
G01X8534875Y-5814651D01*
G01X8539962Y-5804667D01*
G01X8541715Y-5793600D01*
G01X8541715Y-5754814D01*
G01X9670085Y-5754814D01*
G01X9670085Y-5793600D01*
G01X9671838Y-5804667D01*
G01X9676925Y-5814651D01*
G01X9684848Y-5822574D01*
G01X9694832Y-5827661D01*
G01X9705899Y-5829414D01*
G01X10005898Y-5829414D01*
G01X10016965Y-5827661D01*
G01X10026949Y-5822574D01*
G01X10034872Y-5814651D01*
G01X10039959Y-5804667D01*
G01X10041712Y-5793600D01*
G01X10041712Y-5593601D01*
G01X10039959Y-5582534D01*
G01X10034872Y-5572550D01*
G01X10026949Y-5564627D01*
G01X10016965Y-5559540D01*
G01X10005898Y-5557787D01*
G01X9705899Y-5557787D01*
G01X9694832Y-5559540D01*
G01X9684848Y-5564627D01*
G01X9676925Y-5572550D01*
G01X9671838Y-5582534D01*
G01X9670085Y-5593601D01*
G01X9670085Y-5632386D01*
G01X8541715Y-5632386D01*
G01X8541715Y-5593601D01*
G01X8539962Y-5582534D01*
G01X8534875Y-5572550D01*
G01X8526952Y-5564627D01*
G01X8516968Y-5559540D01*
G01X8505901Y-5557787D01*
G01X8205902Y-5557787D01*
G01X8194835Y-5559540D01*
G01X8184851Y-5564627D01*
G01X8176928Y-5572550D01*
G01X8171841Y-5582534D01*
G01X8170088Y-5593601D01*
G01X8170088Y-5651246D01*
G01X7840589Y-5651246D01*
G01X7861267Y-5645573D01*
G01X7880544Y-5636185D01*
G01X7897761Y-5623404D01*
G01X7912326Y-5607668D01*
G01X7923741Y-5589517D01*
G01X7931614Y-5569573D01*
G01X7935676Y-5548519D01*
G01X7935787Y-5527077D01*
G01X7931943Y-5505983D01*
G01X7924276Y-5485958D01*
G01X7913049Y-5467690D01*
G01X7898647Y-5451805D01*
G01X7881564Y-5438847D01*
G01X7862384Y-5429260D01*
G01X7841766Y-5423374D01*
G01X7820416Y-5421389D01*
G01X7799066Y-5423374D01*
G01X7778448Y-5429260D01*
G01X7759269Y-5438847D01*
G01X7742185Y-5451805D01*
G01X7727783Y-5467690D01*
G01X7716556Y-5485958D01*
G01X7708890Y-5505983D01*
G01X7705046Y-5527077D01*
G01X7705157Y-5548519D01*
G01X7709218Y-5569573D01*
G01X7717091Y-5589517D01*
G01X7728506Y-5607668D01*
G01X7743072Y-5623404D01*
G01X7760288Y-5636185D01*
G01X7779566Y-5645573D01*
G01X7800244Y-5651246D01*
G01X7490577Y-5651246D01*
G01X7511255Y-5645573D01*
G01X7530532Y-5636185D01*
G01X7547749Y-5623404D01*
G01X7562314Y-5607668D01*
G01X7573729Y-5589517D01*
G01X7581602Y-5569573D01*
G01X7585664Y-5548519D01*
G01X7585775Y-5527077D01*
G01X7581931Y-5505983D01*
G01X7574264Y-5485958D01*
G01X7563037Y-5467690D01*
G01X7548635Y-5451805D01*
G01X7531552Y-5438847D01*
G01X7512372Y-5429260D01*
G01X7491754Y-5423374D01*
G01X7470404Y-5421389D01*
G01X7449054Y-5423374D01*
G01X7428436Y-5429260D01*
G01X7409257Y-5438847D01*
G01X7392173Y-5451805D01*
G01X7377771Y-5467690D01*
G01X7366544Y-5485958D01*
G01X7358878Y-5505983D01*
G01X7355034Y-5527077D01*
G01X7355145Y-5548519D01*
G01X7359206Y-5569573D01*
G01X7367079Y-5589517D01*
G01X7378494Y-5607668D01*
G01X7393060Y-5623404D01*
G01X7410276Y-5636185D01*
G01X7429554Y-5645573D01*
G01X7450232Y-5651246D01*
G01X5731921Y-5651246D01*
G01X5731921Y-5651246D01*
G01X5719387Y-5643052D01*
G01X5705334Y-5637880D01*
G01X5690479Y-5635992D01*
G01X5675579Y-5637485D01*
G01X5661395Y-5642283D01*
G01X5648648Y-5650142D01*
G01X5637989Y-5660660D01*
G01X5629963Y-5673301D01*
G01X5624977Y-5687421D01*
G01X5623286Y-5702300D01*
G01X5295014Y-5702300D01*
G01X5295014Y-5639300D01*
G01X5293261Y-5628233D01*
G01X5288174Y-5618249D01*
G01X5280250Y-5610326D01*
G01X5270267Y-5605239D01*
G01X5259200Y-5603486D01*
G01X5053200Y-5603486D01*
G01X5042133Y-5605239D01*
G01X5032150Y-5610326D01*
G01X5024226Y-5618249D01*
G01X5019139Y-5628233D01*
G01X5017386Y-5639300D01*
G01X5017386Y-5681586D01*
G01X5006156Y-5681586D01*
G01X4946348Y-5621779D01*
G01X4935986Y-5613457D01*
G01X4924071Y-5607567D01*
G01X4911166Y-5604388D01*
G01X4911166Y-5578114D01*
G01X4954360Y-5578114D01*
G01X4965427Y-5576361D01*
G01X4975411Y-5571274D01*
G01X4983334Y-5563351D01*
G01X4988421Y-5553367D01*
G01X4990174Y-5542300D01*
G01X4990174Y-5455900D01*
G01X4988421Y-5444833D01*
G01X4983334Y-5434849D01*
G01X4975411Y-5426926D01*
G01X4965427Y-5421839D01*
G01X4954360Y-5420086D01*
G01X4911166Y-5420086D01*
G01X4911166Y-5402114D01*
G01X4948702Y-5402114D01*
G01X4959769Y-5400361D01*
G01X4969753Y-5395274D01*
G01X4977676Y-5387351D01*
G01X4982763Y-5377367D01*
G01X4984516Y-5366300D01*
G01X4984516Y-5276300D01*
G01X4982763Y-5265233D01*
G01X4977676Y-5255249D01*
G01X4975927Y-5253500D01*
G01X5017386Y-5253500D01*
G01X5017386Y-5460500D01*
G01X5019139Y-5471567D01*
G01X5024226Y-5481551D01*
G01X5032150Y-5489474D01*
G01X5042133Y-5494561D01*
G01X5053200Y-5496314D01*
G01X5259200Y-5496314D01*
G01X5270267Y-5494561D01*
G01X5280250Y-5489474D01*
G01X5288174Y-5481551D01*
G01X5293261Y-5471567D01*
G01X5295014Y-5460500D01*
G01X5295014Y-5253500D01*
G01X5293683Y-5245100D01*
G01X5585186Y-5245100D01*
G01X5586964Y-5260353D01*
G01X5592203Y-5274789D01*
G01X5600622Y-5287632D01*
G01X5611769Y-5298194D01*
G01X5625047Y-5305910D01*
G01X5639744Y-5310364D01*
G01X5655071Y-5311318D01*
G01X5670206Y-5308721D01*
G01X5684339Y-5302712D01*
G01X5696710Y-5293614D01*
G01X8775700Y-5293614D01*
G01X8788256Y-5291961D01*
G01X8799957Y-5287114D01*
G01X8810005Y-5279405D01*
G01X8976910Y-5112499D01*
G01X9770288Y-5112499D01*
G01X9772041Y-5123566D01*
G01X9777128Y-5133550D01*
G01X9785051Y-5141473D01*
G01X9795035Y-5146560D01*
G01X9806102Y-5148313D01*
G01X10106101Y-5148313D01*
G01X10117168Y-5146560D01*
G01X10127152Y-5141473D01*
G01X10135075Y-5133550D01*
G01X10140162Y-5123566D01*
G01X10141915Y-5112499D01*
G01X11270285Y-5112499D01*
G01X11272038Y-5123566D01*
G01X11277125Y-5133550D01*
G01X11285048Y-5141473D01*
G01X11295032Y-5146560D01*
G01X11306099Y-5148313D01*
G01X11606098Y-5148313D01*
G01X11617165Y-5146560D01*
G01X11627149Y-5141473D01*
G01X11635072Y-5133550D01*
G01X11640159Y-5123566D01*
G01X11641912Y-5112499D01*
G01X11641912Y-4912500D01*
G01X11640159Y-4901433D01*
G01X11635072Y-4891449D01*
G01X11627149Y-4883526D01*
G01X11617165Y-4878439D01*
G01X11606098Y-4876686D01*
G01X11306099Y-4876686D01*
G01X11295032Y-4878439D01*
G01X11285048Y-4883526D01*
G01X11277125Y-4891449D01*
G01X11272038Y-4901433D01*
G01X11270285Y-4912500D01*
G01X11270285Y-5112499D01*
G01X11270285Y-5112499D01*
G01X10141915Y-5112499D01*
G01X10141915Y-4912500D01*
G01X10140162Y-4901433D01*
G01X10135075Y-4891449D01*
G01X10127152Y-4883526D01*
G01X10117168Y-4878439D01*
G01X10106101Y-4876686D01*
G01X9806102Y-4876686D01*
G01X9795035Y-4878439D01*
G01X9785051Y-4883526D01*
G01X9777128Y-4891449D01*
G01X9772041Y-4901433D01*
G01X9770288Y-4912500D01*
G01X9770288Y-5112499D01*
G01X9770288Y-5112499D01*
G01X8976910Y-5112499D01*
G01X9254505Y-4834905D01*
G01X9262214Y-4824857D01*
G01X9267061Y-4813156D01*
G01X9268714Y-4800600D01*
G01X9268714Y-4668295D01*
G01X9375995Y-4561014D01*
G01X9770288Y-4561014D01*
G01X9770288Y-4612500D01*
G01X9772041Y-4623567D01*
G01X9777128Y-4633551D01*
G01X9785051Y-4641474D01*
G01X9795035Y-4646561D01*
G01X9806102Y-4648314D01*
G01X10106101Y-4648314D01*
G01X10117168Y-4646561D01*
G01X10127152Y-4641474D01*
G01X10135075Y-4633551D01*
G01X10140162Y-4623567D01*
G01X10141915Y-4612500D01*
G01X10141915Y-4573714D01*
G01X11270285Y-4573714D01*
G01X11270285Y-4612500D01*
G01X11272038Y-4623567D01*
G01X11277125Y-4633551D01*
G01X11285048Y-4641474D01*
G01X11295032Y-4646561D01*
G01X11306099Y-4648314D01*
G01X11606098Y-4648314D01*
G01X11617165Y-4646561D01*
G01X11627149Y-4641474D01*
G01X11635072Y-4633551D01*
G01X11640159Y-4623567D01*
G01X11641912Y-4612500D01*
G01X11641912Y-4412501D01*
G01X11640159Y-4401434D01*
G01X11635072Y-4391450D01*
G01X11627149Y-4383527D01*
G01X11617165Y-4378440D01*
G01X11606098Y-4376687D01*
G01X11306099Y-4376687D01*
G01X11295032Y-4378440D01*
G01X11285048Y-4383527D01*
G01X11277125Y-4391450D01*
G01X11272038Y-4401434D01*
G01X11270285Y-4412501D01*
G01X11270285Y-4451286D01*
G01X10141915Y-4451286D01*
G01X10141915Y-4412501D01*
G01X10140162Y-4401434D01*
G01X10135075Y-4391450D01*
G01X10127152Y-4383527D01*
G01X10117168Y-4378440D01*
G01X10106101Y-4376687D01*
G01X9806102Y-4376687D01*
G01X9795035Y-4378440D01*
G01X9785051Y-4383527D01*
G01X9777128Y-4391450D01*
G01X9772041Y-4401434D01*
G01X9770288Y-4412501D01*
G01X9770288Y-4463986D01*
G01X9355900Y-4463986D01*
G01X9343343Y-4465640D01*
G01X9331643Y-4470486D01*
G01X9321595Y-4478196D01*
G01X9185895Y-4613895D01*
G01X9178186Y-4623943D01*
G01X9173339Y-4635644D01*
G01X9171686Y-4648200D01*
G01X9171686Y-4780505D01*
G01X8755605Y-5196586D01*
G01X8755605Y-5196586D01*
G01X5696710Y-5196586D01*
G01X5684339Y-5187488D01*
G01X5670206Y-5181479D01*
G01X5655071Y-5178882D01*
G01X5639744Y-5179836D01*
G01X5625047Y-5184290D01*
G01X5611769Y-5192006D01*
G01X5600622Y-5202568D01*
G01X5592203Y-5215411D01*
G01X5586964Y-5229847D01*
G01X5585186Y-5245100D01*
G01X5293683Y-5245100D01*
G01X5293261Y-5242433D01*
G01X5288174Y-5232449D01*
G01X5280250Y-5224526D01*
G01X5270267Y-5219439D01*
G01X5259200Y-5217686D01*
G01X5053200Y-5217686D01*
G01X5053200Y-5217686D01*
G01X5042133Y-5219439D01*
G01X5032150Y-5224526D01*
G01X5024226Y-5232449D01*
G01X5019139Y-5242433D01*
G01X5017386Y-5253500D01*
G01X4975927Y-5253500D01*
G01X4969753Y-5247326D01*
G01X4959769Y-5242239D01*
G01X4948702Y-5240486D01*
G01X4868702Y-5240486D01*
G01X4857062Y-5242431D01*
G01X4846686Y-5248053D01*
G01X4838700Y-5256743D01*
G01X4830714Y-5248053D01*
G01X4820338Y-5242431D01*
G01X4808698Y-5240486D01*
G01X4728698Y-5240486D01*
G01X4718794Y-5241883D01*
G01X4709662Y-5245964D01*
G01X4702016Y-5252411D01*
G01X4696450Y-5260721D01*
G01X4693399Y-5270246D01*
G01X4478847Y-5270246D01*
G01X4354101Y-5145499D01*
G01X4343527Y-5137386D01*
G01X4331214Y-5132286D01*
G01X4318000Y-5130546D01*
G01X3932747Y-5130546D01*
G01X3820701Y-5018499D01*
G01X3810127Y-5010386D01*
G01X3797814Y-5005286D01*
G01X3784600Y-5003546D01*
G01X3081847Y-5003546D01*
G01X3051149Y-4972848D01*
G01X3063712Y-4975996D01*
G01X3076659Y-4976290D01*
G01X3089352Y-4973713D01*
G01X3101160Y-4968394D01*
G01X3111500Y-4960596D01*
G01X3123333Y-4969249D01*
G01X3136953Y-4974671D01*
G01X3151496Y-4976519D01*
G01X3166040Y-4974675D01*
G01X3179661Y-4969257D01*
G01X3191497Y-4960608D01*
G01X3203333Y-4969257D01*
G01X3216955Y-4974675D01*
G01X3231498Y-4976519D01*
G01X3246041Y-4974671D01*
G01X3259661Y-4969249D01*
G01X3271495Y-4960596D01*
G01X3283331Y-4969250D01*
G01X3296954Y-4974673D01*
G01X3311500Y-4976519D01*
G01X3326045Y-4974673D01*
G01X3339669Y-4969250D01*
G01X3351505Y-4960596D01*
G01X3363656Y-4969423D01*
G01X3377660Y-4974848D01*
G01X3392587Y-4976509D01*
G01X3407442Y-4974296D01*
G01X3421237Y-4968357D01*
G01X3433053Y-4959086D01*
G01X3442103Y-4947100D01*
G01X3447786Y-4933198D01*
G01X3449724Y-4918305D01*
G01X3449724Y-4800334D01*
G01X3469120Y-4800334D01*
G01X3474327Y-4798939D01*
G01X3478139Y-4795127D01*
G01X3479534Y-4789920D01*
G01X3479534Y-4770524D01*
G01X3597505Y-4770524D01*
G01X3598036Y-4770521D01*
G01X3585517Y-4779122D01*
G01X3575283Y-4790346D01*
G01X3567871Y-4803604D01*
G01X3563670Y-4818201D01*
G01X3562901Y-4833371D01*
G01X3565604Y-4848318D01*
G01X3571638Y-4862257D01*
G01X3580684Y-4874459D01*
G01X3592270Y-4884281D01*
G01X3605787Y-4891210D01*
G01X3620526Y-4894881D01*
G01X3635714Y-4895102D01*
G01X3650553Y-4891862D01*
G01X3664266Y-4885330D01*
G01X3676133Y-4875849D01*
G01X3685531Y-4863916D01*
G01X3691968Y-4850158D01*
G01X3695105Y-4835296D01*
G01X3706401Y-4824001D01*
G01X3714514Y-4813427D01*
G01X3719614Y-4801114D01*
G01X3721354Y-4787900D01*
G01X3721354Y-4737100D01*
G01X3719614Y-4723886D01*
G01X3714514Y-4711573D01*
G01X3706401Y-4700999D01*
G01X3688765Y-4683364D01*
G01X3698248Y-4683364D01*
G01X3778692Y-4763808D01*
G01X3789268Y-4771923D01*
G01X3801584Y-4777024D01*
G01X3814800Y-4778764D01*
G01X3831077Y-4778764D01*
G01X3831077Y-4814099D01*
G01X3832830Y-4825167D01*
G01X3837917Y-4835150D01*
G01X3845841Y-4843074D01*
G01X3855824Y-4848161D01*
G01X3866891Y-4849913D01*
G01X3989220Y-4849913D01*
G01X3992269Y-4851593D01*
G01X3995700Y-4852175D01*
G01X4181005Y-4852175D01*
G01X4184436Y-4851593D01*
G01X4187485Y-4849913D01*
G01X4333909Y-4849913D01*
G01X4344976Y-4848161D01*
G01X4354959Y-4843074D01*
G01X4362883Y-4835150D01*
G01X4367970Y-4825167D01*
G01X4369710Y-4814179D01*
G01X5699492Y-4814179D01*
G01X5701380Y-4829034D01*
G01X5706552Y-4843087D01*
G01X5714746Y-4855621D01*
G01X5714746Y-4927600D01*
G01X5716486Y-4940814D01*
G01X5721586Y-4953127D01*
G01X5729699Y-4963701D01*
G01X5920199Y-5154201D01*
G01X5930773Y-5162314D01*
G01X5943086Y-5167414D01*
G01X5956300Y-5169154D01*
G01X8736588Y-5169154D01*
G01X8750163Y-5167594D01*
G01X8762839Y-5162490D01*
G01X8773708Y-5154208D01*
G01X9122773Y-4805142D01*
G01X9130888Y-4794567D01*
G01X9135989Y-4782251D01*
G01X9137729Y-4769035D01*
G01X9137729Y-3905999D01*
G01X9670085Y-3905999D01*
G01X9671838Y-3917066D01*
G01X9676925Y-3927050D01*
G01X9684848Y-3934973D01*
G01X9694832Y-3940060D01*
G01X9705899Y-3941813D01*
G01X10005898Y-3941813D01*
G01X10016965Y-3940060D01*
G01X10026949Y-3934973D01*
G01X10034872Y-3927050D01*
G01X10039959Y-3917066D01*
G01X10041712Y-3905999D01*
G01X10041712Y-3706000D01*
G01X10039959Y-3694933D01*
G01X10034872Y-3684949D01*
G01X10026949Y-3677026D01*
G01X10016965Y-3671939D01*
G01X10005898Y-3670186D01*
G01X9705899Y-3670186D01*
G01X9694832Y-3671939D01*
G01X9684848Y-3677026D01*
G01X9676925Y-3684949D01*
G01X9671838Y-3694933D01*
G01X9670085Y-3706000D01*
G01X9670085Y-3905999D01*
G01X9670085Y-3905999D01*
G01X9137729Y-3905999D01*
G01X9137729Y-3367214D01*
G01X9670085Y-3367214D01*
G01X9670085Y-3406000D01*
G01X9671838Y-3417067D01*
G01X9676925Y-3427051D01*
G01X9684848Y-3434974D01*
G01X9694832Y-3440061D01*
G01X9705899Y-3441814D01*
G01X10005898Y-3441814D01*
G01X10016965Y-3440061D01*
G01X10026949Y-3434974D01*
G01X10034872Y-3427051D01*
G01X10039959Y-3417067D01*
G01X10041712Y-3406000D01*
G01X10041712Y-3206001D01*
G01X10039959Y-3194934D01*
G01X10034872Y-3184950D01*
G01X10026949Y-3177027D01*
G01X10016965Y-3171940D01*
G01X10005898Y-3170187D01*
G01X9705899Y-3170187D01*
G01X9694832Y-3171940D01*
G01X9684848Y-3177027D01*
G01X9676925Y-3184950D01*
G01X9671838Y-3194934D01*
G01X9670085Y-3206001D01*
G01X9670085Y-3244786D01*
G01X8541715Y-3244786D01*
G01X8541715Y-3206001D01*
G01X8539962Y-3194934D01*
G01X8534875Y-3184950D01*
G01X8526952Y-3177027D01*
G01X8516968Y-3171940D01*
G01X8505901Y-3170187D01*
G01X8205902Y-3170187D01*
G01X8194835Y-3171940D01*
G01X8184851Y-3177027D01*
G01X8176928Y-3184950D01*
G01X8171841Y-3194934D01*
G01X8170088Y-3206001D01*
G01X8170088Y-3406000D01*
G01X8171841Y-3417067D01*
G01X8176928Y-3427051D01*
G01X8184851Y-3434974D01*
G01X8194835Y-3440061D01*
G01X8205902Y-3441814D01*
G01X8505901Y-3441814D01*
G01X8516968Y-3440061D01*
G01X8526952Y-3434974D01*
G01X8534875Y-3427051D01*
G01X8539962Y-3417067D01*
G01X8541715Y-3406000D01*
G01X8541715Y-3367214D01*
G01X9035601Y-3367214D01*
G01X9035601Y-4747883D01*
G01X8716439Y-5067046D01*
G01X8716439Y-5067046D01*
G01X8232114Y-5067046D01*
G01X8233761Y-5060962D01*
G01X8234315Y-5054683D01*
G01X8234315Y-4474684D01*
G01X8232562Y-4463617D01*
G01X8227475Y-4453633D01*
G01X8219552Y-4445710D01*
G01X8209568Y-4440623D01*
G01X8198501Y-4438870D01*
G01X7578502Y-4438870D01*
G01X7567435Y-4440623D01*
G01X7557452Y-4445710D01*
G01X7549528Y-4453633D01*
G01X7544441Y-4463617D01*
G01X7542688Y-4474684D01*
G01X7542688Y-5054683D01*
G01X7543243Y-5060962D01*
G01X7544890Y-5067046D01*
G01X5977447Y-5067046D01*
G01X5816854Y-4906453D01*
G01X5816854Y-4855621D01*
G01X5825048Y-4843087D01*
G01X5830220Y-4829034D01*
G01X5832108Y-4814179D01*
G01X5830615Y-4799279D01*
G01X5825817Y-4785095D01*
G01X5817958Y-4772348D01*
G01X5807440Y-4761689D01*
G01X5794799Y-4753663D01*
G01X5780679Y-4748677D01*
G01X5765800Y-4746986D01*
G01X5750921Y-4748677D01*
G01X5736801Y-4753663D01*
G01X5724160Y-4761689D01*
G01X5713642Y-4772348D01*
G01X5705783Y-4785095D01*
G01X5700985Y-4799279D01*
G01X5699492Y-4814179D01*
G01X4369710Y-4814179D01*
G01X4369723Y-4814099D01*
G01X4369723Y-4641301D01*
G01X4367970Y-4630233D01*
G01X4362883Y-4620250D01*
G01X4354959Y-4612326D01*
G01X4344976Y-4607239D01*
G01X4333909Y-4605487D01*
G01X4191419Y-4605487D01*
G01X4191419Y-4570000D01*
G01X4190024Y-4564793D01*
G01X4186212Y-4560981D01*
G01X4181005Y-4559586D01*
G01X4159500Y-4559586D01*
G01X4159516Y-4558500D01*
G01X4159516Y-4468500D01*
G01X4157763Y-4457433D01*
G01X4152676Y-4447449D01*
G01X4144753Y-4439526D01*
G01X4134769Y-4434439D01*
G01X4123702Y-4432686D01*
G01X4043702Y-4432686D01*
G01X4043321Y-4432688D01*
G01X4158009Y-4318000D01*
G01X5742589Y-4318000D01*
G01X5744501Y-4339847D01*
G01X5750177Y-4361031D01*
G01X5759445Y-4380907D01*
G01X5772024Y-4398872D01*
G01X5787532Y-4414379D01*
G01X5805496Y-4426958D01*
G01X5825372Y-4436226D01*
G01X5846556Y-4441902D01*
G01X5868403Y-4443814D01*
G01X5890251Y-4441902D01*
G01X5911434Y-4436226D01*
G01X5931310Y-4426958D01*
G01X5949275Y-4414379D01*
G01X5964782Y-4398872D01*
G01X5977361Y-4380907D01*
G01X5986630Y-4361031D01*
G01X5992306Y-4339847D01*
G01X5994217Y-4318000D01*
G01X6502583Y-4318000D01*
G01X6504494Y-4339847D01*
G01X6510170Y-4361031D01*
G01X6519439Y-4380907D01*
G01X6532018Y-4398872D01*
G01X6547525Y-4414379D01*
G01X6565490Y-4426958D01*
G01X6585366Y-4436226D01*
G01X6606549Y-4441902D01*
G01X6628397Y-4443814D01*
G01X6650244Y-4441902D01*
G01X6671428Y-4436226D01*
G01X6691304Y-4426958D01*
G01X6709268Y-4414379D01*
G01X6724776Y-4398872D01*
G01X6737355Y-4380907D01*
G01X6746623Y-4361031D01*
G01X6752299Y-4339847D01*
G01X6754211Y-4318000D01*
G01X6752299Y-4296153D01*
G01X6746623Y-4274969D01*
G01X6737355Y-4255093D01*
G01X6724776Y-4237128D01*
G01X6709268Y-4221621D01*
G01X6691304Y-4209042D01*
G01X6671428Y-4199774D01*
G01X6650244Y-4194098D01*
G01X6628397Y-4192186D01*
G01X6606549Y-4194098D01*
G01X6585366Y-4199774D01*
G01X6565490Y-4209042D01*
G01X6547525Y-4221621D01*
G01X6532018Y-4237128D01*
G01X6519439Y-4255093D01*
G01X6510170Y-4274969D01*
G01X6504494Y-4296153D01*
G01X6502583Y-4318000D01*
G01X6502583Y-4318000D01*
G01X5994217Y-4318000D01*
G01X5992306Y-4296153D01*
G01X5986630Y-4274969D01*
G01X5977361Y-4255093D01*
G01X5964782Y-4237128D01*
G01X5949275Y-4221621D01*
G01X5931310Y-4209042D01*
G01X5911434Y-4199774D01*
G01X5890251Y-4194098D01*
G01X5868403Y-4192186D01*
G01X5846556Y-4194098D01*
G01X5825372Y-4199774D01*
G01X5805496Y-4209042D01*
G01X5787532Y-4221621D01*
G01X5772024Y-4237128D01*
G01X5759445Y-4255093D01*
G01X5750177Y-4274969D01*
G01X5744501Y-4296153D01*
G01X5742589Y-4318000D01*
G01X5742589Y-4318000D01*
G01X4158009Y-4318000D01*
G01X4172995Y-4303014D01*
G01X4267200Y-4303014D01*
G01X4279756Y-4301361D01*
G01X4291457Y-4296514D01*
G01X4301505Y-4288805D01*
G01X4415805Y-4174505D01*
G01X4423514Y-4164457D01*
G01X4428361Y-4152756D01*
G01X4430014Y-4140200D01*
G01X4430014Y-3697641D01*
G01X4450351Y-3697641D01*
G01X4461418Y-3695888D01*
G01X4471401Y-3690801D01*
G01X4479325Y-3682878D01*
G01X4484412Y-3672894D01*
G01X4486165Y-3661827D01*
G01X4486165Y-3653714D01*
G01X5312305Y-3653714D01*
G01X5437886Y-3779295D01*
G01X5437886Y-4089400D01*
G01X5439539Y-4101956D01*
G01X5444386Y-4113657D01*
G01X5452095Y-4123705D01*
G01X5502895Y-4174505D01*
G01X5512943Y-4182214D01*
G01X5524644Y-4187061D01*
G01X5537200Y-4188714D01*
G01X6540500Y-4188714D01*
G01X6553056Y-4187061D01*
G01X6564757Y-4182214D01*
G01X6574805Y-4174505D01*
G01X6738395Y-4010914D01*
G01X6799021Y-4010914D01*
G01X6806872Y-4012815D01*
G01X6814924Y-4013454D01*
G01X7353749Y-4013454D01*
G01X7364500Y-4031147D01*
G01X7378229Y-4046644D01*
G01X7394499Y-4059448D01*
G01X7412788Y-4069152D01*
G01X7432512Y-4075443D01*
G01X7453041Y-4078122D01*
G01X7473720Y-4077104D01*
G01X7493887Y-4072419D01*
G01X7512897Y-4064219D01*
G01X7530144Y-4052765D01*
G01X7545075Y-4038423D01*
G01X7557215Y-4021652D01*
G01X7566174Y-4002988D01*
G01X7571667Y-3983026D01*
G01X7573518Y-3962405D01*
G01X7572559Y-3951717D01*
G01X7692396Y-3951717D01*
G01X7692396Y-3973088D01*
G01X7696323Y-3994097D01*
G01X7704044Y-4014025D01*
G01X7715295Y-4032196D01*
G01X7729693Y-4047990D01*
G01X7746748Y-4060869D01*
G01X7765879Y-4070396D01*
G01X7786435Y-4076244D01*
G01X7807716Y-4078216D01*
G01X7828997Y-4076244D01*
G01X7849553Y-4070396D01*
G01X7868684Y-4060869D01*
G01X7885739Y-4047990D01*
G01X7900138Y-4032196D01*
G01X7911388Y-4014025D01*
G01X7919109Y-3994097D01*
G01X7923036Y-3973088D01*
G01X7923036Y-3951717D01*
G01X7919109Y-3930709D01*
G01X7911388Y-3910780D01*
G01X7908428Y-3905999D01*
G01X8170088Y-3905999D01*
G01X8171841Y-3917066D01*
G01X8176928Y-3927050D01*
G01X8184851Y-3934973D01*
G01X8194835Y-3940060D01*
G01X8205902Y-3941813D01*
G01X8505901Y-3941813D01*
G01X8516968Y-3940060D01*
G01X8526952Y-3934973D01*
G01X8534875Y-3927050D01*
G01X8539962Y-3917066D01*
G01X8541715Y-3905999D01*
G01X8541715Y-3706000D01*
G01X8539962Y-3694933D01*
G01X8534875Y-3684949D01*
G01X8526952Y-3677026D01*
G01X8516968Y-3671939D01*
G01X8505901Y-3670186D01*
G01X8205902Y-3670186D01*
G01X8194835Y-3671939D01*
G01X8184851Y-3677026D01*
G01X8176928Y-3684949D01*
G01X8171841Y-3694933D01*
G01X8170088Y-3706000D01*
G01X8170088Y-3905999D01*
G01X8170088Y-3905999D01*
G01X7908428Y-3905999D01*
G01X7900138Y-3892609D01*
G01X7885739Y-3876815D01*
G01X7868684Y-3863936D01*
G01X7849553Y-3854409D01*
G01X7828997Y-3848561D01*
G01X7807716Y-3846589D01*
G01X7807716Y-3846589D01*
G01X7786435Y-3848561D01*
G01X7765879Y-3854409D01*
G01X7746748Y-3863936D01*
G01X7729693Y-3876815D01*
G01X7715295Y-3892609D01*
G01X7704044Y-3910780D01*
G01X7696323Y-3930709D01*
G01X7692396Y-3951717D01*
G01X7572559Y-3951717D01*
G01X7571668Y-3941785D01*
G01X7566176Y-3921823D01*
G01X7557217Y-3903158D01*
G01X7545079Y-3886386D01*
G01X7530148Y-3872044D01*
G01X7512902Y-3860589D01*
G01X7493892Y-3852388D01*
G01X7473726Y-3847702D01*
G01X7453047Y-3846682D01*
G01X7432518Y-3849361D01*
G01X7412793Y-3855651D01*
G01X7394503Y-3865354D01*
G01X7378234Y-3878157D01*
G01X7364504Y-3893653D01*
G01X7353752Y-3911346D01*
G01X6870954Y-3911346D01*
G01X6870954Y-3693414D01*
G01X6919486Y-3693414D01*
G01X6919486Y-3747900D01*
G01X6921239Y-3758967D01*
G01X6926326Y-3768950D01*
G01X6934249Y-3776874D01*
G01X6944233Y-3781961D01*
G01X6955300Y-3783714D01*
G01X7162300Y-3783714D01*
G01X7170432Y-3782778D01*
G01X7174255Y-3787638D01*
G01X7180160Y-3789474D01*
G01X7341670Y-3789474D01*
G01X7347146Y-3787918D01*
G01X7350986Y-3783714D01*
G01X7548100Y-3783714D01*
G01X7559167Y-3781961D01*
G01X7569151Y-3776874D01*
G01X7577074Y-3768950D01*
G01X7582161Y-3758967D01*
G01X7583914Y-3747900D01*
G01X7583914Y-3541900D01*
G01X7582161Y-3530833D01*
G01X7577074Y-3520850D01*
G01X7569151Y-3512926D01*
G01X7559167Y-3507839D01*
G01X7548100Y-3506086D01*
G01X7351360Y-3506086D01*
G01X7347532Y-3501293D01*
G01X7341670Y-3499486D01*
G01X7180160Y-3499486D01*
G01X7175835Y-3500426D01*
G01X7172291Y-3503078D01*
G01X7170169Y-3506962D01*
G01X7162300Y-3506086D01*
G01X6955300Y-3506086D01*
G01X6944233Y-3507839D01*
G01X6934249Y-3512926D01*
G01X6926326Y-3520850D01*
G01X6921239Y-3530833D01*
G01X6919486Y-3541900D01*
G01X6919486Y-3596386D01*
G01X6870954Y-3596386D01*
G01X6870954Y-3556000D01*
G01X6869214Y-3542786D01*
G01X6864114Y-3530473D01*
G01X6856001Y-3519899D01*
G01X6805201Y-3469099D01*
G01X6794627Y-3460986D01*
G01X6782314Y-3455886D01*
G01X6769100Y-3454146D01*
G01X6767750Y-3454146D01*
G01X6784509Y-3445988D01*
G01X6799480Y-3434883D01*
G01X6812151Y-3421213D01*
G01X6822089Y-3405443D01*
G01X6828953Y-3388113D01*
G01X6832510Y-3369816D01*
G01X6832637Y-3351176D01*
G01X6829331Y-3332832D01*
G01X6859999Y-3363501D01*
G01X6870573Y-3371614D01*
G01X6882886Y-3376714D01*
G01X6896100Y-3378454D01*
G01X6906786Y-3378454D01*
G01X6906786Y-3403588D01*
G01X6896337Y-3399202D01*
G01X6885067Y-3398021D01*
G01X6873937Y-3400145D01*
G01X6863894Y-3405393D01*
G01X6855795Y-3413319D01*
G01X6850330Y-3423245D01*
G01X6847965Y-3434327D01*
G01X6848901Y-3445620D01*
G01X6853059Y-3456161D01*
G01X6860085Y-3465052D01*
G01X6869379Y-3471535D01*
G01X6880149Y-3475057D01*
G01X6891478Y-3475319D01*
G01X6902399Y-3472297D01*
G01X6911982Y-3466250D01*
G01X6919411Y-3457693D01*
G01X6926395Y-3462338D01*
G01X6934269Y-3465231D01*
G01X6942600Y-3466214D01*
G01X7149600Y-3466214D01*
G01X7153314Y-3466020D01*
G01X7157157Y-3470354D01*
G01X7162720Y-3471964D01*
G01X7333228Y-3471964D01*
G01X7338700Y-3470411D01*
G01X7342539Y-3466214D01*
G01X7535400Y-3466214D01*
G01X7546467Y-3464461D01*
G01X7556451Y-3459374D01*
G01X7564374Y-3451450D01*
G01X7569461Y-3441467D01*
G01X7571214Y-3430400D01*
G01X7571214Y-3224400D01*
G01X7569461Y-3213333D01*
G01X7564374Y-3203350D01*
G01X7556451Y-3195426D01*
G01X7546467Y-3190339D01*
G01X7545702Y-3190218D01*
G01X7577386Y-3190218D01*
G01X7579380Y-3218085D01*
G01X7585318Y-3245385D01*
G01X7595082Y-3271562D01*
G01X7608471Y-3296083D01*
G01X7625214Y-3318449D01*
G01X7644969Y-3338204D01*
G01X7667335Y-3354947D01*
G01X7691856Y-3368337D01*
G01X7718033Y-3378100D01*
G01X7745333Y-3384039D01*
G01X7773200Y-3386032D01*
G01X7801067Y-3384039D01*
G01X7828367Y-3378100D01*
G01X7854544Y-3368337D01*
G01X7879065Y-3354947D01*
G01X7901431Y-3338204D01*
G01X7921186Y-3318449D01*
G01X7937929Y-3296083D01*
G01X7951318Y-3271562D01*
G01X7961082Y-3245385D01*
G01X7967021Y-3218085D01*
G01X7969014Y-3190218D01*
G01X7967021Y-3162351D01*
G01X7961082Y-3135051D01*
G01X7951318Y-3108874D01*
G01X7937929Y-3084353D01*
G01X7921186Y-3061987D01*
G01X7901431Y-3042232D01*
G01X7879065Y-3025489D01*
G01X7854544Y-3012100D01*
G01X7828367Y-3002336D01*
G01X7801067Y-2996398D01*
G01X7773200Y-2994404D01*
G01X7745333Y-2996398D01*
G01X7718033Y-3002336D01*
G01X7691856Y-3012100D01*
G01X7667335Y-3025489D01*
G01X7644969Y-3042232D01*
G01X7625214Y-3061987D01*
G01X7608471Y-3084353D01*
G01X7595082Y-3108874D01*
G01X7585318Y-3135051D01*
G01X7579380Y-3162351D01*
G01X7577386Y-3190218D01*
G01X7577386Y-3190218D01*
G01X7545702Y-3190218D01*
G01X7535400Y-3188586D01*
G01X7342918Y-3188586D01*
G01X7339090Y-3183793D01*
G01X7333228Y-3181986D01*
G01X7162720Y-3181986D01*
G01X7156787Y-3183841D01*
G01X7152968Y-3188745D01*
G01X7149600Y-3188586D01*
G01X6942600Y-3188586D01*
G01X6931533Y-3190339D01*
G01X6921549Y-3195426D01*
G01X6913626Y-3203350D01*
G01X6908539Y-3213333D01*
G01X6906786Y-3224400D01*
G01X6906786Y-3265885D01*
G01X6858318Y-3217417D01*
G01X6877089Y-3214479D01*
G01X6894975Y-3208071D01*
G01X6911341Y-3198422D01*
G01X6925606Y-3185873D01*
G01X6937264Y-3170870D01*
G01X6945900Y-3153947D01*
G01X6951207Y-3135704D01*
G01X6952997Y-3116790D01*
G01X6952997Y-3066790D01*
G01X6950971Y-3046677D01*
G01X6944972Y-3027373D01*
G01X6935243Y-3009653D01*
G01X6922174Y-2994231D01*
G01X6906292Y-2981727D01*
G01X6888234Y-2972642D01*
G01X11711686Y-2972642D01*
G01X11711686Y-6504686D01*
G37*
G36*
G01X5959123Y-3261614D02*
G01X6224383Y-3261614D01*
G01X6205787Y-3267898D01*
G01X6188761Y-3277667D01*
G01X6173950Y-3290550D01*
G01X6161917Y-3306059D01*
G01X6153118Y-3323605D01*
G01X6147885Y-3342524D01*
G01X6146418Y-3362099D01*
G01X6148772Y-3381587D01*
G01X6154858Y-3400249D01*
G01X6164445Y-3417378D01*
G01X6177169Y-3432324D01*
G01X6192549Y-3444522D01*
G01X6210001Y-3453508D01*
G01X6228863Y-3458941D01*
G01X6248421Y-3460617D01*
G01X6267933Y-3458471D01*
G01X6286659Y-3452584D01*
G01X6303889Y-3443180D01*
G01X6303889Y-3459023D01*
G01X6305642Y-3470090D01*
G01X6310729Y-3480074D01*
G01X6318652Y-3487997D01*
G01X6328636Y-3493084D01*
G01X6339703Y-3494837D01*
G01X6379703Y-3494837D01*
G01X6386053Y-3494269D01*
G01X6392202Y-3492585D01*
G01X6398351Y-3494269D01*
G01X6404701Y-3494837D01*
G01X6406052Y-3494837D01*
G01X6401942Y-3506044D01*
G01X6400546Y-3517900D01*
G01X6400546Y-3545098D01*
G01X6391399Y-3548518D01*
G01X6383516Y-3554283D01*
G01X6377483Y-3561962D01*
G01X6373749Y-3570986D01*
G01X6293895Y-3570986D01*
G01X6168405Y-3445495D01*
G01X6158357Y-3437786D01*
G01X6146656Y-3432939D01*
G01X6134100Y-3431286D01*
G01X6110714Y-3431286D01*
G01X6110714Y-3376800D01*
G01X6108961Y-3365733D01*
G01X6103874Y-3355750D01*
G01X6095951Y-3347826D01*
G01X6085967Y-3342739D01*
G01X6074900Y-3340986D01*
G01X6019891Y-3340986D01*
G01X6017990Y-3328972D01*
G01X6013160Y-3317808D01*
G01X6005705Y-3308196D01*
G01X5959123Y-3261614D01*
G37*
G36*
G01X6000914Y-3001100D02*
G01X5999249Y-2990307D01*
G01X5994408Y-2980517D01*
G01X5986843Y-2972642D01*
G01X6091166Y-2972642D01*
G01X6073108Y-2981727D01*
G01X6057226Y-2994231D01*
G01X6044157Y-3009653D01*
G01X6034428Y-3027373D01*
G01X6028429Y-3046677D01*
G01X6026403Y-3066790D01*
G01X6026403Y-3116790D01*
G01X6027766Y-3133314D01*
G01X6031820Y-3149391D01*
G01X6038453Y-3164586D01*
G01X6000914Y-3164586D01*
G01X6000914Y-3001100D01*
G37*
G36*
G01X6228030Y-3066790D02*
G01X6226004Y-3046677D01*
G01X6220005Y-3027373D01*
G01X6210276Y-3009653D01*
G01X6197208Y-2994231D01*
G01X6181325Y-2981727D01*
G01X6163267Y-2972642D01*
G01X6816133Y-2972642D01*
G01X6798075Y-2981727D01*
G01X6782192Y-2994231D01*
G01X6769124Y-3009653D01*
G01X6759395Y-3027373D01*
G01X6753396Y-3046677D01*
G01X6751370Y-3066790D01*
G01X6751370Y-3116790D01*
G01X6752594Y-3132454D01*
G01X6756238Y-3147739D01*
G01X6762212Y-3162271D01*
G01X6559262Y-3162271D01*
G01X6548797Y-3162363D01*
G01X6538571Y-3164586D01*
G01X6215980Y-3164586D01*
G01X6222614Y-3149391D01*
G01X6226667Y-3133314D01*
G01X6228030Y-3116790D01*
G01X6228030Y-3066790D01*
G37*
G54D10*
G01X11711686Y-6504686D02*
G01X2500187Y-6504686D01*
G03X2411806Y-6177534I-88380J151638D01*
G03X2323426Y-6504686I0J-175514D01*
G01X1280261Y-6504686D01*
G03X1253007Y-6188606I-88467J151587D01*
G01X1253007Y-6059862D01*
G01X1300585Y-6012285D01*
G03X1318514Y-5969000I-43285J43285D01*
G01X1318514Y-5588000D01*
G03X1300585Y-5544715I-61214J0D01*
G01X957212Y-5201343D01*
G01X957212Y-4476057D01*
G01X977856Y-4455414D01*
G01X1101592Y-4455414D01*
G03X1195400Y-4506214I93808J61214D01*
G01X1243000Y-4506214D01*
G03X1243000Y-4282186I0J112014D01*
G01X1195400Y-4282186D01*
G03X1101592Y-4332986I0J-112014D01*
G01X952500Y-4332986D01*
G03X909215Y-4350915I0J-61214D01*
G01X852713Y-4407417D01*
G03X834784Y-4450702I43285J-43285D01*
G01X834784Y-5226698D01*
G03X852713Y-5269983I61214J0D01*
G01X1196086Y-5613356D01*
G01X1196086Y-5943644D01*
G01X1148509Y-5991222D01*
G03X1130579Y-6034507I43285J-43285D01*
G01X1130579Y-6188606D01*
G03X1103326Y-6504686I61214J-164493D01*
G01X45809Y-6504686D01*
G01X45809Y-4976814D01*
G01X776400Y-4976814D01*
G03X786814Y-4966400I0J10414D01*
G01X786814Y-3466400D01*
G03X776400Y-3455986I-10414J0D01*
G01X45809Y-3455986D01*
G01X45809Y-2972642D01*
G01X5330588Y-2972642D01*
G03X5372100Y-3206914I41512J-113458D01*
G03X5413612Y-2972642I0J120814D01*
G01X5584588Y-2972642D01*
G03X5577586Y-3196745I41512J-113458D01*
G01X5577586Y-3225800D01*
G03X5591795Y-3260105I48514J0D01*
G01X5655295Y-3323605D01*
G03X5660786Y-3328330I34305J34305D01*
G01X5660786Y-3340986D01*
G01X5482100Y-3340986D01*
G03X5446286Y-3376800I0J-35814D01*
G01X5446286Y-3582800D01*
G03X5482100Y-3618614I35814J0D01*
G01X5661452Y-3618614D01*
G03X5671200Y-3625364I9748J3663D01*
G01X5894585Y-3625364D01*
G03X5904334Y-3618614I0J10414D01*
G01X6074900Y-3618614D01*
G03X6110714Y-3582800I0J35814D01*
G01X6110714Y-3528314D01*
G01X6114005Y-3528314D01*
G01X6239495Y-3653805D01*
G03X6273800Y-3668014I34305J34305D01*
G01X6373343Y-3668014D01*
G03X6400866Y-3695700I35057J7327D01*
G03X6372586Y-3730713I7534J-35013D01*
G01X6372586Y-3811360D01*
G03X6385665Y-3839033I35814J0D01*
G01X6326053Y-3898646D01*
G01X5681121Y-3898646D01*
G03X5587873Y-3907227I-42321J-51054D01*
G03X5596175Y-4000500I50927J-42473D01*
G03X5586202Y-4091686I42625J-50800D01*
G01X5557295Y-4091686D01*
G01X5534914Y-4069305D01*
G01X5534914Y-3759200D01*
G03X5520705Y-3724895I-48514J0D01*
G01X5366704Y-3570895D01*
G03X5332400Y-3556686I-34305J-34305D01*
G01X4486165Y-3556686D01*
G01X4486165Y-3548573D01*
G03X4450351Y-3512759I-35814J0D01*
G01X4312649Y-3512759D01*
G03X4276835Y-3548573I0J-35814D01*
G01X4276835Y-3661827D01*
G03X4312649Y-3697641I35814J0D01*
G01X4332986Y-3697641D01*
G01X4332986Y-4120105D01*
G01X4247105Y-4205986D01*
G01X4152900Y-4205986D01*
G03X4118595Y-4220195I0J-48514D01*
G01X3909393Y-4429398D01*
G03X3906393Y-4432686I34305J-34305D01*
G01X3903698Y-4432686D01*
G03X3868401Y-4462436I0J-35814D01*
G01X3845400Y-4462436D01*
G03X3809292Y-4477392I0J-51064D01*
G01X3785459Y-4501226D01*
G01X3648027Y-4501226D01*
G03X3648007Y-4443349I-50522J28921D01*
G01X3695700Y-4443349D01*
G03X3717901Y-4438269I0J51054D01*
G01X3773805Y-4438269D01*
G03X3806314Y-4424804I0J45974D01*
G01X4071109Y-4160009D01*
G03X4084060Y-4134357I-32509J32509D01*
G01X4097292Y-4121125D01*
G03X4145468Y-4007932I1285J66302D01*
G03X4032275Y-4056108I-46891J-46891D01*
G01X4006091Y-4082291D01*
G03X3993140Y-4107943I32509J-32509D01*
G01X3985514Y-4115569D01*
G01X3985514Y-3994910D01*
G03X3956937Y-3886454I-48514J45210D01*
G01X3962400Y-3886454D01*
G03X3998501Y-3871501I0J51054D01*
G01X4163601Y-3706401D01*
G03X4178554Y-3670300I-36101J36101D01*
G01X4178554Y-3293011D01*
G03X4122640Y-3074433I-53353J102793D01*
G03X4076446Y-3295269I2561J-115786D01*
G01X4076446Y-3649153D01*
G01X3941253Y-3784346D01*
G01X3869755Y-3784346D01*
G01X3909601Y-3744501D01*
G03X3924554Y-3708400I-36101J36101D01*
G01X3924554Y-3293011D01*
G03X3868640Y-3074433I-53353J102793D01*
G03X3822446Y-3295269I2561J-115786D01*
G01X3822446Y-3687253D01*
G01X3788853Y-3720846D01*
G01X3564955Y-3720846D01*
G01X3652186Y-3633615D01*
G03X3667139Y-3597515I-36101J36101D01*
G01X3667139Y-3294712D01*
G03X3618445Y-3074411I-49938J104494D01*
G03X3565031Y-3293616I-1243J-115807D01*
G01X3565031Y-3576368D01*
G01X3496753Y-3644646D01*
G01X3260155Y-3644646D01*
G01X3399302Y-3505499D01*
G03X3414255Y-3469399I-36101J36101D01*
G01X3414255Y-3294172D01*
G03X3363201Y-3074404I-51054J103954D01*
G03X3312147Y-3294172I0J-115814D01*
G01X3312147Y-3448251D01*
G01X2962554Y-3797844D01*
G01X2962554Y-3470300D01*
G03X2947601Y-3434200I-51054J0D01*
G01X2830101Y-3316699D01*
G03X2794000Y-3301746I-36101J-36101D01*
G01X2632416Y-3301746D01*
G03X2601201Y-3074404I-31215J111528D01*
G03X2569986Y-3301746I0J-115814D01*
G01X2378416Y-3301746D01*
G03X2347201Y-3074404I-31215J111528D01*
G03X2315986Y-3301746I0J-115814D01*
G01X2167447Y-3301746D01*
G01X2154303Y-3288602D01*
G03X2087457Y-3074547I-61102J98384D01*
G03X2042147Y-3294172I5744J-115671D01*
G01X2042147Y-3299701D01*
G03X2057101Y-3335802I51054J0D01*
G01X2073845Y-3352546D01*
G01X1659447Y-3352546D01*
G01X1636255Y-3329354D01*
G01X1636255Y-3294172D01*
G03X1585201Y-3074404I-51054J103954D01*
G03X1534147Y-3294172I0J-115814D01*
G01X1534147Y-3350501D01*
G03X1549101Y-3386602I51054J0D01*
G01X1602199Y-3439701D01*
G03X1638300Y-3454654I36101J36101D01*
G01X1838579Y-3454654D01*
G01X1838579Y-3610251D01*
G03X1874393Y-3646065I35814J0D01*
G01X1913179Y-3646065D01*
G01X1913179Y-3663493D01*
G03X1931108Y-3706778I61214J0D01*
G01X2148586Y-3924256D01*
G01X2148586Y-3939367D01*
G03X2133704Y-3953533I16214J-31933D01*
G03X2019300Y-3966314I-50904J-62767D01*
G03X1874986Y-4016300I-63500J-49986D01*
G01X1874986Y-4086300D01*
G03X2019300Y-4136286I80814J0D01*
G03X2133704Y-4149067I63500J49986D01*
G03X2136103Y-4152727I31096J17767D01*
G01X2120944Y-4167886D01*
G01X1714500Y-4167886D01*
G03X1671215Y-4185815I0J-61214D01*
G01X1569615Y-4287415D01*
G03X1551686Y-4330700I43285J-43285D01*
G01X1551686Y-5041944D01*
G01X1501743Y-5091887D01*
G01X1356287Y-5091887D01*
G03X1016279Y-5153101I-164493J-61214D01*
G03X1356287Y-5214315I175514J0D01*
G01X1527099Y-5214315D01*
G03X1570384Y-5196386I0J61214D01*
G01X1656185Y-5110585D01*
G03X1674114Y-5067300I-43285J43285D01*
G01X1674114Y-4356056D01*
G01X1739856Y-4290314D01*
G01X1915509Y-4290314D01*
G03X1957400Y-4506214I41891J-103886D01*
G01X2005000Y-4506214D01*
G03X2104702Y-4445254I0J112014D01*
G01X2173498Y-4445254D01*
G03X2208440Y-4473214I34942J7854D01*
G01X2289087Y-4473214D01*
G03X2324100Y-4444934I0J35814D01*
G03X2359113Y-4473214I35013J7534D01*
G01X2439760Y-4473214D01*
G03X2475077Y-4443349I0J35814D01*
G01X2574993Y-4443349D01*
G03X2583192Y-4512297I50502J-28956D01*
G03X2583204Y-4592295I42303J-39992D01*
G03X2583204Y-4672305I42291J-40005D01*
G03X2625495Y-4770524I42291J-40005D01*
G01X2737486Y-4770524D01*
G01X2737486Y-4789920D01*
G03X2747900Y-4800334I10414J0D01*
G01X2773276Y-4800334D01*
G01X2773276Y-4918305D01*
G03X2780436Y-4946276I58214J0D01*
G01X2780436Y-5072162D01*
G01X2757899Y-5094699D01*
G03X2742946Y-5130800I36101J-36101D01*
G01X2742946Y-5206815D01*
G03X2724384Y-5238200I17252J-31385D01*
G01X2724384Y-5328200D01*
G03X2733650Y-5352238I35814J0D01*
G01X2733650Y-5388709D01*
G03X2718726Y-5417800I20890J-29090D01*
G01X2718726Y-5504200D01*
G03X2732786Y-5532651I35814J0D01*
G01X2732786Y-5555686D01*
G03X2714986Y-5586640I18014J-30954D01*
G01X2714986Y-5667287D01*
G03X2743266Y-5702300I35814J0D01*
G03X2714986Y-5737313I7534J-35013D01*
G01X2714986Y-5817960D01*
G03X2732786Y-5848914I35814J0D01*
G01X2732786Y-6019800D01*
G03X2750715Y-6063085I61214J0D01*
G01X2903115Y-6215485D01*
G03X2946400Y-6233414I43285J43285D01*
G01X3037959Y-6233414D01*
G03X3316115Y-6172200I132342J61214D01*
G03X3037959Y-6110986I-145814J0D01*
G01X2971756Y-6110986D01*
G01X2855214Y-5994444D01*
G01X2855214Y-5862814D01*
G01X3073394Y-5862814D01*
G03X3083687Y-5853985I0J10414D01*
G03X3097400Y-5856714I13714J33084D01*
G01X3303400Y-5856714D01*
G03X3339214Y-5820900I0J35814D01*
G01X3339214Y-5613900D01*
G03X3303400Y-5578086I-35814J0D01*
G01X3097400Y-5578086D01*
G03X3061586Y-5613900I0J-35814D01*
G01X3061586Y-5654717D01*
G01X2990548Y-5583679D01*
G03X2947264Y-5565750I-43285J-43285D01*
G01X2918414Y-5565750D01*
G01X2918414Y-5540014D01*
G01X2985860Y-5540014D01*
G03X3021674Y-5504200I0J35814D01*
G01X3021674Y-5417800D01*
G03X2985860Y-5381986I-35814J0D01*
G01X2918414Y-5381986D01*
G01X2918414Y-5364014D01*
G01X2980202Y-5364014D01*
G03X3016016Y-5328200I0J35814D01*
G01X3016016Y-5238200D01*
G03X2980202Y-5202386I-35814J0D01*
G01X2900202Y-5202386D01*
G03X2870523Y-5218156I0J-35814D01*
G01X2869877Y-5218156D01*
G03X2845054Y-5202717I-29679J-20044D01*
G01X2845054Y-5151947D01*
G01X2867591Y-5129410D01*
G03X2879493Y-5110695I-36101J36101D01*
G01X2922999Y-5154201D01*
G03X2959100Y-5169154I36101J36101D01*
G01X3699953Y-5169154D01*
G01X3720846Y-5190047D01*
G01X3720846Y-5244915D01*
G03X3702284Y-5276300I17252J-31385D01*
G01X3702284Y-5366300D01*
G03X3716884Y-5395155I35814J0D01*
G01X3716884Y-5436341D01*
G03X3696626Y-5468600I15556J-32259D01*
G01X3696626Y-5555000D01*
G03X3710686Y-5583451I35814J0D01*
G01X3710686Y-5619186D01*
G03X3692886Y-5650140I18014J-30954D01*
G01X3692886Y-5730787D01*
G03X3721166Y-5765800I35814J0D01*
G03X3692886Y-5800813I7534J-35013D01*
G01X3692886Y-5881460D01*
G03X3728700Y-5917274I35814J0D01*
G01X3815100Y-5917274D01*
G03X3844191Y-5902350I0J35814D01*
G01X3872681Y-5902350D01*
G01X3913886Y-5943556D01*
G01X3913886Y-6108700D01*
G03X3931815Y-6151985I61214J0D01*
G01X3995315Y-6215485D01*
G03X4037955Y-6233411I43285J43285D01*
G03X4315797Y-6181784I132344J61211D01*
G03X4047128Y-6094158I-145498J9584D01*
G01X4036314Y-6083344D01*
G01X4036314Y-5918200D01*
G03X4026794Y-5885414I-61214J0D01*
G01X4038415Y-5885414D01*
G03X4062600Y-5894814I24186J26414D01*
G01X4268600Y-5894814D01*
G03X4304414Y-5859000I0J35814D01*
G01X4304414Y-5652000D01*
G03X4268600Y-5616186I-35814J0D01*
G01X4062600Y-5616186D01*
G03X4026786Y-5652000I0J-35814D01*
G01X4026786Y-5694286D01*
G01X3990156Y-5694286D01*
G01X3942185Y-5646315D01*
G03X3915467Y-5630670I-43285J-43285D01*
G01X3915467Y-5590814D01*
G01X3963760Y-5590814D01*
G03X3999574Y-5555000I0J35814D01*
G01X3999574Y-5468600D01*
G03X3963760Y-5432786I-35814J0D01*
G01X3915467Y-5432786D01*
G01X3915467Y-5402114D01*
G01X3958102Y-5402114D01*
G03X3993916Y-5366300I0J35814D01*
G01X3993916Y-5276300D01*
G03X3958102Y-5240486I-35814J0D01*
G01X3878102Y-5240486D01*
G03X3848100Y-5256743I0J-35814D01*
G03X3822954Y-5240817I-30002J-19557D01*
G01X3822954Y-5168900D01*
G03X3822805Y-5165007I-51054J0D01*
G01X3875499Y-5217701D01*
G03X3911600Y-5232654I36101J36101D01*
G01X4050058Y-5232654D01*
G03X4026786Y-5266200I12543J-33546D01*
G01X4026786Y-5473200D01*
G03X4062600Y-5509014I35814J0D01*
G01X4268600Y-5509014D01*
G03X4304414Y-5473200I0J35814D01*
G01X4304414Y-5266200D01*
G03X4281142Y-5232654I-35814J0D01*
G01X4296853Y-5232654D01*
G01X4421599Y-5357401D01*
G03X4457700Y-5372354I36101J36101D01*
G01X4693399Y-5372354D01*
G03X4707484Y-5395155I35299J6054D01*
G01X4707484Y-5423641D01*
G03X4687226Y-5455900I15556J-32259D01*
G01X4687226Y-5542300D01*
G03X4701286Y-5570751I35814J0D01*
G01X4701286Y-5593786D01*
G03X4683486Y-5624740I18014J-30954D01*
G01X4683486Y-5705387D01*
G03X4711766Y-5740400I35814J0D01*
G03X4683486Y-5775413I7534J-35013D01*
G01X4683486Y-5856060D01*
G03X4701286Y-5887014I35814J0D01*
G01X4701286Y-5981700D01*
G03X4719215Y-6024985I61214J0D01*
G01X4737153Y-6042923D01*
G03X4808074Y-6317972I67447J-129277D01*
G03X4865815Y-6039858I-3473J145772D01*
G01X4865815Y-6023800D01*
G03X4847885Y-5980516I-61214J0D01*
G01X4823714Y-5956344D01*
G01X4823714Y-5887014D01*
G03X4841506Y-5856835I-18014J30954D01*
G01X4891952Y-5856835D01*
G03X4895650Y-5857514I3698J9735D01*
G01X5019187Y-5857514D01*
G03X5053200Y-5882114I34013J11214D01*
G01X5259200Y-5882114D01*
G03X5295014Y-5846300I0J35814D01*
G01X5295014Y-5639300D01*
G03X5259200Y-5603486I-35814J0D01*
G01X5053200Y-5603486D01*
G03X5017386Y-5639300I0J-35814D01*
G01X5017386Y-5681586D01*
G01X5006156Y-5681586D01*
G01X4946348Y-5621779D01*
G03X4911166Y-5604388I-43285J-43285D01*
G01X4911166Y-5578114D01*
G01X4954360Y-5578114D01*
G03X4990174Y-5542300I0J35814D01*
G01X4990174Y-5455900D01*
G03X4954360Y-5420086I-35814J0D01*
G01X4911166Y-5420086D01*
G01X4911166Y-5402114D01*
G01X4948702Y-5402114D01*
G03X4984516Y-5366300I0J35814D01*
G01X4984516Y-5276300D01*
G03X4948702Y-5240486I-35814J0D01*
G01X4868702Y-5240486D01*
G03X4838700Y-5256743I0J-35814D01*
G03X4808698Y-5240486I-30002J-19557D01*
G01X4728698Y-5240486D01*
G03X4693399Y-5270246I0J-35814D01*
G01X4478847Y-5270246D01*
G01X4354101Y-5145499D01*
G03X4318000Y-5130546I-36101J-36101D01*
G01X3932747Y-5130546D01*
G01X3820701Y-5018499D01*
G03X3784600Y-5003546I-36101J-36101D01*
G01X3081847Y-5003546D01*
G01X3051149Y-4972848D01*
G03X3111500Y-4960596I20346J54543D01*
G03X3191497Y-4960608I40005J42291D01*
G03X3271495Y-4960596I39992J42303D01*
G03X3351505Y-4960596I40005J42291D01*
G03X3449724Y-4918305I40005J42291D01*
G01X3449724Y-4800334D01*
G01X3469120Y-4800334D01*
G03X3479534Y-4789920I0J10414D01*
G01X3479534Y-4770524D01*
G01X3597505Y-4770524D01*
G01X3598036Y-4770521D01*
G03X3592270Y-4884281I31043J-58599D01*
G03X3695105Y-4835296I36809J55160D01*
G01X3706401Y-4824001D01*
G03X3721354Y-4787900I-36101J36101D01*
G01X3721354Y-4737100D01*
G03X3706401Y-4700999I-51054J0D01*
G01X3688765Y-4683364D01*
G01X3698248Y-4683364D01*
G01X3778692Y-4763808D01*
G03X3814800Y-4778764I36108J36108D01*
G01X3831077Y-4778764D01*
G01X3831077Y-4814099D01*
G03X3866891Y-4849913I35814J0D01*
G01X3989220Y-4849913D01*
G03X3995700Y-4852175I6480J8153D01*
G01X4181005Y-4852175D01*
G03X4187485Y-4849913I0J10414D01*
G01X4333909Y-4849913D01*
G03X4369723Y-4814099I0J35814D01*
G01X4369723Y-4641301D01*
G03X4333909Y-4605487I-35814J0D01*
G01X4191419Y-4605487D01*
G01X4191419Y-4570000D01*
G03X4181005Y-4559586I-10414J0D01*
G01X4159500Y-4559586D01*
G01X4159516Y-4558500D01*
G01X4159516Y-4468500D01*
G03X4123702Y-4432686I-35814J0D01*
G01X4043702Y-4432686D01*
G01X4043321Y-4432688D01*
G01X4172995Y-4303014D01*
G01X4267200Y-4303014D01*
G03X4301505Y-4288805I0J48514D01*
G01X4415805Y-4174505D01*
G03X4430014Y-4140200I-34305J34305D01*
G01X4430014Y-3697641D01*
G01X4450351Y-3697641D01*
G03X4486165Y-3661827I0J35814D01*
G01X4486165Y-3653714D01*
G01X5312305Y-3653714D01*
G01X5437886Y-3779295D01*
G01X5437886Y-4089400D01*
G03X5452095Y-4123705I48514J0D01*
G01X5502895Y-4174505D01*
G03X5537200Y-4188714I34305J34305D01*
G01X6540500Y-4188714D01*
G03X6574805Y-4174505I0J48514D01*
G01X6738395Y-4010914D01*
G01X6799021Y-4010914D01*
G03X6814924Y-4013454I15903J48514D01*
G01X7353749Y-4013454D01*
G03X7573518Y-3962405I103955J51051D01*
G03X7353752Y-3911346I-115814J3D01*
G01X6870954Y-3911346D01*
G01X6870954Y-3693414D01*
G01X6919486Y-3693414D01*
G01X6919486Y-3747900D01*
G03X6955300Y-3783714I35814J0D01*
G01X7162300Y-3783714D01*
G03X7170432Y-3782778I0J35814D01*
G03X7180160Y-3789474I9728J3718D01*
G01X7341670Y-3789474D01*
G03X7350986Y-3783714I0J10414D01*
G01X7548100Y-3783714D01*
G03X7583914Y-3747900I0J35814D01*
G01X7583914Y-3541900D01*
G03X7548100Y-3506086I-35814J0D01*
G01X7351360Y-3506086D01*
G03X7341670Y-3499486I-9691J-3814D01*
G01X7180160Y-3499486D01*
G03X7170169Y-3506962I0J-10414D01*
G03X7162300Y-3506086I-7869J-34939D01*
G01X6955300Y-3506086D01*
G03X6919486Y-3541900I0J-35814D01*
G01X6919486Y-3596386D01*
G01X6870954Y-3596386D01*
G01X6870954Y-3556000D01*
G03X6856001Y-3519899I-51054J0D01*
G01X6805201Y-3469099D01*
G03X6769100Y-3454146I-36101J-36101D01*
G01X6767750Y-3454146D01*
G03X6822089Y-3405443I-35556J94336D01*
G03X6829331Y-3332832I-89895J45632D01*
G01X6859999Y-3363501D01*
G03X6896100Y-3378454I36101J36101D01*
G01X6906786Y-3378454D01*
G01X6906786Y-3403588D01*
G03X6848901Y-3445620I-20086J-33212D01*
G03X6919411Y-3457693I37798J8820D01*
G03X6942600Y-3466214I23189J27293D01*
G01X7149600Y-3466214D01*
G03X7153314Y-3466020I0J35814D01*
G03X7162720Y-3471964I9406J4470D01*
G01X7333228Y-3471964D01*
G03X7342539Y-3466214I0J10414D01*
G01X7535400Y-3466214D01*
G03X7571214Y-3430400I0J35814D01*
G01X7571214Y-3224400D01*
G03X7535400Y-3188586I-35814J0D01*
G01X7342918Y-3188586D01*
G03X7333228Y-3181986I-9691J-3814D01*
G01X7162720Y-3181986D01*
G03X7152968Y-3188745I0J-10414D01*
G03X7149600Y-3188586I-3369J-35655D01*
G01X6942600Y-3188586D01*
G03X6906786Y-3224400I0J-35814D01*
G01X6906786Y-3265885D01*
G01X6858318Y-3217417D01*
G03X6952997Y-3116790I-6134J100627D01*
G01X6952997Y-3066790D01*
G03X6888234Y-2972642I-100814J0D01*
G01X11711686Y-2972642D01*
G01X11711686Y-6504686D01*
G01X77376Y-3190218D02*
G03X469003Y-3190218I195814J0D01*
G03X77376Y-3190218I-195814J0D01*
G01X77376Y-6290237D02*
G03X469003Y-6290237I195814J0D01*
G03X77376Y-6290237I-195814J0D01*
G01X903201Y-3306032D02*
G03X939015Y-3270218I0J35814D01*
G01X939015Y-3110218D01*
G03X903201Y-3074404I-35814J0D01*
G01X743201Y-3074404D01*
G03X707387Y-3110218I0J-35814D01*
G01X707387Y-3270218D01*
G03X743201Y-3306032I35814J0D01*
G01X903201Y-3306032D01*
G01X1167308Y-5753100D02*
G03X816280Y-5753100I-175514J0D01*
G03X1167308Y-5753100I175514J0D01*
G01X961387Y-3190218D02*
G03X1193015Y-3190218I115814J0D01*
G03X961387Y-3190218I-115814J0D01*
G01X1191514Y-3810000D02*
G03X967486Y-3810000I-112014J0D01*
G03X1191514Y-3810000I112014J0D01*
G01X1243000Y-4536186D02*
G01X1195400Y-4536186D01*
G03X1195400Y-4760214I0J-112014D01*
G01X1243000Y-4760214D01*
G03X1243000Y-4536186I0J112014D01*
G01X1333500Y-3668014D02*
G03X1382014Y-3455037I0J112014D01*
G01X1382014Y-3294290D01*
G03X1328670Y-3074432I-50813J104072D01*
G03X1284986Y-3296411I2532J-115786D01*
G01X1284986Y-3455037D01*
G03X1333500Y-3668014I48514J-100963D01*
G01X1699514Y-3810000D02*
G03X1475486Y-3810000I-112014J0D01*
G03X1699514Y-3810000I112014J0D01*
G01X1723387Y-3190218D02*
G03X1955015Y-3190218I115814J0D01*
G03X1723387Y-3190218I-115814J0D01*
G01X2005000Y-4536186D02*
G01X1957400Y-4536186D01*
G03X1957400Y-4760214I0J-112014D01*
G01X2005000Y-4760214D01*
G03X2005000Y-4536186I0J112014D01*
G01X2587320Y-5153152D02*
G03X2236292Y-5153152I-175514J0D01*
G03X2587320Y-5153152I175514J0D01*
G01X2739387Y-3190218D02*
G03X2971015Y-3190218I115814J0D01*
G03X2739387Y-3190218I-115814J0D01*
G01X2993387Y-3190218D02*
G03X3225015Y-3190218I115814J0D01*
G03X2993387Y-3190218I-115814J0D01*
G01X3097400Y-5192286D02*
G03X3061586Y-5228100I0J-35814D01*
G01X3061586Y-5435100D01*
G03X3097400Y-5470914I35814J0D01*
G01X3303400Y-5470914D01*
G03X3339214Y-5435100I0J35814D01*
G01X3339214Y-5228100D01*
G03X3303400Y-5192286I-35814J0D01*
G01X3097400Y-5192286D01*
G01X3816114Y-6172200D02*
G03X3524486Y-6172200I-145814J0D01*
G03X3816114Y-6172200I145814J0D01*
G01X4376640Y-3074433D02*
G03X4330446Y-3295269I2561J-115786D01*
G01X4330446Y-3312759D01*
G01X4312649Y-3312759D01*
G03X4276835Y-3348573I0J-35814D01*
G01X4276835Y-3461827D01*
G03X4312649Y-3497641I35814J0D01*
G01X4450351Y-3497641D01*
G03X4486165Y-3461827I0J35814D01*
G01X4486165Y-3348573D01*
G03X4450351Y-3312759I-35814J0D01*
G01X4432554Y-3312759D01*
G01X4432554Y-3293011D01*
G03X4376640Y-3074433I-53353J102793D01*
G01X4517387Y-3190218D02*
G03X4749015Y-3190218I115814J0D01*
G03X4517387Y-3190218I-115814J0D01*
G01X5053200Y-5217686D02*
G03X5017386Y-5253500I0J-35814D01*
G01X5017386Y-5460500D01*
G03X5053200Y-5496314I35814J0D01*
G01X5259200Y-5496314D01*
G03X5295014Y-5460500I0J35814D01*
G01X5295014Y-5253500D01*
G03X5259200Y-5217686I-35814J0D01*
G01X5053200Y-5217686D01*
G01X5450413Y-6172200D02*
G03X5158786Y-6172200I-145814J0D01*
G03X5450413Y-6172200I145814J0D01*
G01X8755605Y-5196586D02*
G01X5696710Y-5196586D01*
G03X5585186Y-5245100I-45210J-48514D01*
G03X5696710Y-5293614I66314J0D01*
G01X8775700Y-5293614D01*
G03X8810005Y-5279405I0J48514D01*
G01X9254505Y-4834905D01*
G03X9268714Y-4800600I-34305J34305D01*
G01X9268714Y-4668295D01*
G01X9375995Y-4561014D01*
G01X9770288Y-4561014D01*
G01X9770288Y-4612500D01*
G03X9806102Y-4648314I35814J0D01*
G01X10106101Y-4648314D01*
G03X10141915Y-4612500I0J35814D01*
G01X10141915Y-4573714D01*
G01X11270285Y-4573714D01*
G01X11270285Y-4612500D01*
G03X11306099Y-4648314I35814J0D01*
G01X11606098Y-4648314D01*
G03X11641912Y-4612500I0J35814D01*
G01X11641912Y-4412501D01*
G03X11606098Y-4376687I-35814J0D01*
G01X11306099Y-4376687D01*
G03X11270285Y-4412501I0J-35814D01*
G01X11270285Y-4451286D01*
G01X10141915Y-4451286D01*
G01X10141915Y-4412501D01*
G03X10106101Y-4376687I-35814J0D01*
G01X9806102Y-4376687D01*
G03X9770288Y-4412501I0J-35814D01*
G01X9770288Y-4463986D01*
G01X9355900Y-4463986D01*
G03X9321595Y-4478196I0J-48514D01*
G01X9185895Y-4613895D01*
G03X9171686Y-4648200I34305J-34305D01*
G01X9171686Y-4780505D01*
G01X8755605Y-5196586D01*
G01X5731921Y-5651246D02*
G03X5623286Y-5702300I-42321J-51054D01*
G03X5731921Y-5753354I66314J0D01*
G01X8170088Y-5753354D01*
G01X8170088Y-5793600D01*
G03X8205902Y-5829414I35814J0D01*
G01X8505901Y-5829414D01*
G03X8541715Y-5793600I0J35814D01*
G01X8541715Y-5754814D01*
G01X9670085Y-5754814D01*
G01X9670085Y-5793600D01*
G03X9705899Y-5829414I35814J0D01*
G01X10005898Y-5829414D01*
G03X10041712Y-5793600I0J35814D01*
G01X10041712Y-5593601D01*
G03X10005898Y-5557787I-35814J0D01*
G01X9705899Y-5557787D01*
G03X9670085Y-5593601I0J-35814D01*
G01X9670085Y-5632386D01*
G01X8541715Y-5632386D01*
G01X8541715Y-5593601D01*
G03X8505901Y-5557787I-35814J0D01*
G01X8205902Y-5557787D01*
G03X8170088Y-5593601I0J-35814D01*
G01X8170088Y-5651246D01*
G01X7840589Y-5651246D01*
G03X7820416Y-5421389I-20173J114043D01*
G03X7800244Y-5651246I0J-115814D01*
G01X7490577Y-5651246D01*
G03X7470404Y-5421389I-20173J114043D01*
G03X7450232Y-5651246I0J-115814D01*
G01X5731921Y-5651246D01*
G01X8716439Y-5067046D02*
G01X8232114Y-5067046D01*
G03X8234315Y-5054683I-33612J12363D01*
G01X8234315Y-4474684D01*
G03X8198501Y-4438870I-35814J0D01*
G01X7578502Y-4438870D01*
G03X7542688Y-4474684I0J-35814D01*
G01X7542688Y-5054683D01*
G03X7544890Y-5067046I35814J0D01*
G01X5977447Y-5067046D01*
G01X5816854Y-4906453D01*
G01X5816854Y-4855621D01*
G03X5765800Y-4746986I-51054J42321D01*
G03X5714746Y-4855621I0J-66314D01*
G01X5714746Y-4927600D01*
G03X5729699Y-4963701I51054J0D01*
G01X5920199Y-5154201D01*
G03X5956300Y-5169154I36101J36101D01*
G01X8736588Y-5169154D01*
G03X8773708Y-5154208I1012J51054D01*
G01X9122773Y-4805142D01*
G03X9137729Y-4769035I-36108J36108D01*
G01X9137729Y-3367214D01*
G01X9670085Y-3367214D01*
G01X9670085Y-3406000D01*
G03X9705899Y-3441814I35814J0D01*
G01X10005898Y-3441814D01*
G03X10041712Y-3406000I0J35814D01*
G01X10041712Y-3206001D01*
G03X10005898Y-3170187I-35814J0D01*
G01X9705899Y-3170187D01*
G03X9670085Y-3206001I0J-35814D01*
G01X9670085Y-3244786D01*
G01X8541715Y-3244786D01*
G01X8541715Y-3206001D01*
G03X8505901Y-3170187I-35814J0D01*
G01X8205902Y-3170187D01*
G03X8170088Y-3206001I0J-35814D01*
G01X8170088Y-3406000D01*
G03X8205902Y-3441814I35814J0D01*
G01X8505901Y-3441814D01*
G03X8541715Y-3406000I0J35814D01*
G01X8541715Y-3367214D01*
G01X9035601Y-3367214D01*
G01X9035601Y-4747883D01*
G01X8716439Y-5067046D01*
G01X5742589Y-4318000D02*
G03X5994217Y-4318000I125814J0D01*
G03X5742589Y-4318000I-125814J0D01*
G01X6449014Y-6172200D02*
G03X6157387Y-6172200I-145814J0D01*
G03X6449014Y-6172200I145814J0D01*
G01X6502583Y-4318000D02*
G03X6754211Y-4318000I125814J0D01*
G03X6502583Y-4318000I-125814J0D01*
G01X6949013Y-6172200D02*
G03X6657386Y-6172200I-145814J0D01*
G03X6949013Y-6172200I145814J0D01*
G01X7577386Y-3190218D02*
G03X7969014Y-3190218I195814J0D01*
G03X7577386Y-3190218I-195814J0D01*
G01X7577386Y-6290237D02*
G03X7969014Y-6290237I195814J0D01*
G03X7577386Y-6290237I-195814J0D01*
G01X7807716Y-3846589D02*
G03X7807716Y-4078216I0J-115814D01*
G03X7807716Y-3846589I0J115814D01*
G01X8170088Y-3905999D02*
G03X8205902Y-3941813I35814J0D01*
G01X8505901Y-3941813D01*
G03X8541715Y-3905999I0J35814D01*
G01X8541715Y-3706000D01*
G03X8505901Y-3670186I-35814J0D01*
G01X8205902Y-3670186D01*
G03X8170088Y-3706000I0J-35814D01*
G01X8170088Y-3905999D01*
G01X8170088Y-6293599D02*
G03X8205902Y-6329413I35814J0D01*
G01X8505901Y-6329413D01*
G03X8541715Y-6293599I0J35814D01*
G01X8541715Y-6093600D01*
G03X8505901Y-6057786I-35814J0D01*
G01X8205902Y-6057786D01*
G03X8170088Y-6093600I0J-35814D01*
G01X8170088Y-6293599D01*
G01X9670085Y-3905999D02*
G03X9705899Y-3941813I35814J0D01*
G01X10005898Y-3941813D01*
G03X10041712Y-3905999I0J35814D01*
G01X10041712Y-3706000D01*
G03X10005898Y-3670186I-35814J0D01*
G01X9705899Y-3670186D01*
G03X9670085Y-3706000I0J-35814D01*
G01X9670085Y-3905999D01*
G01X9670085Y-6293599D02*
G03X9705899Y-6329413I35814J0D01*
G01X10005898Y-6329413D01*
G03X10041712Y-6293599I0J35814D01*
G01X10041712Y-6093600D01*
G03X10005898Y-6057786I-35814J0D01*
G01X9705899Y-6057786D01*
G03X9670085Y-6093600I0J-35814D01*
G01X9670085Y-6293599D01*
G01X9770288Y-5112499D02*
G03X9806102Y-5148313I35814J0D01*
G01X10106101Y-5148313D01*
G03X10141915Y-5112499I0J35814D01*
G01X10141915Y-4912500D01*
G03X10106101Y-4876686I-35814J0D01*
G01X9806102Y-4876686D01*
G03X9770288Y-4912500I0J-35814D01*
G01X9770288Y-5112499D01*
G01X11270285Y-5112499D02*
G03X11306099Y-5148313I35814J0D01*
G01X11606098Y-5148313D01*
G03X11641912Y-5112499I0J35814D01*
G01X11641912Y-4912500D01*
G03X11606098Y-4876686I-35814J0D01*
G01X11306099Y-4876686D01*
G03X11270285Y-4912500I0J-35814D01*
G01X11270285Y-5112499D01*
G01X5959123Y-3261614D02*
G01X6224383Y-3261614D01*
G03X6154858Y-3400249I22823J-98196D01*
G03X6303889Y-3443180I92348J40438D01*
G01X6303889Y-3459023D01*
G03X6339703Y-3494837I35814J0D01*
G01X6379703Y-3494837D01*
G03X6392202Y-3492585I0J35814D01*
G03X6404701Y-3494837I12499J33562D01*
G01X6406052Y-3494837D01*
G03X6400546Y-3517900I45548J-23063D01*
G01X6400546Y-3545098D01*
G03X6373749Y-3570986I7854J-34942D01*
G01X6293895Y-3570986D01*
G01X6168405Y-3445495D01*
G03X6134100Y-3431286I-34305J-34305D01*
G01X6110714Y-3431286D01*
G01X6110714Y-3376800D01*
G03X6074900Y-3340986I-35814J0D01*
G01X6019891Y-3340986D01*
G03X6005705Y-3308196I-48490J-1514D01*
G01X5959123Y-3261614D01*
G01X6000914Y-3001100D02*
G03X5986843Y-2972642I-35814J0D01*
G01X6091166Y-2972642D01*
G03X6026403Y-3066790I36050J-94148D01*
G01X6026403Y-3116790D01*
G03X6038453Y-3164586I100814J0D01*
G01X6000914Y-3164586D01*
G01X6000914Y-3001100D01*
G01X6228030Y-3066790D02*
G03X6163267Y-2972642I-100814J0D01*
G01X6816133Y-2972642D01*
G03X6751370Y-3066790I36050J-94148D01*
G01X6751370Y-3116790D01*
G03X6762212Y-3162271I100814J0D01*
G01X6559262Y-3162271D01*
G03X6538571Y-3164586I-4788J-50829D01*
G01X6215980Y-3164586D01*
G03X6228030Y-3116790I-88763J47796D01*
G01X6228030Y-3066790D01*
G54D11*
G01X2940202Y-5283200D02*
G01X3005856Y-5283200D01*
G01X2940202Y-5283200D02*
G01X2940202Y-5353854D01*
G01X2940202Y-5283200D02*
G01X2940202Y-5212546D01*
G01X2945536Y-5461000D02*
G01X3011514Y-5461000D01*
G01X2945536Y-5461000D02*
G01X2945536Y-5529854D01*
G01X2945536Y-5461000D02*
G01X2945536Y-5392146D01*
G01X3200400Y-5331600D02*
G01X3200400Y-5202446D01*
G01X3200400Y-5331600D02*
G01X3200400Y-5460754D01*
G01X3200400Y-5331600D02*
G01X3329054Y-5331600D01*
G01X3200400Y-5331600D02*
G01X3071746Y-5331600D01*
G01X3535705Y-4472305D02*
G01X3645559Y-4472305D01*
G01X3918102Y-5321300D02*
G01X3983756Y-5321300D01*
G01X3918102Y-5321300D02*
G01X3918102Y-5391954D01*
G01X3918102Y-5321300D02*
G01X3918102Y-5250646D01*
G01X3923436Y-5511800D02*
G01X3989414Y-5511800D01*
G01X3923436Y-5511800D02*
G01X3923436Y-5580654D01*
G01X3923436Y-5511800D02*
G01X3923436Y-5442946D01*
G01X4165600Y-5369700D02*
G01X4165600Y-5498854D01*
G01X4165600Y-5369700D02*
G01X4294254Y-5369700D01*
G01X4165600Y-5369700D02*
G01X4036946Y-5369700D01*
G01X4083702Y-4513500D02*
G01X4149356Y-4513500D01*
G01X4083702Y-4513500D02*
G01X4083702Y-4442846D01*
G01X4259658Y-4727700D02*
G01X4359563Y-4727700D01*
G01X4259658Y-4727700D02*
G01X4259658Y-4839753D01*
G01X4259658Y-4727700D02*
G01X4259658Y-4615647D01*
G01X4948702Y-5321300D02*
G01X4974356Y-5321300D01*
G01X4914036Y-5499100D02*
G01X4980014Y-5499100D01*
G01X4914036Y-5499100D02*
G01X4914036Y-5567954D01*
G01X4914036Y-5499100D02*
G01X4914036Y-5430246D01*
G01X5156200Y-5357000D02*
G01X5156200Y-5227846D01*
G01X5156200Y-5357000D02*
G01X5156200Y-5486154D01*
G01X5156200Y-5357000D02*
G01X5284854Y-5357000D01*
G01X5156200Y-5357000D02*
G01X5027546Y-5357000D01*
G01X5585600Y-3479800D02*
G01X5456446Y-3479800D01*
G01X5585600Y-3479800D02*
G01X5585600Y-3351146D01*
G01X5585600Y-3479800D02*
G01X5585600Y-3608454D01*
G01X6359703Y-3359023D02*
G01X6359703Y-3484677D01*
G01X7431900Y-3327400D02*
G01X7561054Y-3327400D01*
G01X7431900Y-3327400D02*
G01X7431900Y-3456054D01*
G01X7431900Y-3327400D02*
G01X7431900Y-3198746D01*
G01X7444600Y-3644900D02*
G01X7573754Y-3644900D01*
G01X7444600Y-3644900D02*
G01X7444600Y-3773554D01*
G01X7444600Y-3644900D02*
G01X7444600Y-3516246D01*
G01X7888502Y-4764683D02*
G01X8224155Y-4764683D01*
G01X7888502Y-4764683D02*
G01X7552848Y-4764683D01*
G01X7888502Y-4764683D02*
G01X7888502Y-4449030D01*
G01X8355902Y-3805999D02*
G01X8180248Y-3805999D01*
G01X8355902Y-3805999D02*
G01X8531555Y-3805999D01*
G01X8355902Y-3805999D02*
G01X8355902Y-3680346D01*
G01X8355902Y-3805999D02*
G01X8355902Y-3931653D01*
G01X8355902Y-6193599D02*
G01X8180248Y-6193599D01*
G01X8355902Y-6193599D02*
G01X8531555Y-6193599D01*
G01X8355902Y-6193599D02*
G01X8355902Y-6067946D01*
G01X8355902Y-6193599D02*
G01X8355902Y-6319253D01*
G01X9855899Y-3805999D02*
G01X9680245Y-3805999D01*
G01X9855899Y-3805999D02*
G01X10031552Y-3805999D01*
G01X9855899Y-3805999D02*
G01X9855899Y-3680346D01*
G01X9855899Y-3805999D02*
G01X9855899Y-3931653D01*
G01X9855899Y-6193599D02*
G01X9680245Y-6193599D01*
G01X9855899Y-6193599D02*
G01X10031552Y-6193599D01*
G01X9855899Y-6193599D02*
G01X9855899Y-6067946D01*
G01X9855899Y-6193599D02*
G01X9855899Y-6319253D01*
G01X9956102Y-5012499D02*
G01X9780448Y-5012499D01*
G01X9956102Y-5012499D02*
G01X10131755Y-5012499D01*
G01X9956102Y-5012499D02*
G01X9956102Y-4886846D01*
G01X9956102Y-5012499D02*
G01X9956102Y-5138153D01*
G01X11456099Y-5012499D02*
G01X11280445Y-5012499D01*
G01X11456099Y-5012499D02*
G01X11631752Y-5012499D01*
G01X11456099Y-5012499D02*
G01X11456099Y-4886846D01*
G01X11456099Y-5012499D02*
G01X11456099Y-5138153D01*
G01X823201Y-3190218D02*
G01X717547Y-3190218D01*
G01X823201Y-3190218D02*
G01X928855Y-3190218D01*
G01X823201Y-3190218D02*
G01X823201Y-3084564D01*
G01X823201Y-3190218D02*
G01X823201Y-3295872D01*
G01X1079500Y-3810000D02*
G01X1181354Y-3810000D01*
G01X1079500Y-3810000D02*
G01X977646Y-3810000D01*
G01X1079500Y-3810000D02*
G01X1079500Y-3911854D01*
G01X1079500Y-3810000D02*
G01X1079500Y-3708146D01*
G01X1839201Y-3190218D02*
G01X1733547Y-3190218D01*
G01X1839201Y-3190218D02*
G01X1944855Y-3190218D01*
G01X1839201Y-3190218D02*
G01X1839201Y-3084564D01*
G01X1839201Y-3190218D02*
G01X1839201Y-3295872D01*
G01X1955800Y-4051300D02*
G01X1885146Y-4051300D01*
G01X1955800Y-4051300D02*
G01X1955800Y-4156954D01*
G01X1955800Y-4051300D02*
G01X1955800Y-3945646D01*
G01X1981200Y-4648200D02*
G01X1981200Y-4546346D01*
G01X1981200Y-4648200D02*
G01X1981200Y-4750054D01*
G01X1981200Y-4648200D02*
G01X2106854Y-4648200D01*
G01X1981200Y-4648200D02*
G01X1855546Y-4648200D01*
G01X3670300Y-6172200D02*
G01X3805954Y-6172200D01*
G01X3670300Y-6172200D02*
G01X3534646Y-6172200D01*
G01X3670300Y-6172200D02*
G01X3670300Y-6307854D01*
G01X3670300Y-6172200D02*
G01X3670300Y-6036546D01*
G01X4633201Y-3190218D02*
G01X4527547Y-3190218D01*
G01X4633201Y-3190218D02*
G01X4738855Y-3190218D01*
G01X4633201Y-3190218D02*
G01X4633201Y-3084564D01*
G01X4633201Y-3190218D02*
G01X4633201Y-3295872D01*
G01X5304600Y-6172200D02*
G01X5440253Y-6172200D01*
G01X5304600Y-6172200D02*
G01X5168946Y-6172200D01*
G01X5304600Y-6172200D02*
G01X5304600Y-6307854D01*
G01X5304600Y-6172200D02*
G01X5304600Y-6036546D01*
G01X5372100Y-3086100D02*
G01X5482754Y-3086100D01*
G01X5372100Y-3086100D02*
G01X5261446Y-3086100D01*
G01X5372100Y-3086100D02*
G01X5372100Y-3196754D01*
G01X6127217Y-3091790D02*
G01X6217870Y-3091790D01*
G01X6127217Y-3091790D02*
G01X6036563Y-3091790D01*
G01X6247206Y-3359810D02*
G01X6156552Y-3359810D01*
G01X6247206Y-3359810D02*
G01X6247206Y-3450464D01*
G01X6303201Y-6172200D02*
G01X6438854Y-6172200D01*
G01X6303201Y-6172200D02*
G01X6167547Y-6172200D01*
G01X6303201Y-6172200D02*
G01X6303201Y-6307854D01*
G01X6303201Y-6172200D02*
G01X6303201Y-6036546D01*
G01X6732194Y-3359810D02*
G01X6822848Y-3359810D01*
G01X6852183Y-3091790D02*
G01X6942837Y-3091790D01*
G01X6852183Y-3091790D02*
G01X6761530Y-3091790D01*
G01X7807716Y-3962403D02*
G01X7807716Y-3856749D01*
G01X7807716Y-3962403D02*
G01X7807716Y-4068056D01*
G01X7807716Y-3962403D02*
G01X7913370Y-3962403D01*
G01X7807716Y-3962403D02*
G01X7702062Y-3962403D01*
G01X7820416Y-5537203D02*
G01X7820416Y-5431549D01*
G01X7820416Y-5537203D02*
G01X7926070Y-5537203D01*
G01X7820416Y-5537203D02*
G01X7714762Y-5537203D01*
G01X6628397Y-4318000D02*
G01X6512743Y-4318000D01*
G01X6628397Y-4318000D02*
G01X6744051Y-4318000D01*
G01X6628397Y-4318000D02*
G01X6628397Y-4202346D01*
G01X6628397Y-4318000D02*
G01X6628397Y-4433654D01*
G04 Copper End*

G04 PolygonModel Start*
G36*
G01X6886699Y-3433801D02*
G02X6886699Y-3439800I0J-3000D01*
G02X6886699Y-3433801I0J3000D01*
G37*

G04 Pad Start*
G54D12*
G01X7888502Y-4764683D03*
G54D13*
G01X6628397Y-4318000D03*
G01X5868403Y-4318000D03*
G54D14*
G01X7470404Y-5537203D03*
G01X7820416Y-5537203D03*
G01X7457704Y-3962403D03*
G01X7807716Y-3962403D03*
G54D15*
G01X4083702Y-4513500D03*
G01X3943698Y-4513500D03*
G54D16*
G01X3941142Y-4727700D03*
G01X4259658Y-4727700D03*
G54D15*
G01X2800198Y-5283200D03*
G01X2940202Y-5283200D03*
G01X4768698Y-5321300D03*
G01X4908702Y-5321300D03*
G54D18*
G01X7046100Y-3327400D03*
G01X7431900Y-3327400D03*
G54D19*
G01X4165600Y-5755500D03*
G01X4165600Y-5369700D03*
G01X3200400Y-5717400D03*
G01X3200400Y-5331600D03*
G01X5156200Y-5742800D03*
G01X5156200Y-5357000D03*
G54D18*
G01X5971400Y-3479800D03*
G01X5585600Y-3479800D03*
G54D20*
G01X1974393Y-3530600D03*
G01X2394407Y-3530600D03*
G54D21*
G01X5880100Y-3086100D03*
G54D22*
G01X5626100Y-3086100D03*
G01X5372100Y-3086100D03*
G54D23*
G01X1079500Y-3810000D03*
G01X1333500Y-3556000D03*
G01X1587500Y-3810000D03*
G54D24*
G01X1955800Y-4051300D03*
G01X2082800Y-4051300D03*
G54D25*
G01X2209800Y-4051300D03*
G54D26*
G01X4381500Y-3605200D03*
G01X4381500Y-3405200D03*
G54D27*
G01X6451600Y-3620364D03*
G01X6451600Y-3771036D03*
G01X6629400Y-3620364D03*
G01X6629400Y-3771036D03*
G54D28*
G01X2248764Y-4394200D03*
G01X2399436Y-4394200D03*
G01X3772764Y-5511800D03*
G01X3923436Y-5511800D03*
G54D27*
G01X3771900Y-5841136D03*
G01X3771900Y-5690464D03*
G54D28*
G01X2794864Y-5461000D03*
G01X2945536Y-5461000D03*
G54D27*
G01X2794000Y-5777636D03*
G01X2794000Y-5626964D03*
G54D28*
G01X4763364Y-5499100D03*
G01X4914036Y-5499100D03*
G54D27*
G01X4762500Y-5815736D03*
G01X4762500Y-5665064D03*
G54D29*
G01X2411806Y-5153152D03*
G01X991794Y-5753100D03*
G01X1191793Y-6353099D03*
G01X1191793Y-5153101D03*
G01X2411806Y-6353048D03*
G54D30*
G01X11456099Y-5012499D03*
G01X9956102Y-5012499D03*
G01X11456099Y-4512500D03*
G01X9956102Y-4512500D03*
G01X9855899Y-3805999D03*
G01X8355902Y-3805999D03*
G01X9855899Y-3306000D03*
G01X8355902Y-3306000D03*
G01X9855899Y-6193599D03*
G01X8355902Y-6193599D03*
G01X9855899Y-5693600D03*
G01X8355902Y-5693600D03*
G54D31*
G01X2831490Y-4856505D03*
G01X2911500Y-4856505D03*
G01X2991510Y-4856505D03*
G01X3071495Y-4856505D03*
G01X3151505Y-4856505D03*
G01X3231490Y-4856505D03*
G01X3311500Y-4856505D03*
G01X3391510Y-4856505D03*
G54D32*
G01X3535705Y-4712310D03*
G01X3535705Y-4632300D03*
G01X3535705Y-4552290D03*
G01X3535705Y-4472305D03*
G01X3535705Y-4392295D03*
G01X3535705Y-4312310D03*
G01X3535705Y-4232300D03*
G01X3535705Y-4152290D03*
G54D31*
G01X3391510Y-4008095D03*
G01X3311500Y-4008095D03*
G01X3231490Y-4008095D03*
G01X3151505Y-4008095D03*
G01X3071495Y-4008095D03*
G01X2991510Y-4008095D03*
G01X2911500Y-4008095D03*
G01X2831490Y-4008095D03*
G54D32*
G01X2687295Y-4152290D03*
G01X2687295Y-4232300D03*
G01X2687295Y-4312310D03*
G01X2687295Y-4392295D03*
G01X2687295Y-4472305D03*
G01X2687295Y-4552290D03*
G01X2687295Y-4632300D03*
G01X2687295Y-4712310D03*
G54D14*
G01X4633201Y-3190218D03*
G01X4379201Y-3190218D03*
G01X4125201Y-3190218D03*
G01X3871201Y-3190218D03*
G01X3617201Y-3190218D03*
G01X3363201Y-3190218D03*
G01X3109201Y-3190218D03*
G01X2855201Y-3190218D03*
G01X2601201Y-3190218D03*
G01X2347201Y-3190218D03*
G01X2093201Y-3190218D03*
G01X1839201Y-3190218D03*
G01X1585201Y-3190218D03*
G01X1331201Y-3190218D03*
G01X1077201Y-3190218D03*
G54D33*
G01X823201Y-3190218D03*
G54D34*
G01X273190Y-3190218D03*
G01X273190Y-6290237D03*
G01X7773200Y-3190218D03*
G01X7773200Y-6290237D03*
G54D35*
G01X1981200Y-4394200D03*
G01X1981200Y-4648200D03*
G01X1219200Y-4394200D03*
G01X1219200Y-4648200D03*
G54D36*
G01X6803200Y-6172200D03*
G01X6303201Y-6172200D03*
G01X4170299Y-6172200D03*
G01X3670300Y-6172200D03*
G01X3170301Y-6172200D03*
G01X5304600Y-6172200D03*
G01X4804601Y-6172200D03*
G01X406400Y-4716399D03*
G01X406400Y-4216400D03*
G01X406400Y-3716401D03*
G54D37*
G01X6359703Y-3359023D03*
G01X6424701Y-3359023D03*
G01X6489700Y-3359023D03*
G01X6554699Y-3359023D03*
G01X6619697Y-3359023D03*
G54D38*
G01X6247206Y-3359810D03*
G01X6732194Y-3359810D03*
G54D39*
G01X6852183Y-3091790D03*
G01X6127217Y-3091790D03*
G54D15*
G01X3778098Y-5321300D03*
G01X3918102Y-5321300D03*
G54D18*
G01X7058800Y-3644900D03*
G01X7444600Y-3644900D03*
G04 Pad End*

G04 Via Start*
G54D40*
G01X3629079Y-4829121D03*
G01X3835400Y-4127500D03*
G01X3937000Y-3949700D03*
G01X4098577Y-4054823D03*
G01X5638800Y-3949700D03*
G01X5638800Y-4051300D03*
G01X2997200Y-4368800D03*
G01X3098800Y-4445000D03*
G01X3124200Y-4572000D03*
G01X3301581Y-4610519D03*
G01X5689600Y-5702300D03*
G01X5651500Y-5245100D03*
G01X5765800Y-4813300D03*
G01X3213100Y-4267200D03*
G01X2679700Y-3695700D03*
G01X7632700Y-4521200D03*
G01X7733308Y-4521200D03*
G01X7833952Y-4521200D03*
G01X7934596Y-4521200D03*
G01X8035239Y-4521200D03*
G01X8135883Y-4521200D03*
G01X7632700Y-4610100D03*
G01X7733308Y-4610100D03*
G01X7833952Y-4610100D03*
G01X7934596Y-4610100D03*
G01X8035239Y-4610100D03*
G01X8135883Y-4610100D03*
G01X7634502Y-4705144D03*
G01X7735109Y-4705144D03*
G01X7835753Y-4705144D03*
G01X7936397Y-4705144D03*
G01X8037041Y-4705144D03*
G01X8137685Y-4705144D03*
G01X7632700Y-4787900D03*
G01X7733308Y-4787900D03*
G01X7833952Y-4787900D03*
G01X7934596Y-4787900D03*
G01X8035239Y-4787900D03*
G01X8135883Y-4787900D03*
G01X7632700Y-4889500D03*
G01X7733308Y-4889500D03*
G01X7833952Y-4889500D03*
G01X7934596Y-4889500D03*
G01X8035239Y-4889500D03*
G01X8135883Y-4889500D03*
G01X7632700Y-4978400D03*
G01X7733308Y-4978400D03*
G01X7833952Y-4978400D03*
G01X7934596Y-4978400D03*
G01X8035239Y-4978400D03*
G01X8135883Y-4978400D03*
G04 Via End*

G04 Track Start*
G54D41*
G01X2794864Y-5461000D02*
G01X2794864Y-5288534D01*
G01X2800198Y-5283200D01*
G01X2794000Y-5626964D02*
G01X2794000Y-5461864D01*
G01X2794864Y-5461000D01*
G01X2794000Y-5626964D02*
G01X2947264Y-5626964D01*
G01X3037700Y-5717400D02*
G01X3200400Y-5717400D01*
G01X2947264Y-5626964D02*
G01X3037700Y-5717400D01*
G01X3170301Y-6172200D02*
G01X2946400Y-6172200D01*
G01X2794000Y-6019800D01*
G01X2794000Y-5777636D01*
G54D42*
G01X2831490Y-4856505D02*
G01X2831490Y-5093310D01*
G01X2794000Y-5130800D01*
G01X2794000Y-5277002D01*
G01X2800198Y-5283200D01*
G01X2911500Y-4856505D02*
G01X2911500Y-5070500D01*
G01X2959100Y-5118100D01*
G01X3721100Y-5118100D01*
G01X3771900Y-5168900D01*
G01X3771900Y-5315102D01*
G01X3778098Y-5321300D01*
G01X4768698Y-5321300D02*
G01X4457700Y-5321300D01*
G01X4318000Y-5181600D01*
G01X3911600Y-5181600D01*
G01X3784600Y-5054600D01*
G01X3060700Y-5054600D01*
G01X2991510Y-4985410D02*
G01X2991510Y-4856505D01*
G01X3060700Y-5054600D02*
G01X2991510Y-4985410D01*
G54D41*
G01X3778098Y-5321300D02*
G01X3778098Y-5506466D01*
G01X3772764Y-5511800D01*
G01X3771900Y-5690464D02*
G01X3771900Y-5512664D01*
G01X3772764Y-5511800D01*
G01X4165600Y-5755500D02*
G01X3964800Y-5755500D01*
G01X3898900Y-5689600D01*
G01X3772764Y-5689600D01*
G01X3771900Y-5690464D01*
G01X3771900Y-5841136D02*
G01X3898036Y-5841136D01*
G01X3975100Y-5918200D01*
G01X3975100Y-6108700D01*
G01X4038600Y-6172200D01*
G01X4170299Y-6172200D01*
G01X4768698Y-5321300D02*
G01X4768698Y-5493766D01*
G01X4763364Y-5499100D01*
G01X4762500Y-5665064D02*
G01X4762500Y-5499964D01*
G01X4763364Y-5499100D01*
G01X4762500Y-5665064D02*
G01X4903064Y-5665064D01*
G01X4980800Y-5742800D02*
G01X5156200Y-5742800D01*
G01X4903064Y-5665064D02*
G01X4980800Y-5742800D01*
G01X4762500Y-5815736D02*
G01X4762500Y-5981700D01*
G01X4804601Y-6023800D02*
G01X4804601Y-6172200D01*
G01X4762500Y-5981700D02*
G01X4804601Y-6023800D01*
G54D42*
G01X2687295Y-4392295D02*
G01X2401341Y-4392295D01*
G01X2399436Y-4394200D01*
G01X2248764Y-4394200D02*
G01X1981200Y-4394200D01*
G01X6489700Y-3359023D02*
G01X6489700Y-3479800D01*
G01X6451600Y-3517900D01*
G01X6451600Y-3620364D01*
G01X6554699Y-3359023D02*
G01X6554699Y-3479800D01*
G01X6630149Y-3555251D01*
G01X6630149Y-3619614D01*
G01X6629400Y-3620364D01*
G54D11*
G01X5971400Y-3479800D02*
G01X6134100Y-3479800D01*
G01X6273800Y-3619500D01*
G01X6450736Y-3619500D01*
G01X6451600Y-3620364D01*
G01X5626100Y-3086100D02*
G01X5626100Y-3225800D01*
G01X5689600Y-3289300D01*
G01X5918200Y-3289300D01*
G01X5971400Y-3342500D02*
G01X5971400Y-3479800D01*
G01X5918200Y-3289300D02*
G01X5971400Y-3342500D01*
G01X5880100Y-3086100D02*
G01X5880100Y-3187700D01*
G01X5905500Y-3213100D01*
G54D42*
G01X6554699Y-3359023D02*
G01X6554699Y-3213325D01*
G01X6554474Y-3213100D01*
G54D11*
G01X5905500Y-3213100D02*
G01X6554474Y-3213100D01*
G54D42*
G01X6619697Y-3359023D02*
G01X6619697Y-3470097D01*
G01X6654800Y-3505200D01*
G01X6769100Y-3505200D02*
G01X6819900Y-3556000D01*
G01X6654800Y-3505200D02*
G01X6769100Y-3505200D01*
G01X4381500Y-3405200D02*
G01X4381500Y-3192517D01*
G01X4379201Y-3190218D01*
G01X3231490Y-4008095D02*
G01X3231490Y-3893210D01*
G01X3289300Y-3835400D01*
G01X3962400Y-3835400D02*
G01X4127500Y-3670300D01*
G01X4127500Y-3192517D01*
G01X4125201Y-3190218D01*
G01X3289300Y-3835400D02*
G01X3962400Y-3835400D01*
G01X3151505Y-4008095D02*
G01X3151505Y-3858895D01*
G01X3238500Y-3771900D01*
G01X3810000Y-3771900D01*
G01X3873500Y-3708400D01*
G01X3873500Y-3192517D01*
G01X3871201Y-3190218D01*
G01X3071495Y-4008095D02*
G01X3071495Y-3850005D01*
G01X3225800Y-3695700D02*
G01X3517900Y-3695700D01*
G01X3616085Y-3597515D01*
G01X3616085Y-3191334D01*
G01X3617201Y-3190218D01*
G01X3071495Y-3850005D02*
G01X3225800Y-3695700D01*
G01X3363201Y-3190218D02*
G01X3363201Y-3469399D01*
G01X2991510Y-3841090D02*
G01X2991510Y-4008095D01*
G01X3363201Y-3469399D02*
G01X2991510Y-3841090D01*
G01X2911500Y-4008095D02*
G01X2911500Y-3470300D01*
G01X2794000Y-3352800D01*
G01X2146300Y-3352800D01*
G01X2093201Y-3299701D02*
G01X2093201Y-3190218D01*
G01X2146300Y-3352800D02*
G01X2093201Y-3299701D01*
G01X1585201Y-3190218D02*
G01X1585201Y-3350501D01*
G01X2743200Y-3403600D02*
G01X2832100Y-3492500D01*
G01X2832100Y-4007485D01*
G01X2831490Y-4008095D01*
G01X1585201Y-3350501D02*
G01X1638300Y-3403600D01*
G01X2743200Y-3403600D01*
G01X3535705Y-4712310D02*
G01X3645510Y-4712310D01*
G01X3670300Y-4737100D01*
G01X3670300Y-4787900D01*
G01X3629079Y-4829121D01*
G01X3535705Y-4232300D02*
G01X3692500Y-4232300D01*
G01X6819900Y-3957424D02*
G01X6814924Y-3962400D01*
G01X7457702Y-3962400D02*
G01X6814924Y-3962400D01*
G54D11*
G01X1331201Y-3190218D02*
G01X1333500Y-3192517D01*
G01X1333500Y-3556000D01*
G54D42*
G01X3535705Y-4392295D02*
G01X3695700Y-4392295D01*
G01X3692500Y-4232300D02*
G01X3797300Y-4127500D01*
G01X3835400Y-4127500D01*
G54D10*
G01X3695700Y-4392295D02*
G01X3773805Y-4392295D01*
G01X4038600Y-4127500D01*
G54D11*
G01X3535705Y-4312310D02*
G01X3752190Y-4312310D01*
G54D10*
G01X4038600Y-4127500D02*
G01X4038600Y-4114800D01*
G01X4098577Y-4054823D01*
G54D11*
G01X3752190Y-4312310D02*
G01X3937000Y-4127500D01*
G01X3937000Y-3949700D01*
G54D41*
G01X9855899Y-5693600D02*
G01X8355902Y-5693600D01*
G01X11456099Y-4512500D02*
G01X9956102Y-4512500D01*
G54D43*
G01X9086665Y-4769035D02*
G01X8737600Y-5118100D01*
G54D41*
G01X8355902Y-3306000D02*
G01X9086665Y-3306000D01*
G01X9855899Y-3306000D01*
G54D42*
G01X5689600Y-5702300D02*
G01X8347202Y-5702300D01*
G01X8355902Y-5693600D01*
G01X8737600Y-5118100D02*
G01X5956300Y-5118100D01*
G54D11*
G01X2687295Y-4632300D02*
G01X3063900Y-4632300D01*
G01X3124200Y-4572000D01*
G01X2687295Y-4472305D02*
G01X2893695Y-4472305D01*
G01X2997200Y-4368800D01*
G54D42*
G01X2687295Y-4552290D02*
G01X2991510Y-4552290D01*
G01X3098800Y-4445000D01*
G54D11*
G01X9956102Y-4512500D02*
G01X9355900Y-4512500D01*
G01X9220200Y-4648200D01*
G01X9220200Y-4800600D01*
G01X8775700Y-5245100D01*
G01X2687295Y-4712310D02*
G01X3199790Y-4712310D01*
G01X3301581Y-4610519D01*
G54D42*
G01X5956300Y-5118100D02*
G01X5765800Y-4927600D01*
G01X5765800Y-4813300D01*
G54D11*
G01X8775700Y-5245100D02*
G01X5651500Y-5245100D01*
G54D41*
G01X1191793Y-6353099D02*
G01X1191793Y-6034507D01*
G01X1257300Y-5969000D01*
G01X1257300Y-5588000D01*
G01X895998Y-5226698D02*
G01X895998Y-4450702D01*
G01X952500Y-4394200D01*
G01X1219200Y-4394200D01*
G01X1257300Y-5588000D02*
G01X895998Y-5226698D01*
G54D42*
G01X3535705Y-4552290D02*
G01X3383890Y-4552290D01*
G01X3213100Y-4381500D02*
G01X3213100Y-4267200D01*
G01X3383890Y-4552290D02*
G01X3213100Y-4381500D01*
G54D11*
G01X4381500Y-3605200D02*
G01X5332400Y-3605200D01*
G01X5486400Y-3759200D02*
G01X5486400Y-4089400D01*
G01X5537200Y-4140200D01*
G01X6540500Y-4140200D02*
G01X6718300Y-3962400D01*
G01X6814924Y-3962400D01*
G01X5332400Y-3605200D02*
G01X5486400Y-3759200D01*
G01X5537200Y-4140200D02*
G01X6540500Y-4140200D01*
G01X4381500Y-4140200D02*
G01X4381500Y-3605200D01*
G01X4267200Y-4254500D02*
G01X4381500Y-4140200D01*
G01X4152900Y-4254500D02*
G01X4267200Y-4254500D01*
G54D44*
G01X1079500Y-3810000D02*
G01X1079500Y-4051300D01*
G01X914400Y-4216400D01*
G01X406400Y-4216400D01*
G54D41*
G01X1191793Y-5153101D02*
G01X1527099Y-5153101D01*
G01X1612900Y-5067300D01*
G01X1612900Y-4330700D01*
G01X1714500Y-4229100D01*
G01X2146300Y-4229100D01*
G01X2209800Y-4165600D01*
G01X2209800Y-4051300D01*
G01X1974393Y-3530600D02*
G01X1974393Y-3663493D01*
G01X2209800Y-3898900D02*
G01X2209800Y-4051300D01*
G01X1974393Y-3663493D02*
G01X2209800Y-3898900D01*
G54D42*
G01X6554699Y-3213325D02*
G01X6782025Y-3213325D01*
G01X6896100Y-3327400D01*
G01X7046100Y-3327400D01*
G54D11*
G01X7058800Y-3644900D02*
G01X6826141Y-3644900D01*
G01X6819900Y-3651141D01*
G54D42*
G01X6819900Y-3556000D02*
G01X6819900Y-3651141D01*
G01X6819900Y-3957424D01*
G54D43*
G01X9086665Y-4769035D02*
G01X9086665Y-3306000D01*
G01X3535705Y-4552290D02*
G01X3806610Y-4552290D01*
G01X3845400Y-4513500D02*
G01X3943698Y-4513500D01*
G54D11*
G01X3943698Y-4513500D02*
G01X3943698Y-4463702D01*
G01X4152900Y-4254500D01*
G54D43*
G01X3806610Y-4552290D02*
G01X3845400Y-4513500D01*
G01X3535705Y-4632300D02*
G01X3719400Y-4632300D01*
G01X3814800Y-4727700D01*
G01X3941142Y-4727700D01*
G01X3943698Y-4513500D02*
G01X3943698Y-4725144D01*
G01X3941142Y-4727700D01*
G54D11*
G01X2679700Y-3695700D02*
G01X2451300Y-3695700D01*
G01X2394407Y-3638807D01*
G01X2394407Y-3530600D01*
G54D42*
G01X6629400Y-3771036D02*
G01X6629400Y-3907200D01*
G01X6485300Y-4051300D01*
G01X5638800Y-4051300D01*
G01X6451600Y-3771036D02*
G01X6451600Y-3845300D01*
G01X6347200Y-3949700D01*
G01X5638800Y-3949700D01*
G04 Track End*

M02*

