G04 Layer: BottomSolderMaskLayer*
G04 EasyEDA Pro v3.2.149.88089769, 2026-09-30 13:01:49*
G04 Gerber Generator version 0.3*
G04 Scale: 100 percent, Rotated: No, Reflected: No*
G04 Dimensions in millimeters*
G04 Leading zeros omitted, absolute positions, 4 integers and 5 decimals*
G04 Generated by one-click*
G04 Object Configs: Pad,Via,Track,Text,Image,Dimension,BoardOutline,BoardCutout,CopperFilled,SolidRegion,FPCStiffener,Line,PlaneZone,ComponentProperty,ComponentSilkscreen,TearDrop*
G04 Layer Configs: 1,15,16,2,3,4,5,6,7,8,9,10,11,13,14,56*
G04 Copper Areas: 0*
%FSLAX45Y45*%
%MOMM*%
%AMRoundRect*1,1,$1,$2,$3*1,1,$1,$4,$5*1,1,$1,0-$2,0-$3*1,1,$1,0-$4,0-$5*20,1,$1,$2,$3,$4,$5,0*20,1,$1,$4,$5,0-$2,0-$3,0*20,1,$1,0-$2,0-$3,0-$4,0-$5,0*20,1,$1,0-$4,0-$5,$2,$3,0*4,1,4,$2,$3,$4,$5,0-$2,0-$3,0-$4,0-$5,$2,$3,0*%
%ADD10C,1.9016*%
%ADD11C,1.7016*%
%ADD12RoundRect,0.1016X-0.45X-0.4X-0.45X0.4*%
%ADD13RoundRect,0.1016X-0.4X0.45X0.4X0.45*%
%ADD14RoundRect,0.1016X-0.79651X-1.0X-0.79651X1.0*%
%ADD15RoundRect,0.1016X-0.85X0.85X0.85X0.85*%
%ADD16C,1.8016*%
%ADD17C,1.6256*%
%ADD18O,1.0064X1.7016*%
%ADD19O,1.0016X1.7016*%
%ADD20RoundRect,0.1016X-0.45X0.8X0.45X0.8*%
%ADD21RoundRect,0.1016X-0.432X-0.40324X-0.432X0.40324*%
%ADD22RoundRect,0.1016X-0.68851X-0.56627X-0.68851X0.56627*%
%ADD23RoundRect,0.1016X-0.40324X0.432X0.40324X0.432*%
%ADD24C,2.8956*%
%ADD25RoundRect,0.1016X-1.15X0.75X1.15X0.75*%
%ADD26RoundRect,0.1016X-1.5X0.8X1.5X0.8*%
%ADD27RoundRect,0.1016X-3.09999X2.89999X3.09999X2.89999*%
%ADD28RoundRect,0.1016X-0.8X0.8X0.8X0.8*%
%ADD29C,3.30159*%
%ADD30O,2.1016X1.6256*%
%ADD31C,2.3*%
%ADD32C,2.3016*%
%ADD33C,1.402*%
%ADD34C,1.4016*%
%ADD35O,1.4016X1.9016*%
G75*


G04 Pad Start*
G54D10*
G01X6628397Y-4318000D03*
G01X5868403Y-4318000D03*
G54D11*
G01X7470404Y-5537203D03*
G01X7820416Y-5537203D03*
G01X7457704Y-3962403D03*
G01X7807716Y-3962403D03*
G54D12*
G01X2095500Y-3537102D03*
G01X2095500Y-3397098D03*
G01X1803400Y-3651402D03*
G01X1803400Y-3511398D03*
G54D13*
G01X3968902Y-4724400D03*
G01X3828898Y-4724400D03*
G54D14*
G01X6794500Y-5620207D03*
G01X6794500Y-5200193D03*
G54D15*
G01X5880100Y-3086100D03*
G54D16*
G01X5626100Y-3086100D03*
G01X5372100Y-3086100D03*
G54D17*
G01X1079500Y-3810000D03*
G01X1333500Y-3556000D03*
G01X1587500Y-3810000D03*
G54D19*
G01X1955800Y-4051300D03*
G01X2082800Y-4051300D03*
G54D20*
G01X2209800Y-4051300D03*
G54D21*
G01X5334000Y-3605936D03*
G01X5334000Y-3455264D03*
G54D22*
G01X2463800Y-4113200D03*
G01X2463800Y-3913200D03*
G54D23*
G01X3986936Y-4902200D03*
G01X3836264Y-4902200D03*
G54D24*
G01X2411806Y-5153152D03*
G01X991794Y-5753100D03*
G01X1191793Y-6353099D03*
G01X1191793Y-5153101D03*
G01X2411806Y-6353048D03*
G54D25*
G01X5331790Y-3826294D03*
G01X4421810Y-3826319D03*
G01X5331790Y-4276306D03*
G01X4421810Y-4276306D03*
G01X5331790Y-4537494D03*
G01X4421810Y-4537519D03*
G01X5331790Y-4987506D03*
G01X4421810Y-4987506D03*
G54D26*
G01X7203692Y-4993690D03*
G01X7203692Y-4535677D03*
G54D27*
G01X7888502Y-4764683D03*
G54D11*
G01X4633201Y-3190218D03*
G01X4379201Y-3190218D03*
G01X4125201Y-3190218D03*
G01X3871201Y-3190218D03*
G01X3617201Y-3190218D03*
G01X3363201Y-3190218D03*
G01X3109201Y-3190218D03*
G01X2855201Y-3190218D03*
G01X2601201Y-3190218D03*
G01X2347201Y-3190218D03*
G01X2093201Y-3190218D03*
G01X1839201Y-3190218D03*
G01X1585201Y-3190218D03*
G01X1331201Y-3190218D03*
G01X1077201Y-3190218D03*
G54D28*
G01X823201Y-3190218D03*
G54D29*
G01X273190Y-3190218D03*
G01X273190Y-6290237D03*
G01X7773200Y-3190218D03*
G01X7773200Y-6290237D03*
G54D30*
G01X1981200Y-4394200D03*
G01X1981200Y-4648200D03*
G01X1219200Y-4394200D03*
G01X1219200Y-4648200D03*
G54D31*
G01X6803200Y-6172200D03*
G01X6303201Y-6172200D03*
G54D32*
G01X4170299Y-6172200D03*
G01X3670300Y-6172200D03*
G01X3170301Y-6172200D03*
G54D31*
G01X5304600Y-6172200D03*
G01X4804601Y-6172200D03*
G54D32*
G01X406400Y-4716399D03*
G01X406400Y-4216400D03*
G01X406400Y-3716401D03*
G54D33*
G01X6247206Y-3359810D03*
G54D34*
G01X6732194Y-3359810D03*
G54D35*
G01X6852183Y-3091790D03*
G01X6127217Y-3091790D03*
G04 Pad End*

M02*

