G04 Layer: TopPasteMaskLayer*
G04 EasyEDA Pro v3.2.149.88089769, 2026-09-30 13:01:49*
G04 Gerber Generator version 0.3*
G04 Scale: 100 percent, Rotated: No, Reflected: No*
G04 Dimensions in millimeters*
G04 Leading zeros omitted, absolute positions, 4 integers and 5 decimals*
G04 Generated by one-click*
G04 Object Configs: Pad,Via,Track,Text,Image,Dimension,BoardOutline,BoardCutout,CopperFilled,SolidRegion,FPCStiffener,Line,PlaneZone,ComponentProperty,ComponentSilkscreen,TearDrop*
G04 Layer Configs: 1,15,16,2,3,4,5,6,7,8,9,10,11,13,14,56*
G04 Copper Areas: 0*
%FSLAX45Y45*%
%MOMM*%
%ADD10R,6.19999X5.79999*%
%ADD11R,0.8X0.9*%
%ADD12R,2.07X2.05999*%
%ADD13R,2.05999X2.07*%
%ADD14R,2.0X1.59301*%
%ADD15R,2.99999X2.0*%
%ADD16O,0.44801X1.68399*%
%ADD17O,1.6836X0.44801*%
%ADD18O,1.68399X0.44801*%
G75*


G04 PolygonModel Start*
G36*
G01X3928199Y-4533699D02*
G01X3928199Y-4570725D01*
G01X3918199Y-4580725D01*
G01X3887709Y-4580725D01*
G01X3877709Y-4590725D01*
G01X3877709Y-4629475D01*
G01X3887709Y-4639475D01*
G01X3918199Y-4639475D01*
G01X3928199Y-4649475D01*
G01X3928199Y-4686501D01*
G01X3918199Y-4696501D01*
G01X3789700Y-4696501D01*
G01X3779700Y-4686501D01*
G01X3779700Y-4533699D01*
G01X3789700Y-4523699D01*
G01X3918199Y-4523699D01*
G01X3928199Y-4533699D01*
G37*
G36*
G01X4098201Y-4533699D02*
G01X4108201Y-4523699D01*
G01X4236700Y-4523699D01*
G01X4246700Y-4533699D01*
G01X4246700Y-4686501D01*
G01X4236700Y-4696501D01*
G01X4108201Y-4696501D01*
G01X4098201Y-4686501D01*
G01X4098201Y-4649475D01*
G01X4108201Y-4639475D01*
G01X4138691Y-4639475D01*
G01X4148691Y-4629475D01*
G01X4148691Y-4590725D01*
G01X4138691Y-4580725D01*
G01X4108201Y-4580725D01*
G01X4098201Y-4570725D01*
G01X4098201Y-4533699D01*
G37*
G36*
G01X4317500Y-3335198D02*
G01X4445498Y-3335198D01*
G01X4450499Y-3340199D01*
G01X4450499Y-3455200D01*
G01X4445498Y-3460199D01*
G01X4404495Y-3460702D01*
G01X4404495Y-3415701D01*
G01X4359496Y-3415701D01*
G01X4359496Y-3459701D01*
G01X4317500Y-3460199D01*
G01X4312498Y-3455200D01*
G01X4312498Y-3340199D01*
G01X4317500Y-3335198D01*
G37*
G36*
G01X4317500Y-3550199D02*
G01X4359496Y-3550201D01*
G01X4359496Y-3594699D01*
G01X4404495Y-3594699D01*
G01X4404495Y-3550702D01*
G01X4445498Y-3550199D01*
G01X4450499Y-3555200D01*
G01X4450499Y-3670198D01*
G01X4445498Y-3675200D01*
G01X4317500Y-3675200D01*
G01X4312498Y-3670198D01*
G01X4312498Y-3555200D01*
G01X4317500Y-3550199D01*
G37*
G36*
G01X6406601Y-3576198D02*
G01X6411603Y-3571199D01*
G01X6491602Y-3571199D01*
G01X6496601Y-3576198D01*
G01X6496601Y-3656198D01*
G01X6491602Y-3661199D01*
G01X6467399Y-3661199D01*
G01X6467399Y-3624199D01*
G01X6434399Y-3624199D01*
G01X6434399Y-3661199D01*
G01X6411603Y-3661199D01*
G01X6406601Y-3656198D01*
G01X6406601Y-3576198D01*
G37*
G36*
G01X6496599Y-3815202D02*
G01X6491597Y-3820201D01*
G01X6411598Y-3820201D01*
G01X6406599Y-3815202D01*
G01X6406599Y-3735202D01*
G01X6411598Y-3730201D01*
G01X6435801Y-3730201D01*
G01X6435801Y-3767201D01*
G01X6468801Y-3767201D01*
G01X6468801Y-3730201D01*
G01X6491597Y-3730201D01*
G01X6496599Y-3735202D01*
G01X6496599Y-3815202D01*
G37*
G36*
G01X6584401Y-3576198D02*
G01X6589403Y-3571199D01*
G01X6669402Y-3571199D01*
G01X6674401Y-3576198D01*
G01X6674401Y-3656198D01*
G01X6669402Y-3661199D01*
G01X6645199Y-3661199D01*
G01X6645199Y-3624199D01*
G01X6612199Y-3624199D01*
G01X6612199Y-3661199D01*
G01X6589403Y-3661199D01*
G01X6584401Y-3656198D01*
G01X6584401Y-3576198D01*
G37*
G36*
G01X6674399Y-3815202D02*
G01X6669397Y-3820201D01*
G01X6589398Y-3820201D01*
G01X6584399Y-3815202D01*
G01X6584399Y-3735202D01*
G01X6589398Y-3730201D01*
G01X6613601Y-3730201D01*
G01X6613601Y-3767201D01*
G01X6646601Y-3767201D01*
G01X6646601Y-3730201D01*
G01X6669397Y-3730201D01*
G01X6674399Y-3735202D01*
G01X6674399Y-3815202D01*
G37*
G36*
G01X2204598Y-4439199D02*
G01X2199599Y-4434197D01*
G01X2199599Y-4354198D01*
G01X2204598Y-4349199D01*
G01X2284598Y-4349199D01*
G01X2289599Y-4354198D01*
G01X2289599Y-4378401D01*
G01X2252599Y-4378401D01*
G01X2252599Y-4411401D01*
G01X2289599Y-4411401D01*
G01X2289599Y-4434197D01*
G01X2284598Y-4439199D01*
G01X2204598Y-4439199D01*
G37*
G36*
G01X2443602Y-4349201D02*
G01X2448601Y-4354203D01*
G01X2448601Y-4434202D01*
G01X2443602Y-4439201D01*
G01X2363602Y-4439201D01*
G01X2358601Y-4434202D01*
G01X2358601Y-4409999D01*
G01X2395601Y-4409999D01*
G01X2395601Y-4376999D01*
G01X2358601Y-4376999D01*
G01X2358601Y-4354203D01*
G01X2363602Y-4349201D01*
G01X2443602Y-4349201D01*
G37*
G36*
G01X3728598Y-5556799D02*
G01X3723599Y-5551797D01*
G01X3723599Y-5471798D01*
G01X3728598Y-5466799D01*
G01X3808598Y-5466799D01*
G01X3813599Y-5471798D01*
G01X3813599Y-5496001D01*
G01X3776599Y-5496001D01*
G01X3776599Y-5529001D01*
G01X3813599Y-5529001D01*
G01X3813599Y-5551797D01*
G01X3808598Y-5556799D01*
G01X3728598Y-5556799D01*
G37*
G36*
G01X3967602Y-5466801D02*
G01X3972601Y-5471803D01*
G01X3972601Y-5551802D01*
G01X3967602Y-5556801D01*
G01X3887602Y-5556801D01*
G01X3882601Y-5551802D01*
G01X3882601Y-5527599D01*
G01X3919601Y-5527599D01*
G01X3919601Y-5494599D01*
G01X3882601Y-5494599D01*
G01X3882601Y-5471803D01*
G01X3887602Y-5466801D01*
G01X3967602Y-5466801D01*
G37*
G36*
G01X3816899Y-5885302D02*
G01X3811897Y-5890301D01*
G01X3731898Y-5890301D01*
G01X3726899Y-5885302D01*
G01X3726899Y-5805302D01*
G01X3731898Y-5800301D01*
G01X3756101Y-5800301D01*
G01X3756101Y-5837301D01*
G01X3789101Y-5837301D01*
G01X3789101Y-5800301D01*
G01X3811897Y-5800301D01*
G01X3816899Y-5805302D01*
G01X3816899Y-5885302D01*
G37*
G36*
G01X3726901Y-5646298D02*
G01X3731903Y-5641299D01*
G01X3811902Y-5641299D01*
G01X3816901Y-5646298D01*
G01X3816901Y-5726298D01*
G01X3811902Y-5731299D01*
G01X3787699Y-5731299D01*
G01X3787699Y-5694299D01*
G01X3754699Y-5694299D01*
G01X3754699Y-5731299D01*
G01X3731903Y-5731299D01*
G01X3726901Y-5726298D01*
G01X3726901Y-5646298D01*
G37*
G36*
G01X2750698Y-5505999D02*
G01X2745699Y-5500997D01*
G01X2745699Y-5420998D01*
G01X2750698Y-5415999D01*
G01X2830698Y-5415999D01*
G01X2835699Y-5420998D01*
G01X2835699Y-5445201D01*
G01X2798699Y-5445201D01*
G01X2798699Y-5478201D01*
G01X2835699Y-5478201D01*
G01X2835699Y-5500997D01*
G01X2830698Y-5505999D01*
G01X2750698Y-5505999D01*
G37*
G36*
G01X2989702Y-5416001D02*
G01X2994701Y-5421003D01*
G01X2994701Y-5501002D01*
G01X2989702Y-5506001D01*
G01X2909702Y-5506001D01*
G01X2904701Y-5501002D01*
G01X2904701Y-5476799D01*
G01X2941701Y-5476799D01*
G01X2941701Y-5443799D01*
G01X2904701Y-5443799D01*
G01X2904701Y-5421003D01*
G01X2909702Y-5416001D01*
G01X2989702Y-5416001D01*
G37*
G36*
G01X2838999Y-5821802D02*
G01X2833997Y-5826801D01*
G01X2753998Y-5826801D01*
G01X2748999Y-5821802D01*
G01X2748999Y-5741802D01*
G01X2753998Y-5736801D01*
G01X2778201Y-5736801D01*
G01X2778201Y-5773801D01*
G01X2811201Y-5773801D01*
G01X2811201Y-5736801D01*
G01X2833997Y-5736801D01*
G01X2838999Y-5741802D01*
G01X2838999Y-5821802D01*
G37*
G36*
G01X2749001Y-5582798D02*
G01X2754003Y-5577799D01*
G01X2834002Y-5577799D01*
G01X2839001Y-5582798D01*
G01X2839001Y-5662798D01*
G01X2834002Y-5667799D01*
G01X2809799Y-5667799D01*
G01X2809799Y-5630799D01*
G01X2776799Y-5630799D01*
G01X2776799Y-5667799D01*
G01X2754003Y-5667799D01*
G01X2749001Y-5662798D01*
G01X2749001Y-5582798D01*
G37*
G36*
G01X4719198Y-5544099D02*
G01X4714199Y-5539097D01*
G01X4714199Y-5459098D01*
G01X4719198Y-5454099D01*
G01X4799198Y-5454099D01*
G01X4804199Y-5459098D01*
G01X4804199Y-5483301D01*
G01X4767199Y-5483301D01*
G01X4767199Y-5516301D01*
G01X4804199Y-5516301D01*
G01X4804199Y-5539097D01*
G01X4799198Y-5544099D01*
G01X4719198Y-5544099D01*
G37*
G36*
G01X4958202Y-5454101D02*
G01X4963201Y-5459103D01*
G01X4963201Y-5539102D01*
G01X4958202Y-5544101D01*
G01X4878202Y-5544101D01*
G01X4873201Y-5539102D01*
G01X4873201Y-5514899D01*
G01X4910201Y-5514899D01*
G01X4910201Y-5481899D01*
G01X4873201Y-5481899D01*
G01X4873201Y-5459103D01*
G01X4878202Y-5454101D01*
G01X4958202Y-5454101D01*
G37*
G36*
G01X4807499Y-5859902D02*
G01X4802497Y-5864901D01*
G01X4722498Y-5864901D01*
G01X4717499Y-5859902D01*
G01X4717499Y-5779902D01*
G01X4722498Y-5774901D01*
G01X4746701Y-5774901D01*
G01X4746701Y-5811901D01*
G01X4779701Y-5811901D01*
G01X4779701Y-5774901D01*
G01X4802497Y-5774901D01*
G01X4807499Y-5779902D01*
G01X4807499Y-5859902D01*
G37*
G36*
G01X4717501Y-5620898D02*
G01X4722503Y-5615899D01*
G01X4802502Y-5615899D01*
G01X4807501Y-5620898D01*
G01X4807501Y-5700898D01*
G01X4802502Y-5705899D01*
G01X4778299Y-5705899D01*
G01X4778299Y-5668899D01*
G01X4745299Y-5668899D01*
G01X4745299Y-5705899D01*
G01X4722503Y-5705899D01*
G01X4717501Y-5700898D01*
G01X4717501Y-5620898D01*
G37*
G36*
G01X6472199Y-3421522D02*
G01X6472199Y-3296521D01*
G01X6507201Y-3296521D01*
G01X6507201Y-3421522D01*
G01X6472199Y-3421522D01*
G37*
G36*
G01X6407201Y-3421522D02*
G01X6407201Y-3296521D01*
G01X6442202Y-3296521D01*
G01X6442202Y-3421522D01*
G01X6407201Y-3421522D01*
G37*
G36*
G01X6342202Y-3421522D02*
G01X6342202Y-3296521D01*
G01X6377203Y-3296521D01*
G01X6377203Y-3421522D01*
G01X6342202Y-3421522D01*
G37*
G36*
G01X6537198Y-3421522D02*
G01X6537198Y-3296521D01*
G01X6572199Y-3296521D01*
G01X6572199Y-3421522D01*
G01X6537198Y-3421522D01*
G37*
G36*
G01X6602197Y-3421522D02*
G01X6602197Y-3296521D01*
G01X6637198Y-3296521D01*
G01X6637198Y-3421522D01*
G01X6602197Y-3421522D01*
G37*

G04 Pad Start*
G54D10*
G01X7888502Y-4764683D03*
G54D11*
G01X4210202Y-4394200D03*
G01X4070198Y-4394200D03*
G01X2800198Y-5283200D03*
G01X2940202Y-5283200D03*
G01X4768698Y-5321300D03*
G01X4908702Y-5321300D03*
G54D12*
G01X7046100Y-3327400D03*
G01X7431900Y-3327400D03*
G54D13*
G01X4165600Y-5755500D03*
G01X4165600Y-5369700D03*
G01X3200400Y-5717400D03*
G01X3200400Y-5331600D03*
G01X5156200Y-5742800D03*
G01X5156200Y-5357000D03*
G54D12*
G01X5971400Y-3479800D03*
G01X5585600Y-3479800D03*
G54D14*
G01X1974393Y-3530600D03*
G01X2394407Y-3530600D03*
G54D15*
G01X11456099Y-5012499D03*
G01X9956102Y-5012499D03*
G01X11456099Y-4512500D03*
G01X9956102Y-4512500D03*
G01X9855899Y-3805999D03*
G01X8355902Y-3805999D03*
G01X9855899Y-3306000D03*
G01X8355902Y-3306000D03*
G01X9855899Y-6193599D03*
G01X8355902Y-6193599D03*
G01X9855899Y-5693600D03*
G01X8355902Y-5693600D03*
G54D16*
G01X2831490Y-4856505D03*
G01X2911500Y-4856505D03*
G01X2991510Y-4856505D03*
G01X3071495Y-4856505D03*
G01X3151505Y-4856505D03*
G01X3231490Y-4856505D03*
G01X3311500Y-4856505D03*
G01X3391510Y-4856505D03*
G54D18*
G01X3535705Y-4712310D03*
G01X3535705Y-4632300D03*
G01X3535705Y-4552290D03*
G01X3535705Y-4472305D03*
G01X3535705Y-4392295D03*
G01X3535705Y-4312310D03*
G01X3535705Y-4232300D03*
G01X3535705Y-4152290D03*
G54D16*
G01X3391510Y-4008095D03*
G01X3311500Y-4008095D03*
G01X3231490Y-4008095D03*
G01X3151505Y-4008095D03*
G01X3071495Y-4008095D03*
G01X2991510Y-4008095D03*
G01X2911500Y-4008095D03*
G01X2831490Y-4008095D03*
G54D18*
G01X2687295Y-4152290D03*
G01X2687295Y-4232300D03*
G01X2687295Y-4312310D03*
G01X2687295Y-4392295D03*
G01X2687295Y-4472305D03*
G01X2687295Y-4552290D03*
G01X2687295Y-4632300D03*
G01X2687295Y-4712310D03*
G54D11*
G01X3778098Y-5321300D03*
G01X3918102Y-5321300D03*
G54D12*
G01X7058800Y-3644900D03*
G01X7444600Y-3644900D03*
G04 Pad End*

M02*

