G04 Layer: InnerLayer1*
G04 EasyEDA Pro v3.2.149.88089769, 2026-10-02 10:17:39*
G04 Gerber Generator version 0.3*
G04 Scale: 100 percent, Rotated: No, Reflected: No*
G04 Dimensions in millimeters*
G04 Leading zeros omitted, absolute positions, 4 integers and 5 decimals*
G04 Generated by one-click*
G04 Object Configs: Pad,Via,Track,Text,Image,Dimension,BoardOutline,BoardCutout,CopperFilled,SolidRegion,FPCStiffener,Line,PlaneZone,ComponentProperty,ComponentSilkscreen,TearDrop*
G04 Layer Configs: 1,15,16,2,3,4,5,6,7,8,9,10,11,13,14,56*
G04 Copper Areas: 65*
%FSLAX45Y45*%
%MOMM*%
%ADD10C,0.2032*%
%ADD11C,0.254*%
%ADD12C,1.8*%
%ADD13C,1.6*%
%ADD14R,1.7X1.7*%
%ADD15C,1.7022*%
%ADD16C,1.7*%
%ADD17C,1.524*%
%ADD18O,0.9X1.6*%
%ADD19R,0.9X1.6*%
%ADD20C,2.794*%
%ADD21R,1.6X1.6*%
%ADD22C,3.19999*%
%ADD23O,2.0X1.524*%
%ADD24C,2.2*%
%ADD25C,1.3*%
%ADD26O,1.3X1.8*%
%ADD27C,0.61*%
G75*


G04 Copper Start*
G36*
G01X2323426Y-6504686D02*
G01X1280261Y-6504686D01*
G01X1301261Y-6490292D01*
G01X1319958Y-6473012D01*
G01X1335958Y-6453208D01*
G01X1348924Y-6431298D01*
G01X1358584Y-6407742D01*
G01X1364735Y-6383037D01*
G01X1367247Y-6357702D01*
G01X1366067Y-6332270D01*
G01X1361220Y-6307276D01*
G01X1352808Y-6283246D01*
G01X1341008Y-6260686D01*
G01X1326069Y-6240071D01*
G01X1308304Y-6221834D01*
G01X1288087Y-6206359D01*
G01X1265845Y-6193971D01*
G01X1242044Y-6184932D01*
G01X1217186Y-6179431D01*
G01X1191793Y-6177585D01*
G01X1166401Y-6179431D01*
G01X1141543Y-6184932D01*
G01X1117742Y-6193971D01*
G01X1095499Y-6206359D01*
G01X1075283Y-6221834D01*
G01X1057518Y-6240071D01*
G01X1042578Y-6260686D01*
G01X1030779Y-6283246D01*
G01X1022367Y-6307276D01*
G01X1017520Y-6332270D01*
G01X1016340Y-6357702D01*
G01X1018852Y-6383037D01*
G01X1025002Y-6407742D01*
G01X1034663Y-6431298D01*
G01X1047629Y-6453208D01*
G01X1063629Y-6473012D01*
G01X1082326Y-6490292D01*
G01X1103326Y-6504686D01*
G01X45809Y-6504686D01*
G01X45809Y-6290237D01*
G01X77376Y-6290237D01*
G01X79369Y-6318105D01*
G01X85308Y-6345404D01*
G01X95071Y-6371581D01*
G01X108461Y-6396102D01*
G01X125204Y-6418468D01*
G01X144959Y-6438223D01*
G01X167325Y-6454966D01*
G01X191846Y-6468356D01*
G01X218023Y-6478119D01*
G01X245323Y-6484058D01*
G01X273190Y-6486051D01*
G01X301057Y-6484058D01*
G01X328357Y-6478119D01*
G01X354534Y-6468356D01*
G01X379055Y-6454966D01*
G01X401420Y-6438223D01*
G01X421176Y-6418468D01*
G01X437919Y-6396102D01*
G01X451308Y-6371581D01*
G01X461072Y-6345404D01*
G01X467010Y-6318105D01*
G01X469003Y-6290237D01*
G01X467010Y-6262370D01*
G01X461072Y-6235070D01*
G01X451308Y-6208893D01*
G01X437919Y-6184372D01*
G01X428806Y-6172200D01*
G01X3024487Y-6172200D01*
G01X3026476Y-6196200D01*
G01X3032388Y-6219546D01*
G01X3042062Y-6241600D01*
G01X3055233Y-6261761D01*
G01X3071544Y-6279479D01*
G01X3090548Y-6294270D01*
G01X3111728Y-6305732D01*
G01X3134506Y-6313552D01*
G01X3158260Y-6317516D01*
G01X3182342Y-6317516D01*
G01X3206096Y-6313552D01*
G01X3228874Y-6305732D01*
G01X3250054Y-6294270D01*
G01X3269058Y-6279479D01*
G01X3285369Y-6261761D01*
G01X3298540Y-6241600D01*
G01X3308214Y-6219546D01*
G01X3314126Y-6196200D01*
G01X3316115Y-6172200D01*
G01X3316115Y-6172200D01*
G01X3524486Y-6172200D01*
G01X3526475Y-6196200D01*
G01X3532387Y-6219546D01*
G01X3542061Y-6241600D01*
G01X3555232Y-6261761D01*
G01X3571543Y-6279479D01*
G01X3590547Y-6294270D01*
G01X3611727Y-6305732D01*
G01X3634505Y-6313552D01*
G01X3658259Y-6317516D01*
G01X3682341Y-6317516D01*
G01X3706095Y-6313552D01*
G01X3728873Y-6305732D01*
G01X3750053Y-6294270D01*
G01X3769057Y-6279479D01*
G01X3785368Y-6261761D01*
G01X3798539Y-6241600D01*
G01X3808213Y-6219546D01*
G01X3814125Y-6196200D01*
G01X3816114Y-6172200D01*
G01X3816114Y-6172200D01*
G01X4024485Y-6172200D01*
G01X4026474Y-6196200D01*
G01X4032386Y-6219546D01*
G01X4042060Y-6241600D01*
G01X4055231Y-6261761D01*
G01X4071542Y-6279479D01*
G01X4090546Y-6294270D01*
G01X4111726Y-6305732D01*
G01X4134504Y-6313552D01*
G01X4158258Y-6317516D01*
G01X4182340Y-6317516D01*
G01X4206094Y-6313552D01*
G01X4228872Y-6305732D01*
G01X4250052Y-6294270D01*
G01X4269056Y-6279479D01*
G01X4285367Y-6261761D01*
G01X4298538Y-6241600D01*
G01X4308212Y-6219546D01*
G01X4314124Y-6196200D01*
G01X4316113Y-6172200D01*
G01X4316113Y-6172200D01*
G01X4658787Y-6172200D01*
G01X4660775Y-6196200D01*
G01X4666687Y-6219546D01*
G01X4676361Y-6241600D01*
G01X4689533Y-6261761D01*
G01X4705844Y-6279479D01*
G01X4724848Y-6294270D01*
G01X4746028Y-6305732D01*
G01X4768805Y-6313552D01*
G01X4792559Y-6317516D01*
G01X4816642Y-6317516D01*
G01X4840396Y-6313552D01*
G01X4863173Y-6305732D01*
G01X4884353Y-6294270D01*
G01X4903357Y-6279479D01*
G01X4919668Y-6261761D01*
G01X4932840Y-6241600D01*
G01X4942514Y-6219546D01*
G01X4948426Y-6196200D01*
G01X4950414Y-6172200D01*
G01X4950414Y-6172200D01*
G01X5158786Y-6172200D01*
G01X5160774Y-6196200D01*
G01X5166686Y-6219546D01*
G01X5176360Y-6241600D01*
G01X5189532Y-6261761D01*
G01X5205843Y-6279479D01*
G01X5224847Y-6294270D01*
G01X5246027Y-6305732D01*
G01X5268804Y-6313552D01*
G01X5292558Y-6317516D01*
G01X5316641Y-6317516D01*
G01X5340395Y-6313552D01*
G01X5363172Y-6305732D01*
G01X5384352Y-6294270D01*
G01X5403356Y-6279479D01*
G01X5419667Y-6261761D01*
G01X5432839Y-6241600D01*
G01X5442513Y-6219546D01*
G01X5448425Y-6196200D01*
G01X5450413Y-6172200D01*
G01X5450413Y-6172200D01*
G01X6157387Y-6172200D01*
G01X6159375Y-6196200D01*
G01X6165287Y-6219546D01*
G01X6174961Y-6241600D01*
G01X6188133Y-6261761D01*
G01X6204444Y-6279479D01*
G01X6223448Y-6294270D01*
G01X6244628Y-6305732D01*
G01X6267405Y-6313552D01*
G01X6291159Y-6317516D01*
G01X6315242Y-6317516D01*
G01X6338996Y-6313552D01*
G01X6361773Y-6305732D01*
G01X6382953Y-6294270D01*
G01X6401957Y-6279479D01*
G01X6418268Y-6261761D01*
G01X6431440Y-6241600D01*
G01X6441114Y-6219546D01*
G01X6447026Y-6196200D01*
G01X6449014Y-6172200D01*
G01X6449014Y-6172200D01*
G01X6657386Y-6172200D01*
G01X6659374Y-6196200D01*
G01X6665286Y-6219546D01*
G01X6674960Y-6241600D01*
G01X6688132Y-6261761D01*
G01X6704443Y-6279479D01*
G01X6723447Y-6294270D01*
G01X6744627Y-6305732D01*
G01X6767404Y-6313552D01*
G01X6791158Y-6317516D01*
G01X6815241Y-6317516D01*
G01X6838995Y-6313552D01*
G01X6861772Y-6305732D01*
G01X6882952Y-6294270D01*
G01X6888134Y-6290237D01*
G01X7577386Y-6290237D01*
G01X7579380Y-6318105D01*
G01X7585318Y-6345404D01*
G01X7595082Y-6371581D01*
G01X7608471Y-6396102D01*
G01X7625214Y-6418468D01*
G01X7644969Y-6438223D01*
G01X7667335Y-6454966D01*
G01X7691856Y-6468356D01*
G01X7718033Y-6478119D01*
G01X7745333Y-6484058D01*
G01X7773200Y-6486051D01*
G01X7801067Y-6484058D01*
G01X7828367Y-6478119D01*
G01X7854544Y-6468356D01*
G01X7879065Y-6454966D01*
G01X7901431Y-6438223D01*
G01X7921186Y-6418468D01*
G01X7937929Y-6396102D01*
G01X7951318Y-6371581D01*
G01X7961082Y-6345404D01*
G01X7967021Y-6318105D01*
G01X7969014Y-6290237D01*
G01X7967021Y-6262370D01*
G01X7961082Y-6235070D01*
G01X7951318Y-6208893D01*
G01X7937929Y-6184372D01*
G01X7921186Y-6162007D01*
G01X7901431Y-6142251D01*
G01X7879065Y-6125508D01*
G01X7854544Y-6112119D01*
G01X7828367Y-6102356D01*
G01X7801067Y-6096417D01*
G01X7773200Y-6094424D01*
G01X7745333Y-6096417D01*
G01X7718033Y-6102356D01*
G01X7691856Y-6112119D01*
G01X7667335Y-6125508D01*
G01X7644969Y-6142251D01*
G01X7625214Y-6162007D01*
G01X7608471Y-6184372D01*
G01X7595082Y-6208893D01*
G01X7585318Y-6235070D01*
G01X7579380Y-6262370D01*
G01X7577386Y-6290237D01*
G01X7577386Y-6290237D01*
G01X6888134Y-6290237D01*
G01X6901956Y-6279479D01*
G01X6918267Y-6261761D01*
G01X6931439Y-6241600D01*
G01X6941113Y-6219546D01*
G01X6947025Y-6196200D01*
G01X6949013Y-6172200D01*
G01X6949013Y-6172200D01*
G01X6947025Y-6148200D01*
G01X6941113Y-6124854D01*
G01X6931439Y-6102800D01*
G01X6918267Y-6082639D01*
G01X6901956Y-6064921D01*
G01X6882952Y-6050130D01*
G01X6861772Y-6038668D01*
G01X6838995Y-6030848D01*
G01X6815241Y-6026884D01*
G01X6791158Y-6026884D01*
G01X6767404Y-6030848D01*
G01X6744627Y-6038668D01*
G01X6723447Y-6050130D01*
G01X6704443Y-6064921D01*
G01X6688132Y-6082639D01*
G01X6674960Y-6102800D01*
G01X6665286Y-6124854D01*
G01X6659374Y-6148200D01*
G01X6657386Y-6172200D01*
G01X6449014Y-6172200D01*
G01X6447026Y-6148200D01*
G01X6441114Y-6124854D01*
G01X6431440Y-6102800D01*
G01X6418268Y-6082639D01*
G01X6401957Y-6064921D01*
G01X6382953Y-6050130D01*
G01X6361773Y-6038668D01*
G01X6338996Y-6030848D01*
G01X6315242Y-6026884D01*
G01X6291159Y-6026884D01*
G01X6267405Y-6030848D01*
G01X6244628Y-6038668D01*
G01X6223448Y-6050130D01*
G01X6204444Y-6064921D01*
G01X6188133Y-6082639D01*
G01X6174961Y-6102800D01*
G01X6165287Y-6124854D01*
G01X6159375Y-6148200D01*
G01X6157387Y-6172200D01*
G01X5450413Y-6172200D01*
G01X5448425Y-6148200D01*
G01X5442513Y-6124854D01*
G01X5432839Y-6102800D01*
G01X5419667Y-6082639D01*
G01X5403356Y-6064921D01*
G01X5384352Y-6050130D01*
G01X5363172Y-6038668D01*
G01X5340395Y-6030848D01*
G01X5316641Y-6026884D01*
G01X5292558Y-6026884D01*
G01X5268804Y-6030848D01*
G01X5246027Y-6038668D01*
G01X5224847Y-6050130D01*
G01X5205843Y-6064921D01*
G01X5189532Y-6082639D01*
G01X5176360Y-6102800D01*
G01X5166686Y-6124854D01*
G01X5160774Y-6148200D01*
G01X5158786Y-6172200D01*
G01X4950414Y-6172200D01*
G01X4948426Y-6148200D01*
G01X4942514Y-6124854D01*
G01X4932840Y-6102800D01*
G01X4919668Y-6082639D01*
G01X4903357Y-6064921D01*
G01X4884353Y-6050130D01*
G01X4863173Y-6038668D01*
G01X4840396Y-6030848D01*
G01X4816642Y-6026884D01*
G01X4792559Y-6026884D01*
G01X4768805Y-6030848D01*
G01X4746028Y-6038668D01*
G01X4724848Y-6050130D01*
G01X4705844Y-6064921D01*
G01X4689533Y-6082639D01*
G01X4676361Y-6102800D01*
G01X4666687Y-6124854D01*
G01X4660775Y-6148200D01*
G01X4658787Y-6172200D01*
G01X4316113Y-6172200D01*
G01X4314124Y-6148200D01*
G01X4308212Y-6124854D01*
G01X4298538Y-6102800D01*
G01X4285367Y-6082639D01*
G01X4269056Y-6064921D01*
G01X4250052Y-6050130D01*
G01X4228872Y-6038668D01*
G01X4206094Y-6030848D01*
G01X4182340Y-6026884D01*
G01X4158258Y-6026884D01*
G01X4134504Y-6030848D01*
G01X4111726Y-6038668D01*
G01X4090546Y-6050130D01*
G01X4071542Y-6064921D01*
G01X4055231Y-6082639D01*
G01X4042060Y-6102800D01*
G01X4032386Y-6124854D01*
G01X4026474Y-6148200D01*
G01X4024485Y-6172200D01*
G01X3816114Y-6172200D01*
G01X3814125Y-6148200D01*
G01X3808213Y-6124854D01*
G01X3798539Y-6102800D01*
G01X3785368Y-6082639D01*
G01X3769057Y-6064921D01*
G01X3750053Y-6050130D01*
G01X3728873Y-6038668D01*
G01X3706095Y-6030848D01*
G01X3682341Y-6026884D01*
G01X3658259Y-6026884D01*
G01X3634505Y-6030848D01*
G01X3611727Y-6038668D01*
G01X3590547Y-6050130D01*
G01X3571543Y-6064921D01*
G01X3555232Y-6082639D01*
G01X3542061Y-6102800D01*
G01X3532387Y-6124854D01*
G01X3526475Y-6148200D01*
G01X3524486Y-6172200D01*
G01X3316115Y-6172200D01*
G01X3314126Y-6148200D01*
G01X3308214Y-6124854D01*
G01X3298540Y-6102800D01*
G01X3285369Y-6082639D01*
G01X3269058Y-6064921D01*
G01X3250054Y-6050130D01*
G01X3228874Y-6038668D01*
G01X3206096Y-6030848D01*
G01X3182342Y-6026884D01*
G01X3158260Y-6026884D01*
G01X3134506Y-6030848D01*
G01X3111728Y-6038668D01*
G01X3090548Y-6050130D01*
G01X3071544Y-6064921D01*
G01X3055233Y-6082639D01*
G01X3042062Y-6102800D01*
G01X3032388Y-6124854D01*
G01X3026476Y-6148200D01*
G01X3024487Y-6172200D01*
G01X428806Y-6172200D01*
G01X421176Y-6162007D01*
G01X401420Y-6142251D01*
G01X379055Y-6125508D01*
G01X354534Y-6112119D01*
G01X328357Y-6102356D01*
G01X301057Y-6096417D01*
G01X273190Y-6094424D01*
G01X245323Y-6096417D01*
G01X218023Y-6102356D01*
G01X191846Y-6112119D01*
G01X167325Y-6125508D01*
G01X144959Y-6142251D01*
G01X125204Y-6162007D01*
G01X108461Y-6184372D01*
G01X95071Y-6208893D01*
G01X85308Y-6235070D01*
G01X79369Y-6262370D01*
G01X77376Y-6290237D01*
G01X77376Y-6290237D01*
G01X45809Y-6290237D01*
G01X45809Y-5753100D01*
G01X816280Y-5753100D01*
G01X818240Y-5779259D01*
G01X824077Y-5804834D01*
G01X833661Y-5829253D01*
G01X846777Y-5851971D01*
G01X863133Y-5872480D01*
G01X882363Y-5890322D01*
G01X904037Y-5905100D01*
G01X927671Y-5916481D01*
G01X952738Y-5924213D01*
G01X978678Y-5928123D01*
G01X1004910Y-5928123D01*
G01X1030849Y-5924213D01*
G01X1055916Y-5916481D01*
G01X1079551Y-5905100D01*
G01X1101225Y-5890322D01*
G01X1120455Y-5872480D01*
G01X1136810Y-5851971D01*
G01X1149926Y-5829253D01*
G01X1159510Y-5804834D01*
G01X1165347Y-5779259D01*
G01X1167308Y-5753100D01*
G01X1167308Y-5753100D01*
G01X1165347Y-5726941D01*
G01X1159723Y-5702300D01*
G01X5623286Y-5702300D01*
G01X5625213Y-5718170D01*
G01X5630882Y-5733118D01*
G01X5639963Y-5746274D01*
G01X5651929Y-5756875D01*
G01X5666085Y-5764305D01*
G01X5681607Y-5768131D01*
G01X5697593Y-5768131D01*
G01X5713115Y-5764305D01*
G01X5727271Y-5756875D01*
G01X5739237Y-5746274D01*
G01X5748318Y-5733118D01*
G01X5753987Y-5718170D01*
G01X5755914Y-5702300D01*
G01X5753987Y-5686430D01*
G01X5748318Y-5671482D01*
G01X5739237Y-5658326D01*
G01X5727271Y-5647725D01*
G01X5713115Y-5640295D01*
G01X5697593Y-5636469D01*
G01X5681607Y-5636469D01*
G01X5666085Y-5640295D01*
G01X5651929Y-5647725D01*
G01X5639963Y-5658326D01*
G01X5630882Y-5671482D01*
G01X5625213Y-5686430D01*
G01X5623286Y-5702300D01*
G01X5623286Y-5702300D01*
G01X1159723Y-5702300D01*
G01X1159510Y-5701366D01*
G01X1149926Y-5676947D01*
G01X1136810Y-5654229D01*
G01X1120455Y-5633720D01*
G01X1101225Y-5615878D01*
G01X1079551Y-5601100D01*
G01X1055916Y-5589719D01*
G01X1030849Y-5581987D01*
G01X1004910Y-5578077D01*
G01X978678Y-5578077D01*
G01X952738Y-5581987D01*
G01X927671Y-5589719D01*
G01X904037Y-5601100D01*
G01X882363Y-5615878D01*
G01X863133Y-5633720D01*
G01X846777Y-5654229D01*
G01X833661Y-5676947D01*
G01X824077Y-5701366D01*
G01X818240Y-5726941D01*
G01X816280Y-5753100D01*
G01X45809Y-5753100D01*
G01X45809Y-5526517D01*
G01X7355084Y-5526517D01*
G01X7355084Y-5547888D01*
G01X7359011Y-5568897D01*
G01X7366732Y-5588825D01*
G01X7377983Y-5606996D01*
G01X7392381Y-5622790D01*
G01X7409436Y-5635669D01*
G01X7428567Y-5645196D01*
G01X7449123Y-5651044D01*
G01X7470404Y-5653016D01*
G01X7491685Y-5651044D01*
G01X7512241Y-5645196D01*
G01X7531372Y-5635669D01*
G01X7548427Y-5622790D01*
G01X7562826Y-5606996D01*
G01X7574076Y-5588825D01*
G01X7581797Y-5568897D01*
G01X7585724Y-5547888D01*
G01X7585724Y-5526517D01*
G01X7705096Y-5526517D01*
G01X7705096Y-5547888D01*
G01X7709023Y-5568897D01*
G01X7716744Y-5588825D01*
G01X7727995Y-5606996D01*
G01X7742393Y-5622790D01*
G01X7759448Y-5635669D01*
G01X7778579Y-5645196D01*
G01X7799135Y-5651044D01*
G01X7820416Y-5653016D01*
G01X7841697Y-5651044D01*
G01X7862253Y-5645196D01*
G01X7881384Y-5635669D01*
G01X7898439Y-5622790D01*
G01X7912838Y-5606996D01*
G01X7924088Y-5588825D01*
G01X7931809Y-5568897D01*
G01X7935736Y-5547888D01*
G01X7935736Y-5526517D01*
G01X7931809Y-5505509D01*
G01X7924088Y-5485580D01*
G01X7912838Y-5467409D01*
G01X7898439Y-5451615D01*
G01X7881384Y-5438736D01*
G01X7862253Y-5429209D01*
G01X7841697Y-5423361D01*
G01X7820416Y-5421389D01*
G01X7820416Y-5421389D01*
G01X7799135Y-5423361D01*
G01X7778579Y-5429209D01*
G01X7759448Y-5438736D01*
G01X7742393Y-5451615D01*
G01X7727995Y-5467409D01*
G01X7716744Y-5485580D01*
G01X7709023Y-5505509D01*
G01X7705096Y-5526517D01*
G01X7585724Y-5526517D01*
G01X7581797Y-5505509D01*
G01X7574076Y-5485580D01*
G01X7562826Y-5467409D01*
G01X7548427Y-5451615D01*
G01X7531372Y-5438736D01*
G01X7512241Y-5429209D01*
G01X7491685Y-5423361D01*
G01X7470404Y-5421389D01*
G01X7470404Y-5421389D01*
G01X7449123Y-5423361D01*
G01X7428567Y-5429209D01*
G01X7409436Y-5438736D01*
G01X7392381Y-5451615D01*
G01X7377983Y-5467409D01*
G01X7366732Y-5485580D01*
G01X7359011Y-5505509D01*
G01X7355084Y-5526517D01*
G01X45809Y-5526517D01*
G01X45809Y-5153101D01*
G01X1016279Y-5153101D01*
G01X1018240Y-5179260D01*
G01X1024077Y-5204835D01*
G01X1033661Y-5229254D01*
G01X1046777Y-5251972D01*
G01X1063133Y-5272481D01*
G01X1082362Y-5290324D01*
G01X1104036Y-5305101D01*
G01X1127671Y-5316483D01*
G01X1152738Y-5324215D01*
G01X1178677Y-5328124D01*
G01X1204910Y-5328124D01*
G01X1230849Y-5324215D01*
G01X1255916Y-5316483D01*
G01X1279550Y-5305101D01*
G01X1301225Y-5290324D01*
G01X1320454Y-5272481D01*
G01X1336810Y-5251972D01*
G01X1349926Y-5229254D01*
G01X1359510Y-5204835D01*
G01X1365347Y-5179260D01*
G01X1367304Y-5153152D01*
G01X2236292Y-5153152D01*
G01X2238253Y-5179311D01*
G01X2244090Y-5204886D01*
G01X2253674Y-5229305D01*
G01X2266790Y-5252023D01*
G01X2283145Y-5272532D01*
G01X2302375Y-5290374D01*
G01X2324049Y-5305152D01*
G01X2347684Y-5316533D01*
G01X2372751Y-5324265D01*
G01X2398690Y-5328175D01*
G01X2424922Y-5328175D01*
G01X2450862Y-5324265D01*
G01X2475929Y-5316533D01*
G01X2499563Y-5305152D01*
G01X2521237Y-5290374D01*
G01X2540467Y-5272532D01*
G01X2556823Y-5252023D01*
G01X2560819Y-5245100D01*
G01X5585186Y-5245100D01*
G01X5587113Y-5260970D01*
G01X5592782Y-5275918D01*
G01X5601863Y-5289074D01*
G01X5613829Y-5299675D01*
G01X5627985Y-5307105D01*
G01X5643507Y-5310931D01*
G01X5659493Y-5310931D01*
G01X5675015Y-5307105D01*
G01X5689171Y-5299675D01*
G01X5701137Y-5289074D01*
G01X5710218Y-5275918D01*
G01X5715887Y-5260970D01*
G01X5717814Y-5245100D01*
G01X5715887Y-5229230D01*
G01X5710218Y-5214282D01*
G01X5701137Y-5201126D01*
G01X5689171Y-5190525D01*
G01X5675015Y-5183095D01*
G01X5659493Y-5179269D01*
G01X5643507Y-5179269D01*
G01X5627985Y-5183095D01*
G01X5613829Y-5190525D01*
G01X5601863Y-5201126D01*
G01X5592782Y-5214282D01*
G01X5587113Y-5229230D01*
G01X5585186Y-5245100D01*
G01X5585186Y-5245100D01*
G01X2560819Y-5245100D01*
G01X2569939Y-5229305D01*
G01X2579523Y-5204886D01*
G01X2585360Y-5179311D01*
G01X2587320Y-5153152D01*
G01X2587320Y-5153152D01*
G01X2585360Y-5126993D01*
G01X2579523Y-5101418D01*
G01X2569939Y-5076999D01*
G01X2556823Y-5054281D01*
G01X2540467Y-5033772D01*
G01X2521237Y-5015930D01*
G01X2499563Y-5001152D01*
G01X2475929Y-4989771D01*
G01X2450862Y-4982039D01*
G01X2424922Y-4978129D01*
G01X2398690Y-4978129D01*
G01X2372751Y-4982039D01*
G01X2347684Y-4989771D01*
G01X2324049Y-5001152D01*
G01X2302375Y-5015930D01*
G01X2283145Y-5033772D01*
G01X2266790Y-5054281D01*
G01X2253674Y-5076999D01*
G01X2244090Y-5101418D01*
G01X2238253Y-5126993D01*
G01X2236292Y-5153152D01*
G01X1367304Y-5153152D01*
G01X1367307Y-5153101D01*
G01X1367307Y-5153101D01*
G01X1365347Y-5126942D01*
G01X1359510Y-5101368D01*
G01X1349926Y-5076949D01*
G01X1336810Y-5054231D01*
G01X1320454Y-5033721D01*
G01X1301225Y-5015879D01*
G01X1279550Y-5001102D01*
G01X1255916Y-4989720D01*
G01X1230849Y-4981988D01*
G01X1204910Y-4978078D01*
G01X1178677Y-4978078D01*
G01X1152738Y-4981988D01*
G01X1127671Y-4989720D01*
G01X1104036Y-5001102D01*
G01X1082362Y-5015879D01*
G01X1063133Y-5033721D01*
G01X1046777Y-5054231D01*
G01X1033661Y-5076949D01*
G01X1024077Y-5101368D01*
G01X1018240Y-5126942D01*
G01X1016279Y-5153101D01*
G01X45809Y-5153101D01*
G01X45809Y-4976814D01*
G01X776400Y-4976814D01*
G01X781607Y-4975419D01*
G01X785419Y-4971607D01*
G01X786814Y-4966400D01*
G01X786814Y-4829121D01*
G01X3562765Y-4829121D01*
G01X3564692Y-4844991D01*
G01X3570361Y-4859939D01*
G01X3579442Y-4873095D01*
G01X3591408Y-4883696D01*
G01X3605564Y-4891126D01*
G01X3621086Y-4894951D01*
G01X3637072Y-4894951D01*
G01X3652594Y-4891126D01*
G01X3666750Y-4883696D01*
G01X3678716Y-4873095D01*
G01X3687797Y-4859939D01*
G01X3693466Y-4844991D01*
G01X3695393Y-4829121D01*
G01X3693472Y-4813300D01*
G01X5699486Y-4813300D01*
G01X5701413Y-4829170D01*
G01X5707082Y-4844118D01*
G01X5716163Y-4857274D01*
G01X5728129Y-4867875D01*
G01X5742285Y-4875305D01*
G01X5757807Y-4879131D01*
G01X5773793Y-4879131D01*
G01X5789315Y-4875305D01*
G01X5803471Y-4867875D01*
G01X5815437Y-4857274D01*
G01X5824518Y-4844118D01*
G01X5830187Y-4829170D01*
G01X5832114Y-4813300D01*
G01X5830187Y-4797430D01*
G01X5824518Y-4782482D01*
G01X5815437Y-4769326D01*
G01X5803471Y-4758725D01*
G01X5789315Y-4751295D01*
G01X5773793Y-4747469D01*
G01X5757807Y-4747469D01*
G01X5742285Y-4751295D01*
G01X5728129Y-4758725D01*
G01X5716163Y-4769326D01*
G01X5707082Y-4782482D01*
G01X5701413Y-4797430D01*
G01X5699486Y-4813300D01*
G01X5699486Y-4813300D01*
G01X3693472Y-4813300D01*
G01X3693466Y-4813251D01*
G01X3687797Y-4798303D01*
G01X3678716Y-4785147D01*
G01X3666750Y-4774545D01*
G01X3652594Y-4767116D01*
G01X3637072Y-4763290D01*
G01X3621086Y-4763290D01*
G01X3605564Y-4767116D01*
G01X3591408Y-4774545D01*
G01X3579442Y-4785147D01*
G01X3570361Y-4798303D01*
G01X3564692Y-4813251D01*
G01X3562765Y-4829121D01*
G01X3562765Y-4829121D01*
G01X786814Y-4829121D01*
G01X786814Y-4637865D01*
G01X1083864Y-4637865D01*
G01X1083864Y-4658535D01*
G01X1087662Y-4678854D01*
G01X1095129Y-4698129D01*
G01X1106011Y-4715704D01*
G01X1119937Y-4730979D01*
G01X1136432Y-4743436D01*
G01X1154936Y-4752650D01*
G01X1174818Y-4758307D01*
G01X1195400Y-4760214D01*
G01X1243000Y-4760214D01*
G01X1263582Y-4758307D01*
G01X1283464Y-4752650D01*
G01X1301968Y-4743436D01*
G01X1318463Y-4730979D01*
G01X1332389Y-4715704D01*
G01X1343271Y-4698129D01*
G01X1350738Y-4678854D01*
G01X1354536Y-4658535D01*
G01X1354536Y-4637865D01*
G01X1354536Y-4637865D01*
G01X1845864Y-4637865D01*
G01X1845864Y-4658535D01*
G01X1849662Y-4678854D01*
G01X1857129Y-4698129D01*
G01X1868011Y-4715704D01*
G01X1881937Y-4730979D01*
G01X1898432Y-4743436D01*
G01X1916936Y-4752650D01*
G01X1936818Y-4758307D01*
G01X1957400Y-4760214D01*
G01X2005000Y-4760214D01*
G01X2025582Y-4758307D01*
G01X2045464Y-4752650D01*
G01X2063968Y-4743436D01*
G01X2080463Y-4730979D01*
G01X2094389Y-4715704D01*
G01X2105271Y-4698129D01*
G01X2112738Y-4678854D01*
G01X2116536Y-4658535D01*
G01X2116536Y-4637865D01*
G01X2112738Y-4617546D01*
G01X2105271Y-4598271D01*
G01X2094389Y-4580696D01*
G01X2080463Y-4565421D01*
G01X2063968Y-4552964D01*
G01X2045464Y-4543750D01*
G01X2025582Y-4538093D01*
G01X2005000Y-4536186D01*
G01X2005000Y-4536186D01*
G01X1957400Y-4536186D01*
G01X1936818Y-4538093D01*
G01X1916936Y-4543750D01*
G01X1898432Y-4552964D01*
G01X1881937Y-4565421D01*
G01X1868011Y-4580696D01*
G01X1857129Y-4598271D01*
G01X1849662Y-4617546D01*
G01X1845864Y-4637865D01*
G01X1354536Y-4637865D01*
G01X1350738Y-4617546D01*
G01X1343271Y-4598271D01*
G01X1332389Y-4580696D01*
G01X1318463Y-4565421D01*
G01X1301968Y-4552964D01*
G01X1283464Y-4543750D01*
G01X1263582Y-4538093D01*
G01X1243000Y-4536186D01*
G01X1243000Y-4536186D01*
G01X1195400Y-4536186D01*
G01X1174818Y-4538093D01*
G01X1154936Y-4543750D01*
G01X1136432Y-4552964D01*
G01X1119937Y-4565421D01*
G01X1106011Y-4580696D01*
G01X1095129Y-4598271D01*
G01X1087662Y-4617546D01*
G01X1083864Y-4637865D01*
G01X786814Y-4637865D01*
G01X786814Y-4383865D01*
G01X1083864Y-4383865D01*
G01X1083864Y-4404535D01*
G01X1087662Y-4424854D01*
G01X1095129Y-4444129D01*
G01X1106011Y-4461704D01*
G01X1119937Y-4476979D01*
G01X1136432Y-4489436D01*
G01X1154936Y-4498650D01*
G01X1174818Y-4504307D01*
G01X1195400Y-4506214D01*
G01X1243000Y-4506214D01*
G01X1263582Y-4504307D01*
G01X1283464Y-4498650D01*
G01X1301968Y-4489436D01*
G01X1318463Y-4476979D01*
G01X1332389Y-4461704D01*
G01X1343271Y-4444129D01*
G01X1350738Y-4424854D01*
G01X1354536Y-4404535D01*
G01X1354536Y-4383865D01*
G01X1354536Y-4383865D01*
G01X1845864Y-4383865D01*
G01X1845864Y-4404535D01*
G01X1849662Y-4424854D01*
G01X1857129Y-4444129D01*
G01X1868011Y-4461704D01*
G01X1881937Y-4476979D01*
G01X1898432Y-4489436D01*
G01X1916936Y-4498650D01*
G01X1936818Y-4504307D01*
G01X1957400Y-4506214D01*
G01X2005000Y-4506214D01*
G01X2025582Y-4504307D01*
G01X2045464Y-4498650D01*
G01X2063968Y-4489436D01*
G01X2080463Y-4476979D01*
G01X2094389Y-4461704D01*
G01X2105271Y-4444129D01*
G01X2112738Y-4424854D01*
G01X2116536Y-4404535D01*
G01X2116536Y-4383865D01*
G01X2112738Y-4363546D01*
G01X2105271Y-4344271D01*
G01X2094389Y-4326696D01*
G01X2080463Y-4311421D01*
G01X2063968Y-4298964D01*
G01X2045464Y-4289750D01*
G01X2025582Y-4284093D01*
G01X2005000Y-4282186D01*
G01X2005000Y-4282186D01*
G01X1957400Y-4282186D01*
G01X1936818Y-4284093D01*
G01X1916936Y-4289750D01*
G01X1898432Y-4298964D01*
G01X1881937Y-4311421D01*
G01X1868011Y-4326696D01*
G01X1857129Y-4344271D01*
G01X1849662Y-4363546D01*
G01X1845864Y-4383865D01*
G01X1354536Y-4383865D01*
G01X1350738Y-4363546D01*
G01X1343271Y-4344271D01*
G01X1332389Y-4326696D01*
G01X1318463Y-4311421D01*
G01X1301968Y-4298964D01*
G01X1283464Y-4289750D01*
G01X1263582Y-4284093D01*
G01X1243000Y-4282186D01*
G01X1243000Y-4282186D01*
G01X1195400Y-4282186D01*
G01X1174818Y-4284093D01*
G01X1154936Y-4289750D01*
G01X1136432Y-4298964D01*
G01X1119937Y-4311421D01*
G01X1106011Y-4326696D01*
G01X1095129Y-4344271D01*
G01X1087662Y-4363546D01*
G01X1083864Y-4383865D01*
G01X786814Y-4383865D01*
G01X786814Y-4016300D01*
G01X1874986Y-4016300D01*
G01X1874986Y-4086300D01*
G01X1876698Y-4102848D01*
G01X1881763Y-4118695D01*
G01X1889965Y-4133169D01*
G01X1900957Y-4145656D01*
G01X1914274Y-4155629D01*
G01X1929350Y-4162663D01*
G01X1945547Y-4166461D01*
G01X1962179Y-4166862D01*
G01X1978540Y-4163849D01*
G01X1993938Y-4157549D01*
G01X2007719Y-4148230D01*
G01X2019300Y-4136286D01*
G01X2030384Y-4147809D01*
G01X2043519Y-4156925D01*
G01X2058192Y-4163276D01*
G01X2073828Y-4166614D01*
G01X2089815Y-4166809D01*
G01X2105528Y-4163852D01*
G01X2120351Y-4157860D01*
G01X2133704Y-4149067D01*
G01X2133704Y-4149067D01*
G01X2139390Y-4156538D01*
G01X2146823Y-4162275D01*
G01X2155492Y-4165883D01*
G01X2164800Y-4167114D01*
G01X2254800Y-4167114D01*
G01X2265867Y-4165361D01*
G01X2275851Y-4160274D01*
G01X2283774Y-4152351D01*
G01X2288861Y-4142367D01*
G01X2290614Y-4131300D01*
G01X2290614Y-4068700D01*
G01X2737486Y-4068700D01*
G01X2737486Y-4789920D01*
G01X2738881Y-4795127D01*
G01X2742693Y-4798939D01*
G01X2747900Y-4800334D01*
G01X3469120Y-4800334D01*
G01X3474327Y-4798939D01*
G01X3478139Y-4795127D01*
G01X3479534Y-4789920D01*
G01X3479534Y-4318000D01*
G01X5742589Y-4318000D01*
G01X5744501Y-4339847D01*
G01X5750177Y-4361031D01*
G01X5759445Y-4380907D01*
G01X5772024Y-4398872D01*
G01X5787532Y-4414379D01*
G01X5805496Y-4426958D01*
G01X5825372Y-4436226D01*
G01X5846556Y-4441902D01*
G01X5868403Y-4443814D01*
G01X5890251Y-4441902D01*
G01X5911434Y-4436226D01*
G01X5931310Y-4426958D01*
G01X5949275Y-4414379D01*
G01X5964782Y-4398872D01*
G01X5977361Y-4380907D01*
G01X5986630Y-4361031D01*
G01X5992306Y-4339847D01*
G01X5994217Y-4318000D01*
G01X6502583Y-4318000D01*
G01X6504494Y-4339847D01*
G01X6510170Y-4361031D01*
G01X6519439Y-4380907D01*
G01X6532018Y-4398872D01*
G01X6547525Y-4414379D01*
G01X6565490Y-4426958D01*
G01X6585366Y-4436226D01*
G01X6606549Y-4441902D01*
G01X6628397Y-4443814D01*
G01X6650244Y-4441902D01*
G01X6671428Y-4436226D01*
G01X6691304Y-4426958D01*
G01X6709268Y-4414379D01*
G01X6724776Y-4398872D01*
G01X6737355Y-4380907D01*
G01X6746623Y-4361031D01*
G01X6752299Y-4339847D01*
G01X6754211Y-4318000D01*
G01X6752299Y-4296153D01*
G01X6746623Y-4274969D01*
G01X6737355Y-4255093D01*
G01X6724776Y-4237128D01*
G01X6709268Y-4221621D01*
G01X6691304Y-4209042D01*
G01X6671428Y-4199774D01*
G01X6650244Y-4194098D01*
G01X6628397Y-4192186D01*
G01X6606549Y-4194098D01*
G01X6585366Y-4199774D01*
G01X6565490Y-4209042D01*
G01X6547525Y-4221621D01*
G01X6532018Y-4237128D01*
G01X6519439Y-4255093D01*
G01X6510170Y-4274969D01*
G01X6504494Y-4296153D01*
G01X6502583Y-4318000D01*
G01X6502583Y-4318000D01*
G01X5994217Y-4318000D01*
G01X5992306Y-4296153D01*
G01X5986630Y-4274969D01*
G01X5977361Y-4255093D01*
G01X5964782Y-4237128D01*
G01X5949275Y-4221621D01*
G01X5931310Y-4209042D01*
G01X5911434Y-4199774D01*
G01X5890251Y-4194098D01*
G01X5868403Y-4192186D01*
G01X5846556Y-4194098D01*
G01X5825372Y-4199774D01*
G01X5805496Y-4209042D01*
G01X5787532Y-4221621D01*
G01X5772024Y-4237128D01*
G01X5759445Y-4255093D01*
G01X5750177Y-4274969D01*
G01X5744501Y-4296153D01*
G01X5742589Y-4318000D01*
G01X5742589Y-4318000D01*
G01X3479534Y-4318000D01*
G01X3479534Y-4127500D01*
G01X3769086Y-4127500D01*
G01X3771013Y-4143370D01*
G01X3776682Y-4158318D01*
G01X3785763Y-4171474D01*
G01X3797729Y-4182075D01*
G01X3811885Y-4189505D01*
G01X3827407Y-4193331D01*
G01X3843393Y-4193331D01*
G01X3858915Y-4189505D01*
G01X3873071Y-4182075D01*
G01X3885037Y-4171474D01*
G01X3894118Y-4158318D01*
G01X3899787Y-4143370D01*
G01X3901714Y-4127500D01*
G01X3899787Y-4111630D01*
G01X3894118Y-4096682D01*
G01X3885037Y-4083526D01*
G01X3873071Y-4072925D01*
G01X3858915Y-4065495D01*
G01X3843393Y-4061669D01*
G01X3827407Y-4061669D01*
G01X3811885Y-4065495D01*
G01X3797729Y-4072925D01*
G01X3785763Y-4083526D01*
G01X3776682Y-4096682D01*
G01X3771013Y-4111630D01*
G01X3769086Y-4127500D01*
G01X3769086Y-4127500D01*
G01X3479534Y-4127500D01*
G01X3479534Y-4068700D01*
G01X3478139Y-4063493D01*
G01X3474327Y-4059681D01*
G01X3469120Y-4058286D01*
G01X2747900Y-4058286D01*
G01X2747900Y-4058286D01*
G01X2742693Y-4059681D01*
G01X2738881Y-4063493D01*
G01X2737486Y-4068700D01*
G01X2290614Y-4068700D01*
G01X2290614Y-4054823D01*
G01X4032263Y-4054823D01*
G01X4034190Y-4070693D01*
G01X4039859Y-4085641D01*
G01X4048940Y-4098798D01*
G01X4060906Y-4109399D01*
G01X4075061Y-4116828D01*
G01X4090583Y-4120654D01*
G01X4106570Y-4120654D01*
G01X4122092Y-4116828D01*
G01X4136247Y-4109399D01*
G01X4148214Y-4098798D01*
G01X4157295Y-4085641D01*
G01X4162964Y-4070693D01*
G01X4164891Y-4054823D01*
G01X4162964Y-4038953D01*
G01X4157295Y-4024006D01*
G01X4148214Y-4010849D01*
G01X4136247Y-4000248D01*
G01X4122092Y-3992819D01*
G01X4106570Y-3988993D01*
G01X4090583Y-3988993D01*
G01X4075061Y-3992819D01*
G01X4060906Y-4000248D01*
G01X4048940Y-4010849D01*
G01X4039859Y-4024006D01*
G01X4034190Y-4038953D01*
G01X4032263Y-4054823D01*
G01X4032263Y-4054823D01*
G01X2290614Y-4054823D01*
G01X2290614Y-3971300D01*
G01X2288861Y-3960233D01*
G01X2283774Y-3950249D01*
G01X2283225Y-3949700D01*
G01X3870686Y-3949700D01*
G01X3872613Y-3965570D01*
G01X3878282Y-3980518D01*
G01X3887363Y-3993674D01*
G01X3899329Y-4004275D01*
G01X3913485Y-4011705D01*
G01X3929007Y-4015531D01*
G01X3944993Y-4015531D01*
G01X3960515Y-4011705D01*
G01X3974671Y-4004275D01*
G01X3986637Y-3993674D01*
G01X3995718Y-3980518D01*
G01X4001387Y-3965570D01*
G01X4003314Y-3949700D01*
G01X4002472Y-3942769D01*
G01X5572849Y-3942769D01*
G01X5573131Y-3958930D01*
G01X5577315Y-3974542D01*
G01X5585151Y-3988679D01*
G01X5596175Y-4000500D01*
G01X5585151Y-4012321D01*
G01X5577315Y-4026458D01*
G01X5573131Y-4042070D01*
G01X5572849Y-4058231D01*
G01X5576485Y-4073980D01*
G01X5583823Y-4088382D01*
G01X5594427Y-4100581D01*
G01X5607667Y-4109852D01*
G01X5622757Y-4115644D01*
G01X5638800Y-4117614D01*
G01X5638800Y-4117614D01*
G01X5654843Y-4115644D01*
G01X5669933Y-4109852D01*
G01X5683173Y-4100581D01*
G01X5693777Y-4088382D01*
G01X5701115Y-4073980D01*
G01X5704751Y-4058231D01*
G01X5704469Y-4042070D01*
G01X5700285Y-4026458D01*
G01X5692449Y-4012321D01*
G01X5681425Y-4000500D01*
G01X5692449Y-3988679D01*
G01X5700285Y-3974542D01*
G01X5704469Y-3958930D01*
G01X5704595Y-3951717D01*
G01X7342384Y-3951717D01*
G01X7342384Y-3973088D01*
G01X7346311Y-3994097D01*
G01X7354032Y-4014025D01*
G01X7365283Y-4032196D01*
G01X7379681Y-4047990D01*
G01X7396736Y-4060869D01*
G01X7415867Y-4070396D01*
G01X7436423Y-4076244D01*
G01X7457704Y-4078216D01*
G01X7478985Y-4076244D01*
G01X7499541Y-4070396D01*
G01X7518672Y-4060869D01*
G01X7535727Y-4047990D01*
G01X7550126Y-4032196D01*
G01X7561376Y-4014025D01*
G01X7569097Y-3994097D01*
G01X7573024Y-3973088D01*
G01X7573024Y-3951717D01*
G01X7692396Y-3951717D01*
G01X7692396Y-3973088D01*
G01X7696323Y-3994097D01*
G01X7704044Y-4014025D01*
G01X7715295Y-4032196D01*
G01X7729693Y-4047990D01*
G01X7746748Y-4060869D01*
G01X7765879Y-4070396D01*
G01X7786435Y-4076244D01*
G01X7807716Y-4078216D01*
G01X7828997Y-4076244D01*
G01X7849553Y-4070396D01*
G01X7868684Y-4060869D01*
G01X7885739Y-4047990D01*
G01X7900138Y-4032196D01*
G01X7911388Y-4014025D01*
G01X7919109Y-3994097D01*
G01X7923036Y-3973088D01*
G01X7923036Y-3951717D01*
G01X7919109Y-3930709D01*
G01X7911388Y-3910780D01*
G01X7900138Y-3892609D01*
G01X7885739Y-3876815D01*
G01X7868684Y-3863936D01*
G01X7849553Y-3854409D01*
G01X7828997Y-3848561D01*
G01X7807716Y-3846589D01*
G01X7807716Y-3846589D01*
G01X7786435Y-3848561D01*
G01X7765879Y-3854409D01*
G01X7746748Y-3863936D01*
G01X7729693Y-3876815D01*
G01X7715295Y-3892609D01*
G01X7704044Y-3910780D01*
G01X7696323Y-3930709D01*
G01X7692396Y-3951717D01*
G01X7573024Y-3951717D01*
G01X7569097Y-3930709D01*
G01X7561376Y-3910780D01*
G01X7550126Y-3892609D01*
G01X7535727Y-3876815D01*
G01X7518672Y-3863936D01*
G01X7499541Y-3854409D01*
G01X7478985Y-3848561D01*
G01X7457704Y-3846589D01*
G01X7457704Y-3846589D01*
G01X7436423Y-3848561D01*
G01X7415867Y-3854409D01*
G01X7396736Y-3863936D01*
G01X7379681Y-3876815D01*
G01X7365283Y-3892609D01*
G01X7354032Y-3910780D01*
G01X7346311Y-3930709D01*
G01X7342384Y-3951717D01*
G01X5704595Y-3951717D01*
G01X5704751Y-3942769D01*
G01X5701115Y-3927020D01*
G01X5693777Y-3912618D01*
G01X5683173Y-3900419D01*
G01X5669933Y-3891148D01*
G01X5654843Y-3885356D01*
G01X5638800Y-3883386D01*
G01X5622757Y-3885356D01*
G01X5607667Y-3891148D01*
G01X5594427Y-3900419D01*
G01X5583823Y-3912618D01*
G01X5576485Y-3927020D01*
G01X5572849Y-3942769D01*
G01X4002472Y-3942769D01*
G01X4001387Y-3933830D01*
G01X3995718Y-3918882D01*
G01X3986637Y-3905726D01*
G01X3974671Y-3895125D01*
G01X3960515Y-3887695D01*
G01X3944993Y-3883869D01*
G01X3929007Y-3883869D01*
G01X3913485Y-3887695D01*
G01X3899329Y-3895125D01*
G01X3887363Y-3905726D01*
G01X3878282Y-3918882D01*
G01X3872613Y-3933830D01*
G01X3870686Y-3949700D01*
G01X3870686Y-3949700D01*
G01X2283225Y-3949700D01*
G01X2275851Y-3942326D01*
G01X2265867Y-3937239D01*
G01X2254800Y-3935486D01*
G01X2164800Y-3935486D01*
G01X2155492Y-3936717D01*
G01X2146823Y-3940325D01*
G01X2139390Y-3946062D01*
G01X2133704Y-3953533D01*
G01X2120351Y-3944740D01*
G01X2105528Y-3938748D01*
G01X2089815Y-3935791D01*
G01X2073828Y-3935986D01*
G01X2058192Y-3939324D01*
G01X2043519Y-3945675D01*
G01X2030384Y-3954791D01*
G01X2019300Y-3966314D01*
G01X2007719Y-3954370D01*
G01X1993938Y-3945051D01*
G01X1978540Y-3938751D01*
G01X1962179Y-3935738D01*
G01X1945547Y-3936139D01*
G01X1929350Y-3939937D01*
G01X1914274Y-3946971D01*
G01X1900957Y-3956944D01*
G01X1889965Y-3969431D01*
G01X1881763Y-3983905D01*
G01X1876698Y-3999752D01*
G01X1874986Y-4016300D01*
G01X786814Y-4016300D01*
G01X786814Y-3810000D01*
G01X967486Y-3810000D01*
G01X969393Y-3830583D01*
G01X975050Y-3850464D01*
G01X984264Y-3868968D01*
G01X996721Y-3885463D01*
G01X1011996Y-3899389D01*
G01X1029571Y-3910271D01*
G01X1048846Y-3917738D01*
G01X1069165Y-3921536D01*
G01X1089835Y-3921536D01*
G01X1110154Y-3917738D01*
G01X1129429Y-3910271D01*
G01X1147004Y-3899389D01*
G01X1162279Y-3885463D01*
G01X1174736Y-3868968D01*
G01X1183950Y-3850464D01*
G01X1189607Y-3830583D01*
G01X1191514Y-3810000D01*
G01X1191514Y-3810000D01*
G01X1475486Y-3810000D01*
G01X1477393Y-3830583D01*
G01X1483050Y-3850464D01*
G01X1492264Y-3868968D01*
G01X1504721Y-3885463D01*
G01X1519996Y-3899389D01*
G01X1537571Y-3910271D01*
G01X1556846Y-3917738D01*
G01X1577165Y-3921536D01*
G01X1597835Y-3921536D01*
G01X1618154Y-3917738D01*
G01X1637429Y-3910271D01*
G01X1655004Y-3899389D01*
G01X1670279Y-3885463D01*
G01X1682736Y-3868968D01*
G01X1691950Y-3850464D01*
G01X1697607Y-3830583D01*
G01X1699514Y-3810000D01*
G01X1699514Y-3810000D01*
G01X1697607Y-3789417D01*
G01X1691950Y-3769536D01*
G01X1682736Y-3751032D01*
G01X1670279Y-3734537D01*
G01X1655004Y-3720611D01*
G01X1637429Y-3709729D01*
G01X1618154Y-3702262D01*
G01X1597835Y-3698464D01*
G01X1577165Y-3698464D01*
G01X1556846Y-3702262D01*
G01X1537571Y-3709729D01*
G01X1519996Y-3720611D01*
G01X1504721Y-3734537D01*
G01X1492264Y-3751032D01*
G01X1483050Y-3769536D01*
G01X1477393Y-3789417D01*
G01X1475486Y-3810000D01*
G01X1191514Y-3810000D01*
G01X1189607Y-3789417D01*
G01X1183950Y-3769536D01*
G01X1174736Y-3751032D01*
G01X1162279Y-3734537D01*
G01X1147004Y-3720611D01*
G01X1129429Y-3709729D01*
G01X1110154Y-3702262D01*
G01X1089835Y-3698464D01*
G01X1069165Y-3698464D01*
G01X1048846Y-3702262D01*
G01X1029571Y-3709729D01*
G01X1011996Y-3720611D01*
G01X996721Y-3734537D01*
G01X984264Y-3751032D01*
G01X975050Y-3769536D01*
G01X969393Y-3789417D01*
G01X967486Y-3810000D01*
G01X786814Y-3810000D01*
G01X786814Y-3695700D01*
G01X2613386Y-3695700D01*
G01X2615313Y-3711570D01*
G01X2620982Y-3726518D01*
G01X2630063Y-3739674D01*
G01X2642029Y-3750275D01*
G01X2656185Y-3757705D01*
G01X2671707Y-3761531D01*
G01X2687693Y-3761531D01*
G01X2703215Y-3757705D01*
G01X2717371Y-3750275D01*
G01X2729337Y-3739674D01*
G01X2738418Y-3726518D01*
G01X2744087Y-3711570D01*
G01X2746014Y-3695700D01*
G01X2744087Y-3679830D01*
G01X2738418Y-3664882D01*
G01X2729337Y-3651726D01*
G01X2717371Y-3641125D01*
G01X2703215Y-3633695D01*
G01X2687693Y-3629869D01*
G01X2671707Y-3629869D01*
G01X2656185Y-3633695D01*
G01X2642029Y-3641125D01*
G01X2630063Y-3651726D01*
G01X2620982Y-3664882D01*
G01X2615313Y-3679830D01*
G01X2613386Y-3695700D01*
G01X2613386Y-3695700D01*
G01X786814Y-3695700D01*
G01X786814Y-3556000D01*
G01X1221486Y-3556000D01*
G01X1223393Y-3576583D01*
G01X1229050Y-3596464D01*
G01X1238264Y-3614968D01*
G01X1250721Y-3631463D01*
G01X1265996Y-3645389D01*
G01X1283571Y-3656271D01*
G01X1302846Y-3663738D01*
G01X1323165Y-3667536D01*
G01X1343835Y-3667536D01*
G01X1364154Y-3663738D01*
G01X1383429Y-3656271D01*
G01X1401004Y-3645389D01*
G01X1416279Y-3631463D01*
G01X1428736Y-3614968D01*
G01X1437950Y-3596464D01*
G01X1443607Y-3576583D01*
G01X1445514Y-3556000D01*
G01X1445514Y-3556000D01*
G01X1443607Y-3535417D01*
G01X1437950Y-3515536D01*
G01X1428736Y-3497032D01*
G01X1416279Y-3480537D01*
G01X1401004Y-3466611D01*
G01X1383429Y-3455729D01*
G01X1364154Y-3448262D01*
G01X1343835Y-3444464D01*
G01X1323165Y-3444464D01*
G01X1302846Y-3448262D01*
G01X1283571Y-3455729D01*
G01X1265996Y-3466611D01*
G01X1250721Y-3480537D01*
G01X1238264Y-3497032D01*
G01X1229050Y-3515536D01*
G01X1223393Y-3535417D01*
G01X1221486Y-3556000D01*
G01X786814Y-3556000D01*
G01X786814Y-3466400D01*
G01X785419Y-3461193D01*
G01X781607Y-3457381D01*
G01X776400Y-3455986D01*
G01X45809Y-3455986D01*
G01X45809Y-3190218D01*
G01X77376Y-3190218D01*
G01X79369Y-3218085D01*
G01X85308Y-3245385D01*
G01X95071Y-3271562D01*
G01X108461Y-3296083D01*
G01X125204Y-3318449D01*
G01X144959Y-3338204D01*
G01X167325Y-3354947D01*
G01X191846Y-3368337D01*
G01X218023Y-3378100D01*
G01X245323Y-3384039D01*
G01X273190Y-3386032D01*
G01X301057Y-3384039D01*
G01X328357Y-3378100D01*
G01X354534Y-3368337D01*
G01X370148Y-3359810D01*
G01X6146392Y-3359810D01*
G01X6148329Y-3379478D01*
G01X6154066Y-3398390D01*
G01X6163383Y-3415820D01*
G01X6175920Y-3431097D01*
G01X6191197Y-3443634D01*
G01X6208626Y-3452950D01*
G01X6227538Y-3458687D01*
G01X6247206Y-3460624D01*
G01X6266874Y-3458687D01*
G01X6285786Y-3452950D01*
G01X6303215Y-3443634D01*
G01X6318492Y-3431097D01*
G01X6331030Y-3415820D01*
G01X6340346Y-3398390D01*
G01X6346083Y-3379478D01*
G01X6348020Y-3359810D01*
G01X6348020Y-3359810D01*
G01X6631380Y-3359810D01*
G01X6633317Y-3379478D01*
G01X6639054Y-3398390D01*
G01X6648370Y-3415820D01*
G01X6660908Y-3431097D01*
G01X6676185Y-3443634D01*
G01X6693614Y-3452950D01*
G01X6712526Y-3458687D01*
G01X6732194Y-3460624D01*
G01X6751862Y-3458687D01*
G01X6770774Y-3452950D01*
G01X6788203Y-3443634D01*
G01X6803480Y-3431097D01*
G01X6816017Y-3415820D01*
G01X6825334Y-3398390D01*
G01X6831071Y-3379478D01*
G01X6833008Y-3359810D01*
G01X6833008Y-3359810D01*
G01X6831071Y-3340143D01*
G01X6825334Y-3321231D01*
G01X6816017Y-3303801D01*
G01X6803480Y-3288524D01*
G01X6788203Y-3275987D01*
G01X6770774Y-3266671D01*
G01X6751862Y-3260934D01*
G01X6732194Y-3258997D01*
G01X6712526Y-3260934D01*
G01X6693614Y-3266671D01*
G01X6676185Y-3275987D01*
G01X6660908Y-3288524D01*
G01X6648370Y-3303801D01*
G01X6639054Y-3321231D01*
G01X6633317Y-3340143D01*
G01X6631380Y-3359810D01*
G01X6348020Y-3359810D01*
G01X6346083Y-3340143D01*
G01X6340346Y-3321231D01*
G01X6331030Y-3303801D01*
G01X6318492Y-3288524D01*
G01X6303215Y-3275987D01*
G01X6285786Y-3266671D01*
G01X6266874Y-3260934D01*
G01X6247206Y-3258997D01*
G01X6227538Y-3260934D01*
G01X6208626Y-3266671D01*
G01X6191197Y-3275987D01*
G01X6175920Y-3288524D01*
G01X6163383Y-3303801D01*
G01X6154066Y-3321231D01*
G01X6148329Y-3340143D01*
G01X6146392Y-3359810D01*
G01X370148Y-3359810D01*
G01X379055Y-3354947D01*
G01X401420Y-3338204D01*
G01X421176Y-3318449D01*
G01X437919Y-3296083D01*
G01X451308Y-3271562D01*
G01X451809Y-3270218D01*
G01X707387Y-3270218D01*
G01X709140Y-3281285D01*
G01X714227Y-3291269D01*
G01X722151Y-3299192D01*
G01X732134Y-3304279D01*
G01X743201Y-3306032D01*
G01X903201Y-3306032D01*
G01X903201Y-3306032D01*
G01X914268Y-3304279D01*
G01X924252Y-3299192D01*
G01X932175Y-3291269D01*
G01X937262Y-3281285D01*
G01X939015Y-3270218D01*
G01X939015Y-3190218D01*
G01X961387Y-3190218D01*
G01X963359Y-3211499D01*
G01X969208Y-3232055D01*
G01X978734Y-3251186D01*
G01X991614Y-3268241D01*
G01X1007408Y-3282640D01*
G01X1025579Y-3293890D01*
G01X1045507Y-3301611D01*
G01X1066515Y-3305538D01*
G01X1087887Y-3305538D01*
G01X1108895Y-3301611D01*
G01X1128824Y-3293890D01*
G01X1146995Y-3282640D01*
G01X1162789Y-3268241D01*
G01X1175668Y-3251186D01*
G01X1185194Y-3232055D01*
G01X1191043Y-3211499D01*
G01X1193015Y-3190218D01*
G01X1193015Y-3190218D01*
G01X1215387Y-3190218D01*
G01X1217359Y-3211499D01*
G01X1223208Y-3232055D01*
G01X1232734Y-3251186D01*
G01X1245614Y-3268241D01*
G01X1261408Y-3282640D01*
G01X1279579Y-3293890D01*
G01X1299507Y-3301611D01*
G01X1320515Y-3305538D01*
G01X1341887Y-3305538D01*
G01X1362895Y-3301611D01*
G01X1382824Y-3293890D01*
G01X1400995Y-3282640D01*
G01X1416789Y-3268241D01*
G01X1429668Y-3251186D01*
G01X1439194Y-3232055D01*
G01X1445043Y-3211499D01*
G01X1447015Y-3190218D01*
G01X1447015Y-3190218D01*
G01X1469387Y-3190218D01*
G01X1471359Y-3211499D01*
G01X1477208Y-3232055D01*
G01X1486734Y-3251186D01*
G01X1499614Y-3268241D01*
G01X1515408Y-3282640D01*
G01X1533579Y-3293890D01*
G01X1553507Y-3301611D01*
G01X1574515Y-3305538D01*
G01X1595887Y-3305538D01*
G01X1616895Y-3301611D01*
G01X1636824Y-3293890D01*
G01X1654995Y-3282640D01*
G01X1670789Y-3268241D01*
G01X1683668Y-3251186D01*
G01X1693194Y-3232055D01*
G01X1699043Y-3211499D01*
G01X1701015Y-3190218D01*
G01X1701015Y-3190218D01*
G01X1723387Y-3190218D01*
G01X1725359Y-3211499D01*
G01X1731208Y-3232055D01*
G01X1740734Y-3251186D01*
G01X1753614Y-3268241D01*
G01X1769408Y-3282640D01*
G01X1787579Y-3293890D01*
G01X1807507Y-3301611D01*
G01X1828515Y-3305538D01*
G01X1849887Y-3305538D01*
G01X1870895Y-3301611D01*
G01X1890824Y-3293890D01*
G01X1908995Y-3282640D01*
G01X1924789Y-3268241D01*
G01X1937668Y-3251186D01*
G01X1947194Y-3232055D01*
G01X1953043Y-3211499D01*
G01X1955015Y-3190218D01*
G01X1955015Y-3190218D01*
G01X1977387Y-3190218D01*
G01X1979359Y-3211499D01*
G01X1985208Y-3232055D01*
G01X1994734Y-3251186D01*
G01X2007614Y-3268241D01*
G01X2023408Y-3282640D01*
G01X2041579Y-3293890D01*
G01X2061507Y-3301611D01*
G01X2082515Y-3305538D01*
G01X2103887Y-3305538D01*
G01X2124895Y-3301611D01*
G01X2144824Y-3293890D01*
G01X2162995Y-3282640D01*
G01X2178789Y-3268241D01*
G01X2191668Y-3251186D01*
G01X2201194Y-3232055D01*
G01X2207043Y-3211499D01*
G01X2209015Y-3190218D01*
G01X2209015Y-3190218D01*
G01X2231387Y-3190218D01*
G01X2233359Y-3211499D01*
G01X2239208Y-3232055D01*
G01X2248734Y-3251186D01*
G01X2261614Y-3268241D01*
G01X2277408Y-3282640D01*
G01X2295579Y-3293890D01*
G01X2315507Y-3301611D01*
G01X2336515Y-3305538D01*
G01X2357887Y-3305538D01*
G01X2378895Y-3301611D01*
G01X2398824Y-3293890D01*
G01X2416995Y-3282640D01*
G01X2432789Y-3268241D01*
G01X2445668Y-3251186D01*
G01X2455194Y-3232055D01*
G01X2461043Y-3211499D01*
G01X2463015Y-3190218D01*
G01X2463015Y-3190218D01*
G01X2485387Y-3190218D01*
G01X2487359Y-3211499D01*
G01X2493208Y-3232055D01*
G01X2502734Y-3251186D01*
G01X2515614Y-3268241D01*
G01X2531408Y-3282640D01*
G01X2549579Y-3293890D01*
G01X2569507Y-3301611D01*
G01X2590515Y-3305538D01*
G01X2611887Y-3305538D01*
G01X2632895Y-3301611D01*
G01X2652824Y-3293890D01*
G01X2670995Y-3282640D01*
G01X2686789Y-3268241D01*
G01X2699668Y-3251186D01*
G01X2709194Y-3232055D01*
G01X2715043Y-3211499D01*
G01X2717015Y-3190218D01*
G01X2717015Y-3190218D01*
G01X2739387Y-3190218D01*
G01X2741359Y-3211499D01*
G01X2747208Y-3232055D01*
G01X2756734Y-3251186D01*
G01X2769614Y-3268241D01*
G01X2785408Y-3282640D01*
G01X2803579Y-3293890D01*
G01X2823507Y-3301611D01*
G01X2844515Y-3305538D01*
G01X2865887Y-3305538D01*
G01X2886895Y-3301611D01*
G01X2906824Y-3293890D01*
G01X2924995Y-3282640D01*
G01X2940789Y-3268241D01*
G01X2953668Y-3251186D01*
G01X2963194Y-3232055D01*
G01X2969043Y-3211499D01*
G01X2971015Y-3190218D01*
G01X2971015Y-3190218D01*
G01X2993387Y-3190218D01*
G01X2995359Y-3211499D01*
G01X3001208Y-3232055D01*
G01X3010734Y-3251186D01*
G01X3023614Y-3268241D01*
G01X3039408Y-3282640D01*
G01X3057579Y-3293890D01*
G01X3077507Y-3301611D01*
G01X3098515Y-3305538D01*
G01X3119887Y-3305538D01*
G01X3140895Y-3301611D01*
G01X3160824Y-3293890D01*
G01X3178995Y-3282640D01*
G01X3194789Y-3268241D01*
G01X3207668Y-3251186D01*
G01X3217194Y-3232055D01*
G01X3223043Y-3211499D01*
G01X3225015Y-3190218D01*
G01X3225015Y-3190218D01*
G01X3247387Y-3190218D01*
G01X3249359Y-3211499D01*
G01X3255208Y-3232055D01*
G01X3264734Y-3251186D01*
G01X3277614Y-3268241D01*
G01X3293408Y-3282640D01*
G01X3311579Y-3293890D01*
G01X3331507Y-3301611D01*
G01X3352515Y-3305538D01*
G01X3373887Y-3305538D01*
G01X3394895Y-3301611D01*
G01X3414824Y-3293890D01*
G01X3432995Y-3282640D01*
G01X3448789Y-3268241D01*
G01X3461668Y-3251186D01*
G01X3471194Y-3232055D01*
G01X3477043Y-3211499D01*
G01X3479015Y-3190218D01*
G01X3479015Y-3190218D01*
G01X3501387Y-3190218D01*
G01X3503359Y-3211499D01*
G01X3509208Y-3232055D01*
G01X3518734Y-3251186D01*
G01X3531614Y-3268241D01*
G01X3547408Y-3282640D01*
G01X3565579Y-3293890D01*
G01X3585507Y-3301611D01*
G01X3606515Y-3305538D01*
G01X3627887Y-3305538D01*
G01X3648895Y-3301611D01*
G01X3668824Y-3293890D01*
G01X3686995Y-3282640D01*
G01X3702789Y-3268241D01*
G01X3715668Y-3251186D01*
G01X3725194Y-3232055D01*
G01X3731043Y-3211499D01*
G01X3733015Y-3190218D01*
G01X3733015Y-3190218D01*
G01X3755387Y-3190218D01*
G01X3757359Y-3211499D01*
G01X3763208Y-3232055D01*
G01X3772734Y-3251186D01*
G01X3785614Y-3268241D01*
G01X3801408Y-3282640D01*
G01X3819579Y-3293890D01*
G01X3839507Y-3301611D01*
G01X3860515Y-3305538D01*
G01X3881887Y-3305538D01*
G01X3902895Y-3301611D01*
G01X3922824Y-3293890D01*
G01X3940995Y-3282640D01*
G01X3956789Y-3268241D01*
G01X3969668Y-3251186D01*
G01X3979194Y-3232055D01*
G01X3985043Y-3211499D01*
G01X3987015Y-3190218D01*
G01X3987015Y-3190218D01*
G01X4009387Y-3190218D01*
G01X4011359Y-3211499D01*
G01X4017208Y-3232055D01*
G01X4026734Y-3251186D01*
G01X4039614Y-3268241D01*
G01X4055408Y-3282640D01*
G01X4073579Y-3293890D01*
G01X4093507Y-3301611D01*
G01X4114515Y-3305538D01*
G01X4135887Y-3305538D01*
G01X4156895Y-3301611D01*
G01X4176824Y-3293890D01*
G01X4194995Y-3282640D01*
G01X4210789Y-3268241D01*
G01X4223668Y-3251186D01*
G01X4233194Y-3232055D01*
G01X4239043Y-3211499D01*
G01X4241015Y-3190218D01*
G01X4241015Y-3190218D01*
G01X4263387Y-3190218D01*
G01X4265359Y-3211499D01*
G01X4271208Y-3232055D01*
G01X4280734Y-3251186D01*
G01X4293614Y-3268241D01*
G01X4309408Y-3282640D01*
G01X4327579Y-3293890D01*
G01X4347507Y-3301611D01*
G01X4368515Y-3305538D01*
G01X4389887Y-3305538D01*
G01X4410895Y-3301611D01*
G01X4430824Y-3293890D01*
G01X4448995Y-3282640D01*
G01X4464789Y-3268241D01*
G01X4477668Y-3251186D01*
G01X4487194Y-3232055D01*
G01X4493043Y-3211499D01*
G01X4495015Y-3190218D01*
G01X4495015Y-3190218D01*
G01X4517387Y-3190218D01*
G01X4519359Y-3211499D01*
G01X4525208Y-3232055D01*
G01X4534734Y-3251186D01*
G01X4547614Y-3268241D01*
G01X4563408Y-3282640D01*
G01X4581579Y-3293890D01*
G01X4601507Y-3301611D01*
G01X4622515Y-3305538D01*
G01X4643887Y-3305538D01*
G01X4664895Y-3301611D01*
G01X4684824Y-3293890D01*
G01X4702995Y-3282640D01*
G01X4718789Y-3268241D01*
G01X4731668Y-3251186D01*
G01X4741194Y-3232055D01*
G01X4747043Y-3211499D01*
G01X4749015Y-3190218D01*
G01X4747043Y-3168937D01*
G01X4741194Y-3148381D01*
G01X4731668Y-3129250D01*
G01X4718789Y-3112195D01*
G01X4702995Y-3097797D01*
G01X4684824Y-3086546D01*
G01X4664895Y-3078825D01*
G01X4643887Y-3074898D01*
G01X4622515Y-3074898D01*
G01X4601507Y-3078825D01*
G01X4581579Y-3086546D01*
G01X4563408Y-3097797D01*
G01X4547614Y-3112195D01*
G01X4534734Y-3129250D01*
G01X4525208Y-3148381D01*
G01X4519359Y-3168937D01*
G01X4517387Y-3190218D01*
G01X4517387Y-3190218D01*
G01X4495015Y-3190218D01*
G01X4493043Y-3168937D01*
G01X4487194Y-3148381D01*
G01X4477668Y-3129250D01*
G01X4464789Y-3112195D01*
G01X4448995Y-3097797D01*
G01X4430824Y-3086546D01*
G01X4410895Y-3078825D01*
G01X4389887Y-3074898D01*
G01X4368515Y-3074898D01*
G01X4347507Y-3078825D01*
G01X4327579Y-3086546D01*
G01X4309408Y-3097797D01*
G01X4293614Y-3112195D01*
G01X4280734Y-3129250D01*
G01X4271208Y-3148381D01*
G01X4265359Y-3168937D01*
G01X4263387Y-3190218D01*
G01X4263387Y-3190218D01*
G01X4241015Y-3190218D01*
G01X4239043Y-3168937D01*
G01X4233194Y-3148381D01*
G01X4223668Y-3129250D01*
G01X4210789Y-3112195D01*
G01X4194995Y-3097797D01*
G01X4176824Y-3086546D01*
G01X4156895Y-3078825D01*
G01X4135887Y-3074898D01*
G01X4114515Y-3074898D01*
G01X4093507Y-3078825D01*
G01X4073579Y-3086546D01*
G01X4055408Y-3097797D01*
G01X4039614Y-3112195D01*
G01X4026734Y-3129250D01*
G01X4017208Y-3148381D01*
G01X4011359Y-3168937D01*
G01X4009387Y-3190218D01*
G01X4009387Y-3190218D01*
G01X3987015Y-3190218D01*
G01X3985043Y-3168937D01*
G01X3979194Y-3148381D01*
G01X3969668Y-3129250D01*
G01X3956789Y-3112195D01*
G01X3940995Y-3097797D01*
G01X3922824Y-3086546D01*
G01X3902895Y-3078825D01*
G01X3881887Y-3074898D01*
G01X3860515Y-3074898D01*
G01X3839507Y-3078825D01*
G01X3819579Y-3086546D01*
G01X3801408Y-3097797D01*
G01X3785614Y-3112195D01*
G01X3772734Y-3129250D01*
G01X3763208Y-3148381D01*
G01X3757359Y-3168937D01*
G01X3755387Y-3190218D01*
G01X3755387Y-3190218D01*
G01X3733015Y-3190218D01*
G01X3731043Y-3168937D01*
G01X3725194Y-3148381D01*
G01X3715668Y-3129250D01*
G01X3702789Y-3112195D01*
G01X3686995Y-3097797D01*
G01X3668824Y-3086546D01*
G01X3648895Y-3078825D01*
G01X3627887Y-3074898D01*
G01X3606515Y-3074898D01*
G01X3585507Y-3078825D01*
G01X3565579Y-3086546D01*
G01X3547408Y-3097797D01*
G01X3531614Y-3112195D01*
G01X3518734Y-3129250D01*
G01X3509208Y-3148381D01*
G01X3503359Y-3168937D01*
G01X3501387Y-3190218D01*
G01X3501387Y-3190218D01*
G01X3479015Y-3190218D01*
G01X3477043Y-3168937D01*
G01X3471194Y-3148381D01*
G01X3461668Y-3129250D01*
G01X3448789Y-3112195D01*
G01X3432995Y-3097797D01*
G01X3414824Y-3086546D01*
G01X3394895Y-3078825D01*
G01X3373887Y-3074898D01*
G01X3352515Y-3074898D01*
G01X3331507Y-3078825D01*
G01X3311579Y-3086546D01*
G01X3293408Y-3097797D01*
G01X3277614Y-3112195D01*
G01X3264734Y-3129250D01*
G01X3255208Y-3148381D01*
G01X3249359Y-3168937D01*
G01X3247387Y-3190218D01*
G01X3247387Y-3190218D01*
G01X3225015Y-3190218D01*
G01X3223043Y-3168937D01*
G01X3217194Y-3148381D01*
G01X3207668Y-3129250D01*
G01X3194789Y-3112195D01*
G01X3178995Y-3097797D01*
G01X3160824Y-3086546D01*
G01X3140895Y-3078825D01*
G01X3119887Y-3074898D01*
G01X3098515Y-3074898D01*
G01X3077507Y-3078825D01*
G01X3057579Y-3086546D01*
G01X3039408Y-3097797D01*
G01X3023614Y-3112195D01*
G01X3010734Y-3129250D01*
G01X3001208Y-3148381D01*
G01X2995359Y-3168937D01*
G01X2993387Y-3190218D01*
G01X2993387Y-3190218D01*
G01X2971015Y-3190218D01*
G01X2969043Y-3168937D01*
G01X2963194Y-3148381D01*
G01X2953668Y-3129250D01*
G01X2940789Y-3112195D01*
G01X2924995Y-3097797D01*
G01X2906824Y-3086546D01*
G01X2886895Y-3078825D01*
G01X2865887Y-3074898D01*
G01X2844515Y-3074898D01*
G01X2823507Y-3078825D01*
G01X2803579Y-3086546D01*
G01X2785408Y-3097797D01*
G01X2769614Y-3112195D01*
G01X2756734Y-3129250D01*
G01X2747208Y-3148381D01*
G01X2741359Y-3168937D01*
G01X2739387Y-3190218D01*
G01X2739387Y-3190218D01*
G01X2717015Y-3190218D01*
G01X2715043Y-3168937D01*
G01X2709194Y-3148381D01*
G01X2699668Y-3129250D01*
G01X2686789Y-3112195D01*
G01X2670995Y-3097797D01*
G01X2652824Y-3086546D01*
G01X2632895Y-3078825D01*
G01X2611887Y-3074898D01*
G01X2590515Y-3074898D01*
G01X2569507Y-3078825D01*
G01X2549579Y-3086546D01*
G01X2531408Y-3097797D01*
G01X2515614Y-3112195D01*
G01X2502734Y-3129250D01*
G01X2493208Y-3148381D01*
G01X2487359Y-3168937D01*
G01X2485387Y-3190218D01*
G01X2485387Y-3190218D01*
G01X2463015Y-3190218D01*
G01X2461043Y-3168937D01*
G01X2455194Y-3148381D01*
G01X2445668Y-3129250D01*
G01X2432789Y-3112195D01*
G01X2416995Y-3097797D01*
G01X2398824Y-3086546D01*
G01X2378895Y-3078825D01*
G01X2357887Y-3074898D01*
G01X2336515Y-3074898D01*
G01X2315507Y-3078825D01*
G01X2295579Y-3086546D01*
G01X2277408Y-3097797D01*
G01X2261614Y-3112195D01*
G01X2248734Y-3129250D01*
G01X2239208Y-3148381D01*
G01X2233359Y-3168937D01*
G01X2231387Y-3190218D01*
G01X2231387Y-3190218D01*
G01X2209015Y-3190218D01*
G01X2207043Y-3168937D01*
G01X2201194Y-3148381D01*
G01X2191668Y-3129250D01*
G01X2178789Y-3112195D01*
G01X2162995Y-3097797D01*
G01X2144824Y-3086546D01*
G01X2124895Y-3078825D01*
G01X2103887Y-3074898D01*
G01X2082515Y-3074898D01*
G01X2061507Y-3078825D01*
G01X2041579Y-3086546D01*
G01X2023408Y-3097797D01*
G01X2007614Y-3112195D01*
G01X1994734Y-3129250D01*
G01X1985208Y-3148381D01*
G01X1979359Y-3168937D01*
G01X1977387Y-3190218D01*
G01X1977387Y-3190218D01*
G01X1955015Y-3190218D01*
G01X1953043Y-3168937D01*
G01X1947194Y-3148381D01*
G01X1937668Y-3129250D01*
G01X1924789Y-3112195D01*
G01X1908995Y-3097797D01*
G01X1890824Y-3086546D01*
G01X1870895Y-3078825D01*
G01X1849887Y-3074898D01*
G01X1828515Y-3074898D01*
G01X1807507Y-3078825D01*
G01X1787579Y-3086546D01*
G01X1769408Y-3097797D01*
G01X1753614Y-3112195D01*
G01X1740734Y-3129250D01*
G01X1731208Y-3148381D01*
G01X1725359Y-3168937D01*
G01X1723387Y-3190218D01*
G01X1723387Y-3190218D01*
G01X1701015Y-3190218D01*
G01X1699043Y-3168937D01*
G01X1693194Y-3148381D01*
G01X1683668Y-3129250D01*
G01X1670789Y-3112195D01*
G01X1654995Y-3097797D01*
G01X1636824Y-3086546D01*
G01X1616895Y-3078825D01*
G01X1595887Y-3074898D01*
G01X1574515Y-3074898D01*
G01X1553507Y-3078825D01*
G01X1533579Y-3086546D01*
G01X1515408Y-3097797D01*
G01X1499614Y-3112195D01*
G01X1486734Y-3129250D01*
G01X1477208Y-3148381D01*
G01X1471359Y-3168937D01*
G01X1469387Y-3190218D01*
G01X1469387Y-3190218D01*
G01X1447015Y-3190218D01*
G01X1445043Y-3168937D01*
G01X1439194Y-3148381D01*
G01X1429668Y-3129250D01*
G01X1416789Y-3112195D01*
G01X1400995Y-3097797D01*
G01X1382824Y-3086546D01*
G01X1362895Y-3078825D01*
G01X1341887Y-3074898D01*
G01X1320515Y-3074898D01*
G01X1299507Y-3078825D01*
G01X1279579Y-3086546D01*
G01X1261408Y-3097797D01*
G01X1245614Y-3112195D01*
G01X1232734Y-3129250D01*
G01X1223208Y-3148381D01*
G01X1217359Y-3168937D01*
G01X1215387Y-3190218D01*
G01X1215387Y-3190218D01*
G01X1193015Y-3190218D01*
G01X1191043Y-3168937D01*
G01X1185194Y-3148381D01*
G01X1175668Y-3129250D01*
G01X1162789Y-3112195D01*
G01X1146995Y-3097797D01*
G01X1128824Y-3086546D01*
G01X1108895Y-3078825D01*
G01X1087887Y-3074898D01*
G01X1066515Y-3074898D01*
G01X1045507Y-3078825D01*
G01X1025579Y-3086546D01*
G01X1007408Y-3097797D01*
G01X991614Y-3112195D01*
G01X978734Y-3129250D01*
G01X969208Y-3148381D01*
G01X963359Y-3168937D01*
G01X961387Y-3190218D01*
G01X961387Y-3190218D01*
G01X939015Y-3190218D01*
G01X939015Y-3110218D01*
G01X937262Y-3099151D01*
G01X932175Y-3089167D01*
G01X924252Y-3081244D01*
G01X914268Y-3076157D01*
G01X903201Y-3074404D01*
G01X743201Y-3074404D01*
G01X732134Y-3076157D01*
G01X722151Y-3081244D01*
G01X714227Y-3089167D01*
G01X709140Y-3099151D01*
G01X707387Y-3110218D01*
G01X707387Y-3270218D01*
G01X451809Y-3270218D01*
G01X461072Y-3245385D01*
G01X467010Y-3218085D01*
G01X469003Y-3190218D01*
G01X467010Y-3162351D01*
G01X461072Y-3135051D01*
G01X451308Y-3108874D01*
G01X437919Y-3084353D01*
G01X421176Y-3061987D01*
G01X401420Y-3042232D01*
G01X379055Y-3025489D01*
G01X354534Y-3012100D01*
G01X328357Y-3002336D01*
G01X301057Y-2996398D01*
G01X273190Y-2994404D01*
G01X245323Y-2996398D01*
G01X218023Y-3002336D01*
G01X191846Y-3012100D01*
G01X167325Y-3025489D01*
G01X144959Y-3042232D01*
G01X125204Y-3061987D01*
G01X108461Y-3084353D01*
G01X95071Y-3108874D01*
G01X85308Y-3135051D01*
G01X79369Y-3162351D01*
G01X77376Y-3190218D01*
G01X77376Y-3190218D01*
G01X45809Y-3190218D01*
G01X45809Y-2972642D01*
G01X5330588Y-2972642D01*
G01X5311528Y-2981567D01*
G01X5294306Y-2993666D01*
G01X5279445Y-3008569D01*
G01X5267396Y-3025825D01*
G01X5258524Y-3044910D01*
G01X5253100Y-3065246D01*
G01X5251286Y-3086214D01*
G01X5253139Y-3107179D01*
G01X5258603Y-3127504D01*
G01X5267510Y-3146573D01*
G01X5279592Y-3163806D01*
G01X5294481Y-3178681D01*
G01X5311726Y-3190747D01*
G01X5330803Y-3199637D01*
G01X5351133Y-3205081D01*
G01X5372100Y-3206914D01*
G01X5393067Y-3205081D01*
G01X5413397Y-3199637D01*
G01X5432474Y-3190747D01*
G01X5449719Y-3178681D01*
G01X5464608Y-3163806D01*
G01X5476690Y-3146573D01*
G01X5485597Y-3127504D01*
G01X5491061Y-3107179D01*
G01X5492914Y-3086214D01*
G01X5491100Y-3065246D01*
G01X5485676Y-3044910D01*
G01X5476804Y-3025825D01*
G01X5464755Y-3008569D01*
G01X5449894Y-2993666D01*
G01X5432672Y-2981567D01*
G01X5413612Y-2972642D01*
G01X5584588Y-2972642D01*
G01X5565528Y-2981567D01*
G01X5548306Y-2993666D01*
G01X5533445Y-3008569D01*
G01X5521396Y-3025825D01*
G01X5512524Y-3044910D01*
G01X5507100Y-3065246D01*
G01X5505286Y-3086214D01*
G01X5507139Y-3107179D01*
G01X5512603Y-3127504D01*
G01X5521510Y-3146573D01*
G01X5533592Y-3163806D01*
G01X5548481Y-3178681D01*
G01X5565726Y-3190747D01*
G01X5584803Y-3199637D01*
G01X5605133Y-3205081D01*
G01X5626100Y-3206914D01*
G01X5647067Y-3205081D01*
G01X5667397Y-3199637D01*
G01X5686474Y-3190747D01*
G01X5703719Y-3178681D01*
G01X5718608Y-3163806D01*
G01X5730690Y-3146573D01*
G01X5739597Y-3127504D01*
G01X5745061Y-3107179D01*
G01X5746914Y-3086214D01*
G01X5745100Y-3065246D01*
G01X5739676Y-3044910D01*
G01X5730804Y-3025825D01*
G01X5718755Y-3008569D01*
G01X5703894Y-2993666D01*
G01X5686672Y-2981567D01*
G01X5667612Y-2972642D01*
G01X5773357Y-2972642D01*
G01X5765792Y-2980517D01*
G01X5760951Y-2990307D01*
G01X5759286Y-3001100D01*
G01X5759286Y-3171100D01*
G01X5761039Y-3182167D01*
G01X5766126Y-3192151D01*
G01X5774049Y-3200074D01*
G01X5784033Y-3205161D01*
G01X5795100Y-3206914D01*
G01X5965100Y-3206914D01*
G01X5976167Y-3205161D01*
G01X5986151Y-3200074D01*
G01X5994074Y-3192151D01*
G01X5999161Y-3182167D01*
G01X6000914Y-3171100D01*
G01X6000914Y-3001100D01*
G01X5999249Y-2990307D01*
G01X5994408Y-2980517D01*
G01X5986843Y-2972642D01*
G01X6091166Y-2972642D01*
G01X6073108Y-2981727D01*
G01X6057226Y-2994231D01*
G01X6044157Y-3009653D01*
G01X6034428Y-3027373D01*
G01X6028429Y-3046677D01*
G01X6026403Y-3066790D01*
G01X6026403Y-3116790D01*
G01X6028340Y-3136457D01*
G01X6034077Y-3155369D01*
G01X6043393Y-3172799D01*
G01X6055930Y-3188076D01*
G01X6071207Y-3200613D01*
G01X6088637Y-3209929D01*
G01X6107549Y-3215666D01*
G01X6127217Y-3217603D01*
G01X6146884Y-3215666D01*
G01X6165796Y-3209929D01*
G01X6183226Y-3200613D01*
G01X6198503Y-3188076D01*
G01X6211040Y-3172799D01*
G01X6220356Y-3155369D01*
G01X6226093Y-3136457D01*
G01X6228030Y-3116790D01*
G01X6228030Y-3066790D01*
G01X6226004Y-3046677D01*
G01X6220005Y-3027373D01*
G01X6210276Y-3009653D01*
G01X6197208Y-2994231D01*
G01X6181325Y-2981727D01*
G01X6163267Y-2972642D01*
G01X6816133Y-2972642D01*
G01X6798075Y-2981727D01*
G01X6782192Y-2994231D01*
G01X6769124Y-3009653D01*
G01X6759395Y-3027373D01*
G01X6753396Y-3046677D01*
G01X6751370Y-3066790D01*
G01X6751370Y-3116790D01*
G01X6753307Y-3136457D01*
G01X6759044Y-3155369D01*
G01X6768360Y-3172799D01*
G01X6780897Y-3188076D01*
G01X6796174Y-3200613D01*
G01X6813604Y-3209929D01*
G01X6832516Y-3215666D01*
G01X6852183Y-3217603D01*
G01X6871851Y-3215666D01*
G01X6890763Y-3209929D01*
G01X6908193Y-3200613D01*
G01X6920859Y-3190218D01*
G01X7577386Y-3190218D01*
G01X7579380Y-3218085D01*
G01X7585318Y-3245385D01*
G01X7595082Y-3271562D01*
G01X7608471Y-3296083D01*
G01X7625214Y-3318449D01*
G01X7644969Y-3338204D01*
G01X7667335Y-3354947D01*
G01X7691856Y-3368337D01*
G01X7718033Y-3378100D01*
G01X7745333Y-3384039D01*
G01X7773200Y-3386032D01*
G01X7801067Y-3384039D01*
G01X7828367Y-3378100D01*
G01X7854544Y-3368337D01*
G01X7879065Y-3354947D01*
G01X7901431Y-3338204D01*
G01X7921186Y-3318449D01*
G01X7937929Y-3296083D01*
G01X7951318Y-3271562D01*
G01X7961082Y-3245385D01*
G01X7967021Y-3218085D01*
G01X7969014Y-3190218D01*
G01X7967021Y-3162351D01*
G01X7961082Y-3135051D01*
G01X7951318Y-3108874D01*
G01X7937929Y-3084353D01*
G01X7921186Y-3061987D01*
G01X7901431Y-3042232D01*
G01X7879065Y-3025489D01*
G01X7854544Y-3012100D01*
G01X7828367Y-3002336D01*
G01X7801067Y-2996398D01*
G01X7773200Y-2994404D01*
G01X7745333Y-2996398D01*
G01X7718033Y-3002336D01*
G01X7691856Y-3012100D01*
G01X7667335Y-3025489D01*
G01X7644969Y-3042232D01*
G01X7625214Y-3061987D01*
G01X7608471Y-3084353D01*
G01X7595082Y-3108874D01*
G01X7585318Y-3135051D01*
G01X7579380Y-3162351D01*
G01X7577386Y-3190218D01*
G01X7577386Y-3190218D01*
G01X6920859Y-3190218D01*
G01X6923470Y-3188076D01*
G01X6936007Y-3172799D01*
G01X6945323Y-3155369D01*
G01X6951060Y-3136457D01*
G01X6952997Y-3116790D01*
G01X6952997Y-3066790D01*
G01X6950971Y-3046677D01*
G01X6944972Y-3027373D01*
G01X6935243Y-3009653D01*
G01X6922174Y-2994231D01*
G01X6906292Y-2981727D01*
G01X6888234Y-2972642D01*
G01X11711686Y-2972642D01*
G01X11711686Y-6504686D01*
G01X2500187Y-6504686D01*
G01X2521199Y-6490301D01*
G01X2539909Y-6473026D01*
G01X2555922Y-6453226D01*
G01X2568902Y-6431317D01*
G01X2578575Y-6407761D01*
G01X2584737Y-6383052D01*
G01X2587258Y-6357713D01*
G01X2586087Y-6332274D01*
G01X2581246Y-6307274D01*
G01X2572839Y-6283236D01*
G01X2561042Y-6260669D01*
G01X2546103Y-6240046D01*
G01X2528338Y-6221802D01*
G01X2508119Y-6206320D01*
G01X2485873Y-6193928D01*
G01X2462067Y-6184884D01*
G01X2437204Y-6179381D01*
G01X2411806Y-6177534D01*
G01X2386408Y-6179381D01*
G01X2361545Y-6184884D01*
G01X2337740Y-6193928D01*
G01X2315494Y-6206320D01*
G01X2295275Y-6221802D01*
G01X2277509Y-6240046D01*
G01X2262571Y-6260669D01*
G01X2250774Y-6283236D01*
G01X2242366Y-6307274D01*
G01X2237526Y-6332274D01*
G01X2236354Y-6357713D01*
G01X2238876Y-6383052D01*
G01X2245038Y-6407761D01*
G01X2254710Y-6431317D01*
G01X2267690Y-6453226D01*
G01X2283703Y-6473026D01*
G01X2302413Y-6490301D01*
G01X2323426Y-6504686D01*
G37*
G54D10*
G01X2323426Y-6504686D02*
G01X1280261Y-6504686D01*
G03X1191793Y-6177585I-88467J151587D01*
G03X1103326Y-6504686I0J-175514D01*
G01X45809Y-6504686D01*
G01X45809Y-4976814D01*
G01X776400Y-4976814D01*
G03X786814Y-4966400I0J10414D01*
G01X786814Y-3466400D01*
G03X776400Y-3455986I-10414J0D01*
G01X45809Y-3455986D01*
G01X45809Y-2972642D01*
G01X5330588Y-2972642D01*
G03X5372100Y-3206914I41512J-113458D01*
G03X5413612Y-2972642I0J120814D01*
G01X5584588Y-2972642D01*
G03X5626100Y-3206914I41512J-113458D01*
G03X5667612Y-2972642I0J120814D01*
G01X5773357Y-2972642D01*
G03X5759286Y-3001100I21743J-28458D01*
G01X5759286Y-3171100D01*
G03X5795100Y-3206914I35814J0D01*
G01X5965100Y-3206914D01*
G03X6000914Y-3171100I0J35814D01*
G01X6000914Y-3001100D01*
G03X5986843Y-2972642I-35814J0D01*
G01X6091166Y-2972642D01*
G03X6026403Y-3066790I36050J-94148D01*
G01X6026403Y-3116790D01*
G03X6228030Y-3116790I100814J0D01*
G01X6228030Y-3066790D01*
G03X6163267Y-2972642I-100814J0D01*
G01X6816133Y-2972642D01*
G03X6751370Y-3066790I36050J-94148D01*
G01X6751370Y-3116790D01*
G03X6952997Y-3116790I100814J0D01*
G01X6952997Y-3066790D01*
G03X6888234Y-2972642I-100814J0D01*
G01X11711686Y-2972642D01*
G01X11711686Y-6504686D01*
G01X2500187Y-6504686D01*
G03X2411806Y-6177534I-88380J151638D01*
G03X2323426Y-6504686I0J-175514D01*
G01X77376Y-3190218D02*
G03X469003Y-3190218I195814J0D01*
G03X77376Y-3190218I-195814J0D01*
G01X77376Y-6290237D02*
G03X469003Y-6290237I195814J0D01*
G03X77376Y-6290237I-195814J0D01*
G01X903201Y-3306032D02*
G03X939015Y-3270218I0J35814D01*
G01X939015Y-3110218D01*
G03X903201Y-3074404I-35814J0D01*
G01X743201Y-3074404D01*
G03X707387Y-3110218I0J-35814D01*
G01X707387Y-3270218D01*
G03X743201Y-3306032I35814J0D01*
G01X903201Y-3306032D01*
G01X1167308Y-5753100D02*
G03X816280Y-5753100I-175514J0D01*
G03X1167308Y-5753100I175514J0D01*
G01X961387Y-3190218D02*
G03X1193015Y-3190218I115814J0D01*
G03X961387Y-3190218I-115814J0D01*
G01X1191514Y-3810000D02*
G03X967486Y-3810000I-112014J0D01*
G03X1191514Y-3810000I112014J0D01*
G01X1367307Y-5153101D02*
G03X1016279Y-5153101I-175514J0D01*
G03X1367307Y-5153101I175514J0D01*
G01X1243000Y-4282186D02*
G01X1195400Y-4282186D01*
G03X1195400Y-4506214I0J-112014D01*
G01X1243000Y-4506214D01*
G03X1243000Y-4282186I0J112014D01*
G01X1243000Y-4536186D02*
G01X1195400Y-4536186D01*
G03X1195400Y-4760214I0J-112014D01*
G01X1243000Y-4760214D01*
G03X1243000Y-4536186I0J112014D01*
G01X1215387Y-3190218D02*
G03X1447015Y-3190218I115814J0D01*
G03X1215387Y-3190218I-115814J0D01*
G01X1445514Y-3556000D02*
G03X1221486Y-3556000I-112014J0D01*
G03X1445514Y-3556000I112014J0D01*
G01X1469387Y-3190218D02*
G03X1701015Y-3190218I115814J0D01*
G03X1469387Y-3190218I-115814J0D01*
G01X1699514Y-3810000D02*
G03X1475486Y-3810000I-112014J0D01*
G03X1699514Y-3810000I112014J0D01*
G01X1723387Y-3190218D02*
G03X1955015Y-3190218I115814J0D01*
G03X1723387Y-3190218I-115814J0D01*
G01X2005000Y-4282186D02*
G01X1957400Y-4282186D01*
G03X1957400Y-4506214I0J-112014D01*
G01X2005000Y-4506214D01*
G03X2005000Y-4282186I0J112014D01*
G01X2005000Y-4536186D02*
G01X1957400Y-4536186D01*
G03X1957400Y-4760214I0J-112014D01*
G01X2005000Y-4760214D01*
G03X2005000Y-4536186I0J112014D01*
G01X2133704Y-4149067D02*
G03X2164800Y-4167114I31096J17767D01*
G01X2254800Y-4167114D01*
G03X2290614Y-4131300I0J35814D01*
G01X2290614Y-3971300D01*
G03X2254800Y-3935486I-35814J0D01*
G01X2164800Y-3935486D01*
G03X2133704Y-3953533I0J-35814D01*
G03X2019300Y-3966314I-50904J-62767D01*
G03X1874986Y-4016300I-63500J-49986D01*
G01X1874986Y-4086300D01*
G03X2019300Y-4136286I80814J0D01*
G03X2133704Y-4149067I63500J49986D01*
G01X1977387Y-3190218D02*
G03X2209015Y-3190218I115814J0D01*
G03X1977387Y-3190218I-115814J0D01*
G01X2231387Y-3190218D02*
G03X2463015Y-3190218I115814J0D01*
G03X2231387Y-3190218I-115814J0D01*
G01X2587320Y-5153152D02*
G03X2236292Y-5153152I-175514J0D01*
G03X2587320Y-5153152I175514J0D01*
G01X2485387Y-3190218D02*
G03X2717015Y-3190218I115814J0D01*
G03X2485387Y-3190218I-115814J0D01*
G01X2613386Y-3695700D02*
G03X2746014Y-3695700I66314J0D01*
G03X2613386Y-3695700I-66314J0D01*
G01X2747900Y-4058286D02*
G03X2737486Y-4068700I0J-10414D01*
G01X2737486Y-4789920D01*
G03X2747900Y-4800334I10414J0D01*
G01X3469120Y-4800334D01*
G03X3479534Y-4789920I0J10414D01*
G01X3479534Y-4068700D01*
G03X3469120Y-4058286I-10414J0D01*
G01X2747900Y-4058286D01*
G01X2739387Y-3190218D02*
G03X2971015Y-3190218I115814J0D01*
G03X2739387Y-3190218I-115814J0D01*
G01X2993387Y-3190218D02*
G03X3225015Y-3190218I115814J0D01*
G03X2993387Y-3190218I-115814J0D01*
G01X3316115Y-6172200D02*
G03X3024487Y-6172200I-145814J0D01*
G03X3316115Y-6172200I145814J0D01*
G01X3247387Y-3190218D02*
G03X3479015Y-3190218I115814J0D01*
G03X3247387Y-3190218I-115814J0D01*
G01X3501387Y-3190218D02*
G03X3733015Y-3190218I115814J0D01*
G03X3501387Y-3190218I-115814J0D01*
G01X3816114Y-6172200D02*
G03X3524486Y-6172200I-145814J0D01*
G03X3816114Y-6172200I145814J0D01*
G01X3562765Y-4829121D02*
G03X3695393Y-4829121I66314J0D01*
G03X3562765Y-4829121I-66314J0D01*
G01X3755387Y-3190218D02*
G03X3987015Y-3190218I115814J0D01*
G03X3755387Y-3190218I-115814J0D01*
G01X3769086Y-4127500D02*
G03X3901714Y-4127500I66314J0D01*
G03X3769086Y-4127500I-66314J0D01*
G01X3870686Y-3949700D02*
G03X4003314Y-3949700I66314J0D01*
G03X3870686Y-3949700I-66314J0D01*
G01X4009387Y-3190218D02*
G03X4241015Y-3190218I115814J0D01*
G03X4009387Y-3190218I-115814J0D01*
G01X4316113Y-6172200D02*
G03X4024485Y-6172200I-145814J0D01*
G03X4316113Y-6172200I145814J0D01*
G01X4032263Y-4054823D02*
G03X4164891Y-4054823I66314J0D01*
G03X4032263Y-4054823I-66314J0D01*
G01X4263387Y-3190218D02*
G03X4495015Y-3190218I115814J0D01*
G03X4263387Y-3190218I-115814J0D01*
G01X4517387Y-3190218D02*
G03X4749015Y-3190218I115814J0D01*
G03X4517387Y-3190218I-115814J0D01*
G01X4950414Y-6172200D02*
G03X4658787Y-6172200I-145814J0D01*
G03X4950414Y-6172200I145814J0D01*
G01X5450413Y-6172200D02*
G03X5158786Y-6172200I-145814J0D01*
G03X5450413Y-6172200I145814J0D01*
G01X5638800Y-4117614D02*
G03X5681425Y-4000500I0J66314D01*
G03X5638800Y-3883386I-42625J50800D01*
G03X5596175Y-4000500I0J-66314D01*
G03X5638800Y-4117614I42625J-50800D01*
G01X5585186Y-5245100D02*
G03X5717814Y-5245100I66314J0D01*
G03X5585186Y-5245100I-66314J0D01*
G01X5623286Y-5702300D02*
G03X5755914Y-5702300I66314J0D01*
G03X5623286Y-5702300I-66314J0D01*
G01X5699486Y-4813300D02*
G03X5832114Y-4813300I66314J0D01*
G03X5699486Y-4813300I-66314J0D01*
G01X5742589Y-4318000D02*
G03X5994217Y-4318000I125814J0D01*
G03X5742589Y-4318000I-125814J0D01*
G01X6348020Y-3359810D02*
G03X6146392Y-3359810I-100814J0D01*
G03X6348020Y-3359810I100814J0D01*
G01X6449014Y-6172200D02*
G03X6157387Y-6172200I-145814J0D01*
G03X6449014Y-6172200I145814J0D01*
G01X6502583Y-4318000D02*
G03X6754211Y-4318000I125814J0D01*
G03X6502583Y-4318000I-125814J0D01*
G01X6833008Y-3359810D02*
G03X6631380Y-3359810I-100814J0D01*
G03X6833008Y-3359810I100814J0D01*
G01X6949013Y-6172200D02*
G03X6657386Y-6172200I-145814J0D01*
G03X6949013Y-6172200I145814J0D01*
G01X7457704Y-3846589D02*
G03X7457704Y-4078216I0J-115814D01*
G03X7457704Y-3846589I0J115814D01*
G01X7470404Y-5421389D02*
G03X7470404Y-5653016I0J-115814D01*
G03X7470404Y-5421389I0J115814D01*
G01X7577386Y-3190218D02*
G03X7969014Y-3190218I195814J0D01*
G03X7577386Y-3190218I-195814J0D01*
G01X7577386Y-6290237D02*
G03X7969014Y-6290237I195814J0D01*
G03X7577386Y-6290237I-195814J0D01*
G01X7807716Y-3846589D02*
G03X7807716Y-4078216I0J-115814D01*
G03X7807716Y-3846589I0J115814D01*
G01X7820416Y-5421389D02*
G03X7820416Y-5653016I0J-115814D01*
G03X7820416Y-5421389I0J115814D01*
G54D11*
G01X823201Y-3190218D02*
G01X717547Y-3190218D01*
G01X823201Y-3190218D02*
G01X928855Y-3190218D01*
G01X823201Y-3190218D02*
G01X823201Y-3084564D01*
G01X823201Y-3190218D02*
G01X823201Y-3295872D01*
G01X1079500Y-3810000D02*
G01X1181354Y-3810000D01*
G01X1079500Y-3810000D02*
G01X977646Y-3810000D01*
G01X1079500Y-3810000D02*
G01X1079500Y-3911854D01*
G01X1079500Y-3810000D02*
G01X1079500Y-3708146D01*
G01X1839201Y-3190218D02*
G01X1733547Y-3190218D01*
G01X1839201Y-3190218D02*
G01X1944855Y-3190218D01*
G01X1839201Y-3190218D02*
G01X1839201Y-3084564D01*
G01X1839201Y-3190218D02*
G01X1839201Y-3295872D01*
G01X1955800Y-4051300D02*
G01X1885146Y-4051300D01*
G01X1955800Y-4051300D02*
G01X1955800Y-4156954D01*
G01X1955800Y-4051300D02*
G01X1955800Y-3945646D01*
G01X1981200Y-4648200D02*
G01X1981200Y-4546346D01*
G01X1981200Y-4648200D02*
G01X1981200Y-4750054D01*
G01X1981200Y-4648200D02*
G01X2106854Y-4648200D01*
G01X1981200Y-4648200D02*
G01X1855546Y-4648200D01*
G01X3670300Y-6172200D02*
G01X3805954Y-6172200D01*
G01X3670300Y-6172200D02*
G01X3534646Y-6172200D01*
G01X3670300Y-6172200D02*
G01X3670300Y-6307854D01*
G01X3670300Y-6172200D02*
G01X3670300Y-6036546D01*
G01X4633201Y-3190218D02*
G01X4527547Y-3190218D01*
G01X4633201Y-3190218D02*
G01X4738855Y-3190218D01*
G01X4633201Y-3190218D02*
G01X4633201Y-3084564D01*
G01X4633201Y-3190218D02*
G01X4633201Y-3295872D01*
G01X5304600Y-6172200D02*
G01X5440253Y-6172200D01*
G01X5304600Y-6172200D02*
G01X5168946Y-6172200D01*
G01X5304600Y-6172200D02*
G01X5304600Y-6307854D01*
G01X5304600Y-6172200D02*
G01X5304600Y-6036546D01*
G01X5372100Y-3086100D02*
G01X5482754Y-3086100D01*
G01X5372100Y-3086100D02*
G01X5261446Y-3086100D01*
G01X5372100Y-3086100D02*
G01X5372100Y-3196754D01*
G01X6127217Y-3091790D02*
G01X6217870Y-3091790D01*
G01X6127217Y-3091790D02*
G01X6036563Y-3091790D01*
G01X6127217Y-3091790D02*
G01X6127217Y-3207443D01*
G01X6247206Y-3359810D02*
G01X6337860Y-3359810D01*
G01X6247206Y-3359810D02*
G01X6156552Y-3359810D01*
G01X6247206Y-3359810D02*
G01X6247206Y-3450464D01*
G01X6247206Y-3359810D02*
G01X6247206Y-3269157D01*
G01X6303201Y-6172200D02*
G01X6438854Y-6172200D01*
G01X6303201Y-6172200D02*
G01X6167547Y-6172200D01*
G01X6303201Y-6172200D02*
G01X6303201Y-6307854D01*
G01X6303201Y-6172200D02*
G01X6303201Y-6036546D01*
G01X6732194Y-3359810D02*
G01X6822848Y-3359810D01*
G01X6732194Y-3359810D02*
G01X6641540Y-3359810D01*
G01X6732194Y-3359810D02*
G01X6732194Y-3450464D01*
G01X6732194Y-3359810D02*
G01X6732194Y-3269157D01*
G01X6852183Y-3091790D02*
G01X6942837Y-3091790D01*
G01X6852183Y-3091790D02*
G01X6761530Y-3091790D01*
G01X6852183Y-3091790D02*
G01X6852183Y-3207443D01*
G01X7807716Y-3962403D02*
G01X7807716Y-3856749D01*
G01X7807716Y-3962403D02*
G01X7807716Y-4068056D01*
G01X7807716Y-3962403D02*
G01X7913370Y-3962403D01*
G01X7807716Y-3962403D02*
G01X7702062Y-3962403D01*
G01X7820416Y-5537203D02*
G01X7820416Y-5431549D01*
G01X7820416Y-5537203D02*
G01X7820416Y-5642856D01*
G01X7820416Y-5537203D02*
G01X7926070Y-5537203D01*
G01X7820416Y-5537203D02*
G01X7714762Y-5537203D01*
G01X6628397Y-4318000D02*
G01X6512743Y-4318000D01*
G01X6628397Y-4318000D02*
G01X6744051Y-4318000D01*
G01X6628397Y-4318000D02*
G01X6628397Y-4202346D01*
G01X6628397Y-4318000D02*
G01X6628397Y-4433654D01*
G04 Copper End*

G04 Pad Start*
G54D12*
G01X6628397Y-4318000D03*
G01X5868403Y-4318000D03*
G54D13*
G01X7470404Y-5537203D03*
G01X7820416Y-5537203D03*
G01X7457704Y-3962403D03*
G01X7807716Y-3962403D03*
G54D14*
G01X5880100Y-3086100D03*
G54D16*
G01X5626100Y-3086100D03*
G01X5372100Y-3086100D03*
G54D17*
G01X1079500Y-3810000D03*
G01X1333500Y-3556000D03*
G01X1587500Y-3810000D03*
G54D18*
G01X1955800Y-4051300D03*
G01X2082800Y-4051300D03*
G54D19*
G01X2209800Y-4051300D03*
G54D20*
G01X2411806Y-5153152D03*
G01X991794Y-5753100D03*
G01X1191793Y-6353099D03*
G01X1191793Y-5153101D03*
G01X2411806Y-6353048D03*
G54D13*
G01X4633201Y-3190218D03*
G01X4379201Y-3190218D03*
G01X4125201Y-3190218D03*
G01X3871201Y-3190218D03*
G01X3617201Y-3190218D03*
G01X3363201Y-3190218D03*
G01X3109201Y-3190218D03*
G01X2855201Y-3190218D03*
G01X2601201Y-3190218D03*
G01X2347201Y-3190218D03*
G01X2093201Y-3190218D03*
G01X1839201Y-3190218D03*
G01X1585201Y-3190218D03*
G01X1331201Y-3190218D03*
G01X1077201Y-3190218D03*
G54D21*
G01X823201Y-3190218D03*
G54D22*
G01X273190Y-3190218D03*
G01X273190Y-6290237D03*
G01X7773200Y-3190218D03*
G01X7773200Y-6290237D03*
G54D23*
G01X1981200Y-4394200D03*
G01X1981200Y-4648200D03*
G01X1219200Y-4394200D03*
G01X1219200Y-4648200D03*
G54D24*
G01X6803200Y-6172200D03*
G01X6303201Y-6172200D03*
G01X4170299Y-6172200D03*
G01X3670300Y-6172200D03*
G01X3170301Y-6172200D03*
G01X5304600Y-6172200D03*
G01X4804601Y-6172200D03*
G01X406400Y-4716399D03*
G01X406400Y-4216400D03*
G01X406400Y-3716401D03*
G54D25*
G01X6247206Y-3359810D03*
G01X6732194Y-3359810D03*
G54D26*
G01X6852183Y-3091790D03*
G01X6127217Y-3091790D03*
G04 Pad End*

G04 Via Start*
G54D27*
G01X3629079Y-4829121D03*
G01X3835400Y-4127500D03*
G01X3937000Y-3949700D03*
G01X4098577Y-4054823D03*
G01X5638800Y-3949700D03*
G01X5638800Y-4051300D03*
G01X2997200Y-4368800D03*
G01X3098800Y-4445000D03*
G01X3124200Y-4572000D03*
G01X3301581Y-4610519D03*
G01X5689600Y-5702300D03*
G01X5651500Y-5245100D03*
G01X5765800Y-4813300D03*
G01X3213100Y-4267200D03*
G01X2679700Y-3695700D03*
G01X7632700Y-4521200D03*
G01X7733308Y-4521200D03*
G01X7833952Y-4521200D03*
G01X7934596Y-4521200D03*
G01X8035239Y-4521200D03*
G01X8135883Y-4521200D03*
G01X7632700Y-4610100D03*
G01X7733308Y-4610100D03*
G01X7833952Y-4610100D03*
G01X7934596Y-4610100D03*
G01X8035239Y-4610100D03*
G01X8135883Y-4610100D03*
G01X7634502Y-4705144D03*
G01X7735109Y-4705144D03*
G01X7835753Y-4705144D03*
G01X7936397Y-4705144D03*
G01X8037041Y-4705144D03*
G01X8137685Y-4705144D03*
G01X7632700Y-4787900D03*
G01X7733308Y-4787900D03*
G01X7833952Y-4787900D03*
G01X7934596Y-4787900D03*
G01X8035239Y-4787900D03*
G01X8135883Y-4787900D03*
G01X7632700Y-4889500D03*
G01X7733308Y-4889500D03*
G01X7833952Y-4889500D03*
G01X7934596Y-4889500D03*
G01X8035239Y-4889500D03*
G01X8135883Y-4889500D03*
G01X7632700Y-4978400D03*
G01X7733308Y-4978400D03*
G01X7833952Y-4978400D03*
G01X7934596Y-4978400D03*
G01X8035239Y-4978400D03*
G01X8135883Y-4978400D03*
G04 Via End*

M02*

